<svg width="39" height="39" viewBox="0 0 39 39" fill="none" xmlns="http://www.w3.org/2000/svg">
<path d="M21.4399 13.8657H17.2868C16.124 13.8657 15.2103 14.7794 15.2103 15.9423C15.2103 17.1051 16.124 18.0188 17.2868 18.0188H19.2803C20.4432 18.0188 21.3568 18.9325 21.3568 20.0953C21.3568 21.2582 20.4432 22.1718 19.2803 22.1718H14.9611" stroke="white" stroke-width="2" stroke-miterlimit="10"/>
<path d="M18.2836 11.7062V13.8658" stroke="white" stroke-width="2" stroke-miterlimit="10"/>
<path d="M18.2836 22.1719V24.1653" stroke="white" stroke-width="2" stroke-miterlimit="10"/>
<path d="M18.1174 27.9031C23.6222 27.9031 28.0848 23.4405 28.0848 17.9357C28.0848 12.4309 23.6222 7.96838 18.1174 7.96838C12.6126 7.96838 8.15009 12.4309 8.15009 17.9357C8.15009 23.4405 12.6126 27.9031 18.1174 27.9031Z" stroke="white" stroke-width="2" stroke-miterlimit="10"/>
<path d="M10.5589 17.9358H12.8846" stroke="white" stroke-width="2" stroke-miterlimit="10"/>
<path d="M23.4333 17.9358H25.7591" stroke="white" stroke-width="2" stroke-miterlimit="10"/>
<path d="M30.6774 28.156L28.3869 30.4465L34.8475 36.9071L37.138 34.6165L30.6774 28.156Z" stroke="white" stroke-width="2" stroke-miterlimit="10"/>
<path d="M27.3372 27.1556L29.0815 28.8999" stroke="white" stroke-width="2" stroke-miterlimit="10"/>
<path d="M18.1174 31.4748C25.5948 31.4748 31.6564 25.4132 31.6564 17.9358C31.6564 10.4585 25.5948 4.39685 18.1174 4.39685C10.6401 4.39685 4.57846 10.4585 4.57846 17.9358C4.57846 25.4132 10.6401 31.4748 18.1174 31.4748Z" stroke="white" stroke-width="2" stroke-miterlimit="10"/>
<path d="M23.6825 33.7174C21.606 34.465 19.4464 34.7972 17.1207 34.6311C14.795 34.465 12.6354 33.8835 10.725 32.8868C8.81457 31.8901 7.07028 30.5611 5.65824 28.9829C4.2462 27.4048 3.1664 25.4944 2.41885 23.5009C1.6713 21.4244 1.33906 19.2648 1.50518 16.939C1.6713 14.6133 2.25273 12.4537 3.24947 10.5433C4.2462 8.63293 5.57518 6.88864 7.15334 5.4766C8.73151 4.06456 10.6419 2.98476 12.6354 2.23721C14.7119 1.48966 16.8715 1.15742 19.1972 1.32354C21.5229 1.48966 23.6825 2.07109 25.5929 3.06782C27.5033 4.06456 29.2476 5.39354 30.6597 6.9717C32.0717 8.54987 33.1515 10.4603 33.8991 12.4537C34.6466 14.5303 34.9789 16.6899 34.8127 19.0156C34.6466 21.3413 34.0652 23.5009 33.0684 25.4113" stroke="white" stroke-width="2" stroke-miterlimit="10" stroke-dasharray="1.99 1.99"/>
</svg>
