<svg width="371" height="84" viewBox="0 0 371 84" fill="none" xmlns="http://www.w3.org/2000/svg">
<path fill-rule="evenodd" clip-rule="evenodd" d="M38.1096 83.8598L38.6692 84L39.2288 83.8598C67.0671 73.202 82.0355 40.1069 76.0201 12.9015C75.4606 10.3773 75.0408 9.9566 70.5644 8.69449C68.4057 8.06623 65.207 7.19472 61.814 6.27025C58.3908 5.33756 54.7697 4.35096 51.8189 3.50585C48.4901 2.6522 45.9753 1.9274 43.9899 1.35519C42.3877 0.89339 41.1302 0.530986 40.0681 0.280467C39.9513 0.251199 39.8407 0.221931 39.7348 0.193938C39.3334 0.0878061 39.0013 0 38.6692 0C38.3371 0 38.0051 0.0878061 37.6036 0.193938C37.4978 0.221931 37.387 0.251199 37.2702 0.280467C36.2081 0.530986 34.9508 0.89339 33.3485 1.35519C31.363 1.9274 28.8482 2.6522 25.5194 3.50585C22.5687 4.35096 18.9477 5.33757 15.5244 6.27026C12.1313 7.19473 8.93272 8.06623 6.77399 8.69449C2.29748 9.9566 1.8778 10.3773 1.31824 12.9015C-4.69708 40.1069 10.2713 73.202 38.1096 83.8598ZM12.0899 27.3456C12.0899 24.2604 12.3696 21.1753 12.7893 18.2304L13.209 18.0901C15.1675 17.5292 18.2451 16.6878 20.3434 16.2671C20.9729 16.0568 21.5326 15.9165 22.0221 15.7938C22.5117 15.6712 22.9315 15.566 23.2812 15.4258C23.4677 15.3789 23.6542 15.3478 23.8407 15.3167C24.2137 15.2543 24.5869 15.192 24.9599 15.005C28.4571 14.3039 33.4932 13.0417 36.0113 12.3406C37.4101 12.06 38.1096 11.9198 38.8091 11.9198C39.5086 11.9198 40.208 12.06 41.467 12.3406C44.125 13.0417 49.1611 14.3039 52.5185 15.005C52.8915 15.192 53.2645 15.2543 53.6375 15.3167C53.824 15.3478 54.0106 15.3789 54.1971 15.4258C54.5468 15.566 54.9665 15.6712 55.4562 15.7938C55.9458 15.9165 56.5053 16.0568 57.1349 16.2671C58.9596 16.61 61.2493 17.2327 63.17 17.7549C63.6052 17.8733 64.0215 17.9865 64.4092 18.0901L64.6889 18.2304C65.1086 21.1753 65.3885 24.2604 65.3885 27.3456C65.3885 30.7112 65.1086 33.9366 64.5491 37.0217C65.0184 37.8281 65.4555 38.6345 65.8759 39.4101C66.3328 40.2529 66.7699 41.0593 67.207 41.7897C68.3261 37.1619 68.8857 32.2538 68.8857 27.2054C68.8857 23.1385 68.466 19.212 67.7666 15.4258C66.5953 15.1909 64.6638 14.6857 62.4856 14.1159C59.4609 13.3248 55.9601 12.409 53.3577 11.9198C53.1839 11.8618 52.9621 11.8037 52.7022 11.7356C52.3346 11.6394 51.891 11.5232 51.3993 11.3589C48.7413 10.798 44.125 9.81636 41.7468 9.25542C40.3479 8.83473 39.6485 8.69449 38.8091 8.69449C37.8299 8.69449 37.2702 8.83473 35.7314 9.25542C33.3533 9.81636 28.8768 10.798 26.2189 11.3589C25.5777 11.5732 25.018 11.7056 24.5402 11.8187C24.3925 11.8536 24.2526 11.8868 24.1205 11.9198C21.6249 12.3889 18.3468 13.2503 15.4252 14.0179C13.106 14.6272 11.0117 15.1775 9.71171 15.4258C9.01225 19.212 8.73247 23.1385 8.73247 27.2054C8.73247 31.8331 9.15215 36.3205 10.1314 40.6678C10.2347 40.4779 10.3401 40.2838 10.4472 40.0867C11.2097 38.6828 12.0533 37.1296 12.7893 35.8998C12.3696 33.0951 12.0899 30.2905 12.0899 27.3456ZM20.833 27.2054C20.6232 27.1002 20.4134 26.995 20.2036 26.9249C20.2036 26.7847 20.2385 26.6794 20.2735 26.5742C20.3085 26.4691 20.3434 26.3639 20.3434 26.2237C20.3434 25.1019 19.504 24.2604 18.385 24.2604C17.4057 24.2604 16.5664 25.1019 16.5664 26.2237C16.5664 26.9249 16.9861 27.626 17.6855 27.9065L10.4112 45.015H9.15215C10.9707 48.1002 14.3281 50.0634 18.2451 50.0634C22.3019 50.0634 25.6593 48.1002 27.4779 45.015H26.2189L18.9445 28.0467L19.0844 27.9065C19.2243 27.9065 19.2243 28.0467 19.2243 28.0467C19.2837 28.0914 19.3462 28.1392 19.4116 28.1892C19.962 28.61 20.7123 29.1835 21.4626 29.3088C22.2218 29.4176 23.0651 29.1891 24.1881 28.8849C24.5134 28.7968 24.8625 28.7022 25.2396 28.6077C26.9183 28.1869 29.2964 27.626 31.1151 27.4858C32.8346 27.3532 33.9288 27.7221 34.7524 27.9998C34.7998 28.0158 34.8464 28.0315 34.8921 28.0467C35.7314 28.4675 36.2911 28.8882 36.5708 29.3088C36.7107 29.3789 36.8156 29.4841 36.9031 29.5718C36.9905 29.6594 37.0604 29.7295 37.1304 29.7295V31.9733H33.0736V33.0951H44.4048V31.9733H40.0681V29.4491L40.208 29.3088C40.6276 28.8882 41.0474 28.4675 41.8867 28.0467C42.7261 27.7663 43.985 27.3456 45.8037 27.4858C47.4159 27.6205 49.6734 28.1432 51.4607 28.5571C51.5343 28.5742 51.6071 28.591 51.6791 28.6077C52.1146 28.7168 52.5031 28.826 52.8567 28.9253C53.8659 29.2089 54.5911 29.4127 55.3162 29.3088C56.1231 29.1932 56.74 28.6969 57.2453 28.2904C57.3532 28.2035 57.456 28.1207 57.5545 28.0467L57.6944 27.9065C57.6944 27.9065 57.8343 27.9065 57.8343 28.0467L50.5599 45.015H49.301C51.1195 48.1002 54.6168 50.0634 58.5337 50.0634C62.4507 50.0634 65.948 48.1002 67.7666 45.015H66.5075L59.0933 27.9065C59.7927 27.626 60.2124 26.9249 60.2124 26.2237C60.2124 25.1019 59.3731 24.2604 58.3938 24.2604C57.4146 24.2604 56.5752 25.1019 56.5752 26.2237C56.5752 26.5041 56.5752 26.6444 56.7151 26.9249C56.5451 26.9817 56.3751 27.0616 56.1958 27.1457C55.9324 27.2693 55.6491 27.4024 55.3162 27.4858C54.787 27.6184 54.2578 27.5001 53.1367 27.2497C53.0725 27.2353 53.0062 27.2205 52.9381 27.2054C52.7037 27.1271 52.4451 27.039 52.1686 26.9448C50.9596 26.5334 49.4081 26.0052 48.0419 25.6628C46.3632 25.2421 44.8244 25.1019 43.4255 25.1019C42.0265 25.2421 40.7675 25.5226 40.208 25.803H40.0681V24.6811H39.9282C40.3479 24.1202 40.4877 23.419 40.4877 22.5776C40.3479 21.8765 40.0681 20.8949 39.7883 19.9134V19.9132C39.6811 19.6982 39.5739 19.4742 39.469 19.2549C39.1633 18.6161 38.8775 18.0186 38.6692 17.8097C38.6692 17.6695 38.5293 17.5292 38.5293 17.5292C38.4429 17.5292 38.4098 17.5828 38.3642 17.6568C38.3359 17.7026 38.303 17.7561 38.2495 17.8097C37.9698 18.0901 37.55 19.0718 37.2702 19.9132C36.8506 20.8948 36.5708 21.8765 36.5708 22.5776C36.5708 23.419 36.7107 24.1202 37.1304 24.6811V25.9432C37.0604 25.9432 36.9905 25.9082 36.9205 25.8731C36.8506 25.8381 36.7807 25.803 36.7107 25.803C36.0113 25.5226 34.7523 25.2421 33.3533 25.1019C31.9544 25.1019 30.5555 25.2421 28.7369 25.6628C27.3707 26.0052 25.8191 26.5334 24.6102 26.9448C24.3337 27.039 24.0751 27.1271 23.8407 27.2054C22.7215 27.4858 22.0221 27.626 21.4626 27.4858C21.2528 27.4157 21.0429 27.3105 20.833 27.2054ZM65.5283 45.015L58.5337 28.0467L51.5392 45.015H65.5283ZM40.0681 59.0384V58.3372H44.4048V57.2153H40.0681H37.1304H33.0736V58.3372H37.1304V59.0384H33.0736V60.1602H44.4048V59.0384H40.0681ZM39.9282 54.9716H43.985V53.8497C43.4255 53.429 43.1457 53.0084 43.1457 52.3071V38.2838C43.1457 37.0217 43.2856 36.3205 43.8451 36.1803V35.0585H40.0681L38.8091 45.2955L38.6692 45.1553L37.69 35.0585H33.2134V36.1803C33.773 36.3205 34.0527 37.0217 34.0527 38.4241V52.1669C34.0527 53.0084 33.773 53.5693 33.3533 53.8497V54.9716H36.7107V53.8497C36.1512 53.7095 35.8713 53.1486 35.8713 52.1669L36.0113 41.6494H36.1512L37.69 54.9716H39.0888L40.4877 41.6494H40.7675V52.3071C40.7675 52.5876 40.6276 53.0083 40.4877 53.4289V53.429C40.208 53.7095 40.0681 53.8497 39.9282 53.8497V54.9716ZM18.2451 28.0467H18.385L25.3795 45.015H11.3904L18.2451 28.0467ZM38.9489 75.586C50.0004 72.6411 59.2332 63.2454 64.4092 50.4841C63.0102 51.1853 61.6113 51.606 59.7927 51.8865C55.0364 61.4224 47.6223 68.5742 38.8091 71.6594C29.996 68.5742 22.5817 61.4224 17.8254 52.0267C16.0068 51.8865 14.6079 51.4658 13.209 50.9048C18.5249 63.5258 27.7576 72.7813 38.6692 75.586H38.8091H38.9489ZM38.1096 82.3172L38.6692 82.5977L39.2288 82.3172C66.0879 72.0802 80.4967 40.2471 74.7611 13.8832C74.2016 11.4992 73.7819 11.0785 69.4452 9.81636C66.5518 8.9462 61.73 7.67609 57.1345 6.4656C55.0646 5.92036 53.0405 5.38722 51.2594 4.90818C45.6637 3.36561 42.3063 2.38398 40.0681 1.6828C40.0043 1.66682 39.9423 1.65084 39.882 1.63526C39.4128 1.51424 39.0411 1.41832 38.6692 1.54258C38.2974 1.41832 37.9255 1.51424 37.4564 1.63526C37.396 1.65084 37.334 1.66682 37.2702 1.6828C35.032 2.38398 31.6746 3.36561 25.939 4.90818C23.8097 5.4952 21.2954 6.16346 18.7661 6.83567C14.6491 7.92988 10.4928 9.03455 7.89312 9.81636C3.5565 11.0785 3.13682 11.4992 2.57726 13.8832C-3.15829 40.2471 11.2505 72.0802 38.1096 82.3172ZM38.1096 80.354L38.6692 80.4942L39.2288 80.354C64.6889 70.5376 78.3983 40.2471 72.9425 15.2854C72.383 13.0417 71.9633 12.6211 67.9064 11.4992C65.4538 10.7361 61.6716 9.71678 57.8584 8.68907C55.3644 8.01692 52.8572 7.34117 50.6999 6.73122C49.3239 6.34219 48.0992 5.99775 47.0011 5.68892C43.7451 4.77317 41.602 4.17041 39.9282 3.64608C39.7184 3.64608 39.5086 3.61101 39.2987 3.57596C39.0888 3.5409 38.879 3.50585 38.6692 3.50585C38.4593 3.50585 38.2495 3.5409 38.0397 3.57596C37.8299 3.61101 37.6201 3.64608 37.4101 3.64608C35.7364 4.17041 33.5932 4.77317 30.3372 5.68892C29.2392 5.99776 28.0145 6.34219 26.6386 6.73122C24.4813 7.34117 21.9739 8.01692 19.4799 8.68907C15.6668 9.71678 11.8846 10.7361 9.43193 11.4992C5.23519 12.6211 4.95541 13.0417 4.39585 15.2854C-1.05991 40.2471 12.6494 70.5376 38.1096 80.354ZM116.112 31.8202C116.112 31.6891 116.089 31.6234 116.047 31.6234C115.372 31.6234 114.878 31.5674 114.563 31.4586C114.248 31.3486 114.03 31.1391 113.91 30.8315C113.792 30.5237 113.71 30.0289 113.666 29.3468L112.885 14.3735C112.84 13.4938 113.046 12.8455 113.504 12.4279C113.96 12.0091 114.7 11.8008 115.721 11.8008C115.786 11.8008 115.819 11.7352 115.819 11.6031C115.819 11.4709 115.786 11.4053 115.721 11.4053C115.156 11.4053 114.72 11.4159 114.416 11.4381L112.493 11.4709C112.166 11.4709 111.879 11.4603 111.629 11.4381C111.378 11.4159 111.155 11.4053 110.96 11.4053C110.72 11.4053 110.531 11.4656 110.389 11.5862C110.248 11.7077 110.112 11.9214 109.982 12.2291L103.786 26.6091L96.6782 13.1195C96.2643 12.3729 95.9821 11.9002 95.8304 11.7014C95.6777 11.5048 95.4614 11.4053 95.1781 11.4053C94.8739 11.4053 94.624 11.4159 94.4286 11.4381L92.7004 11.4709C92.2216 11.4709 91.8307 11.4603 91.5265 11.4381L89.9938 11.4053C89.928 11.4053 89.8955 11.4709 89.8955 11.6031C89.8955 11.7352 89.928 11.8008 89.9938 11.8008C90.6023 11.8008 91.1397 11.9879 91.608 12.3612C92.0752 12.7355 92.5258 13.3288 92.9607 14.143L92.9931 14.1758L92.7004 27.8294C92.6785 28.9947 92.4067 29.9189 91.885 30.601C91.3634 31.2819 90.6567 31.6234 89.7649 31.6234C89.7 31.6234 89.6677 31.6891 89.6677 31.8202C89.6677 31.9534 89.7 32.019 89.7649 32.019C90.3524 32.019 90.8198 32.0084 91.1678 31.9862L93.2221 31.9534L95.015 31.9862C95.3412 32.0084 95.798 32.019 96.3844 32.019C96.4493 32.019 96.4827 31.9534 96.4827 31.8202C96.4827 31.6891 96.4493 31.6234 96.3844 31.6234C95.4938 31.6234 94.8028 31.2872 94.3146 30.6168C93.8253 29.9463 93.5912 29.0168 93.613 27.8294L93.8734 15.9237L102.124 31.7874C102.167 31.8762 102.253 31.9196 102.384 31.9196C102.515 31.9196 102.602 31.8762 102.645 31.7874L109.362 15.8582L110.047 29.3468L110.079 29.9084C110.079 30.6115 109.916 31.0736 109.59 31.2925C109.264 31.5124 108.645 31.6234 107.731 31.6234C107.667 31.6234 107.634 31.6891 107.634 31.8202C107.634 31.9534 107.667 32.019 107.731 32.019C108.449 32.019 109.014 32.0084 109.427 31.9862L111.872 31.9534L114.286 31.9862C114.72 32.0084 115.308 32.019 116.047 32.019C116.089 32.019 116.112 31.9534 116.112 31.8202ZM140.829 31.8202C140.829 31.6891 140.796 31.6234 140.73 31.6234C139.991 31.6234 139.448 31.5674 139.1 31.4586C138.752 31.3486 138.513 31.1339 138.382 30.8146C138.253 30.4963 138.187 30.0067 138.187 29.3468V11.306C138.187 11.2403 138.122 11.1854 137.991 11.141C137.861 11.0976 137.719 11.0754 137.567 11.0754C137.306 11.0754 137.143 11.1082 137.078 11.1748L124.036 27.6983V14.0764C124.036 13.4166 124.1 12.9333 124.231 12.6256C124.361 12.3179 124.612 12.1033 124.981 11.9816C125.35 11.861 125.937 11.8008 126.741 11.8008C126.807 11.8008 126.839 11.7352 126.839 11.6031C126.839 11.4709 126.807 11.4053 126.741 11.4053L125.144 11.4381C124.056 11.4825 123.079 11.5048 122.209 11.5048C121.622 11.5048 120.786 11.4825 119.698 11.4381L117.872 11.4053C117.808 11.4053 117.775 11.4709 117.775 11.6031C117.775 11.7352 117.808 11.8008 117.872 11.8008C118.612 11.8008 119.155 11.861 119.502 11.9816C119.851 12.1033 120.09 12.3179 120.22 12.6256C120.351 12.9333 120.416 13.4166 120.416 14.0764V32.2495C120.416 32.4038 120.622 32.48 121.036 32.48C121.296 32.48 121.459 32.4472 121.524 32.3817L134.568 15.8582V29.3468C134.568 30.0289 134.503 30.5237 134.371 30.8315C134.241 31.1391 133.992 31.3486 133.623 31.4586C133.252 31.5674 132.664 31.6234 131.861 31.6234C131.796 31.6234 131.763 31.6891 131.763 31.8202C131.763 31.9534 131.796 32.019 131.861 32.019C132.536 32.019 133.067 32.0084 133.459 31.9862L136.392 31.9534L138.904 31.9862C139.36 32.0084 139.969 32.019 140.73 32.019C140.796 32.019 140.829 31.9534 140.829 31.8202ZM162.738 32.0189C162.125 32.0186 161.646 32.008 161.305 31.9862L159.348 31.9534L156.675 31.9862C156.262 32.0084 155.685 32.019 154.947 32.019C154.881 32.019 154.848 31.9534 154.848 31.8202C154.848 31.6891 154.881 31.6234 154.947 31.6234C155.664 31.6234 156.023 31.4363 156.023 31.062C156.023 30.8643 155.925 30.622 155.729 30.3365L151.263 23.3448L148.458 27.4011C147.61 28.6108 147.186 29.5889 147.186 30.3365C147.186 31.1941 147.751 31.6234 148.881 31.6234C148.925 31.6234 148.947 31.6891 148.947 31.8202C148.947 31.9534 148.925 32.019 148.881 32.019C148.165 32.019 147.621 32.0084 147.251 31.9862L144.839 31.9534L143.306 31.9862C143.023 32.0084 142.567 32.019 141.936 32.019C141.872 32.019 141.839 31.9534 141.839 31.8202C141.839 31.6891 141.872 31.6234 141.936 31.6234C142.611 31.6234 143.437 31.2598 144.414 30.5343C145.393 29.8089 146.414 28.6987 147.48 27.2033L150.805 22.6522L145.588 14.4392C145.002 13.4938 144.437 12.8181 143.893 12.4109C143.349 12.0038 142.773 11.8008 142.165 11.8008C142.1 11.8008 142.067 11.7352 142.067 11.6031C142.067 11.4709 142.1 11.4053 142.165 11.4053L143.567 11.4381C144.176 11.4825 144.632 11.5048 144.935 11.5048C145.697 11.5048 146.643 11.4825 147.773 11.4381L149.632 11.4053C149.676 11.4053 149.697 11.4709 149.697 11.6031C149.697 11.7352 149.676 11.8008 149.632 11.8008C148.893 11.8008 148.523 11.9879 148.523 12.3612C148.523 12.5367 148.621 12.7905 148.816 13.1195L153.12 19.8152L155.729 16.0559C156.577 14.824 157.001 13.8354 157.001 13.0866C157.001 12.2291 156.436 11.8008 155.306 11.8008C155.263 11.8008 155.241 11.7352 155.241 11.6031C155.241 11.4709 155.263 11.4053 155.306 11.4053L156.936 11.4381C157.806 11.4825 158.609 11.5048 159.348 11.5048C159.805 11.5048 160.316 11.4825 160.881 11.4381L162.251 11.4053C162.315 11.4053 162.348 11.4709 162.348 11.6031C162.348 11.7352 162.315 11.8008 162.251 11.8008C161.555 11.8008 160.724 12.1688 159.756 12.9059C158.789 13.6418 157.761 14.7585 156.675 16.2537L153.577 20.5405L159.152 29.2813C159.696 30.0944 160.251 30.6887 160.816 31.062C161.377 31.4336 162.023 31.6207 162.757 31.6234C163.358 31.6212 163.862 31.4943 164.272 31.2439C164.686 30.9912 165.098 30.5406 165.512 29.8913C165.924 29.2421 166.414 28.2809 166.978 27.0057L174.055 11.2731C174.098 11.2076 174.196 11.1748 174.348 11.1748C174.521 11.1748 174.619 11.2076 174.641 11.2731L182.792 27.5006C183.553 29.0613 184.184 30.1389 184.685 30.732C185.184 31.3263 185.706 31.6234 186.25 31.6234C186.359 31.6234 186.412 31.6891 186.412 31.8202C186.412 31.9534 186.359 32.019 186.25 32.019C185.815 32.019 185.14 31.9967 184.228 31.9534C183.272 31.909 182.587 31.8867 182.173 31.8867C181.63 31.8867 180.967 31.909 180.184 31.9534C179.445 31.9967 178.859 32.019 178.424 32.019C178.337 32.019 178.293 31.9534 178.293 31.8202C178.293 31.6891 178.337 31.6234 178.424 31.6234C178.989 31.6234 179.396 31.5622 179.647 31.4416C179.897 31.321 180.021 31.1064 180.021 30.7987C180.021 30.4244 179.805 29.7984 179.369 28.9185L175.978 22.1573H170.175L167.86 27.3356C167.577 27.9732 167.435 28.5664 167.435 29.1163C167.435 29.9084 167.712 30.5237 168.266 30.9626C168.821 31.4036 169.566 31.6234 170.501 31.6234C170.61 31.6234 170.663 31.6891 170.663 31.8202C170.663 31.9534 170.61 32.019 170.501 32.019C170.11 32.019 169.544 31.9967 168.805 31.9534C167.979 31.909 167.262 31.8867 166.652 31.8867C166.066 31.8867 165.36 31.909 164.533 31.9534C163.813 31.9956 163.227 32.0178 162.776 32.0189L162.773 32.019H162.751H162.74L162.738 32.0189ZM175.521 21.2331H170.597L172.913 16.022L175.521 21.2331ZM196.944 9.55798C197.684 9.84454 198.466 9.9873 199.292 9.9873C200.14 9.9873 200.934 9.84983 201.673 9.5749C202.411 9.29996 203.009 8.92669 203.466 8.45296C203.922 7.98029 204.151 7.46955 204.151 6.91967C204.151 6.5242 204.031 6.20486 203.792 5.9627C203.552 5.72161 203.205 5.6 202.749 5.6C202.293 5.6 201.961 5.74909 201.755 6.04518C201.547 6.34232 201.347 6.79808 201.152 7.41456C200.934 8.07439 200.7 8.57456 200.45 8.91505C200.2 9.25556 199.803 9.4258 199.26 9.4258C198.737 9.4258 198.363 9.26718 198.135 8.94784C197.906 8.62956 197.695 8.12939 197.5 7.44734C197.325 6.8097 197.14 6.34232 196.944 6.04518C196.749 5.74909 196.4 5.6 195.901 5.6C195.445 5.6 195.091 5.72161 194.842 5.9627C194.592 6.20486 194.467 6.5242 194.467 6.91967C194.467 7.44734 194.694 7.94751 195.152 8.42018C195.607 8.89286 196.205 9.27247 196.944 9.55798ZM210.216 31.8202C210.216 31.6891 210.182 31.6234 210.117 31.6234C209.379 31.6234 208.836 31.5674 208.487 31.4586C208.14 31.3486 207.9 31.1339 207.77 30.8146C207.64 30.4963 207.574 30.0067 207.574 29.3468V11.306C207.574 11.2403 207.509 11.1854 207.379 11.141C207.248 11.0976 207.108 11.0754 206.955 11.0754C206.694 11.0754 206.53 11.1082 206.465 11.1748L193.423 27.6983V14.0764C193.423 13.4166 193.488 12.9333 193.618 12.6256C193.749 12.3179 193.999 12.1033 194.368 11.9816C194.737 11.861 195.325 11.8008 196.129 11.8008C196.195 11.8008 196.228 11.7352 196.228 11.6031C196.228 11.4709 196.195 11.4053 196.129 11.4053L194.532 11.4381C193.446 11.4825 192.467 11.5048 191.597 11.5048C191.009 11.5048 190.173 11.4825 189.086 11.4381L187.261 11.4053C187.195 11.4053 187.162 11.4709 187.162 11.6031C187.162 11.7352 187.195 11.8008 187.261 11.8008C187.999 11.8008 188.542 11.861 188.891 11.9816C189.238 12.1033 189.478 12.3179 189.608 12.6256C189.738 12.9333 189.804 13.4166 189.804 14.0764V32.2495C189.804 32.4038 190.01 32.48 190.423 32.48C190.684 32.48 190.848 32.4472 190.913 32.3817L203.955 15.8582V29.3468C203.955 30.0289 203.89 30.5237 203.76 30.8315C203.629 31.1391 203.379 31.3486 203.009 31.4586C202.64 31.5674 202.054 31.6234 201.248 31.6234C201.183 31.6234 201.152 31.6891 201.152 31.8202C201.152 31.9534 201.183 32.019 201.248 32.019C201.923 32.019 202.455 32.0084 202.846 31.9862L205.782 31.9534L208.292 31.9862C208.749 32.0084 209.357 32.019 210.117 32.019C210.182 32.019 210.216 31.9534 210.216 31.8202ZM234.704 31.8202C234.704 31.6891 234.648 31.6234 234.54 31.6234C233.997 31.6234 233.476 31.3263 232.976 30.732C232.476 30.1389 231.845 29.0613 231.085 27.5006L222.932 11.2731C222.91 11.2076 222.813 11.1748 222.638 11.1748C222.487 11.1748 222.388 11.2076 222.344 11.2731L215.27 27.0057C214.705 28.2809 214.216 29.2421 213.802 29.8913C213.39 30.5406 212.975 30.9912 212.564 31.2439C212.15 31.4966 211.639 31.6234 211.031 31.6234C210.943 31.6234 210.901 31.6891 210.901 31.8202C210.901 31.9534 210.943 32.019 211.031 32.019C211.487 32.019 212.085 31.9967 212.824 31.9534C213.65 31.909 214.356 31.8867 214.944 31.8867C215.552 31.8867 216.269 31.909 217.096 31.9534C217.835 31.9967 218.399 32.019 218.791 32.019C218.9 32.019 218.955 31.9534 218.955 31.8202C218.955 31.6891 218.9 31.6234 218.791 31.6234C217.855 31.6234 217.112 31.4036 216.558 30.9626C216.004 30.5237 215.726 29.9084 215.726 29.1163C215.726 28.5664 215.867 27.9732 216.15 27.3356L221.205 16.022L227.661 28.9185C228.094 29.7984 228.312 30.4244 228.312 30.7987C228.312 31.1064 228.187 31.321 227.937 31.4416C227.688 31.5622 227.28 31.6234 226.715 31.6234C226.628 31.6234 226.583 31.6891 226.583 31.8202C226.583 31.9534 226.628 32.019 226.715 32.019C227.15 32.019 227.736 31.9967 228.475 31.9534C229.258 31.909 229.921 31.8867 230.465 31.8867C230.877 31.8867 231.562 31.909 232.518 31.9534C233.432 31.9967 234.105 32.019 234.54 32.019C234.648 32.019 234.704 31.9534 234.704 31.8202ZM240.655 30.9795C242.229 31.9365 244.028 32.4145 246.05 32.4145C248.095 32.4145 249.991 31.9312 251.741 30.9626C253.489 29.9961 254.887 28.6764 255.931 27.0057C256.974 25.335 257.496 23.4982 257.496 21.4975C257.496 19.6945 257.077 17.99 256.24 16.3858C255.403 14.7806 254.203 13.4885 252.636 12.5103C251.072 11.5322 249.257 11.0426 247.191 11.0426C245.344 11.0426 243.534 11.4486 241.762 12.2629C239.991 13.0761 238.541 14.2911 237.41 15.9068C236.279 17.5226 235.714 19.463 235.714 21.728C235.714 23.6631 236.143 25.4502 237.003 27.0881C237.86 28.7261 239.078 30.0236 240.655 30.9795ZM250.404 30.5184C249.435 31.2322 248.344 31.5896 247.126 31.5896C245.714 31.5896 244.448 31.117 243.329 30.1716C242.209 29.2263 241.328 27.9119 240.687 26.2305C240.046 24.5482 239.724 22.6406 239.724 20.5078C239.724 17.8039 240.257 15.6985 241.324 14.1916C242.387 12.6859 243.91 11.9329 245.888 11.9329C247.43 11.9329 248.78 12.3834 249.931 13.2854C251.083 14.1864 251.964 15.4342 252.571 17.0287C253.18 18.6224 253.485 20.4316 253.485 22.4544C253.485 24.3663 253.214 26.0107 252.67 27.3852C252.126 28.7589 251.371 29.8036 250.404 30.5184ZM275.186 22.2895C274.108 21.2775 272.658 20.6621 270.832 20.4421C272.115 19.9578 273.097 19.2885 273.783 18.4309C274.467 17.5734 274.81 16.6163 274.81 15.5611C274.81 14.1758 274.267 13.1195 273.179 12.395C272.093 11.6686 270.561 11.306 268.582 11.306C268.255 11.306 267.875 11.3176 267.441 11.3387C267.006 11.3609 266.68 11.3831 266.462 11.4053C265.81 11.4709 265.181 11.5048 264.571 11.5048C263.984 11.5048 263.191 11.4825 262.191 11.4381L260.463 11.4053C260.42 11.4053 260.398 11.4709 260.398 11.6031C260.398 11.7352 260.42 11.8008 260.463 11.8008C261.397 11.8008 262.017 11.9488 262.322 12.246C262.625 12.5431 262.778 13.1533 262.778 14.0764V29.3468C262.778 29.9855 262.707 30.4634 262.566 30.7817C262.425 31.1011 262.191 31.321 261.864 31.4416C261.539 31.5622 261.061 31.6234 260.431 31.6234C260.366 31.6234 260.332 31.6891 260.332 31.8202C260.332 31.9534 260.366 32.019 260.431 32.019C261.169 32.019 261.757 32.0084 262.191 31.9862L264.571 31.9534C265.115 31.9534 265.609 31.964 266.056 31.9862C266.5 32.0084 266.876 32.0295 267.179 32.0517C267.963 32.1173 268.658 32.15 269.268 32.15C270.68 32.15 271.962 31.8815 273.114 31.3422C274.267 30.8039 275.169 30.0722 275.821 29.1491C276.472 28.2259 276.799 27.1918 276.799 26.0486C276.799 24.5534 276.262 23.3004 275.186 22.2895ZM266.788 12.4765C267.028 12.1804 267.463 12.0314 268.093 12.0314C269.115 12.0314 269.896 12.356 270.44 13.0052C270.984 13.6535 271.256 14.604 271.256 15.8582C271.256 17.1991 270.951 18.2977 270.344 19.1552C269.734 20.0128 268.865 20.4421 267.734 20.4421L266.43 20.4094V14.143C266.43 13.3288 266.55 12.7736 266.788 12.4765ZM272.984 26.8407C272.984 29.8311 271.56 31.3263 268.713 31.3263C267.757 31.3263 267.137 31.1772 266.853 30.8812C266.571 30.5841 266.43 30.0722 266.43 29.3468V21.398C266.929 21.3547 267.495 21.3325 268.125 21.3325C269.755 21.3325 270.973 21.8273 271.777 22.8172C272.582 23.8058 272.984 25.1477 272.984 26.8407ZM295.222 11.29C294.178 11.124 293.18 11.0426 292.222 11.0426C290.092 11.0426 288.098 11.4825 286.238 12.3612C284.38 13.241 282.891 14.4835 281.772 16.0887C280.652 17.6939 280.093 19.5412 280.093 21.6297C280.093 23.4104 280.511 25.1203 281.348 26.7583C282.184 28.3961 283.494 29.7487 285.277 30.8146C287.059 31.8815 289.277 32.4145 291.929 32.4145C293.972 32.4145 295.96 32.0517 297.896 31.3263C298.091 31.2375 298.216 31.156 298.272 31.0789C298.324 31.0017 298.374 30.8315 298.416 30.5682L298.907 26.0814C298.907 26.0159 298.848 25.9726 298.727 25.9503C298.608 25.9281 298.537 25.9609 298.515 26.0486C297.645 27.9626 296.661 29.3859 295.565 30.3196C294.466 31.2544 293.222 31.7219 291.83 31.7219C290.352 31.7219 289.031 31.2322 287.869 30.2541C286.706 29.276 285.803 27.9511 285.163 26.2802C284.521 24.6084 284.201 22.7622 284.201 20.7393C284.201 18.0344 284.788 15.8794 285.961 14.2742C287.136 12.669 288.798 11.8674 290.95 11.8674C292.581 11.8674 294.016 12.339 295.254 13.2854C296.493 14.2308 297.483 15.5716 298.222 17.3089C298.244 17.3967 298.309 17.4296 298.416 17.4073C298.526 17.3862 298.581 17.3417 298.581 17.2762L298.189 12.6912C298.146 12.45 298.097 12.2788 298.042 12.1804C297.988 12.081 297.863 11.9986 297.668 11.9329C297.08 11.6686 296.265 11.454 295.222 11.29ZM322.448 31.8202C322.448 31.6891 322.416 31.6234 322.351 31.6234C321.72 31.6002 321.134 31.4036 320.59 31.0292C320.046 30.6548 319.52 30.1494 319.01 29.5118C318.498 28.8742 317.786 27.9182 316.872 26.643L316.286 25.8181C315.307 24.4329 314.553 23.4432 314.02 22.8499C313.487 22.2556 312.949 21.8221 312.406 21.5472C311.862 21.2723 311.167 21.1126 310.319 21.0692L314.754 15.4944C315.58 14.4392 316.59 13.5604 317.786 12.8561C318.983 12.1529 320.058 11.8008 321.015 11.8008C321.08 11.8008 321.111 11.7352 321.111 11.6031C321.111 11.4709 321.08 11.4053 321.015 11.4053L319.613 11.4381C318.699 11.4825 317.818 11.5048 316.971 11.5048C316.232 11.5048 315.384 11.4825 314.428 11.4381L312.927 11.4053C312.884 11.4053 312.862 11.4709 312.862 11.6031C312.862 11.7352 312.884 11.8008 312.927 11.8008C313.341 11.8008 313.668 11.9214 313.905 12.1635C314.145 12.4057 314.264 12.7355 314.264 13.1533C314.264 13.9887 313.819 15.0334 312.927 16.2865L309.504 21.0364C308.613 21.0364 307.874 21.047 307.286 21.0692V14.143C307.286 13.4832 307.352 12.9936 307.482 12.6753C307.612 12.356 307.852 12.1307 308.2 11.9986C308.548 11.8674 309.08 11.8008 309.797 11.8008C309.862 11.8008 309.895 11.7352 309.895 11.6031C309.895 11.4709 309.862 11.4053 309.797 11.4053L308.004 11.4381C306.917 11.4825 306.004 11.5048 305.265 11.5048C304.677 11.5048 303.884 11.4825 302.885 11.4381L301.157 11.4053C301.091 11.4053 301.058 11.4709 301.058 11.6031C301.058 11.7352 301.091 11.8008 301.157 11.8008C301.895 11.8008 302.433 11.861 302.771 11.9816C303.107 12.1033 303.34 12.3179 303.471 12.6256C303.602 12.9333 303.667 13.4166 303.667 14.0764V29.3468C303.667 30.0067 303.602 30.4963 303.471 30.8146C303.34 31.1339 303.103 31.3486 302.754 31.4586C302.406 31.5674 301.864 31.6234 301.124 31.6234C301.058 31.6234 301.026 31.6891 301.026 31.8202C301.026 31.9534 301.058 32.019 301.124 32.019C301.864 32.019 302.45 32.0084 302.885 31.9862L305.265 31.9534L307.971 31.9862C308.428 32.0084 309.037 32.019 309.797 32.019C309.862 32.019 309.895 31.9534 309.895 31.8202C309.895 31.6891 309.862 31.6234 309.797 31.6234C309.058 31.6234 308.515 31.5674 308.168 31.4586C307.819 31.3486 307.585 31.1339 307.466 30.8146C307.347 30.4963 307.286 30.0067 307.286 29.3468V21.6297C307.938 21.6297 308.466 21.7227 308.868 21.9099C309.271 22.097 309.656 22.4153 310.025 22.8658C310.395 23.3173 310.961 24.103 311.721 25.2239L312.601 26.478C313.884 28.3465 314.808 29.6492 315.374 30.3863C315.937 31.1233 316.335 31.5791 316.563 31.7546C316.793 31.9312 317.047 32.019 317.329 32.019H322.351C322.416 32.019 322.448 31.9534 322.448 31.8202ZM346.057 31.8202C346.057 31.6891 346.024 31.6234 345.958 31.6234C345.219 31.6234 344.677 31.5674 344.328 31.4586C343.98 31.3486 343.741 31.1339 343.611 30.8146C343.481 30.4963 343.415 30.0067 343.415 29.3468V11.306C343.415 11.2403 343.35 11.1854 343.219 11.141C343.089 11.0976 342.949 11.0754 342.796 11.0754C342.534 11.0754 342.371 11.1082 342.306 11.1748L329.264 27.6983V14.0764C329.264 13.4166 329.329 12.9333 329.459 12.6256C329.59 12.3179 329.84 12.1033 330.209 11.9816C330.579 11.861 331.165 11.8008 331.97 11.8008C332.035 11.8008 332.067 11.7352 332.067 11.6031C332.067 11.4709 332.035 11.4053 331.97 11.4053L330.372 11.4381C329.285 11.4825 328.307 11.5048 327.437 11.5048C326.851 11.5048 326.014 11.4825 324.927 11.4381L323.101 11.4053C323.037 11.4053 323.003 11.4709 323.003 11.6031C323.003 11.7352 323.037 11.8008 323.101 11.8008C323.84 11.8008 324.383 11.861 324.731 11.9816C325.079 12.1033 325.319 12.3179 325.448 12.6256C325.579 12.9333 325.645 13.4166 325.645 14.0764V32.2495C325.645 32.4038 325.85 32.48 326.264 32.48C326.525 32.48 326.687 32.4472 326.752 32.3817L339.796 15.8582V29.3468C339.796 30.0289 339.731 30.5237 339.599 30.8315C339.469 31.1391 339.22 31.3486 338.851 31.4586C338.48 31.5674 337.894 31.6234 337.089 31.6234C337.024 31.6234 336.991 31.6891 336.991 31.8202C336.991 31.9534 337.024 32.019 337.089 32.019C337.764 32.019 338.295 32.0084 338.687 31.9862L341.622 31.9534L344.133 31.9862C344.588 32.0084 345.198 32.019 345.958 32.019C346.024 32.019 346.057 31.9534 346.057 31.8202ZM357.729 9.55798C358.469 9.84454 359.251 9.9873 360.077 9.9873C360.926 9.9873 361.718 9.84983 362.457 9.5749C363.197 9.29996 363.794 8.92669 364.25 8.45296C364.708 7.98029 364.935 7.46955 364.935 6.91967C364.935 6.5242 364.815 6.20486 364.576 5.9627C364.338 5.72161 363.99 5.6 363.534 5.6C363.077 5.6 362.745 5.74909 362.54 6.04518C362.332 6.34232 362.132 6.79808 361.936 7.41456C361.718 8.07439 361.485 8.57456 361.235 8.91505C360.985 9.25556 360.588 9.4258 360.045 9.4258C359.524 9.4258 359.148 9.26718 358.921 8.94784C358.691 8.62956 358.479 8.12939 358.284 7.44734C358.11 6.8097 357.925 6.34232 357.729 6.04518C357.534 5.74909 357.186 5.6 356.686 5.6C356.229 5.6 355.876 5.72161 355.626 5.9627C355.377 6.20486 355.252 6.5242 355.252 6.91967C355.252 7.44734 355.48 7.94751 355.936 8.42018C356.392 8.89286 356.991 9.27247 357.729 9.55798ZM371 31.8202C371 31.6891 370.967 31.6234 370.902 31.6234C370.164 31.6234 369.62 31.5674 369.272 31.4586C368.925 31.3486 368.685 31.1339 368.554 30.8146C368.424 30.4963 368.359 30.0067 368.359 29.3468V11.306C368.359 11.2403 368.294 11.1854 368.164 11.141C368.033 11.0976 367.892 11.0754 367.741 11.0754C367.479 11.0754 367.316 11.1082 367.251 11.1748L354.207 27.6983V14.0764C354.207 13.4166 354.274 12.9333 354.404 12.6256C354.534 12.3179 354.784 12.1033 355.153 11.9816C355.523 11.861 356.111 11.8008 356.914 11.8008C356.98 11.8008 357.012 11.7352 357.012 11.6031C357.012 11.4709 356.98 11.4053 356.914 11.4053L355.317 11.4381C354.23 11.4825 353.251 11.5048 352.382 11.5048C351.795 11.5048 350.958 11.4825 349.871 11.4381L348.045 11.4053C347.98 11.4053 347.948 11.4709 347.948 11.6031C347.948 11.7352 347.98 11.8008 348.045 11.8008C348.784 11.8008 349.327 11.861 349.676 11.9816C350.023 12.1033 350.262 12.3179 350.393 12.6256C350.523 12.9333 350.588 13.4166 350.588 14.0764V32.2495C350.588 32.4038 350.796 32.48 351.208 32.48C351.469 32.48 351.632 32.4472 351.698 32.3817L364.74 15.8582V29.3468C364.74 30.0289 364.675 30.5237 364.545 30.8315C364.414 31.1391 364.164 31.3486 363.794 31.4586C363.425 31.5674 362.838 31.6234 362.033 31.6234C361.968 31.6234 361.936 31.6891 361.936 31.8202C361.936 31.9534 361.968 32.019 362.033 32.019C362.708 32.019 363.24 32.0084 363.63 31.9862L366.566 31.9534L369.077 31.9862C369.533 32.0084 370.141 32.019 370.902 32.019C370.967 32.019 371 31.9534 371 31.8202ZM91.2007 41.44H369.467C370.314 41.44 371 42.1922 371 43.12C371 44.0478 370.314 44.8 369.467 44.8H91.2007C90.3541 44.8 89.6677 44.0478 89.6677 43.12C89.6677 42.1922 90.3541 41.44 91.2007 41.44ZM96.5945 64.6576C96.7066 63.504 97.0148 62.5072 97.5192 61.6672C98.0348 60.816 98.6905 60.1664 99.4863 59.7184C100.293 59.2704 101.19 59.0464 102.176 59.0464C103.97 59.0464 105.32 59.584 106.228 60.6592C107.136 61.7344 107.59 63.2296 107.59 65.1448C107.59 66.5 107.355 67.6872 106.884 68.7064C106.413 69.7144 105.757 70.4928 104.917 71.0416C104.076 71.5792 103.118 71.848 102.042 71.848C100.271 71.848 98.9258 71.3272 98.0068 70.2856C97.0877 69.2328 96.6057 67.7824 96.5609 65.9344H94.123V70.4872L95.5353 70.672V71.68H90.357V70.672L91.6684 70.4872V60.4576L90.3906 60.2392V59.1976H95.4849V60.2392L94.123 60.4576V64.6576H96.5945ZM102.126 60.088C101.229 60.088 100.523 60.5416 100.007 61.4488C99.5031 62.3448 99.2509 63.6944 99.2509 65.4976C99.2509 67.2112 99.4975 68.5216 99.9906 69.4288C100.484 70.336 101.196 70.7896 102.126 70.7896C103.011 70.7896 103.689 70.3248 104.16 69.3952C104.642 68.4544 104.883 67.0768 104.883 65.2624C104.883 63.56 104.648 62.272 104.177 61.3984C103.706 60.5248 103.023 60.088 102.126 60.088ZM114.112 60.4576L112.851 60.2392V59.1976H115.39C115.625 59.1976 115.99 59.1864 116.483 59.164C117.133 59.1192 117.721 59.0968 118.248 59.0968C119.414 59.0968 120.333 59.2424 121.005 59.5336C121.689 59.8136 122.171 60.2224 122.451 60.76C122.743 61.2864 122.888 61.9584 122.888 62.776C122.888 64.1872 122.446 65.2848 121.56 66.0688C120.686 66.8528 119.47 67.2448 117.912 67.2448C117.295 67.2448 116.853 67.228 116.584 67.1944V70.504L118.837 70.672V71.68H112.784V70.672L114.112 70.504V60.4576ZM116.567 66.1192C116.825 66.1752 117.262 66.2032 117.878 66.2032C118.629 66.2032 119.229 65.9456 119.677 65.4304C120.137 64.904 120.367 64.036 120.367 62.8264C120.367 61.8856 120.159 61.2024 119.744 60.7768C119.341 60.34 118.719 60.1216 117.878 60.1216C117.564 60.1216 117.239 60.144 116.903 60.1888C116.746 60.2112 116.634 60.2224 116.567 60.2224V66.1192ZM133.202 60.2392L131.656 60.4576V68.2864L132.782 66.4048L137.069 60.8608V60.4576L135.657 60.2392V59.1976H140.802V60.2392L139.507 60.4576V70.504L140.852 70.672V71.68H135.657V70.672L137.069 70.504V62.5744L136.061 64.3888L131.656 69.9832V70.504L133.152 70.672V71.68H127.906V70.672L129.235 70.504V60.4576L127.94 60.2392V59.1976H133.202V60.2392ZM157.579 70.4872C157.579 70.8232 157.528 71.6296 157.427 72.9064C157.326 74.1944 157.265 74.8888 157.242 74.9896H155.881C155.869 74.6984 155.802 74.0992 155.679 73.192C155.555 72.2848 155.46 71.7808 155.393 71.68H147.995C147.917 71.7808 147.777 72.2512 147.575 73.0912C147.385 73.9312 147.256 74.5696 147.188 75.0064H145.793L145.81 74.2504C145.866 72.3688 145.916 71.1144 145.961 70.4872H147.172C147.441 70.1176 147.732 69.552 148.046 68.7904C148.36 68.0288 148.634 67.0096 148.87 65.7328C149.105 64.456 149.223 62.9664 149.223 61.264V60.4576L147.474 60.2392V59.1976H157.612V60.2392L155.998 60.4576V70.4872H157.579ZM150.45 61.3648C150.461 62.8992 150.377 64.2936 150.198 65.548C150.018 66.7912 149.806 67.8216 149.559 68.6392C149.312 69.4568 149.077 70.0728 148.853 70.4872H153.56L153.577 60.34H150.45V61.3648ZM168.223 60.2392L166.677 60.4576V68.2864L167.803 66.4048L172.09 60.8608V60.4576L170.678 60.2392V59.1976H175.823V60.2392L174.528 60.4576V70.504L175.873 70.672V71.68H170.678V70.672L172.09 70.504V62.5744L171.081 64.3888L166.677 69.9832V70.504L168.173 70.672V71.68H162.927V70.672L164.255 70.504V60.4576L162.961 60.2392V59.1976H168.223V60.2392ZM188.228 66.3712C187.847 66.5952 187.365 66.7688 186.782 66.892C186.211 67.0152 185.661 67.0768 185.135 67.0768C184.316 67.0768 183.655 66.9648 183.151 66.7408C182.646 66.5056 182.265 66.1136 182.007 65.5648C181.761 65.0048 181.638 64.2432 181.638 63.28V60.4744L180.662 60.256V59.1976H185.353V60.256L184.092 60.4576V62.7088C184.092 63.616 184.148 64.2768 184.26 64.6912C184.372 65.1056 184.563 65.38 184.832 65.5144C185.101 65.6376 185.527 65.6992 186.11 65.6992C186.502 65.6992 186.9 65.6488 187.303 65.548C187.718 65.4472 188.026 65.324 188.228 65.1784V60.4576L186.849 60.2392V59.1976H192.045V60.2392L190.683 60.4576V70.504L192.061 70.6888V71.68H186.446V70.672L188.228 70.504V66.3712ZM198.652 60.4576L197.307 60.2392V59.1976H206.268L206.487 62.02H205.31L204.755 60.3568L201.123 60.2056V64.7248L203.46 64.6744L203.729 63.2968H204.805V67.3624H203.729L203.46 65.9176L201.123 65.8672V70.6048L205.192 70.4032L206.167 68.2528L207.428 68.6056L206.991 71.68H197.324V70.672L198.652 70.504V60.4576ZM218.047 71.8648C216.142 71.8648 214.685 71.2992 213.676 70.168C212.667 69.0256 212.163 67.4688 212.163 65.4976C212.163 64.1984 212.426 63.0672 212.953 62.104C213.491 61.1296 214.225 60.3792 215.155 59.8528C216.086 59.3264 217.139 59.0632 218.316 59.0632C218.809 59.0632 219.286 59.0968 219.745 59.164C220.205 59.22 220.748 59.2984 221.376 59.3992C221.847 59.4776 222.105 59.5168 222.149 59.5168L221.964 62.9776H220.418L219.897 60.5752C219.773 60.452 219.56 60.3512 219.258 60.2728C218.955 60.1944 218.568 60.1552 218.098 60.1552C217.145 60.1552 216.377 60.5976 215.794 61.4824C215.223 62.356 214.937 63.6272 214.937 65.296C214.937 66.9088 215.211 68.2248 215.761 69.244C216.31 70.2632 217.111 70.7728 218.165 70.7728C218.669 70.7728 219.056 70.728 219.325 70.6384C219.605 70.5376 219.84 70.3976 220.031 70.2184L220.771 68.488L222.183 68.6224L221.847 71.2264C221.611 71.2488 221.376 71.2936 221.141 71.3608C220.916 71.4168 220.776 71.4504 220.72 71.4616C220.272 71.5848 219.852 71.68 219.459 71.7472C219.078 71.8256 218.608 71.8648 218.047 71.8648ZM233.842 65.0104C234.246 65.1112 234.627 65.352 234.985 65.7328C235.355 66.1024 235.675 66.5112 235.944 66.9592C236.224 67.396 236.56 67.9728 236.952 68.6896C237.255 69.2608 237.496 69.692 237.675 69.9832C237.866 70.2744 238.04 70.4424 238.197 70.4872L238.819 70.672V71.68H236.162C235.882 71.68 235.607 71.4672 235.338 71.0416C235.081 70.616 234.739 69.9496 234.313 69.0424C233.842 68.0232 233.427 67.2448 233.069 66.7072C232.721 66.1696 232.351 65.9008 231.959 65.9008H231.169V70.4872L232.665 70.6888V71.68H227.436V70.672L228.731 70.4872V60.4576L227.436 60.2392V59.1976H232.447V60.2392L231.169 60.4576V64.96H232.396L235.406 60.4576L234.145 60.2392V59.1976H238.583V60.2392L237.188 60.4576L233.842 65.0104ZM248.822 60.2392L247.275 60.4576V68.2864L248.402 66.4048L252.689 60.8608V60.4576L251.277 60.2392V59.1976H256.422V60.2392L255.127 60.4576V70.504L256.472 70.672V71.68H251.277V70.672L252.689 70.504V62.5744L251.68 64.3888L247.275 69.9832V70.504L248.772 70.672V71.68H243.526V70.672L244.854 70.504V60.4576L243.56 60.2392V59.1976H248.822V60.2392ZM263.112 60.4576L261.767 60.2392V59.1976H270.728L270.947 62.02H269.77L269.215 60.3568L265.583 60.2056V64.7248L267.92 64.6744L268.189 63.2968H269.265V67.3624H268.189L267.92 65.9176L265.583 65.8672V70.6048L269.652 70.4032L270.627 68.2528L271.888 68.6056L271.451 71.68H261.784V70.672L263.112 70.504V60.4576ZM287.017 69.0424C286.737 69.6696 286.496 70.1568 286.294 70.504C286.093 70.8512 285.79 71.1648 285.386 71.4448C284.994 71.7248 284.501 71.8648 283.907 71.8648C283.593 71.8648 283.257 71.8368 282.898 71.7808C282.539 71.7248 282.265 71.6576 282.074 71.5792V70.2016L283.285 70.2184C283.823 70.2184 284.204 70.1344 284.428 69.9664C284.652 69.7984 284.826 69.4904 284.949 69.0424L280.948 60.4576L280.04 60.2392V59.1976H285.168V60.2392L283.638 60.4576L285.958 65.8504L286.429 67.2616L286.916 65.8336L288.799 60.4576L287.505 60.2392V59.1976H291.237V60.2392L290.363 60.4576L287.017 69.0424ZM301.322 71.8648C299.416 71.8648 297.959 71.2992 296.95 70.168C295.941 69.0256 295.437 67.4688 295.437 65.4976C295.437 64.1984 295.7 63.0672 296.227 62.104C296.765 61.1296 297.499 60.3792 298.43 59.8528C299.36 59.3264 300.414 59.0632 301.59 59.0632C302.084 59.0632 302.56 59.0968 303.02 59.164C303.479 59.22 304.023 59.2984 304.65 59.3992C305.121 59.4776 305.379 59.5168 305.424 59.5168L305.239 62.9776H303.692L303.171 60.5752C303.048 60.452 302.835 60.3512 302.532 60.2728C302.229 60.1944 301.843 60.1552 301.372 60.1552C300.419 60.1552 299.651 60.5976 299.069 61.4824C298.497 62.356 298.211 63.6272 298.211 65.296C298.211 66.9088 298.486 68.2248 299.035 69.244C299.584 70.2632 300.386 70.7728 301.439 70.7728C301.944 70.7728 302.33 70.728 302.599 70.6384C302.879 70.5376 303.115 70.3976 303.305 70.2184L304.045 68.488L305.457 68.6224L305.121 71.2264C304.886 71.2488 304.65 71.2936 304.415 71.3608C304.191 71.4168 304.051 71.4504 303.995 71.4616C303.546 71.5848 303.126 71.68 302.734 71.7472C302.353 71.8256 301.882 71.8648 301.322 71.8648ZM315.066 61.7848C315.066 63.7336 314.96 65.4864 314.747 67.0432C314.545 68.5888 314.231 69.7536 313.805 70.5376C313.357 71.3664 312.713 71.7808 311.872 71.7808C311.3 71.7808 310.869 71.7472 310.577 71.68L310.426 70.168C310.874 70.2128 311.3 70.2352 311.704 70.2352C311.928 70.2352 312.119 70.1848 312.276 70.084C312.444 69.9832 312.589 69.804 312.713 69.5464C313.071 68.9192 313.346 67.9616 313.536 66.6736C313.738 65.3856 313.839 63.6496 313.839 61.4656V60.4576L311.822 60.2392V59.1976H322.229V60.2392L320.682 60.4576V70.504L322.313 70.672V71.68H316.512V70.672L318.244 70.4872L318.261 60.4576H315.066V61.7848ZM333.564 69.0424C333.284 69.6696 333.043 70.1568 332.841 70.504C332.639 70.8512 332.336 71.1648 331.933 71.4448C331.541 71.7248 331.047 71.8648 330.453 71.8648C330.14 71.8648 329.803 71.8368 329.445 71.7808C329.086 71.7248 328.811 71.6576 328.621 71.5792V70.2016L329.831 70.2184C330.369 70.2184 330.75 70.1344 330.975 69.9664C331.199 69.7984 331.372 69.4904 331.496 69.0424L327.494 60.4576L326.586 60.2392V59.1976H331.714V60.2392L330.184 60.4576L332.505 65.8504L332.975 67.2616L333.463 65.8336L335.346 60.4576L334.051 60.2392V59.1976H337.784V60.2392L336.909 60.4576L333.564 69.0424ZM351.164 59.1976L351.366 63.9184H349.92L349.349 60.4408L346.255 60.2728V70.4872L349.012 70.6888V71.68H341.951V70.6888L343.784 70.4872V60.4744L341.985 60.2224V59.1976H351.164ZM361.455 60.2392L359.908 60.4576V68.2864L361.035 66.4048L365.322 60.8608V60.4576L363.91 60.2392V59.1976H369.054V60.2392L367.76 60.4576V70.504L369.105 70.672V71.68H363.91V70.672L365.322 70.504V62.5744L364.313 64.3888L359.908 69.9832V70.504L361.404 70.672V71.68H356.159V70.672L357.487 70.504V60.4576L356.193 60.2392V59.1976H361.455V60.2392Z" fill="#E9E9E9"/>
</svg>
