<svg width="372" height="100" viewBox="0 0 372 100" fill="none" xmlns="http://www.w3.org/2000/svg">
<g filter="url(#filter0_d_47:854)">
<mask id="path-1-inside-1_47:854" fill="white">
<path d="M132.533 36.2352C132.572 36.2352 132.591 36.2938 132.591 36.4109C132.591 36.5298 132.572 36.5884 132.533 36.5884C131.874 36.5884 131.35 36.5789 130.963 36.5591L128.809 36.5298L126.627 36.5591C126.259 36.5789 125.754 36.5884 125.115 36.5884C125.057 36.5884 125.028 36.5298 125.028 36.4109C125.028 36.2938 125.057 36.2352 125.115 36.2352C125.93 36.2352 126.482 36.1361 126.773 35.9397C127.064 35.7443 127.209 35.3317 127.209 34.7039L127.181 34.2025L126.57 22.1591L120.577 36.3816C120.538 36.4609 120.46 36.4996 120.344 36.4996C120.227 36.4996 120.15 36.4609 120.112 36.3816L112.751 22.2176L112.518 32.8477C112.499 33.9079 112.708 34.7378 113.144 35.3364C113.58 35.935 114.196 36.2352 114.991 36.2352C115.049 36.2352 115.079 36.2938 115.079 36.4109C115.079 36.5298 115.049 36.5884 114.991 36.5884C114.468 36.5884 114.06 36.5789 113.769 36.5591L112.17 36.5298L110.337 36.5591C110.026 36.5789 109.609 36.5884 109.085 36.5884C109.027 36.5884 108.998 36.5298 108.998 36.4109C108.998 36.2938 109.027 36.2352 109.085 36.2352C109.881 36.2352 110.511 35.9303 110.977 35.3223C111.442 34.7133 111.685 33.8881 111.704 32.8477L111.965 20.657L111.936 20.6277C111.548 19.9007 111.146 19.371 110.73 19.0368C110.312 18.7035 109.832 18.5364 109.289 18.5364C109.231 18.5364 109.202 18.4779 109.202 18.3599C109.202 18.2419 109.231 18.1833 109.289 18.1833L110.657 18.2126C110.928 18.2324 111.277 18.2419 111.704 18.2419L113.246 18.2126C113.42 18.1928 113.643 18.1833 113.915 18.1833C114.167 18.1833 114.361 18.2721 114.497 18.4477C114.632 18.6252 114.884 19.0472 115.253 19.7138L121.595 31.7581L127.123 18.9188C127.238 18.6441 127.36 18.4533 127.486 18.3448C127.612 18.2371 127.781 18.1833 127.995 18.1833C128.169 18.1833 128.368 18.1928 128.592 18.2126C128.815 18.2324 129.071 18.2419 129.362 18.2419L131.078 18.2126C131.35 18.1928 131.739 18.1833 132.242 18.1833C132.3 18.1833 132.33 18.2419 132.33 18.3599C132.33 18.4779 132.3 18.5364 132.242 18.5364C131.331 18.5364 130.672 18.7224 130.264 19.0963C129.856 19.4692 129.673 20.048 129.712 20.8335L130.41 34.2025C130.449 34.8115 130.521 35.2533 130.628 35.5281C130.734 35.8028 130.928 35.9898 131.21 36.088C131.491 36.1852 131.932 36.2352 132.533 36.2352ZM154.555 36.2352C154.614 36.2352 154.643 36.2938 154.643 36.4109C154.643 36.5298 154.614 36.5884 154.555 36.5884C153.876 36.5884 153.334 36.5789 152.926 36.5591L150.686 36.5298L148.068 36.5591C147.719 36.5789 147.244 36.5884 146.642 36.5884C146.585 36.5884 146.556 36.5298 146.556 36.4109C146.556 36.2938 146.585 36.2352 146.642 36.2352C147.36 36.2352 147.884 36.1852 148.214 36.088C148.543 35.9898 148.766 35.8028 148.883 35.5281C148.999 35.2533 149.057 34.8115 149.057 34.2025V22.1591L137.421 36.9122C137.363 36.9707 137.216 37 136.984 37C136.616 37 136.431 36.932 136.431 36.7942V20.5682C136.431 19.9791 136.373 19.5476 136.257 19.2729C136.14 18.9981 135.927 18.8065 135.617 18.6979C135.306 18.5902 134.822 18.5364 134.162 18.5364C134.104 18.5364 134.075 18.4779 134.075 18.3599C134.075 18.2419 134.104 18.1833 134.162 18.1833L135.791 18.2126C136.761 18.2522 137.507 18.2721 138.032 18.2721C138.808 18.2721 139.68 18.2522 140.65 18.2126L142.075 18.1833C142.134 18.1833 142.163 18.2419 142.163 18.3599C142.163 18.4779 142.134 18.5364 142.075 18.5364C141.358 18.5364 140.833 18.5902 140.504 18.6979C140.175 18.8065 139.951 18.9981 139.835 19.2729C139.719 19.5476 139.661 19.9791 139.661 20.5682V32.7306L151.297 17.9775C151.355 17.918 151.501 17.8887 151.733 17.8887C151.869 17.8887 151.995 17.9086 152.112 17.9473C152.228 17.9869 152.286 18.036 152.286 18.0946V34.2025C152.286 34.7917 152.345 35.2288 152.461 35.513C152.577 35.7981 152.791 35.9898 153.101 36.088C153.411 36.1852 153.896 36.2352 154.555 36.2352ZM174.221 36.2352C174.279 36.2352 174.308 36.2938 174.308 36.4109C174.308 36.5298 174.279 36.5884 174.221 36.5884C173.659 36.5884 173.223 36.5789 172.912 36.5591L171.167 36.5298L168.781 36.5591C168.413 36.5789 167.899 36.5884 167.239 36.5884C167.18 36.5884 167.152 36.5298 167.152 36.4109C167.152 36.2938 167.18 36.2352 167.239 36.2352C167.879 36.2352 168.199 36.0681 168.199 35.7339C168.199 35.5574 168.112 35.3411 167.937 35.0862L163.952 28.8436L161.45 32.4653C160.694 33.5454 160.316 34.4187 160.316 35.0862C160.316 35.8519 160.819 36.2352 161.828 36.2352C161.867 36.2352 161.886 36.2938 161.886 36.4109C161.886 36.5298 161.867 36.5884 161.828 36.5884C161.189 36.5884 160.704 36.5789 160.374 36.5591L158.221 36.5298L156.854 36.5591C156.602 36.5789 156.194 36.5884 155.632 36.5884C155.574 36.5884 155.544 36.5298 155.544 36.4109C155.544 36.2938 155.574 36.2352 155.632 36.2352C156.233 36.2352 156.97 35.9105 157.842 35.2628C158.715 34.6151 159.627 33.6238 160.577 32.2887L163.545 28.2252L158.89 20.8921C158.366 20.048 157.863 19.4447 157.378 19.0812C156.893 18.7177 156.379 18.5364 155.835 18.5364C155.777 18.5364 155.748 18.4779 155.748 18.3599C155.748 18.2419 155.777 18.1833 155.835 18.1833L157.087 18.2126C157.63 18.2522 158.036 18.2721 158.308 18.2721C158.987 18.2721 159.831 18.2522 160.839 18.2126L162.497 18.1833C162.537 18.1833 162.555 18.2419 162.555 18.3599C162.555 18.4779 162.537 18.5364 162.497 18.5364C161.838 18.5364 161.509 18.7035 161.509 19.0368C161.509 19.1935 161.595 19.4201 161.77 19.7138L165.61 25.6921L167.937 22.3356C168.693 21.2357 169.072 20.353 169.072 19.6845C169.072 18.9188 168.568 18.5364 167.559 18.5364C167.521 18.5364 167.501 18.4779 167.501 18.3599C167.501 18.2419 167.521 18.1833 167.559 18.1833L169.014 18.2126C169.79 18.2522 170.507 18.2721 171.167 18.2721C171.574 18.2721 172.03 18.2522 172.533 18.2126L173.756 18.1833C173.814 18.1833 173.843 18.2419 173.843 18.3599C173.843 18.4779 173.814 18.5364 173.756 18.5364C173.136 18.5364 172.393 18.865 171.531 19.5231C170.667 20.1802 169.75 21.1772 168.781 22.5122L166.017 26.3397L170.992 34.144C171.477 34.87 171.972 35.4006 172.475 35.7339C172.98 36.0681 173.561 36.2352 174.221 36.2352ZM195.167 36.2352C195.264 36.2352 195.313 36.2938 195.313 36.4109C195.313 36.5298 195.264 36.5884 195.167 36.5884C194.779 36.5884 194.178 36.5685 193.363 36.5298C192.51 36.4902 191.899 36.4703 191.531 36.4703C191.046 36.4703 190.454 36.4902 189.756 36.5298C189.096 36.5685 188.573 36.5884 188.185 36.5884C188.108 36.5884 188.068 36.5298 188.068 36.4109C188.068 36.2938 188.108 36.2352 188.185 36.2352C188.69 36.2352 189.052 36.1805 189.276 36.0729C189.499 35.9652 189.61 35.7736 189.61 35.4988C189.61 35.1646 189.417 34.6057 189.028 33.8201L186.003 27.7833H180.825L178.76 32.4068C178.507 32.9761 178.381 33.5057 178.381 33.9967C178.381 34.7039 178.629 35.2533 179.123 35.6452C179.617 36.0389 180.282 36.2352 181.116 36.2352C181.213 36.2352 181.262 36.2938 181.262 36.4109C181.262 36.5298 181.213 36.5884 181.116 36.5884C180.767 36.5884 180.263 36.5685 179.603 36.5298C178.866 36.4902 178.227 36.4703 177.683 36.4703C177.159 36.4703 176.529 36.4902 175.792 36.5298C175.133 36.5685 174.599 36.5884 174.193 36.5884C174.114 36.5884 174.076 36.5298 174.076 36.4109C174.076 36.2938 174.114 36.2352 174.193 36.2352C174.735 36.2352 175.191 36.122 175.559 35.8963C175.928 35.6707 176.297 35.2684 176.665 34.6887C177.034 34.109 177.47 33.2508 177.974 32.1122L184.287 18.0653C184.325 18.0068 184.413 17.9775 184.548 17.9775C184.703 17.9775 184.791 18.0068 184.81 18.0653L192.083 32.5541C192.762 33.9476 193.324 34.9097 193.771 35.4393C194.217 35.9699 194.682 36.2352 195.167 36.2352ZM181.203 26.9581H185.596L183.269 22.3054L181.203 26.9581ZM206.804 16.9172C206.067 16.9172 205.368 16.7898 204.709 16.5339C204.049 16.279 203.516 15.94 203.109 15.518C202.702 15.096 202.498 14.6494 202.498 14.1783C202.498 13.8252 202.61 13.54 202.833 13.3238C203.055 13.1086 203.371 13 203.778 13C204.224 13 204.534 13.1331 204.709 13.3975C204.883 13.6628 205.048 14.0801 205.204 14.6494C205.378 15.2584 205.567 15.705 205.771 15.9891C205.974 16.2743 206.308 16.4159 206.775 16.4159C207.26 16.4159 207.613 16.2639 207.836 15.9599C208.059 15.6559 208.268 15.2093 208.462 14.6201C208.636 14.0697 208.815 13.6628 209 13.3975C209.184 13.1331 209.48 13 209.887 13C210.295 13 210.604 13.1086 210.818 13.3238C211.032 13.54 211.138 13.8252 211.138 14.1783C211.138 14.6692 210.935 15.1253 210.527 15.5473C210.119 15.9703 209.587 16.3035 208.927 16.549C208.268 16.7945 207.56 16.9172 206.804 16.9172ZM216.462 36.2352C216.52 36.2352 216.549 36.2938 216.549 36.4109C216.549 36.5298 216.52 36.5884 216.462 36.5884C215.784 36.5884 215.24 36.5789 214.833 36.5591L212.593 36.5298L209.975 36.5591C209.625 36.5789 209.15 36.5884 208.549 36.5884C208.491 36.5884 208.462 36.5298 208.462 36.4109C208.462 36.2938 208.491 36.2352 208.549 36.2352C209.267 36.2352 209.79 36.1852 210.119 36.088C210.45 35.9898 210.672 35.8028 210.789 35.5281C210.906 35.2533 210.963 34.8115 210.963 34.2025V22.1591L199.327 36.9122C199.269 36.9707 199.124 37 198.891 37C198.522 37 198.338 36.932 198.338 36.7942V20.5682C198.338 19.9791 198.28 19.5476 198.163 19.2729C198.047 18.9981 197.834 18.8065 197.523 18.6979C197.213 18.5902 196.729 18.5364 196.069 18.5364C196.01 18.5364 195.981 18.4779 195.981 18.3599C195.981 18.2419 196.01 18.1833 196.069 18.1833L197.698 18.2126C198.668 18.2522 199.414 18.2721 199.938 18.2721C200.714 18.2721 201.587 18.2522 202.556 18.2126L203.981 18.1833C204.04 18.1833 204.069 18.2419 204.069 18.3599C204.069 18.4779 204.04 18.5364 203.981 18.5364C203.264 18.5364 202.74 18.5902 202.411 18.6979C202.081 18.8065 201.858 18.9981 201.742 19.2729C201.625 19.5476 201.567 19.9791 201.567 20.5682V32.7306L213.204 17.9775C213.262 17.918 213.407 17.8887 213.64 17.8887C213.777 17.8887 213.902 17.9086 214.018 17.9473C214.135 17.9869 214.193 18.036 214.193 18.0946V34.2025C214.193 34.7917 214.251 35.2288 214.367 35.513C214.484 35.7981 214.697 35.9898 215.008 36.088C215.318 36.1852 215.802 36.2352 216.462 36.2352ZM238.252 36.2352C238.348 36.2352 238.397 36.2938 238.397 36.4109C238.397 36.5298 238.348 36.5884 238.252 36.5884C237.864 36.5884 237.262 36.5685 236.448 36.5298C235.594 36.4902 234.983 36.4703 234.615 36.4703C234.13 36.4703 233.539 36.4902 232.84 36.5298C232.181 36.5685 231.657 36.5884 231.269 36.5884C231.192 36.5884 231.153 36.5298 231.153 36.4109C231.153 36.2938 231.192 36.2352 231.269 36.2352C231.773 36.2352 232.138 36.1805 232.361 36.0729C232.584 35.9652 232.695 35.7736 232.695 35.4988C232.695 35.1646 232.501 34.6057 232.113 33.8201L226.353 22.3054L221.843 32.4068C221.592 32.9761 221.466 33.5057 221.466 33.9967C221.466 34.7039 221.713 35.2533 222.207 35.6452C222.702 36.0389 223.366 36.2352 224.2 36.2352C224.297 36.2352 224.346 36.2938 224.346 36.4109C224.346 36.5298 224.297 36.5884 224.2 36.5884C223.851 36.5884 223.347 36.5685 222.688 36.5298C221.951 36.4902 221.31 36.4703 220.767 36.4703C220.244 36.4703 219.613 36.4902 218.877 36.5298C218.217 36.5685 217.684 36.5884 217.276 36.5884C217.199 36.5884 217.16 36.5298 217.16 36.4109C217.16 36.2938 217.199 36.2352 217.276 36.2352C217.82 36.2352 218.275 36.122 218.644 35.8963C219.012 35.6707 219.381 35.2684 219.75 34.6887C220.118 34.109 220.554 33.2508 221.058 32.1122L227.371 18.0653C227.41 18.0068 227.498 17.9775 227.633 17.9775C227.789 17.9775 227.875 18.0068 227.895 18.0653L235.168 32.5541C235.846 33.9476 236.41 34.9097 236.855 35.4393C237.301 35.9699 237.767 36.2352 238.252 36.2352ZM248.521 36.9415C246.717 36.9415 245.112 36.5147 243.706 35.6603C242.3 34.8068 241.214 33.6483 240.448 32.1858C239.681 30.7234 239.298 29.1278 239.298 27.4C239.298 25.3777 239.803 23.6452 240.811 22.2025C241.82 20.7599 243.115 19.6751 244.695 18.949C246.276 18.222 247.89 17.8595 249.538 17.8595C251.381 17.8595 253 18.2966 254.397 19.1699C255.794 20.0433 256.865 21.197 257.612 22.6302C258.358 24.0625 258.732 25.5844 258.732 27.1942C258.732 28.9805 258.267 30.6205 257.336 32.1122C256.404 33.6039 255.158 34.7822 253.597 35.6452C252.036 36.51 250.344 36.9415 248.521 36.9415ZM249.48 36.205C250.566 36.205 251.541 35.8859 252.404 35.2486C253.267 34.6104 253.942 33.6776 254.427 32.4511C254.912 31.2238 255.153 29.7556 255.153 28.0486C255.153 26.2425 254.882 24.6271 254.339 23.2042C253.796 21.7805 253.011 20.6664 251.983 19.862C250.955 19.0566 249.752 18.6544 248.375 18.6544C246.611 18.6544 245.252 19.3267 244.303 20.6711C243.352 22.0165 242.877 23.8963 242.877 26.3105C242.877 28.2148 243.163 29.918 243.735 31.4201C244.308 32.9213 245.093 34.0949 246.092 34.9389C247.091 35.783 248.22 36.205 249.48 36.205ZM270.63 26.2519C272.259 26.4483 273.554 26.9978 274.514 27.9013C275.474 28.8039 275.953 29.9227 275.953 31.2577C275.953 32.2784 275.662 33.2017 275.081 34.026C274.499 34.8502 273.694 35.5035 272.667 35.9841C271.639 36.4656 270.494 36.7054 269.234 36.7054C268.69 36.7054 268.07 36.6762 267.372 36.6176C267.1 36.5978 266.765 36.5789 266.369 36.5591C265.971 36.5393 265.529 36.5298 265.044 36.5298L262.921 36.5591C262.534 36.5789 262.009 36.5884 261.35 36.5884C261.292 36.5884 261.262 36.5298 261.262 36.4109C261.262 36.2938 261.292 36.2352 261.35 36.2352C261.912 36.2352 262.34 36.1805 262.63 36.0729C262.921 35.9652 263.13 35.7688 263.256 35.4837C263.381 35.1995 263.444 34.7728 263.444 34.2025V20.5682C263.444 19.744 263.309 19.1992 263.037 18.9339C262.766 18.6686 262.213 18.5364 261.379 18.5364C261.341 18.5364 261.321 18.4779 261.321 18.3599C261.321 18.2419 261.341 18.1833 261.379 18.1833L262.921 18.2126C263.813 18.2522 264.52 18.2721 265.044 18.2721C265.588 18.2721 266.15 18.2419 266.732 18.1833C266.926 18.1635 267.217 18.1437 267.605 18.1238C267.993 18.105 268.331 18.0946 268.622 18.0946C270.388 18.0946 271.755 18.4184 272.724 19.067C273.694 19.7138 274.179 20.657 274.179 21.8938C274.179 22.836 273.873 23.6905 273.263 24.4562C272.652 25.2219 271.775 25.8195 270.63 26.2519ZM268.187 18.7422C267.624 18.7422 267.236 18.8754 267.023 19.1397C266.809 19.405 266.703 19.9007 266.703 20.6277V26.2227L267.867 26.2519C268.875 26.2519 269.65 25.8686 270.194 25.1029C270.737 24.3372 271.008 23.3563 271.008 22.1591C271.008 21.0393 270.766 20.1906 270.281 19.6118C269.796 19.0321 269.098 18.7422 268.187 18.7422ZM268.739 35.9699C271.28 35.9699 272.55 34.6349 272.55 31.9649C272.55 30.4533 272.192 29.2552 271.474 28.3725C270.756 27.4887 269.67 27.0469 268.216 27.0469C267.653 27.0469 267.149 27.0667 266.703 27.1054V34.2025C266.703 34.8502 266.829 35.3072 267.081 35.5725C267.333 35.8368 267.886 35.9699 268.739 35.9699ZM289.714 17.8595C290.568 17.8595 291.46 17.9322 292.39 18.0804C293.321 18.2268 294.049 18.4184 294.572 18.6544C294.746 18.713 294.858 18.7866 294.907 18.8754C294.955 18.9632 294.999 19.1161 295.037 19.3314L295.387 23.4252C295.387 23.4837 295.339 23.5234 295.241 23.5422C295.145 23.5621 295.087 23.5328 295.067 23.4544C294.408 21.9032 293.525 20.7061 292.419 19.862C291.314 19.017 290.034 18.5959 288.579 18.5959C286.66 18.5959 285.176 19.3116 284.129 20.7448C283.081 22.178 282.558 24.1021 282.558 26.5172C282.558 28.3234 282.843 29.9718 283.416 31.4645C283.988 32.9563 284.793 34.1393 285.831 35.0126C286.868 35.8859 288.046 36.3231 289.365 36.3231C290.606 36.3231 291.716 35.9057 292.696 35.0711C293.675 34.2374 294.552 32.9666 295.328 31.2577C295.348 31.1794 295.411 31.1501 295.518 31.1699C295.625 31.1898 295.678 31.2285 295.678 31.287L295.241 35.293C295.203 35.5281 295.159 35.6801 295.111 35.749C295.062 35.8179 294.951 35.8906 294.776 35.9699C293.05 36.6176 291.276 36.9415 289.452 36.9415C287.086 36.9415 285.108 36.4656 283.518 35.513C281.927 34.5613 280.759 33.3537 280.012 31.8913C279.265 30.4288 278.892 28.9021 278.892 27.3122C278.892 25.4475 279.391 23.7981 280.39 22.3649C281.389 20.9317 282.717 19.8223 284.376 19.0368C286.034 18.2522 287.814 17.8595 289.714 17.8595ZM316.594 36.2352C316.653 36.2352 316.682 36.2938 316.682 36.4109C316.682 36.5298 316.653 36.5884 316.594 36.5884H312.114C311.862 36.5884 311.635 36.51 311.431 36.3523C311.227 36.1956 310.873 35.7887 310.369 35.1306C309.865 34.4725 309.04 33.3094 307.896 31.6411L307.11 30.5213C306.432 29.5205 305.928 28.819 305.598 28.4159C305.268 28.0137 304.924 27.7295 304.565 27.5624C304.206 27.3953 303.736 27.3122 303.154 27.3122V34.2025C303.154 34.7917 303.208 35.2288 303.314 35.513C303.421 35.7981 303.63 35.9898 303.94 36.088C304.251 36.1852 304.735 36.2352 305.394 36.2352C305.452 36.2352 305.482 36.2938 305.482 36.4109C305.482 36.5298 305.452 36.5884 305.394 36.5884C304.716 36.5884 304.172 36.5789 303.766 36.5591L301.35 36.5298L299.227 36.5591C298.839 36.5789 298.316 36.5884 297.656 36.5884C297.598 36.5884 297.569 36.5298 297.569 36.4109C297.569 36.2938 297.598 36.2352 297.656 36.2352C298.316 36.2352 298.8 36.1852 299.111 36.088C299.421 35.9898 299.634 35.7981 299.75 35.513C299.867 35.2288 299.926 34.7917 299.926 34.2025V20.5682C299.926 19.9791 299.867 19.5476 299.75 19.2729C299.634 18.9981 299.426 18.8065 299.125 18.6979C298.824 18.5902 298.345 18.5364 297.685 18.5364C297.627 18.5364 297.598 18.4779 297.598 18.3599C297.598 18.2419 297.627 18.1833 297.685 18.1833L299.227 18.2126C300.119 18.2522 300.827 18.2721 301.35 18.2721C302.01 18.2721 302.825 18.2522 303.795 18.2126L305.394 18.1833C305.452 18.1833 305.482 18.2419 305.482 18.3599C305.482 18.4779 305.452 18.5364 305.394 18.5364C304.754 18.5364 304.28 18.5959 303.969 18.713C303.658 18.831 303.445 19.0321 303.328 19.3172C303.213 19.6014 303.154 20.0386 303.154 20.6277V26.8118C303.678 26.792 304.337 26.7825 305.132 26.7825L308.187 22.5415C308.982 21.4227 309.38 20.4899 309.38 19.744C309.38 19.371 309.273 19.0765 309.06 18.8603C308.847 18.6441 308.556 18.5364 308.187 18.5364C308.148 18.5364 308.129 18.4779 308.129 18.3599C308.129 18.2419 308.148 18.1833 308.187 18.1833L309.525 18.2126C310.379 18.2522 311.135 18.2721 311.794 18.2721C312.551 18.2721 313.336 18.2522 314.151 18.2126L315.402 18.1833C315.46 18.1833 315.489 18.2419 315.489 18.3599C315.489 18.4779 315.46 18.5364 315.402 18.5364C314.549 18.5364 313.589 18.8508 312.522 19.4787C311.455 20.1075 310.553 20.8921 309.816 21.8343L305.86 26.8118C306.616 26.8505 307.236 26.9931 307.721 27.2386C308.206 27.484 308.687 27.8711 309.161 28.4017C309.637 28.9314 310.31 29.8151 311.183 31.0519L311.707 31.7884C312.522 32.927 313.157 33.7805 313.613 34.3498C314.068 34.9191 314.538 35.3704 315.023 35.7046C315.508 36.0389 316.032 36.2145 316.594 36.2352ZM337.656 36.2352C337.715 36.2352 337.744 36.2938 337.744 36.4109C337.744 36.5298 337.715 36.5884 337.656 36.5884C336.978 36.5884 336.435 36.5789 336.028 36.5591L333.788 36.5298L331.169 36.5591C330.82 36.5789 330.345 36.5884 329.743 36.5884C329.686 36.5884 329.657 36.5298 329.657 36.4109C329.657 36.2938 329.686 36.2352 329.743 36.2352C330.462 36.2352 330.985 36.1852 331.315 36.088C331.644 35.9898 331.867 35.8028 331.984 35.5281C332.1 35.2533 332.158 34.8115 332.158 34.2025V22.1591L320.522 36.9122C320.464 36.9707 320.318 37 320.085 37C319.717 37 319.533 36.932 319.533 36.7942V20.5682C319.533 19.9791 319.474 19.5476 319.358 19.2729C319.242 18.9981 319.028 18.8065 318.719 18.6979C318.407 18.5902 317.923 18.5364 317.264 18.5364C317.206 18.5364 317.176 18.4779 317.176 18.3599C317.176 18.2419 317.206 18.1833 317.264 18.1833L318.892 18.2126C319.862 18.2522 320.609 18.2721 321.133 18.2721C321.909 18.2721 322.782 18.2522 323.751 18.2126L325.176 18.1833C325.235 18.1833 325.264 18.2419 325.264 18.3599C325.264 18.4779 325.235 18.5364 325.176 18.5364C324.459 18.5364 323.935 18.5902 323.605 18.6979C323.276 18.8065 323.053 18.9981 322.936 19.2729C322.82 19.5476 322.762 19.9791 322.762 20.5682V32.7306L334.398 17.9775C334.456 17.918 334.602 17.8887 334.835 17.8887C334.971 17.8887 335.096 17.9086 335.213 17.9473C335.329 17.9869 335.387 18.036 335.387 18.0946V34.2025C335.387 34.7917 335.446 35.2288 335.562 35.513C335.678 35.7981 335.892 35.9898 336.202 36.088C336.513 36.1852 336.997 36.2352 337.656 36.2352ZM350.254 16.9172C349.517 16.9172 348.818 16.7898 348.159 16.5339C347.499 16.279 346.966 15.94 346.558 15.518C346.151 15.096 345.948 14.6494 345.948 14.1783C345.948 13.8252 346.059 13.54 346.282 13.3238C346.505 13.1086 346.82 13 347.228 13C347.674 13 347.984 13.1331 348.159 13.3975C348.333 13.6628 348.498 14.0801 348.653 14.6494C348.827 15.2584 349.017 15.705 349.221 15.9891C349.424 16.2743 349.759 16.4159 350.225 16.4159C350.71 16.4159 351.063 16.2639 351.286 15.9599C351.509 15.6559 351.718 15.2093 351.911 14.6201C352.086 14.0697 352.265 13.6628 352.45 13.3975C352.634 13.1331 352.929 13 353.337 13C353.745 13 354.054 13.1086 354.268 13.3238C354.481 13.54 354.588 13.8252 354.588 14.1783C354.588 14.6692 354.384 15.1253 353.977 15.5473C353.569 15.9703 353.037 16.3035 352.376 16.549C351.718 16.7945 351.01 16.9172 350.254 16.9172ZM359.912 36.2352C359.969 36.2352 359.998 36.2938 359.998 36.4109C359.998 36.5298 359.969 36.5884 359.912 36.5884C359.233 36.5884 358.69 36.5789 358.282 36.5591L356.043 36.5298L353.424 36.5591C353.075 36.5789 352.6 36.5884 351.999 36.5884C351.941 36.5884 351.911 36.5298 351.911 36.4109C351.911 36.2938 351.941 36.2352 351.999 36.2352C352.717 36.2352 353.24 36.1852 353.569 36.088C353.899 35.9898 354.122 35.8028 354.239 35.5281C354.356 35.2533 354.413 34.8115 354.413 34.2025V22.1591L342.777 36.9122C342.718 36.9707 342.574 37 342.34 37C341.972 37 341.787 36.932 341.787 36.7942V20.5682C341.787 19.9791 341.73 19.5476 341.613 19.2729C341.496 18.9981 341.284 18.8065 340.973 18.6979C340.663 18.5902 340.178 18.5364 339.518 18.5364C339.46 18.5364 339.431 18.4779 339.431 18.3599C339.431 18.2419 339.46 18.1833 339.518 18.1833L341.148 18.2126C342.118 18.2522 342.865 18.2721 343.388 18.2721C344.164 18.2721 345.036 18.2522 346.006 18.2126L347.431 18.1833C347.49 18.1833 347.519 18.2419 347.519 18.3599C347.519 18.4779 347.49 18.5364 347.431 18.5364C346.714 18.5364 346.191 18.5902 345.86 18.6979C345.53 18.8065 345.307 18.9981 345.192 19.2729C345.075 19.5476 345.016 19.9791 345.016 20.5682V32.7306L356.654 17.9775C356.712 17.918 356.857 17.8887 357.09 17.8887C357.225 17.8887 357.351 17.9086 357.468 17.9473C357.585 17.9869 357.642 18.036 357.642 18.0946V34.2025C357.642 34.7917 357.7 35.2288 357.817 35.513C357.933 35.7981 358.147 35.9898 358.457 36.088C358.767 36.1852 359.252 36.2352 359.912 36.2352Z"/>
</mask>
<path d="M132.533 36.2352C132.572 36.2352 132.591 36.2938 132.591 36.4109C132.591 36.5298 132.572 36.5884 132.533 36.5884C131.874 36.5884 131.35 36.5789 130.963 36.5591L128.809 36.5298L126.627 36.5591C126.259 36.5789 125.754 36.5884 125.115 36.5884C125.057 36.5884 125.028 36.5298 125.028 36.4109C125.028 36.2938 125.057 36.2352 125.115 36.2352C125.93 36.2352 126.482 36.1361 126.773 35.9397C127.064 35.7443 127.209 35.3317 127.209 34.7039L127.181 34.2025L126.57 22.1591L120.577 36.3816C120.538 36.4609 120.46 36.4996 120.344 36.4996C120.227 36.4996 120.15 36.4609 120.112 36.3816L112.751 22.2176L112.518 32.8477C112.499 33.9079 112.708 34.7378 113.144 35.3364C113.58 35.935 114.196 36.2352 114.991 36.2352C115.049 36.2352 115.079 36.2938 115.079 36.4109C115.079 36.5298 115.049 36.5884 114.991 36.5884C114.468 36.5884 114.06 36.5789 113.769 36.5591L112.17 36.5298L110.337 36.5591C110.026 36.5789 109.609 36.5884 109.085 36.5884C109.027 36.5884 108.998 36.5298 108.998 36.4109C108.998 36.2938 109.027 36.2352 109.085 36.2352C109.881 36.2352 110.511 35.9303 110.977 35.3223C111.442 34.7133 111.685 33.8881 111.704 32.8477L111.965 20.657L111.936 20.6277C111.548 19.9007 111.146 19.371 110.73 19.0368C110.312 18.7035 109.832 18.5364 109.289 18.5364C109.231 18.5364 109.202 18.4779 109.202 18.3599C109.202 18.2419 109.231 18.1833 109.289 18.1833L110.657 18.2126C110.928 18.2324 111.277 18.2419 111.704 18.2419L113.246 18.2126C113.42 18.1928 113.643 18.1833 113.915 18.1833C114.167 18.1833 114.361 18.2721 114.497 18.4477C114.632 18.6252 114.884 19.0472 115.253 19.7138L121.595 31.7581L127.123 18.9188C127.238 18.6441 127.36 18.4533 127.486 18.3448C127.612 18.2371 127.781 18.1833 127.995 18.1833C128.169 18.1833 128.368 18.1928 128.592 18.2126C128.815 18.2324 129.071 18.2419 129.362 18.2419L131.078 18.2126C131.35 18.1928 131.739 18.1833 132.242 18.1833C132.3 18.1833 132.33 18.2419 132.33 18.3599C132.33 18.4779 132.3 18.5364 132.242 18.5364C131.331 18.5364 130.672 18.7224 130.264 19.0963C129.856 19.4692 129.673 20.048 129.712 20.8335L130.41 34.2025C130.449 34.8115 130.521 35.2533 130.628 35.5281C130.734 35.8028 130.928 35.9898 131.21 36.088C131.491 36.1852 131.932 36.2352 132.533 36.2352ZM154.555 36.2352C154.614 36.2352 154.643 36.2938 154.643 36.4109C154.643 36.5298 154.614 36.5884 154.555 36.5884C153.876 36.5884 153.334 36.5789 152.926 36.5591L150.686 36.5298L148.068 36.5591C147.719 36.5789 147.244 36.5884 146.642 36.5884C146.585 36.5884 146.556 36.5298 146.556 36.4109C146.556 36.2938 146.585 36.2352 146.642 36.2352C147.36 36.2352 147.884 36.1852 148.214 36.088C148.543 35.9898 148.766 35.8028 148.883 35.5281C148.999 35.2533 149.057 34.8115 149.057 34.2025V22.1591L137.421 36.9122C137.363 36.9707 137.216 37 136.984 37C136.616 37 136.431 36.932 136.431 36.7942V20.5682C136.431 19.9791 136.373 19.5476 136.257 19.2729C136.14 18.9981 135.927 18.8065 135.617 18.6979C135.306 18.5902 134.822 18.5364 134.162 18.5364C134.104 18.5364 134.075 18.4779 134.075 18.3599C134.075 18.2419 134.104 18.1833 134.162 18.1833L135.791 18.2126C136.761 18.2522 137.507 18.2721 138.032 18.2721C138.808 18.2721 139.68 18.2522 140.65 18.2126L142.075 18.1833C142.134 18.1833 142.163 18.2419 142.163 18.3599C142.163 18.4779 142.134 18.5364 142.075 18.5364C141.358 18.5364 140.833 18.5902 140.504 18.6979C140.175 18.8065 139.951 18.9981 139.835 19.2729C139.719 19.5476 139.661 19.9791 139.661 20.5682V32.7306L151.297 17.9775C151.355 17.918 151.501 17.8887 151.733 17.8887C151.869 17.8887 151.995 17.9086 152.112 17.9473C152.228 17.9869 152.286 18.036 152.286 18.0946V34.2025C152.286 34.7917 152.345 35.2288 152.461 35.513C152.577 35.7981 152.791 35.9898 153.101 36.088C153.411 36.1852 153.896 36.2352 154.555 36.2352ZM174.221 36.2352C174.279 36.2352 174.308 36.2938 174.308 36.4109C174.308 36.5298 174.279 36.5884 174.221 36.5884C173.659 36.5884 173.223 36.5789 172.912 36.5591L171.167 36.5298L168.781 36.5591C168.413 36.5789 167.899 36.5884 167.239 36.5884C167.18 36.5884 167.152 36.5298 167.152 36.4109C167.152 36.2938 167.18 36.2352 167.239 36.2352C167.879 36.2352 168.199 36.0681 168.199 35.7339C168.199 35.5574 168.112 35.3411 167.937 35.0862L163.952 28.8436L161.45 32.4653C160.694 33.5454 160.316 34.4187 160.316 35.0862C160.316 35.8519 160.819 36.2352 161.828 36.2352C161.867 36.2352 161.886 36.2938 161.886 36.4109C161.886 36.5298 161.867 36.5884 161.828 36.5884C161.189 36.5884 160.704 36.5789 160.374 36.5591L158.221 36.5298L156.854 36.5591C156.602 36.5789 156.194 36.5884 155.632 36.5884C155.574 36.5884 155.544 36.5298 155.544 36.4109C155.544 36.2938 155.574 36.2352 155.632 36.2352C156.233 36.2352 156.97 35.9105 157.842 35.2628C158.715 34.6151 159.627 33.6238 160.577 32.2887L163.545 28.2252L158.89 20.8921C158.366 20.048 157.863 19.4447 157.378 19.0812C156.893 18.7177 156.379 18.5364 155.835 18.5364C155.777 18.5364 155.748 18.4779 155.748 18.3599C155.748 18.2419 155.777 18.1833 155.835 18.1833L157.087 18.2126C157.63 18.2522 158.036 18.2721 158.308 18.2721C158.987 18.2721 159.831 18.2522 160.839 18.2126L162.497 18.1833C162.537 18.1833 162.555 18.2419 162.555 18.3599C162.555 18.4779 162.537 18.5364 162.497 18.5364C161.838 18.5364 161.509 18.7035 161.509 19.0368C161.509 19.1935 161.595 19.4201 161.77 19.7138L165.61 25.6921L167.937 22.3356C168.693 21.2357 169.072 20.353 169.072 19.6845C169.072 18.9188 168.568 18.5364 167.559 18.5364C167.521 18.5364 167.501 18.4779 167.501 18.3599C167.501 18.2419 167.521 18.1833 167.559 18.1833L169.014 18.2126C169.79 18.2522 170.507 18.2721 171.167 18.2721C171.574 18.2721 172.03 18.2522 172.533 18.2126L173.756 18.1833C173.814 18.1833 173.843 18.2419 173.843 18.3599C173.843 18.4779 173.814 18.5364 173.756 18.5364C173.136 18.5364 172.393 18.865 171.531 19.5231C170.667 20.1802 169.75 21.1772 168.781 22.5122L166.017 26.3397L170.992 34.144C171.477 34.87 171.972 35.4006 172.475 35.7339C172.98 36.0681 173.561 36.2352 174.221 36.2352ZM195.167 36.2352C195.264 36.2352 195.313 36.2938 195.313 36.4109C195.313 36.5298 195.264 36.5884 195.167 36.5884C194.779 36.5884 194.178 36.5685 193.363 36.5298C192.51 36.4902 191.899 36.4703 191.531 36.4703C191.046 36.4703 190.454 36.4902 189.756 36.5298C189.096 36.5685 188.573 36.5884 188.185 36.5884C188.108 36.5884 188.068 36.5298 188.068 36.4109C188.068 36.2938 188.108 36.2352 188.185 36.2352C188.69 36.2352 189.052 36.1805 189.276 36.0729C189.499 35.9652 189.61 35.7736 189.61 35.4988C189.61 35.1646 189.417 34.6057 189.028 33.8201L186.003 27.7833H180.825L178.76 32.4068C178.507 32.9761 178.381 33.5057 178.381 33.9967C178.381 34.7039 178.629 35.2533 179.123 35.6452C179.617 36.0389 180.282 36.2352 181.116 36.2352C181.213 36.2352 181.262 36.2938 181.262 36.4109C181.262 36.5298 181.213 36.5884 181.116 36.5884C180.767 36.5884 180.263 36.5685 179.603 36.5298C178.866 36.4902 178.227 36.4703 177.683 36.4703C177.159 36.4703 176.529 36.4902 175.792 36.5298C175.133 36.5685 174.599 36.5884 174.193 36.5884C174.114 36.5884 174.076 36.5298 174.076 36.4109C174.076 36.2938 174.114 36.2352 174.193 36.2352C174.735 36.2352 175.191 36.122 175.559 35.8963C175.928 35.6707 176.297 35.2684 176.665 34.6887C177.034 34.109 177.47 33.2508 177.974 32.1122L184.287 18.0653C184.325 18.0068 184.413 17.9775 184.548 17.9775C184.703 17.9775 184.791 18.0068 184.81 18.0653L192.083 32.5541C192.762 33.9476 193.324 34.9097 193.771 35.4393C194.217 35.9699 194.682 36.2352 195.167 36.2352ZM181.203 26.9581H185.596L183.269 22.3054L181.203 26.9581ZM206.804 16.9172C206.067 16.9172 205.368 16.7898 204.709 16.5339C204.049 16.279 203.516 15.94 203.109 15.518C202.702 15.096 202.498 14.6494 202.498 14.1783C202.498 13.8252 202.61 13.54 202.833 13.3238C203.055 13.1086 203.371 13 203.778 13C204.224 13 204.534 13.1331 204.709 13.3975C204.883 13.6628 205.048 14.0801 205.204 14.6494C205.378 15.2584 205.567 15.705 205.771 15.9891C205.974 16.2743 206.308 16.4159 206.775 16.4159C207.26 16.4159 207.613 16.2639 207.836 15.9599C208.059 15.6559 208.268 15.2093 208.462 14.6201C208.636 14.0697 208.815 13.6628 209 13.3975C209.184 13.1331 209.48 13 209.887 13C210.295 13 210.604 13.1086 210.818 13.3238C211.032 13.54 211.138 13.8252 211.138 14.1783C211.138 14.6692 210.935 15.1253 210.527 15.5473C210.119 15.9703 209.587 16.3035 208.927 16.549C208.268 16.7945 207.56 16.9172 206.804 16.9172ZM216.462 36.2352C216.52 36.2352 216.549 36.2938 216.549 36.4109C216.549 36.5298 216.52 36.5884 216.462 36.5884C215.784 36.5884 215.24 36.5789 214.833 36.5591L212.593 36.5298L209.975 36.5591C209.625 36.5789 209.15 36.5884 208.549 36.5884C208.491 36.5884 208.462 36.5298 208.462 36.4109C208.462 36.2938 208.491 36.2352 208.549 36.2352C209.267 36.2352 209.79 36.1852 210.119 36.088C210.45 35.9898 210.672 35.8028 210.789 35.5281C210.906 35.2533 210.963 34.8115 210.963 34.2025V22.1591L199.327 36.9122C199.269 36.9707 199.124 37 198.891 37C198.522 37 198.338 36.932 198.338 36.7942V20.5682C198.338 19.9791 198.28 19.5476 198.163 19.2729C198.047 18.9981 197.834 18.8065 197.523 18.6979C197.213 18.5902 196.729 18.5364 196.069 18.5364C196.01 18.5364 195.981 18.4779 195.981 18.3599C195.981 18.2419 196.01 18.1833 196.069 18.1833L197.698 18.2126C198.668 18.2522 199.414 18.2721 199.938 18.2721C200.714 18.2721 201.587 18.2522 202.556 18.2126L203.981 18.1833C204.04 18.1833 204.069 18.2419 204.069 18.3599C204.069 18.4779 204.04 18.5364 203.981 18.5364C203.264 18.5364 202.74 18.5902 202.411 18.6979C202.081 18.8065 201.858 18.9981 201.742 19.2729C201.625 19.5476 201.567 19.9791 201.567 20.5682V32.7306L213.204 17.9775C213.262 17.918 213.407 17.8887 213.64 17.8887C213.777 17.8887 213.902 17.9086 214.018 17.9473C214.135 17.9869 214.193 18.036 214.193 18.0946V34.2025C214.193 34.7917 214.251 35.2288 214.367 35.513C214.484 35.7981 214.697 35.9898 215.008 36.088C215.318 36.1852 215.802 36.2352 216.462 36.2352ZM238.252 36.2352C238.348 36.2352 238.397 36.2938 238.397 36.4109C238.397 36.5298 238.348 36.5884 238.252 36.5884C237.864 36.5884 237.262 36.5685 236.448 36.5298C235.594 36.4902 234.983 36.4703 234.615 36.4703C234.13 36.4703 233.539 36.4902 232.84 36.5298C232.181 36.5685 231.657 36.5884 231.269 36.5884C231.192 36.5884 231.153 36.5298 231.153 36.4109C231.153 36.2938 231.192 36.2352 231.269 36.2352C231.773 36.2352 232.138 36.1805 232.361 36.0729C232.584 35.9652 232.695 35.7736 232.695 35.4988C232.695 35.1646 232.501 34.6057 232.113 33.8201L226.353 22.3054L221.843 32.4068C221.592 32.9761 221.466 33.5057 221.466 33.9967C221.466 34.7039 221.713 35.2533 222.207 35.6452C222.702 36.0389 223.366 36.2352 224.2 36.2352C224.297 36.2352 224.346 36.2938 224.346 36.4109C224.346 36.5298 224.297 36.5884 224.2 36.5884C223.851 36.5884 223.347 36.5685 222.688 36.5298C221.951 36.4902 221.31 36.4703 220.767 36.4703C220.244 36.4703 219.613 36.4902 218.877 36.5298C218.217 36.5685 217.684 36.5884 217.276 36.5884C217.199 36.5884 217.16 36.5298 217.16 36.4109C217.16 36.2938 217.199 36.2352 217.276 36.2352C217.82 36.2352 218.275 36.122 218.644 35.8963C219.012 35.6707 219.381 35.2684 219.75 34.6887C220.118 34.109 220.554 33.2508 221.058 32.1122L227.371 18.0653C227.41 18.0068 227.498 17.9775 227.633 17.9775C227.789 17.9775 227.875 18.0068 227.895 18.0653L235.168 32.5541C235.846 33.9476 236.41 34.9097 236.855 35.4393C237.301 35.9699 237.767 36.2352 238.252 36.2352ZM248.521 36.9415C246.717 36.9415 245.112 36.5147 243.706 35.6603C242.3 34.8068 241.214 33.6483 240.448 32.1858C239.681 30.7234 239.298 29.1278 239.298 27.4C239.298 25.3777 239.803 23.6452 240.811 22.2025C241.82 20.7599 243.115 19.6751 244.695 18.949C246.276 18.222 247.89 17.8595 249.538 17.8595C251.381 17.8595 253 18.2966 254.397 19.1699C255.794 20.0433 256.865 21.197 257.612 22.6302C258.358 24.0625 258.732 25.5844 258.732 27.1942C258.732 28.9805 258.267 30.6205 257.336 32.1122C256.404 33.6039 255.158 34.7822 253.597 35.6452C252.036 36.51 250.344 36.9415 248.521 36.9415ZM249.48 36.205C250.566 36.205 251.541 35.8859 252.404 35.2486C253.267 34.6104 253.942 33.6776 254.427 32.4511C254.912 31.2238 255.153 29.7556 255.153 28.0486C255.153 26.2425 254.882 24.6271 254.339 23.2042C253.796 21.7805 253.011 20.6664 251.983 19.862C250.955 19.0566 249.752 18.6544 248.375 18.6544C246.611 18.6544 245.252 19.3267 244.303 20.6711C243.352 22.0165 242.877 23.8963 242.877 26.3105C242.877 28.2148 243.163 29.918 243.735 31.4201C244.308 32.9213 245.093 34.0949 246.092 34.9389C247.091 35.783 248.22 36.205 249.48 36.205ZM270.63 26.2519C272.259 26.4483 273.554 26.9978 274.514 27.9013C275.474 28.8039 275.953 29.9227 275.953 31.2577C275.953 32.2784 275.662 33.2017 275.081 34.026C274.499 34.8502 273.694 35.5035 272.667 35.9841C271.639 36.4656 270.494 36.7054 269.234 36.7054C268.69 36.7054 268.07 36.6762 267.372 36.6176C267.1 36.5978 266.765 36.5789 266.369 36.5591C265.971 36.5393 265.529 36.5298 265.044 36.5298L262.921 36.5591C262.534 36.5789 262.009 36.5884 261.35 36.5884C261.292 36.5884 261.262 36.5298 261.262 36.4109C261.262 36.2938 261.292 36.2352 261.35 36.2352C261.912 36.2352 262.34 36.1805 262.63 36.0729C262.921 35.9652 263.13 35.7688 263.256 35.4837C263.381 35.1995 263.444 34.7728 263.444 34.2025V20.5682C263.444 19.744 263.309 19.1992 263.037 18.9339C262.766 18.6686 262.213 18.5364 261.379 18.5364C261.341 18.5364 261.321 18.4779 261.321 18.3599C261.321 18.2419 261.341 18.1833 261.379 18.1833L262.921 18.2126C263.813 18.2522 264.52 18.2721 265.044 18.2721C265.588 18.2721 266.15 18.2419 266.732 18.1833C266.926 18.1635 267.217 18.1437 267.605 18.1238C267.993 18.105 268.331 18.0946 268.622 18.0946C270.388 18.0946 271.755 18.4184 272.724 19.067C273.694 19.7138 274.179 20.657 274.179 21.8938C274.179 22.836 273.873 23.6905 273.263 24.4562C272.652 25.2219 271.775 25.8195 270.63 26.2519ZM268.187 18.7422C267.624 18.7422 267.236 18.8754 267.023 19.1397C266.809 19.405 266.703 19.9007 266.703 20.6277V26.2227L267.867 26.2519C268.875 26.2519 269.65 25.8686 270.194 25.1029C270.737 24.3372 271.008 23.3563 271.008 22.1591C271.008 21.0393 270.766 20.1906 270.281 19.6118C269.796 19.0321 269.098 18.7422 268.187 18.7422ZM268.739 35.9699C271.28 35.9699 272.55 34.6349 272.55 31.9649C272.55 30.4533 272.192 29.2552 271.474 28.3725C270.756 27.4887 269.67 27.0469 268.216 27.0469C267.653 27.0469 267.149 27.0667 266.703 27.1054V34.2025C266.703 34.8502 266.829 35.3072 267.081 35.5725C267.333 35.8368 267.886 35.9699 268.739 35.9699ZM289.714 17.8595C290.568 17.8595 291.46 17.9322 292.39 18.0804C293.321 18.2268 294.049 18.4184 294.572 18.6544C294.746 18.713 294.858 18.7866 294.907 18.8754C294.955 18.9632 294.999 19.1161 295.037 19.3314L295.387 23.4252C295.387 23.4837 295.339 23.5234 295.241 23.5422C295.145 23.5621 295.087 23.5328 295.067 23.4544C294.408 21.9032 293.525 20.7061 292.419 19.862C291.314 19.017 290.034 18.5959 288.579 18.5959C286.66 18.5959 285.176 19.3116 284.129 20.7448C283.081 22.178 282.558 24.1021 282.558 26.5172C282.558 28.3234 282.843 29.9718 283.416 31.4645C283.988 32.9563 284.793 34.1393 285.831 35.0126C286.868 35.8859 288.046 36.3231 289.365 36.3231C290.606 36.3231 291.716 35.9057 292.696 35.0711C293.675 34.2374 294.552 32.9666 295.328 31.2577C295.348 31.1794 295.411 31.1501 295.518 31.1699C295.625 31.1898 295.678 31.2285 295.678 31.287L295.241 35.293C295.203 35.5281 295.159 35.6801 295.111 35.749C295.062 35.8179 294.951 35.8906 294.776 35.9699C293.05 36.6176 291.276 36.9415 289.452 36.9415C287.086 36.9415 285.108 36.4656 283.518 35.513C281.927 34.5613 280.759 33.3537 280.012 31.8913C279.265 30.4288 278.892 28.9021 278.892 27.3122C278.892 25.4475 279.391 23.7981 280.39 22.3649C281.389 20.9317 282.717 19.8223 284.376 19.0368C286.034 18.2522 287.814 17.8595 289.714 17.8595ZM316.594 36.2352C316.653 36.2352 316.682 36.2938 316.682 36.4109C316.682 36.5298 316.653 36.5884 316.594 36.5884H312.114C311.862 36.5884 311.635 36.51 311.431 36.3523C311.227 36.1956 310.873 35.7887 310.369 35.1306C309.865 34.4725 309.04 33.3094 307.896 31.6411L307.11 30.5213C306.432 29.5205 305.928 28.819 305.598 28.4159C305.268 28.0137 304.924 27.7295 304.565 27.5624C304.206 27.3953 303.736 27.3122 303.154 27.3122V34.2025C303.154 34.7917 303.208 35.2288 303.314 35.513C303.421 35.7981 303.63 35.9898 303.94 36.088C304.251 36.1852 304.735 36.2352 305.394 36.2352C305.452 36.2352 305.482 36.2938 305.482 36.4109C305.482 36.5298 305.452 36.5884 305.394 36.5884C304.716 36.5884 304.172 36.5789 303.766 36.5591L301.35 36.5298L299.227 36.5591C298.839 36.5789 298.316 36.5884 297.656 36.5884C297.598 36.5884 297.569 36.5298 297.569 36.4109C297.569 36.2938 297.598 36.2352 297.656 36.2352C298.316 36.2352 298.8 36.1852 299.111 36.088C299.421 35.9898 299.634 35.7981 299.75 35.513C299.867 35.2288 299.926 34.7917 299.926 34.2025V20.5682C299.926 19.9791 299.867 19.5476 299.75 19.2729C299.634 18.9981 299.426 18.8065 299.125 18.6979C298.824 18.5902 298.345 18.5364 297.685 18.5364C297.627 18.5364 297.598 18.4779 297.598 18.3599C297.598 18.2419 297.627 18.1833 297.685 18.1833L299.227 18.2126C300.119 18.2522 300.827 18.2721 301.35 18.2721C302.01 18.2721 302.825 18.2522 303.795 18.2126L305.394 18.1833C305.452 18.1833 305.482 18.2419 305.482 18.3599C305.482 18.4779 305.452 18.5364 305.394 18.5364C304.754 18.5364 304.28 18.5959 303.969 18.713C303.658 18.831 303.445 19.0321 303.328 19.3172C303.213 19.6014 303.154 20.0386 303.154 20.6277V26.8118C303.678 26.792 304.337 26.7825 305.132 26.7825L308.187 22.5415C308.982 21.4227 309.38 20.4899 309.38 19.744C309.38 19.371 309.273 19.0765 309.06 18.8603C308.847 18.6441 308.556 18.5364 308.187 18.5364C308.148 18.5364 308.129 18.4779 308.129 18.3599C308.129 18.2419 308.148 18.1833 308.187 18.1833L309.525 18.2126C310.379 18.2522 311.135 18.2721 311.794 18.2721C312.551 18.2721 313.336 18.2522 314.151 18.2126L315.402 18.1833C315.46 18.1833 315.489 18.2419 315.489 18.3599C315.489 18.4779 315.46 18.5364 315.402 18.5364C314.549 18.5364 313.589 18.8508 312.522 19.4787C311.455 20.1075 310.553 20.8921 309.816 21.8343L305.86 26.8118C306.616 26.8505 307.236 26.9931 307.721 27.2386C308.206 27.484 308.687 27.8711 309.161 28.4017C309.637 28.9314 310.31 29.8151 311.183 31.0519L311.707 31.7884C312.522 32.927 313.157 33.7805 313.613 34.3498C314.068 34.9191 314.538 35.3704 315.023 35.7046C315.508 36.0389 316.032 36.2145 316.594 36.2352ZM337.656 36.2352C337.715 36.2352 337.744 36.2938 337.744 36.4109C337.744 36.5298 337.715 36.5884 337.656 36.5884C336.978 36.5884 336.435 36.5789 336.028 36.5591L333.788 36.5298L331.169 36.5591C330.82 36.5789 330.345 36.5884 329.743 36.5884C329.686 36.5884 329.657 36.5298 329.657 36.4109C329.657 36.2938 329.686 36.2352 329.743 36.2352C330.462 36.2352 330.985 36.1852 331.315 36.088C331.644 35.9898 331.867 35.8028 331.984 35.5281C332.1 35.2533 332.158 34.8115 332.158 34.2025V22.1591L320.522 36.9122C320.464 36.9707 320.318 37 320.085 37C319.717 37 319.533 36.932 319.533 36.7942V20.5682C319.533 19.9791 319.474 19.5476 319.358 19.2729C319.242 18.9981 319.028 18.8065 318.719 18.6979C318.407 18.5902 317.923 18.5364 317.264 18.5364C317.206 18.5364 317.176 18.4779 317.176 18.3599C317.176 18.2419 317.206 18.1833 317.264 18.1833L318.892 18.2126C319.862 18.2522 320.609 18.2721 321.133 18.2721C321.909 18.2721 322.782 18.2522 323.751 18.2126L325.176 18.1833C325.235 18.1833 325.264 18.2419 325.264 18.3599C325.264 18.4779 325.235 18.5364 325.176 18.5364C324.459 18.5364 323.935 18.5902 323.605 18.6979C323.276 18.8065 323.053 18.9981 322.936 19.2729C322.82 19.5476 322.762 19.9791 322.762 20.5682V32.7306L334.398 17.9775C334.456 17.918 334.602 17.8887 334.835 17.8887C334.971 17.8887 335.096 17.9086 335.213 17.9473C335.329 17.9869 335.387 18.036 335.387 18.0946V34.2025C335.387 34.7917 335.446 35.2288 335.562 35.513C335.678 35.7981 335.892 35.9898 336.202 36.088C336.513 36.1852 336.997 36.2352 337.656 36.2352ZM350.254 16.9172C349.517 16.9172 348.818 16.7898 348.159 16.5339C347.499 16.279 346.966 15.94 346.558 15.518C346.151 15.096 345.948 14.6494 345.948 14.1783C345.948 13.8252 346.059 13.54 346.282 13.3238C346.505 13.1086 346.82 13 347.228 13C347.674 13 347.984 13.1331 348.159 13.3975C348.333 13.6628 348.498 14.0801 348.653 14.6494C348.827 15.2584 349.017 15.705 349.221 15.9891C349.424 16.2743 349.759 16.4159 350.225 16.4159C350.71 16.4159 351.063 16.2639 351.286 15.9599C351.509 15.6559 351.718 15.2093 351.911 14.6201C352.086 14.0697 352.265 13.6628 352.45 13.3975C352.634 13.1331 352.929 13 353.337 13C353.745 13 354.054 13.1086 354.268 13.3238C354.481 13.54 354.588 13.8252 354.588 14.1783C354.588 14.6692 354.384 15.1253 353.977 15.5473C353.569 15.9703 353.037 16.3035 352.376 16.549C351.718 16.7945 351.01 16.9172 350.254 16.9172ZM359.912 36.2352C359.969 36.2352 359.998 36.2938 359.998 36.4109C359.998 36.5298 359.969 36.5884 359.912 36.5884C359.233 36.5884 358.69 36.5789 358.282 36.5591L356.043 36.5298L353.424 36.5591C353.075 36.5789 352.6 36.5884 351.999 36.5884C351.941 36.5884 351.911 36.5298 351.911 36.4109C351.911 36.2938 351.941 36.2352 351.999 36.2352C352.717 36.2352 353.24 36.1852 353.569 36.088C353.899 35.9898 354.122 35.8028 354.239 35.5281C354.356 35.2533 354.413 34.8115 354.413 34.2025V22.1591L342.777 36.9122C342.718 36.9707 342.574 37 342.34 37C341.972 37 341.787 36.932 341.787 36.7942V20.5682C341.787 19.9791 341.73 19.5476 341.613 19.2729C341.496 18.9981 341.284 18.8065 340.973 18.6979C340.663 18.5902 340.178 18.5364 339.518 18.5364C339.46 18.5364 339.431 18.4779 339.431 18.3599C339.431 18.2419 339.46 18.1833 339.518 18.1833L341.148 18.2126C342.118 18.2522 342.865 18.2721 343.388 18.2721C344.164 18.2721 345.036 18.2522 346.006 18.2126L347.431 18.1833C347.49 18.1833 347.519 18.2419 347.519 18.3599C347.519 18.4779 347.49 18.5364 347.431 18.5364C346.714 18.5364 346.191 18.5902 345.86 18.6979C345.53 18.8065 345.307 18.9981 345.192 19.2729C345.075 19.5476 345.016 19.9791 345.016 20.5682V32.7306L356.654 17.9775C356.712 17.918 356.857 17.8887 357.09 17.8887C357.225 17.8887 357.351 17.9086 357.468 17.9473C357.585 17.9869 357.642 18.036 357.642 18.0946V34.2025C357.642 34.7917 357.7 35.2288 357.817 35.513C357.933 35.7981 358.147 35.9898 358.457 36.088C358.767 36.1852 359.252 36.2352 359.912 36.2352Z" fill="#FEFEFE"/>
<path d="M132.533 36.2352C132.572 36.2352 132.591 36.2938 132.591 36.4109C132.591 36.5298 132.572 36.5884 132.533 36.5884C131.874 36.5884 131.35 36.5789 130.963 36.5591L128.809 36.5298L126.627 36.5591C126.259 36.5789 125.754 36.5884 125.115 36.5884C125.057 36.5884 125.028 36.5298 125.028 36.4109C125.028 36.2938 125.057 36.2352 125.115 36.2352C125.93 36.2352 126.482 36.1361 126.773 35.9397C127.064 35.7443 127.209 35.3317 127.209 34.7039L127.181 34.2025L126.57 22.1591L120.577 36.3816C120.538 36.4609 120.46 36.4996 120.344 36.4996C120.227 36.4996 120.15 36.4609 120.112 36.3816L112.751 22.2176L112.518 32.8477C112.499 33.9079 112.708 34.7378 113.144 35.3364C113.58 35.935 114.196 36.2352 114.991 36.2352C115.049 36.2352 115.079 36.2938 115.079 36.4109C115.079 36.5298 115.049 36.5884 114.991 36.5884C114.468 36.5884 114.06 36.5789 113.769 36.5591L112.17 36.5298L110.337 36.5591C110.026 36.5789 109.609 36.5884 109.085 36.5884C109.027 36.5884 108.998 36.5298 108.998 36.4109C108.998 36.2938 109.027 36.2352 109.085 36.2352C109.881 36.2352 110.511 35.9303 110.977 35.3223C111.442 34.7133 111.685 33.8881 111.704 32.8477L111.965 20.657L111.936 20.6277C111.548 19.9007 111.146 19.371 110.73 19.0368C110.312 18.7035 109.832 18.5364 109.289 18.5364C109.231 18.5364 109.202 18.4779 109.202 18.3599C109.202 18.2419 109.231 18.1833 109.289 18.1833L110.657 18.2126C110.928 18.2324 111.277 18.2419 111.704 18.2419L113.246 18.2126C113.42 18.1928 113.643 18.1833 113.915 18.1833C114.167 18.1833 114.361 18.2721 114.497 18.4477C114.632 18.6252 114.884 19.0472 115.253 19.7138L121.595 31.7581L127.123 18.9188C127.238 18.6441 127.36 18.4533 127.486 18.3448C127.612 18.2371 127.781 18.1833 127.995 18.1833C128.169 18.1833 128.368 18.1928 128.592 18.2126C128.815 18.2324 129.071 18.2419 129.362 18.2419L131.078 18.2126C131.35 18.1928 131.739 18.1833 132.242 18.1833C132.3 18.1833 132.33 18.2419 132.33 18.3599C132.33 18.4779 132.3 18.5364 132.242 18.5364C131.331 18.5364 130.672 18.7224 130.264 19.0963C129.856 19.4692 129.673 20.048 129.712 20.8335L130.41 34.2025C130.449 34.8115 130.521 35.2533 130.628 35.5281C130.734 35.8028 130.928 35.9898 131.21 36.088C131.491 36.1852 131.932 36.2352 132.533 36.2352ZM154.555 36.2352C154.614 36.2352 154.643 36.2938 154.643 36.4109C154.643 36.5298 154.614 36.5884 154.555 36.5884C153.876 36.5884 153.334 36.5789 152.926 36.5591L150.686 36.5298L148.068 36.5591C147.719 36.5789 147.244 36.5884 146.642 36.5884C146.585 36.5884 146.556 36.5298 146.556 36.4109C146.556 36.2938 146.585 36.2352 146.642 36.2352C147.36 36.2352 147.884 36.1852 148.214 36.088C148.543 35.9898 148.766 35.8028 148.883 35.5281C148.999 35.2533 149.057 34.8115 149.057 34.2025V22.1591L137.421 36.9122C137.363 36.9707 137.216 37 136.984 37C136.616 37 136.431 36.932 136.431 36.7942V20.5682C136.431 19.9791 136.373 19.5476 136.257 19.2729C136.14 18.9981 135.927 18.8065 135.617 18.6979C135.306 18.5902 134.822 18.5364 134.162 18.5364C134.104 18.5364 134.075 18.4779 134.075 18.3599C134.075 18.2419 134.104 18.1833 134.162 18.1833L135.791 18.2126C136.761 18.2522 137.507 18.2721 138.032 18.2721C138.808 18.2721 139.68 18.2522 140.65 18.2126L142.075 18.1833C142.134 18.1833 142.163 18.2419 142.163 18.3599C142.163 18.4779 142.134 18.5364 142.075 18.5364C141.358 18.5364 140.833 18.5902 140.504 18.6979C140.175 18.8065 139.951 18.9981 139.835 19.2729C139.719 19.5476 139.661 19.9791 139.661 20.5682V32.7306L151.297 17.9775C151.355 17.918 151.501 17.8887 151.733 17.8887C151.869 17.8887 151.995 17.9086 152.112 17.9473C152.228 17.9869 152.286 18.036 152.286 18.0946V34.2025C152.286 34.7917 152.345 35.2288 152.461 35.513C152.577 35.7981 152.791 35.9898 153.101 36.088C153.411 36.1852 153.896 36.2352 154.555 36.2352ZM174.221 36.2352C174.279 36.2352 174.308 36.2938 174.308 36.4109C174.308 36.5298 174.279 36.5884 174.221 36.5884C173.659 36.5884 173.223 36.5789 172.912 36.5591L171.167 36.5298L168.781 36.5591C168.413 36.5789 167.899 36.5884 167.239 36.5884C167.18 36.5884 167.152 36.5298 167.152 36.4109C167.152 36.2938 167.18 36.2352 167.239 36.2352C167.879 36.2352 168.199 36.0681 168.199 35.7339C168.199 35.5574 168.112 35.3411 167.937 35.0862L163.952 28.8436L161.45 32.4653C160.694 33.5454 160.316 34.4187 160.316 35.0862C160.316 35.8519 160.819 36.2352 161.828 36.2352C161.867 36.2352 161.886 36.2938 161.886 36.4109C161.886 36.5298 161.867 36.5884 161.828 36.5884C161.189 36.5884 160.704 36.5789 160.374 36.5591L158.221 36.5298L156.854 36.5591C156.602 36.5789 156.194 36.5884 155.632 36.5884C155.574 36.5884 155.544 36.5298 155.544 36.4109C155.544 36.2938 155.574 36.2352 155.632 36.2352C156.233 36.2352 156.97 35.9105 157.842 35.2628C158.715 34.6151 159.627 33.6238 160.577 32.2887L163.545 28.2252L158.89 20.8921C158.366 20.048 157.863 19.4447 157.378 19.0812C156.893 18.7177 156.379 18.5364 155.835 18.5364C155.777 18.5364 155.748 18.4779 155.748 18.3599C155.748 18.2419 155.777 18.1833 155.835 18.1833L157.087 18.2126C157.63 18.2522 158.036 18.2721 158.308 18.2721C158.987 18.2721 159.831 18.2522 160.839 18.2126L162.497 18.1833C162.537 18.1833 162.555 18.2419 162.555 18.3599C162.555 18.4779 162.537 18.5364 162.497 18.5364C161.838 18.5364 161.509 18.7035 161.509 19.0368C161.509 19.1935 161.595 19.4201 161.77 19.7138L165.61 25.6921L167.937 22.3356C168.693 21.2357 169.072 20.353 169.072 19.6845C169.072 18.9188 168.568 18.5364 167.559 18.5364C167.521 18.5364 167.501 18.4779 167.501 18.3599C167.501 18.2419 167.521 18.1833 167.559 18.1833L169.014 18.2126C169.79 18.2522 170.507 18.2721 171.167 18.2721C171.574 18.2721 172.03 18.2522 172.533 18.2126L173.756 18.1833C173.814 18.1833 173.843 18.2419 173.843 18.3599C173.843 18.4779 173.814 18.5364 173.756 18.5364C173.136 18.5364 172.393 18.865 171.531 19.5231C170.667 20.1802 169.75 21.1772 168.781 22.5122L166.017 26.3397L170.992 34.144C171.477 34.87 171.972 35.4006 172.475 35.7339C172.98 36.0681 173.561 36.2352 174.221 36.2352ZM195.167 36.2352C195.264 36.2352 195.313 36.2938 195.313 36.4109C195.313 36.5298 195.264 36.5884 195.167 36.5884C194.779 36.5884 194.178 36.5685 193.363 36.5298C192.51 36.4902 191.899 36.4703 191.531 36.4703C191.046 36.4703 190.454 36.4902 189.756 36.5298C189.096 36.5685 188.573 36.5884 188.185 36.5884C188.108 36.5884 188.068 36.5298 188.068 36.4109C188.068 36.2938 188.108 36.2352 188.185 36.2352C188.69 36.2352 189.052 36.1805 189.276 36.0729C189.499 35.9652 189.61 35.7736 189.61 35.4988C189.61 35.1646 189.417 34.6057 189.028 33.8201L186.003 27.7833H180.825L178.76 32.4068C178.507 32.9761 178.381 33.5057 178.381 33.9967C178.381 34.7039 178.629 35.2533 179.123 35.6452C179.617 36.0389 180.282 36.2352 181.116 36.2352C181.213 36.2352 181.262 36.2938 181.262 36.4109C181.262 36.5298 181.213 36.5884 181.116 36.5884C180.767 36.5884 180.263 36.5685 179.603 36.5298C178.866 36.4902 178.227 36.4703 177.683 36.4703C177.159 36.4703 176.529 36.4902 175.792 36.5298C175.133 36.5685 174.599 36.5884 174.193 36.5884C174.114 36.5884 174.076 36.5298 174.076 36.4109C174.076 36.2938 174.114 36.2352 174.193 36.2352C174.735 36.2352 175.191 36.122 175.559 35.8963C175.928 35.6707 176.297 35.2684 176.665 34.6887C177.034 34.109 177.47 33.2508 177.974 32.1122L184.287 18.0653C184.325 18.0068 184.413 17.9775 184.548 17.9775C184.703 17.9775 184.791 18.0068 184.81 18.0653L192.083 32.5541C192.762 33.9476 193.324 34.9097 193.771 35.4393C194.217 35.9699 194.682 36.2352 195.167 36.2352ZM181.203 26.9581H185.596L183.269 22.3054L181.203 26.9581ZM206.804 16.9172C206.067 16.9172 205.368 16.7898 204.709 16.5339C204.049 16.279 203.516 15.94 203.109 15.518C202.702 15.096 202.498 14.6494 202.498 14.1783C202.498 13.8252 202.61 13.54 202.833 13.3238C203.055 13.1086 203.371 13 203.778 13C204.224 13 204.534 13.1331 204.709 13.3975C204.883 13.6628 205.048 14.0801 205.204 14.6494C205.378 15.2584 205.567 15.705 205.771 15.9891C205.974 16.2743 206.308 16.4159 206.775 16.4159C207.26 16.4159 207.613 16.2639 207.836 15.9599C208.059 15.6559 208.268 15.2093 208.462 14.6201C208.636 14.0697 208.815 13.6628 209 13.3975C209.184 13.1331 209.48 13 209.887 13C210.295 13 210.604 13.1086 210.818 13.3238C211.032 13.54 211.138 13.8252 211.138 14.1783C211.138 14.6692 210.935 15.1253 210.527 15.5473C210.119 15.9703 209.587 16.3035 208.927 16.549C208.268 16.7945 207.56 16.9172 206.804 16.9172ZM216.462 36.2352C216.52 36.2352 216.549 36.2938 216.549 36.4109C216.549 36.5298 216.52 36.5884 216.462 36.5884C215.784 36.5884 215.24 36.5789 214.833 36.5591L212.593 36.5298L209.975 36.5591C209.625 36.5789 209.15 36.5884 208.549 36.5884C208.491 36.5884 208.462 36.5298 208.462 36.4109C208.462 36.2938 208.491 36.2352 208.549 36.2352C209.267 36.2352 209.79 36.1852 210.119 36.088C210.45 35.9898 210.672 35.8028 210.789 35.5281C210.906 35.2533 210.963 34.8115 210.963 34.2025V22.1591L199.327 36.9122C199.269 36.9707 199.124 37 198.891 37C198.522 37 198.338 36.932 198.338 36.7942V20.5682C198.338 19.9791 198.28 19.5476 198.163 19.2729C198.047 18.9981 197.834 18.8065 197.523 18.6979C197.213 18.5902 196.729 18.5364 196.069 18.5364C196.01 18.5364 195.981 18.4779 195.981 18.3599C195.981 18.2419 196.01 18.1833 196.069 18.1833L197.698 18.2126C198.668 18.2522 199.414 18.2721 199.938 18.2721C200.714 18.2721 201.587 18.2522 202.556 18.2126L203.981 18.1833C204.04 18.1833 204.069 18.2419 204.069 18.3599C204.069 18.4779 204.04 18.5364 203.981 18.5364C203.264 18.5364 202.74 18.5902 202.411 18.6979C202.081 18.8065 201.858 18.9981 201.742 19.2729C201.625 19.5476 201.567 19.9791 201.567 20.5682V32.7306L213.204 17.9775C213.262 17.918 213.407 17.8887 213.64 17.8887C213.777 17.8887 213.902 17.9086 214.018 17.9473C214.135 17.9869 214.193 18.036 214.193 18.0946V34.2025C214.193 34.7917 214.251 35.2288 214.367 35.513C214.484 35.7981 214.697 35.9898 215.008 36.088C215.318 36.1852 215.802 36.2352 216.462 36.2352ZM238.252 36.2352C238.348 36.2352 238.397 36.2938 238.397 36.4109C238.397 36.5298 238.348 36.5884 238.252 36.5884C237.864 36.5884 237.262 36.5685 236.448 36.5298C235.594 36.4902 234.983 36.4703 234.615 36.4703C234.13 36.4703 233.539 36.4902 232.84 36.5298C232.181 36.5685 231.657 36.5884 231.269 36.5884C231.192 36.5884 231.153 36.5298 231.153 36.4109C231.153 36.2938 231.192 36.2352 231.269 36.2352C231.773 36.2352 232.138 36.1805 232.361 36.0729C232.584 35.9652 232.695 35.7736 232.695 35.4988C232.695 35.1646 232.501 34.6057 232.113 33.8201L226.353 22.3054L221.843 32.4068C221.592 32.9761 221.466 33.5057 221.466 33.9967C221.466 34.7039 221.713 35.2533 222.207 35.6452C222.702 36.0389 223.366 36.2352 224.2 36.2352C224.297 36.2352 224.346 36.2938 224.346 36.4109C224.346 36.5298 224.297 36.5884 224.2 36.5884C223.851 36.5884 223.347 36.5685 222.688 36.5298C221.951 36.4902 221.31 36.4703 220.767 36.4703C220.244 36.4703 219.613 36.4902 218.877 36.5298C218.217 36.5685 217.684 36.5884 217.276 36.5884C217.199 36.5884 217.16 36.5298 217.16 36.4109C217.16 36.2938 217.199 36.2352 217.276 36.2352C217.82 36.2352 218.275 36.122 218.644 35.8963C219.012 35.6707 219.381 35.2684 219.75 34.6887C220.118 34.109 220.554 33.2508 221.058 32.1122L227.371 18.0653C227.41 18.0068 227.498 17.9775 227.633 17.9775C227.789 17.9775 227.875 18.0068 227.895 18.0653L235.168 32.5541C235.846 33.9476 236.41 34.9097 236.855 35.4393C237.301 35.9699 237.767 36.2352 238.252 36.2352ZM248.521 36.9415C246.717 36.9415 245.112 36.5147 243.706 35.6603C242.3 34.8068 241.214 33.6483 240.448 32.1858C239.681 30.7234 239.298 29.1278 239.298 27.4C239.298 25.3777 239.803 23.6452 240.811 22.2025C241.82 20.7599 243.115 19.6751 244.695 18.949C246.276 18.222 247.89 17.8595 249.538 17.8595C251.381 17.8595 253 18.2966 254.397 19.1699C255.794 20.0433 256.865 21.197 257.612 22.6302C258.358 24.0625 258.732 25.5844 258.732 27.1942C258.732 28.9805 258.267 30.6205 257.336 32.1122C256.404 33.6039 255.158 34.7822 253.597 35.6452C252.036 36.51 250.344 36.9415 248.521 36.9415ZM249.48 36.205C250.566 36.205 251.541 35.8859 252.404 35.2486C253.267 34.6104 253.942 33.6776 254.427 32.4511C254.912 31.2238 255.153 29.7556 255.153 28.0486C255.153 26.2425 254.882 24.6271 254.339 23.2042C253.796 21.7805 253.011 20.6664 251.983 19.862C250.955 19.0566 249.752 18.6544 248.375 18.6544C246.611 18.6544 245.252 19.3267 244.303 20.6711C243.352 22.0165 242.877 23.8963 242.877 26.3105C242.877 28.2148 243.163 29.918 243.735 31.4201C244.308 32.9213 245.093 34.0949 246.092 34.9389C247.091 35.783 248.22 36.205 249.48 36.205ZM270.63 26.2519C272.259 26.4483 273.554 26.9978 274.514 27.9013C275.474 28.8039 275.953 29.9227 275.953 31.2577C275.953 32.2784 275.662 33.2017 275.081 34.026C274.499 34.8502 273.694 35.5035 272.667 35.9841C271.639 36.4656 270.494 36.7054 269.234 36.7054C268.69 36.7054 268.07 36.6762 267.372 36.6176C267.1 36.5978 266.765 36.5789 266.369 36.5591C265.971 36.5393 265.529 36.5298 265.044 36.5298L262.921 36.5591C262.534 36.5789 262.009 36.5884 261.35 36.5884C261.292 36.5884 261.262 36.5298 261.262 36.4109C261.262 36.2938 261.292 36.2352 261.35 36.2352C261.912 36.2352 262.34 36.1805 262.63 36.0729C262.921 35.9652 263.13 35.7688 263.256 35.4837C263.381 35.1995 263.444 34.7728 263.444 34.2025V20.5682C263.444 19.744 263.309 19.1992 263.037 18.9339C262.766 18.6686 262.213 18.5364 261.379 18.5364C261.341 18.5364 261.321 18.4779 261.321 18.3599C261.321 18.2419 261.341 18.1833 261.379 18.1833L262.921 18.2126C263.813 18.2522 264.52 18.2721 265.044 18.2721C265.588 18.2721 266.15 18.2419 266.732 18.1833C266.926 18.1635 267.217 18.1437 267.605 18.1238C267.993 18.105 268.331 18.0946 268.622 18.0946C270.388 18.0946 271.755 18.4184 272.724 19.067C273.694 19.7138 274.179 20.657 274.179 21.8938C274.179 22.836 273.873 23.6905 273.263 24.4562C272.652 25.2219 271.775 25.8195 270.63 26.2519ZM268.187 18.7422C267.624 18.7422 267.236 18.8754 267.023 19.1397C266.809 19.405 266.703 19.9007 266.703 20.6277V26.2227L267.867 26.2519C268.875 26.2519 269.65 25.8686 270.194 25.1029C270.737 24.3372 271.008 23.3563 271.008 22.1591C271.008 21.0393 270.766 20.1906 270.281 19.6118C269.796 19.0321 269.098 18.7422 268.187 18.7422ZM268.739 35.9699C271.28 35.9699 272.55 34.6349 272.55 31.9649C272.55 30.4533 272.192 29.2552 271.474 28.3725C270.756 27.4887 269.67 27.0469 268.216 27.0469C267.653 27.0469 267.149 27.0667 266.703 27.1054V34.2025C266.703 34.8502 266.829 35.3072 267.081 35.5725C267.333 35.8368 267.886 35.9699 268.739 35.9699ZM289.714 17.8595C290.568 17.8595 291.46 17.9322 292.39 18.0804C293.321 18.2268 294.049 18.4184 294.572 18.6544C294.746 18.713 294.858 18.7866 294.907 18.8754C294.955 18.9632 294.999 19.1161 295.037 19.3314L295.387 23.4252C295.387 23.4837 295.339 23.5234 295.241 23.5422C295.145 23.5621 295.087 23.5328 295.067 23.4544C294.408 21.9032 293.525 20.7061 292.419 19.862C291.314 19.017 290.034 18.5959 288.579 18.5959C286.66 18.5959 285.176 19.3116 284.129 20.7448C283.081 22.178 282.558 24.1021 282.558 26.5172C282.558 28.3234 282.843 29.9718 283.416 31.4645C283.988 32.9563 284.793 34.1393 285.831 35.0126C286.868 35.8859 288.046 36.3231 289.365 36.3231C290.606 36.3231 291.716 35.9057 292.696 35.0711C293.675 34.2374 294.552 32.9666 295.328 31.2577C295.348 31.1794 295.411 31.1501 295.518 31.1699C295.625 31.1898 295.678 31.2285 295.678 31.287L295.241 35.293C295.203 35.5281 295.159 35.6801 295.111 35.749C295.062 35.8179 294.951 35.8906 294.776 35.9699C293.05 36.6176 291.276 36.9415 289.452 36.9415C287.086 36.9415 285.108 36.4656 283.518 35.513C281.927 34.5613 280.759 33.3537 280.012 31.8913C279.265 30.4288 278.892 28.9021 278.892 27.3122C278.892 25.4475 279.391 23.7981 280.39 22.3649C281.389 20.9317 282.717 19.8223 284.376 19.0368C286.034 18.2522 287.814 17.8595 289.714 17.8595ZM316.594 36.2352C316.653 36.2352 316.682 36.2938 316.682 36.4109C316.682 36.5298 316.653 36.5884 316.594 36.5884H312.114C311.862 36.5884 311.635 36.51 311.431 36.3523C311.227 36.1956 310.873 35.7887 310.369 35.1306C309.865 34.4725 309.04 33.3094 307.896 31.6411L307.11 30.5213C306.432 29.5205 305.928 28.819 305.598 28.4159C305.268 28.0137 304.924 27.7295 304.565 27.5624C304.206 27.3953 303.736 27.3122 303.154 27.3122V34.2025C303.154 34.7917 303.208 35.2288 303.314 35.513C303.421 35.7981 303.63 35.9898 303.94 36.088C304.251 36.1852 304.735 36.2352 305.394 36.2352C305.452 36.2352 305.482 36.2938 305.482 36.4109C305.482 36.5298 305.452 36.5884 305.394 36.5884C304.716 36.5884 304.172 36.5789 303.766 36.5591L301.35 36.5298L299.227 36.5591C298.839 36.5789 298.316 36.5884 297.656 36.5884C297.598 36.5884 297.569 36.5298 297.569 36.4109C297.569 36.2938 297.598 36.2352 297.656 36.2352C298.316 36.2352 298.8 36.1852 299.111 36.088C299.421 35.9898 299.634 35.7981 299.75 35.513C299.867 35.2288 299.926 34.7917 299.926 34.2025V20.5682C299.926 19.9791 299.867 19.5476 299.75 19.2729C299.634 18.9981 299.426 18.8065 299.125 18.6979C298.824 18.5902 298.345 18.5364 297.685 18.5364C297.627 18.5364 297.598 18.4779 297.598 18.3599C297.598 18.2419 297.627 18.1833 297.685 18.1833L299.227 18.2126C300.119 18.2522 300.827 18.2721 301.35 18.2721C302.01 18.2721 302.825 18.2522 303.795 18.2126L305.394 18.1833C305.452 18.1833 305.482 18.2419 305.482 18.3599C305.482 18.4779 305.452 18.5364 305.394 18.5364C304.754 18.5364 304.28 18.5959 303.969 18.713C303.658 18.831 303.445 19.0321 303.328 19.3172C303.213 19.6014 303.154 20.0386 303.154 20.6277V26.8118C303.678 26.792 304.337 26.7825 305.132 26.7825L308.187 22.5415C308.982 21.4227 309.38 20.4899 309.38 19.744C309.38 19.371 309.273 19.0765 309.06 18.8603C308.847 18.6441 308.556 18.5364 308.187 18.5364C308.148 18.5364 308.129 18.4779 308.129 18.3599C308.129 18.2419 308.148 18.1833 308.187 18.1833L309.525 18.2126C310.379 18.2522 311.135 18.2721 311.794 18.2721C312.551 18.2721 313.336 18.2522 314.151 18.2126L315.402 18.1833C315.46 18.1833 315.489 18.2419 315.489 18.3599C315.489 18.4779 315.46 18.5364 315.402 18.5364C314.549 18.5364 313.589 18.8508 312.522 19.4787C311.455 20.1075 310.553 20.8921 309.816 21.8343L305.86 26.8118C306.616 26.8505 307.236 26.9931 307.721 27.2386C308.206 27.484 308.687 27.8711 309.161 28.4017C309.637 28.9314 310.31 29.8151 311.183 31.0519L311.707 31.7884C312.522 32.927 313.157 33.7805 313.613 34.3498C314.068 34.9191 314.538 35.3704 315.023 35.7046C315.508 36.0389 316.032 36.2145 316.594 36.2352ZM337.656 36.2352C337.715 36.2352 337.744 36.2938 337.744 36.4109C337.744 36.5298 337.715 36.5884 337.656 36.5884C336.978 36.5884 336.435 36.5789 336.028 36.5591L333.788 36.5298L331.169 36.5591C330.82 36.5789 330.345 36.5884 329.743 36.5884C329.686 36.5884 329.657 36.5298 329.657 36.4109C329.657 36.2938 329.686 36.2352 329.743 36.2352C330.462 36.2352 330.985 36.1852 331.315 36.088C331.644 35.9898 331.867 35.8028 331.984 35.5281C332.1 35.2533 332.158 34.8115 332.158 34.2025V22.1591L320.522 36.9122C320.464 36.9707 320.318 37 320.085 37C319.717 37 319.533 36.932 319.533 36.7942V20.5682C319.533 19.9791 319.474 19.5476 319.358 19.2729C319.242 18.9981 319.028 18.8065 318.719 18.6979C318.407 18.5902 317.923 18.5364 317.264 18.5364C317.206 18.5364 317.176 18.4779 317.176 18.3599C317.176 18.2419 317.206 18.1833 317.264 18.1833L318.892 18.2126C319.862 18.2522 320.609 18.2721 321.133 18.2721C321.909 18.2721 322.782 18.2522 323.751 18.2126L325.176 18.1833C325.235 18.1833 325.264 18.2419 325.264 18.3599C325.264 18.4779 325.235 18.5364 325.176 18.5364C324.459 18.5364 323.935 18.5902 323.605 18.6979C323.276 18.8065 323.053 18.9981 322.936 19.2729C322.82 19.5476 322.762 19.9791 322.762 20.5682V32.7306L334.398 17.9775C334.456 17.918 334.602 17.8887 334.835 17.8887C334.971 17.8887 335.096 17.9086 335.213 17.9473C335.329 17.9869 335.387 18.036 335.387 18.0946V34.2025C335.387 34.7917 335.446 35.2288 335.562 35.513C335.678 35.7981 335.892 35.9898 336.202 36.088C336.513 36.1852 336.997 36.2352 337.656 36.2352ZM350.254 16.9172C349.517 16.9172 348.818 16.7898 348.159 16.5339C347.499 16.279 346.966 15.94 346.558 15.518C346.151 15.096 345.948 14.6494 345.948 14.1783C345.948 13.8252 346.059 13.54 346.282 13.3238C346.505 13.1086 346.82 13 347.228 13C347.674 13 347.984 13.1331 348.159 13.3975C348.333 13.6628 348.498 14.0801 348.653 14.6494C348.827 15.2584 349.017 15.705 349.221 15.9891C349.424 16.2743 349.759 16.4159 350.225 16.4159C350.71 16.4159 351.063 16.2639 351.286 15.9599C351.509 15.6559 351.718 15.2093 351.911 14.6201C352.086 14.0697 352.265 13.6628 352.45 13.3975C352.634 13.1331 352.929 13 353.337 13C353.745 13 354.054 13.1086 354.268 13.3238C354.481 13.54 354.588 13.8252 354.588 14.1783C354.588 14.6692 354.384 15.1253 353.977 15.5473C353.569 15.9703 353.037 16.3035 352.376 16.549C351.718 16.7945 351.01 16.9172 350.254 16.9172ZM359.912 36.2352C359.969 36.2352 359.998 36.2938 359.998 36.4109C359.998 36.5298 359.969 36.5884 359.912 36.5884C359.233 36.5884 358.69 36.5789 358.282 36.5591L356.043 36.5298L353.424 36.5591C353.075 36.5789 352.6 36.5884 351.999 36.5884C351.941 36.5884 351.911 36.5298 351.911 36.4109C351.911 36.2938 351.941 36.2352 351.999 36.2352C352.717 36.2352 353.24 36.1852 353.569 36.088C353.899 35.9898 354.122 35.8028 354.239 35.5281C354.356 35.2533 354.413 34.8115 354.413 34.2025V22.1591L342.777 36.9122C342.718 36.9707 342.574 37 342.34 37C341.972 37 341.787 36.932 341.787 36.7942V20.5682C341.787 19.9791 341.73 19.5476 341.613 19.2729C341.496 18.9981 341.284 18.8065 340.973 18.6979C340.663 18.5902 340.178 18.5364 339.518 18.5364C339.46 18.5364 339.431 18.4779 339.431 18.3599C339.431 18.2419 339.46 18.1833 339.518 18.1833L341.148 18.2126C342.118 18.2522 342.865 18.2721 343.388 18.2721C344.164 18.2721 345.036 18.2522 346.006 18.2126L347.431 18.1833C347.49 18.1833 347.519 18.2419 347.519 18.3599C347.519 18.4779 347.49 18.5364 347.431 18.5364C346.714 18.5364 346.191 18.5902 345.86 18.6979C345.53 18.8065 345.307 18.9981 345.192 19.2729C345.075 19.5476 345.016 19.9791 345.016 20.5682V32.7306L356.654 17.9775C356.712 17.918 356.857 17.8887 357.09 17.8887C357.225 17.8887 357.351 17.9086 357.468 17.9473C357.585 17.9869 357.642 18.036 357.642 18.0946V34.2025C357.642 34.7917 357.7 35.2288 357.817 35.513C357.933 35.7981 358.147 35.9898 358.457 36.088C358.767 36.1852 359.252 36.2352 359.912 36.2352Z" stroke="white" stroke-width="6" mask="url(#path-1-inside-1_47:854)"/>
</g>
<g filter="url(#filter1_d_47:854)">
<path d="M358.631 45H110.366C109.611 45 108.998 45.6716 108.998 46.5C108.998 47.3284 109.611 48 110.366 48H358.631C359.386 48 359.998 47.3284 359.998 46.5C359.998 45.6716 359.386 45 358.631 45Z" fill="#CCCCCC"/>
</g>
<g filter="url(#filter2_d_47:854)">
<path d="M115.132 65.5821C115.232 64.5521 115.507 63.6621 115.957 62.9121C116.417 62.1521 117.002 61.5721 117.712 61.1721C118.432 60.7721 119.232 60.5721 120.112 60.5721C121.712 60.5721 122.917 61.0521 123.727 62.0121C124.537 62.9721 124.942 64.3071 124.942 66.0171C124.942 67.2271 124.732 68.2871 124.312 69.1971C123.892 70.0971 123.307 70.7921 122.557 71.2821C121.807 71.7621 120.952 72.0021 119.992 72.0021C118.412 72.0021 117.212 71.5371 116.392 70.6071C115.572 69.6671 115.142 68.3721 115.102 66.7221H112.927V70.7871L114.187 70.9521V71.8521H109.567V70.9521L110.737 70.7871V61.8321L109.597 61.637V60.7071H114.142V61.637L112.927 61.8321V65.5821H115.132ZM120.067 61.502C119.267 61.502 118.637 61.9071 118.177 62.7171C117.727 63.5171 117.502 64.7221 117.502 66.3321C117.502 67.8621 117.722 69.0321 118.162 69.8421C118.602 70.6521 119.237 71.0571 120.067 71.0571C120.857 71.0571 121.462 70.6421 121.882 69.8121C122.312 68.9721 122.527 67.7421 122.527 66.1221C122.527 64.6021 122.317 63.4521 121.897 62.6721C121.477 61.892 120.867 61.502 120.067 61.502ZM130.761 61.8321L129.636 61.637V60.7071H131.901C132.111 60.7071 132.436 60.6971 132.876 60.677C133.456 60.6371 133.981 60.6171 134.451 60.6171C135.491 60.6171 136.311 60.7471 136.911 61.0071C137.521 61.2571 137.951 61.6221 138.201 62.1021C138.461 62.5721 138.591 63.1721 138.591 63.9021C138.591 65.1621 138.196 66.1421 137.406 66.8421C136.626 67.5421 135.541 67.8921 134.151 67.8921C133.601 67.8921 133.206 67.8771 132.966 67.8471V70.8021L134.976 70.9521V71.8521H129.576V70.9521L130.761 70.8021V61.8321ZM132.951 66.8871C133.181 66.9371 133.571 66.9621 134.121 66.9621C134.791 66.9621 135.326 66.7321 135.726 66.2721C136.136 65.8021 136.341 65.0271 136.341 63.9471C136.341 63.1071 136.156 62.4971 135.786 62.1171C135.426 61.7271 134.871 61.5321 134.121 61.5321C133.841 61.5321 133.551 61.5521 133.251 61.5921C133.111 61.6121 133.011 61.6221 132.951 61.6221V66.8871ZM147.793 60.7071V61.637L146.413 61.8321V68.8221L147.418 67.1421L151.243 62.192V61.8321L149.983 61.637V60.7071H154.573V61.637L153.418 61.8321V70.8021L154.618 70.9521V71.8521H149.983V70.9521L151.243 70.8021V63.722L150.343 65.3421L146.413 70.3371V70.8021L147.748 70.9521V71.8521H143.068V70.9521L144.253 70.8021V61.8321L143.098 61.637V60.7071H147.793ZM169.541 70.7871C169.541 71.0871 169.496 71.8071 169.406 72.9471C169.316 74.0971 169.261 74.7171 169.241 74.8071H168.026C168.016 74.5471 167.956 74.0121 167.846 73.2021C167.736 72.3921 167.651 71.9421 167.591 71.8521H160.991C160.921 71.9421 160.796 72.3621 160.616 73.1121C160.446 73.8621 160.331 74.4321 160.271 74.8221H159.026L159.041 74.1471C159.091 72.4671 159.136 71.3471 159.176 70.7871H160.256C160.496 70.4571 160.756 69.9521 161.036 69.2721C161.316 68.5921 161.561 67.6821 161.771 66.5421C161.981 65.4021 162.086 64.0721 162.086 62.5521V61.8321L160.526 61.637V60.7071H169.571V61.637L168.131 61.8321V70.7871H169.541ZM163.181 62.6421C163.191 64.0121 163.116 65.2571 162.956 66.3771C162.796 67.4871 162.606 68.4071 162.386 69.1371C162.166 69.8671 161.956 70.4171 161.756 70.7871H165.956L165.971 61.7271H163.181V62.6421ZM179.038 60.7071V61.637L177.658 61.8321V68.8221L178.663 67.1421L182.488 62.192V61.8321L181.228 61.637V60.7071H185.818V61.637L184.663 61.8321V70.8021L185.863 70.9521V71.8521H181.228V70.9521L182.488 70.8021V63.722L181.588 65.3421L177.658 70.3371V70.8021L178.993 70.9521V71.8521H174.313V70.9521L175.498 70.8021V61.8321L174.343 61.637V60.7071H179.038ZM196.886 67.1121C196.546 67.3121 196.116 67.4671 195.596 67.5771C195.086 67.6871 194.596 67.7421 194.126 67.7421C193.396 67.7421 192.806 67.6421 192.356 67.4421C191.906 67.2321 191.566 66.8821 191.336 66.3921C191.116 65.8921 191.006 65.2121 191.006 64.3521V61.847L190.136 61.6521V60.7071H194.321V61.6521L193.196 61.8321V63.8421C193.196 64.6521 193.246 65.2421 193.346 65.6121C193.446 65.9821 193.616 66.2271 193.856 66.3471C194.096 66.4571 194.476 66.5121 194.996 66.5121C195.346 66.5121 195.701 66.4671 196.061 66.3771C196.431 66.2871 196.706 66.1771 196.886 66.0471V61.8321L195.656 61.637V60.7071H200.291V61.637L199.076 61.8321V70.8021L200.306 70.9671V71.8521H195.296V70.9521L196.886 70.8021V67.1121ZM206.185 61.8321L204.985 61.637V60.7071H212.98L213.175 63.2271H212.125L211.63 61.7421L208.39 61.6071V65.6421L210.475 65.5971L210.715 64.3671H211.675V67.9971H210.715L210.475 66.7071L208.39 66.6621V70.8921L212.02 70.7121L212.89 68.7921L214.015 69.1071L213.625 71.8521H205V70.9521L206.185 70.8021V61.8321ZM223.489 72.0171C221.789 72.0171 220.489 71.5121 219.589 70.5021C218.689 69.4821 218.239 68.0921 218.239 66.3321C218.239 65.1721 218.474 64.1621 218.944 63.302C219.424 62.4321 220.079 61.7621 220.909 61.292C221.739 60.8221 222.679 60.5871 223.729 60.5871C224.169 60.5871 224.594 60.617 225.004 60.677C225.414 60.7271 225.899 60.7971 226.459 60.8871C226.879 60.9571 227.109 60.9921 227.149 60.9921L226.984 64.0821H225.604L225.139 61.9371C225.029 61.8271 224.839 61.7371 224.569 61.6671C224.299 61.5971 223.954 61.5621 223.534 61.5621C222.684 61.5621 221.999 61.9571 221.479 62.747C220.969 63.5271 220.714 64.6621 220.714 66.1521C220.714 67.5921 220.959 68.7671 221.449 69.6771C221.939 70.5871 222.654 71.0421 223.594 71.0421C224.044 71.0421 224.389 71.0021 224.629 70.9221C224.879 70.8321 225.089 70.7071 225.259 70.5471L225.919 69.0021L227.179 69.1221L226.879 71.4471C226.669 71.4671 226.459 71.5071 226.249 71.5671C226.049 71.6171 225.924 71.6471 225.874 71.6571C225.474 71.7671 225.099 71.8521 224.749 71.9121C224.409 71.9821 223.989 72.0171 223.489 72.0171ZM237.582 65.8971C237.942 65.9871 238.282 66.2021 238.602 66.5421C238.932 66.8721 239.217 67.2371 239.457 67.6371C239.707 68.0271 240.007 68.5421 240.357 69.1821C240.627 69.6921 240.842 70.0771 241.002 70.3371C241.172 70.5971 241.327 70.7471 241.467 70.7871L242.022 70.9521V71.8521H239.652C239.402 71.8521 239.157 71.6621 238.917 71.2821C238.687 70.9021 238.382 70.3071 238.002 69.4971C237.582 68.5871 237.212 67.8921 236.892 67.4121C236.582 66.9321 236.252 66.6921 235.902 66.6921H235.197V70.7871L236.532 70.9671V71.8521H231.867V70.9521L233.022 70.7871V61.8321L231.867 61.637V60.7071H236.337V61.637L235.197 61.8321V65.8521H236.292L238.977 61.8321L237.852 61.637V60.7071H241.812V61.637L240.567 61.8321L237.582 65.8971ZM250.947 60.7071V61.637L249.567 61.8321V68.8221L250.572 67.1421L254.397 62.192V61.8321L253.137 61.637V60.7071H257.727V61.637L256.572 61.8321V70.8021L257.772 70.9521V71.8521H253.137V70.9521L254.397 70.8021V63.722L253.497 65.3421L249.567 70.3371V70.8021L250.902 70.9521V71.8521H246.222V70.9521L247.407 70.8021V61.8321L246.252 61.637V60.7071H250.947ZM263.695 61.8321L262.495 61.637V60.7071H270.49L270.685 63.2271H269.635L269.14 61.7421L265.9 61.6071V65.6421L267.985 65.5971L268.225 64.3671H269.185V67.9971H268.225L267.985 66.7071L265.9 66.6621V70.8921L269.53 70.7121L270.4 68.7921L271.525 69.1071L271.135 71.8521H262.51V70.9521L263.695 70.8021V61.8321ZM285.023 69.4971C284.773 70.0571 284.558 70.4921 284.378 70.8021C284.198 71.1121 283.928 71.3921 283.568 71.6421C283.218 71.8921 282.778 72.0171 282.248 72.0171C281.968 72.0171 281.668 71.9921 281.348 71.9421C281.028 71.8921 280.783 71.8321 280.613 71.7621V70.5321L281.693 70.5471C282.173 70.5471 282.513 70.4721 282.713 70.3221C282.913 70.1721 283.068 69.8971 283.178 69.4971L279.608 61.8321L278.798 61.637V60.7071H283.373V61.637L282.008 61.8321L284.078 66.6471L284.498 67.9071L284.933 66.6321L286.613 61.8321L285.458 61.637V60.7071H288.788V61.637L288.008 61.8321L285.023 69.4971ZM297.786 72.0171C296.086 72.0171 294.786 71.5121 293.886 70.5021C292.986 69.4821 292.536 68.0921 292.536 66.3321C292.536 65.1721 292.771 64.1621 293.241 63.302C293.721 62.4321 294.376 61.7621 295.206 61.292C296.036 60.8221 296.976 60.5871 298.026 60.5871C298.466 60.5871 298.891 60.617 299.301 60.677C299.711 60.7271 300.196 60.7971 300.756 60.8871C301.176 60.9571 301.406 60.9921 301.446 60.9921L301.281 64.0821H299.901L299.436 61.9371C299.326 61.8271 299.136 61.7371 298.866 61.6671C298.596 61.5971 298.251 61.5621 297.831 61.5621C296.981 61.5621 296.296 61.9571 295.776 62.747C295.266 63.5271 295.011 64.6621 295.011 66.1521C295.011 67.5921 295.256 68.7671 295.746 69.6771C296.236 70.5871 296.951 71.0421 297.891 71.0421C298.341 71.0421 298.686 71.0021 298.926 70.9221C299.176 70.8321 299.386 70.7071 299.556 70.5471L300.216 69.0021L301.476 69.1221L301.176 71.4471C300.966 71.4671 300.756 71.5071 300.546 71.5671C300.346 71.6171 300.221 71.6471 300.171 71.6571C299.771 71.7671 299.396 71.8521 299.046 71.9121C298.706 71.9821 298.286 72.0171 297.786 72.0171ZM310.049 63.0171C310.049 64.7571 309.954 66.3221 309.764 67.7121C309.584 69.0921 309.304 70.1321 308.924 70.8321C308.524 71.5721 307.949 71.9421 307.199 71.9421C306.689 71.9421 306.304 71.9121 306.044 71.8521L305.909 70.5021C306.309 70.5421 306.689 70.5621 307.049 70.5621C307.249 70.5621 307.419 70.5171 307.559 70.4271C307.709 70.3371 307.839 70.1771 307.949 69.9471C308.269 69.3871 308.514 68.5321 308.684 67.3821C308.864 66.2321 308.954 64.6821 308.954 62.7321V61.8321L307.154 61.637V60.7071H316.439V61.637L315.059 61.8321V70.8021L316.514 70.9521V71.8521H311.339V70.9521L312.884 70.7871L312.899 61.8321H310.049V63.0171ZM326.552 69.4971C326.302 70.0571 326.087 70.4921 325.907 70.8021C325.727 71.1121 325.457 71.3921 325.097 71.6421C324.747 71.8921 324.307 72.0171 323.777 72.0171C323.497 72.0171 323.197 71.9921 322.877 71.9421C322.557 71.8921 322.312 71.8321 322.142 71.7621V70.5321L323.222 70.5471C323.702 70.5471 324.042 70.4721 324.242 70.3221C324.442 70.1721 324.597 69.8971 324.707 69.4971L321.137 61.8321L320.327 61.637V60.7071H324.902V61.637L323.537 61.8321L325.607 66.6471L326.027 67.9071L326.462 66.6321L328.142 61.8321L326.987 61.637V60.7071H330.317V61.637L329.537 61.8321L326.552 69.4971ZM342.254 60.7071L342.434 64.9221H341.144L340.634 61.8171L337.874 61.6671V70.7871L340.334 70.9671V71.8521H334.034V70.9671L335.669 70.7871V61.847L334.064 61.6221V60.7071H342.254ZM351.435 60.7071V61.637L350.055 61.8321V68.8221L351.06 67.1421L354.885 62.192V61.8321L353.625 61.637V60.7071H358.215V61.637L357.06 61.8321V70.8021L358.26 70.9521V71.8521H353.625V70.9521L354.885 70.8021V63.722L353.985 65.3421L350.055 70.3371V70.8021L351.39 70.9521V71.8521H346.71V70.9521L347.895 70.8021V61.8321L346.74 61.637V60.7071H351.435Z" fill="url(#paint0_linear_47:854)"/>
</g>
<g filter="url(#filter3_d_47:854)">
<path fill-rule="evenodd" clip-rule="evenodd" d="M47.4984 92L46.8834 91.8464C16.2872 80.1736 -0.163992 43.9265 6.44724 14.1302C7.06224 11.3656 7.52349 10.9048 12.4435 9.52254C17.2097 8.14023 26.5885 5.6828 33.0459 3.83973C39.6572 2.15025 43.3472 0.921536 45.9609 0.307179C46.5759 0.153589 47.0372 0 47.4984 0C47.9597 0 48.4209 0.153589 49.0359 0.307179C51.6497 0.921536 55.3396 2.15025 61.9509 3.83973C68.4084 5.6828 77.7871 8.14023 82.5533 9.52254C87.4733 10.9048 87.9346 11.3656 88.5496 14.1302C95.1608 43.9265 78.7096 80.1736 48.1134 91.8464L47.4984 92ZM19.0547 19.9666C18.5935 23.192 18.286 26.5709 18.286 29.9499C18.286 33.1753 18.5935 36.2471 19.0547 39.3189C18.1322 40.8548 17.056 42.8514 16.1335 44.5409C15.0572 39.7796 14.596 34.8648 14.596 29.7963C14.596 25.3422 14.9035 21.0417 15.6722 16.8948C18.901 16.2805 26.5885 13.9766 31.5084 13.0551C32.1234 12.9015 32.8922 12.7479 33.8147 12.4407C36.7359 11.8264 41.6559 10.7513 44.2697 10.1369C45.9609 9.67613 46.5759 9.52254 47.6522 9.52254C48.5747 9.52254 49.3434 9.67613 50.8809 10.1369C53.4946 10.7513 58.5684 11.8264 61.4896 12.4407C62.4121 12.7479 63.1809 12.9015 63.6421 13.0551C68.5621 13.9766 76.4034 16.2805 79.4783 16.8948C80.2471 21.0417 80.7083 25.3422 80.7083 29.7963C80.7083 35.3255 80.0933 40.7012 78.8633 45.7696C77.9408 44.2337 77.0183 42.3906 75.9421 40.5476C76.5571 37.1686 76.8646 33.6361 76.8646 29.9499C76.8646 26.5709 76.5571 23.192 76.0959 19.9666L75.7884 19.813C73.4821 19.1987 70.2534 18.2771 67.7934 17.8164C66.4096 17.3556 65.3334 17.202 64.5646 16.8948C63.9496 16.7412 63.3346 16.7412 62.7196 16.4341C59.0296 15.6661 53.4946 14.2838 50.5734 13.5159C49.1897 13.2087 48.4209 13.0551 47.6522 13.0551C46.8834 13.0551 46.1147 13.2087 44.5772 13.5159C41.8097 14.2838 36.2747 15.6661 32.4309 16.4341C31.8159 16.7412 31.2009 16.7412 30.5859 16.8948C29.8172 17.202 28.7409 17.3556 27.3572 17.8164C25.051 18.2771 21.6685 19.1987 19.516 19.813L19.0547 19.9666ZM27.2035 29.4891C27.6647 29.6427 28.1259 29.9499 28.5872 30.1035C29.2022 30.2571 29.9709 30.1035 31.2009 29.7963C32.5847 29.3356 34.7372 28.5676 36.5822 28.1068C38.5809 27.6461 40.1184 27.4925 41.6559 27.4925C43.1934 27.6461 44.5772 27.9533 45.3459 28.2604C45.4997 28.2604 45.6534 28.414 45.8072 28.414V27.0317C45.3459 26.4174 45.1922 25.6494 45.1922 24.7279C45.1922 23.9599 45.4997 22.8848 45.9609 21.8097C46.2684 20.8881 46.7297 19.813 47.0372 19.5058C47.1909 19.3523 47.1909 19.1987 47.3447 19.1987C47.3447 19.1987 47.4984 19.3523 47.4984 19.5058C47.8059 19.813 48.2672 20.8881 48.7284 21.8097C49.0359 22.8848 49.3434 23.9599 49.4972 24.7279C49.4972 25.6494 49.3434 26.4174 48.8822 27.0317H49.0359V28.2604C49.0359 28.2604 49.0359 28.2604 49.1897 28.2604C49.8047 27.9533 51.1884 27.6461 52.7259 27.4925C54.2634 27.4925 55.9546 27.6461 57.7996 28.1068C59.6446 28.5676 61.7971 29.3356 63.1809 29.7963C64.5646 30.1035 65.1796 30.2571 65.7946 30.1035C66.4096 29.9499 66.8709 29.6427 67.3321 29.4891C67.1784 29.182 67.1784 29.0284 67.1784 28.7212C67.1784 27.4925 68.1009 26.5709 69.1771 26.5709C70.2534 26.5709 71.1759 27.4925 71.1759 28.7212C71.1759 29.4891 70.7146 30.2571 69.9459 30.5643L78.0946 49.3022H79.4783C77.4796 52.6811 73.6359 54.8314 69.3309 54.8314C65.0259 54.8314 61.1821 52.6811 59.1834 49.3022H60.5671L68.5621 30.7179C68.5621 30.5643 68.4084 30.5643 68.4084 30.5643L68.2546 30.7179C67.6396 31.1786 66.8709 31.9466 65.7946 32.1002C64.7184 32.2538 63.6421 31.793 61.7971 31.3322C59.7984 30.8715 57.1846 30.2571 55.3396 30.1035C53.3409 29.9499 51.9572 30.4107 51.0347 30.7179C50.1122 31.1786 49.6509 31.6394 49.1897 32.1002L49.0359 32.2538V35.0184H53.8021V36.2471H41.3484V35.0184H45.8072V32.5609C45.6534 32.5609 45.4997 32.2538 45.1922 32.1002C44.8847 31.6394 44.2697 31.1786 43.3472 30.7179C42.4247 30.4107 41.1947 29.9499 39.1959 30.1035C37.1972 30.2571 34.5834 30.8715 32.7384 31.3322C30.8934 31.793 29.6634 32.2538 28.5872 32.1002C27.6647 31.9466 26.7422 31.1786 26.1272 30.7179C26.1272 30.7179 26.1272 30.5643 25.9735 30.5643C25.9735 30.5643 25.9735 30.5643 25.8197 30.7179L33.8147 49.3022H35.1984C33.1997 52.6811 29.5097 54.8314 25.051 54.8314C20.746 54.8314 17.056 52.6811 15.0572 49.3022H16.441L24.436 30.5643C23.6672 30.2571 23.206 29.4891 23.206 28.7212C23.206 27.4925 24.1285 26.5709 25.2047 26.5709C26.4347 26.5709 27.3572 27.4925 27.3572 28.7212C27.3572 29.0284 27.2035 29.182 27.2035 29.4891ZM69.3309 30.7179L77.0183 49.3022H61.6434L69.3309 30.7179ZM49.0359 63.8932V64.6611H53.8021V65.8898H41.3484V64.6611H45.8072V63.8932H41.3484V62.6644H45.8072H49.0359H53.8021V63.8932H49.0359ZM53.3409 60.207H48.8822V58.9783C49.0359 58.9783 49.1897 58.8247 49.4972 58.5175C49.6509 58.0568 49.8047 57.596 49.8047 57.2888V45.616H49.4972L47.9597 60.207H46.4222L44.7309 45.616H44.5772L44.4234 57.1352C44.4234 58.2103 44.7309 58.8247 45.3459 58.9783V60.207H41.6559V58.9783C42.1172 58.6711 42.4247 58.0568 42.4247 57.1352V42.0835C42.4247 40.5476 42.1172 39.7796 41.5022 39.626V38.3973H46.4222L47.4984 49.4558L47.6522 49.6093L49.0359 38.3973H53.1871V39.626C52.5722 39.7796 52.4184 40.5476 52.4184 41.9299V57.2888C52.4184 58.0568 52.7259 58.5175 53.3409 58.9783C53.3409 59.1319 53.3409 59.5927 53.3409 60.207ZM25.2047 30.7179H25.051L17.5172 49.3022H32.8922L25.2047 30.7179ZM75.7884 55.2922C70.0996 69.2688 59.9521 79.5593 47.8059 82.7846C47.6522 82.7846 47.6522 82.7846 47.6522 82.7846C47.4984 82.7846 47.4984 82.7846 47.4984 82.7846C35.5059 79.7129 25.3585 69.576 19.516 55.7529C21.0535 56.3673 22.591 56.828 24.5897 56.9816C29.8172 67.2721 37.9659 75.1052 47.6522 78.4841C57.3384 75.1052 65.4871 67.2721 70.7146 56.828C72.7134 56.5209 74.2509 56.0601 75.7884 55.2922ZM47.4984 90.4641L46.8834 90.1569C17.3635 78.9449 1.52725 44.0801 7.83099 15.2053C8.44599 12.5943 8.90724 12.1336 13.6735 10.7513C18.286 9.36895 27.3572 7.06511 33.5072 5.37563C39.8109 3.68614 43.5009 2.61102 45.9609 1.84307C46.5759 1.68948 47.0372 1.53589 47.4984 1.68948C47.9597 1.53589 48.4209 1.68948 49.0359 1.84307C51.4959 2.61102 55.1859 3.68614 61.3359 5.37563C67.6396 7.06511 76.7109 9.36895 81.3233 10.7513C86.0896 12.1336 86.5508 12.5943 87.1658 15.2053C93.4696 44.0801 77.6333 78.9449 48.1134 90.1569L47.4984 90.4641ZM47.4984 88.1603L46.8834 88.0067C18.901 77.2554 3.8335 44.0801 9.82974 16.7412C10.4447 14.2838 10.7522 13.823 15.3647 12.5943C19.8235 11.212 28.2797 9.06177 34.2759 7.37229C40.2722 5.6828 43.6547 4.76127 46.1147 3.99332C46.5759 3.99332 47.0372 3.83973 47.4984 3.83973C47.9597 3.83973 48.4209 3.99332 48.8822 3.99332C51.3422 4.76127 54.7246 5.6828 60.7209 7.37229C66.7171 9.06177 75.1734 11.212 79.6321 12.5943C84.0908 13.823 84.5521 14.2838 85.1671 16.7412C91.1633 44.0801 76.0959 77.2554 48.1134 88.0067L47.4984 88.1603Z" fill="url(#paint1_linear_47:854)"/>
</g>
<defs>
<filter id="filter0_d_47:854" x="104.998" y="13" width="259" height="32" filterUnits="userSpaceOnUse" color-interpolation-filters="sRGB">
<feFlood flood-opacity="0" result="BackgroundImageFix"/>
<feColorMatrix in="SourceAlpha" type="matrix" values="0 0 0 0 0 0 0 0 0 0 0 0 0 0 0 0 0 0 127 0" result="hardAlpha"/>
<feOffset dy="4"/>
<feGaussianBlur stdDeviation="2"/>
<feComposite in2="hardAlpha" operator="out"/>
<feColorMatrix type="matrix" values="0 0 0 0 0 0 0 0 0 0 0 0 0 0 0 0 0 0 0.25 0"/>
<feBlend mode="normal" in2="BackgroundImageFix" result="effect1_dropShadow_47:854"/>
<feBlend mode="normal" in="SourceGraphic" in2="effect1_dropShadow_47:854" result="shape"/>
</filter>
<filter id="filter1_d_47:854" x="104.998" y="45" width="259" height="11" filterUnits="userSpaceOnUse" color-interpolation-filters="sRGB">
<feFlood flood-opacity="0" result="BackgroundImageFix"/>
<feColorMatrix in="SourceAlpha" type="matrix" values="0 0 0 0 0 0 0 0 0 0 0 0 0 0 0 0 0 0 127 0" result="hardAlpha"/>
<feOffset dy="4"/>
<feGaussianBlur stdDeviation="2"/>
<feComposite in2="hardAlpha" operator="out"/>
<feColorMatrix type="matrix" values="0 0 0 0 0 0 0 0 0 0 0 0 0 0 0 0 0 0 0.25 0"/>
<feBlend mode="normal" in2="BackgroundImageFix" result="effect1_dropShadow_47:854"/>
<feBlend mode="normal" in="SourceGraphic" in2="effect1_dropShadow_47:854" result="shape"/>
</filter>
<filter id="filter2_d_47:854" x="105.567" y="60.5723" width="256.694" height="22.25" filterUnits="userSpaceOnUse" color-interpolation-filters="sRGB">
<feFlood flood-opacity="0" result="BackgroundImageFix"/>
<feColorMatrix in="SourceAlpha" type="matrix" values="0 0 0 0 0 0 0 0 0 0 0 0 0 0 0 0 0 0 127 0" result="hardAlpha"/>
<feOffset dy="4"/>
<feGaussianBlur stdDeviation="2"/>
<feComposite in2="hardAlpha" operator="out"/>
<feColorMatrix type="matrix" values="0 0 0 0 0 0 0 0 0 0 0 0 0 0 0 0 0 0 0.25 0"/>
<feBlend mode="normal" in2="BackgroundImageFix" result="effect1_dropShadow_47:854"/>
<feBlend mode="normal" in="SourceGraphic" in2="effect1_dropShadow_47:854" result="shape"/>
</filter>
<filter id="filter3_d_47:854" x="0.998413" y="0" width="93" height="100" filterUnits="userSpaceOnUse" color-interpolation-filters="sRGB">
<feFlood flood-opacity="0" result="BackgroundImageFix"/>
<feColorMatrix in="SourceAlpha" type="matrix" values="0 0 0 0 0 0 0 0 0 0 0 0 0 0 0 0 0 0 127 0" result="hardAlpha"/>
<feOffset dy="4"/>
<feGaussianBlur stdDeviation="2"/>
<feComposite in2="hardAlpha" operator="out"/>
<feColorMatrix type="matrix" values="0 0 0 0 0 0 0 0 0 0 0 0 0 0 0 0 0 0 0.25 0"/>
<feBlend mode="normal" in2="BackgroundImageFix" result="effect1_dropShadow_47:854"/>
<feBlend mode="normal" in="SourceGraphic" in2="effect1_dropShadow_47:854" result="shape"/>
</filter>
<linearGradient id="paint0_linear_47:854" x1="240.023" y1="62.2757" x2="240.023" y2="79.9025" gradientUnits="userSpaceOnUse">
<stop stop-color="white"/>
<stop offset="1" stop-color="#1A2038"/>
</linearGradient>
<linearGradient id="paint1_linear_47:854" x1="47.4984" y1="0" x2="48.0192" y2="135.386" gradientUnits="userSpaceOnUse">
<stop stop-color="white"/>
<stop offset="1" stop-color="#2D48B5"/>
</linearGradient>
</defs>
</svg>
