<svg width="276" height="194" viewBox="0 0 276 194" fill="none" xmlns="http://www.w3.org/2000/svg">
<g filter="url(#filter0_d_71:2214)">
<mask id="path-1-inside-1_71:2214" fill="white">
<path d="M29.1289 144.203C29.1698 144.203 29.1907 144.264 29.1907 144.386C29.1907 144.51 29.1698 144.571 29.1289 144.571C28.4248 144.571 27.8652 144.561 27.4519 144.541L25.1524 144.51L22.823 144.541C22.4297 144.561 21.8909 144.571 21.2077 144.571C21.146 144.571 21.1151 144.51 21.1151 144.386C21.1151 144.264 21.146 144.203 21.2077 144.203C22.0781 144.203 22.6677 144.1 22.9784 143.896C23.2891 143.692 23.4445 143.262 23.4445 142.608L23.4136 142.086L22.7613 129.541L16.3628 144.356C16.321 144.438 16.2383 144.479 16.1138 144.479C15.9893 144.479 15.9067 144.438 15.8659 144.356L8.00641 129.602L7.75843 140.675C7.73752 141.779 7.9606 142.644 8.42667 143.267C8.89174 143.891 9.55001 144.203 10.3985 144.203C10.4602 144.203 10.4921 144.264 10.4921 144.386C10.4921 144.51 10.4602 144.571 10.3985 144.571C9.83981 144.571 9.40462 144.561 9.0939 144.541L7.38598 144.51L5.42908 144.541C5.09745 144.561 4.6523 144.571 4.09262 144.571C4.03087 144.571 4 144.51 4 144.386C4 144.264 4.03087 144.203 4.09262 144.203C4.9421 144.203 5.61531 143.886 6.11225 143.252C6.60919 142.618 6.86812 141.758 6.88903 140.675L7.16788 127.976L7.13701 127.946C6.72272 127.188 6.2935 126.637 5.84834 126.288C5.40219 125.941 4.89031 125.767 4.31071 125.767C4.24797 125.767 4.2171 125.706 4.2171 125.583C4.2171 125.46 4.24797 125.399 4.31071 125.399L5.77067 125.43C6.06047 125.45 6.43292 125.46 6.88903 125.46L8.53522 125.43C8.72144 125.409 8.95946 125.399 9.24926 125.399C9.51914 125.399 9.72529 125.492 9.87069 125.675C10.0151 125.86 10.284 126.299 10.6783 126.994L17.4493 139.54L23.3518 126.165C23.4753 125.879 23.6048 125.681 23.7392 125.567C23.8747 125.455 24.0549 125.399 24.283 125.399C24.4692 125.399 24.6813 125.409 24.9204 125.43C25.1584 125.45 25.4322 125.46 25.7429 125.46L27.5754 125.43C27.8652 125.409 28.2804 125.399 28.8182 125.399C28.88 125.399 28.9118 125.46 28.9118 125.583C28.9118 125.706 28.88 125.767 28.8182 125.767C27.8452 125.767 27.1412 125.961 26.706 126.35C26.2708 126.739 26.0746 127.342 26.1164 128.16L26.8613 142.086C26.9031 142.72 26.9808 143.181 27.0943 143.467C27.2079 143.753 27.415 143.948 27.7158 144.05C28.0155 144.151 28.4866 144.203 29.1289 144.203ZM52.6425 144.203C52.7053 144.203 52.7361 144.264 52.7361 144.386C52.7361 144.51 52.7053 144.571 52.6425 144.571C51.9175 144.571 51.3379 144.561 50.9027 144.541L48.5106 144.51L45.7162 144.541C45.3428 144.561 44.8359 144.571 44.1935 144.571C44.1318 144.571 44.1009 144.51 44.1009 144.386C44.1009 144.264 44.1318 144.203 44.1935 144.203C44.9594 144.203 45.519 144.151 45.8716 144.05C46.2231 143.948 46.4611 143.753 46.5856 143.467C46.7101 143.181 46.7718 142.72 46.7718 142.086V129.541L34.3473 144.909C34.2856 144.97 34.1292 145 33.8812 145C33.4879 145 33.2907 144.929 33.2907 144.786V127.884C33.2907 127.27 33.2289 126.82 33.1045 126.534C32.98 126.248 32.7529 126.048 32.4213 125.935C32.0897 125.823 31.5728 125.767 30.8677 125.767C30.806 125.767 30.7751 125.706 30.7751 125.583C30.7751 125.46 30.806 125.399 30.8677 125.399L32.6075 125.43C33.6432 125.471 34.4399 125.492 34.9996 125.492C35.8282 125.492 36.7593 125.471 37.795 125.43L39.3167 125.399C39.3795 125.399 39.4103 125.46 39.4103 125.583C39.4103 125.706 39.3795 125.767 39.3167 125.767C38.5509 125.767 37.9912 125.823 37.6397 125.935C37.2881 126.048 37.0491 126.248 36.9256 126.534C36.8011 126.82 36.7394 127.27 36.7394 127.884V140.553L49.1639 125.185C49.2257 125.123 49.381 125.092 49.629 125.092C49.7744 125.092 49.9089 125.113 50.0333 125.153C50.1578 125.195 50.2196 125.246 50.2196 125.307V142.086C50.2196 142.7 50.2823 143.155 50.4058 143.451C50.5303 143.748 50.7583 143.948 51.09 144.05C51.4206 144.151 51.9385 144.203 52.6425 144.203ZM73.6406 144.203C73.7023 144.203 73.7332 144.264 73.7332 144.386C73.7332 144.51 73.7023 144.571 73.6406 144.571C73.0401 144.571 72.574 144.561 72.2424 144.541L70.3791 144.51L67.8316 144.541C67.4383 144.561 66.8895 144.571 66.1854 144.571C66.1227 144.571 66.0918 144.51 66.0918 144.386C66.0918 144.264 66.1227 144.203 66.1854 144.203C66.8686 144.203 67.2102 144.029 67.2102 143.681C67.2102 143.497 67.1176 143.272 66.9304 143.006L62.676 136.504L60.004 140.276C59.1964 141.401 58.7931 142.311 58.7931 143.006C58.7931 143.804 59.3308 144.203 60.4074 144.203C60.4492 144.203 60.4701 144.264 60.4701 144.386C60.4701 144.51 60.4492 144.571 60.4074 144.571C59.7252 144.571 59.2073 144.561 58.8548 144.541L56.5563 144.51L55.0964 144.541C54.8275 144.561 54.3923 144.571 53.7918 144.571C53.73 144.571 53.6982 144.51 53.6982 144.386C53.6982 144.264 53.73 144.203 53.7918 144.203C54.4341 144.203 55.2209 143.865 56.152 143.19C57.0841 142.516 58.0571 141.483 59.0719 140.092L62.2408 135.86L57.2704 128.221C56.7117 127.342 56.1739 126.713 55.6561 126.335C55.1382 125.956 54.5895 125.767 54.0089 125.767C53.9471 125.767 53.9163 125.706 53.9163 125.583C53.9163 125.46 53.9471 125.399 54.0089 125.399L55.3453 125.43C55.9249 125.471 56.3591 125.492 56.6489 125.492C57.3739 125.492 58.2752 125.471 59.3517 125.43L61.1224 125.399C61.1642 125.399 61.1842 125.46 61.1842 125.583C61.1842 125.706 61.1642 125.767 61.1224 125.767C60.4183 125.767 60.0668 125.941 60.0668 126.288C60.0668 126.452 60.1594 126.688 60.3456 126.994L64.4456 133.221L66.9304 129.725C67.738 128.579 68.1423 127.659 68.1423 126.963C68.1423 126.165 67.6046 125.767 66.527 125.767C66.4862 125.767 66.4653 125.706 66.4653 125.583C66.4653 125.46 66.4862 125.399 66.527 125.399L68.0806 125.43C68.9092 125.471 69.674 125.492 70.3791 125.492C70.8133 125.492 71.3003 125.471 71.838 125.43L73.1436 125.399C73.2054 125.399 73.2362 125.46 73.2362 125.583C73.2362 125.706 73.2054 125.767 73.1436 125.767C72.4814 125.767 71.6887 126.109 70.7675 126.795C69.8453 127.479 68.8663 128.518 67.8316 129.909L64.8808 133.896L70.1919 142.025C70.7097 142.781 71.2385 143.334 71.7763 143.681C72.3151 144.029 72.9355 144.203 73.6406 144.203ZM96.0049 144.203C96.1085 144.203 96.1603 144.264 96.1603 144.386C96.1603 144.51 96.1085 144.571 96.0049 144.571C95.5907 144.571 94.9483 144.551 94.0789 144.51C93.1677 144.469 92.5154 144.448 92.122 144.448C91.6042 144.448 90.9728 144.469 90.2269 144.51C89.5228 144.551 88.9641 144.571 88.5498 144.571C88.4672 144.571 88.4253 144.51 88.4253 144.386C88.4253 144.264 88.4672 144.203 88.5498 144.203C89.0886 144.203 89.476 144.146 89.715 144.034C89.953 143.922 90.0715 143.722 90.0715 143.436C90.0715 143.088 89.8654 142.506 89.4501 141.688L86.2205 135.399H80.6914L78.4865 140.215C78.2166 140.808 78.0822 141.36 78.0822 141.872C78.0822 142.608 78.3461 143.181 78.8739 143.589C79.4017 143.999 80.1118 144.203 81.0021 144.203C81.1056 144.203 81.1574 144.264 81.1574 144.386C81.1574 144.51 81.1056 144.571 81.0021 144.571C80.6296 144.571 80.0909 144.551 79.3868 144.51C78.6 144.469 77.9169 144.448 77.3363 144.448C76.7776 144.448 76.1044 144.469 75.3176 144.51C74.6135 144.551 74.0439 144.571 73.6097 144.571C73.526 144.571 73.4852 144.51 73.4852 144.386C73.4852 144.264 73.526 144.203 73.6097 144.203C74.1893 144.203 74.6753 144.085 75.0687 143.85C75.463 143.615 75.8564 143.196 76.2498 142.592C76.6431 141.989 77.1092 141.095 77.647 139.909L84.3881 125.276C84.4289 125.215 84.5225 125.185 84.6669 125.185C84.8322 125.185 84.9258 125.215 84.9467 125.276L92.7116 140.369C93.4366 141.82 94.0371 142.823 94.5141 143.374C94.9901 143.927 95.4871 144.203 96.0049 144.203ZM81.0947 134.54H85.7853L83.3006 129.693L81.0947 134.54ZM108.429 124.08C107.643 124.08 106.897 123.948 106.193 123.681C105.489 123.416 104.919 123.063 104.485 122.623C104.05 122.183 103.833 121.718 103.833 121.227C103.833 120.86 103.952 120.563 104.19 120.337C104.427 120.113 104.765 120 105.199 120C105.675 120 106.007 120.139 106.193 120.414C106.379 120.69 106.555 121.125 106.722 121.718C106.908 122.352 107.109 122.818 107.327 123.114C107.544 123.411 107.901 123.558 108.399 123.558C108.916 123.558 109.294 123.4 109.532 123.083C109.77 122.767 109.993 122.301 110.2 121.688C110.386 121.114 110.578 120.69 110.775 120.414C110.971 120.139 111.288 120 111.722 120C112.157 120 112.488 120.113 112.716 120.337C112.944 120.563 113.057 120.86 113.057 121.227C113.057 121.739 112.84 122.214 112.405 122.653C111.97 123.094 111.401 123.441 110.697 123.697C109.993 123.953 109.237 124.08 108.429 124.08ZM118.742 144.203C118.804 144.203 118.835 144.264 118.835 144.386C118.835 144.51 118.804 144.571 118.742 144.571C118.018 144.571 117.437 144.561 117.003 144.541L114.611 144.51L111.815 144.541C111.442 144.561 110.935 144.571 110.293 144.571C110.231 144.571 110.2 144.51 110.2 144.386C110.2 144.264 110.231 144.203 110.293 144.203C111.06 144.203 111.618 144.151 111.97 144.05C112.322 143.948 112.56 143.753 112.685 143.467C112.809 143.181 112.871 142.72 112.871 142.086V129.541L100.447 144.909C100.385 144.97 100.229 145 99.9805 145C99.5871 145 99.3909 144.929 99.3909 144.786V127.884C99.3909 127.27 99.3282 126.82 99.2037 126.534C99.0802 126.248 98.8521 126.048 98.5205 125.935C98.1889 125.823 97.672 125.767 96.968 125.767C96.9052 125.767 96.8743 125.706 96.8743 125.583C96.8743 125.46 96.9052 125.399 96.968 125.399L98.7067 125.43C99.7425 125.471 100.539 125.492 101.099 125.492C101.927 125.492 102.86 125.471 103.894 125.43L105.416 125.399C105.479 125.399 105.51 125.46 105.51 125.583C105.51 125.706 105.479 125.767 105.416 125.767C104.65 125.767 104.09 125.823 103.739 125.935C103.387 126.048 103.149 126.248 103.025 126.534C102.9 126.82 102.839 127.27 102.839 127.884V140.553L115.263 125.185C115.325 125.123 115.48 125.092 115.729 125.092C115.875 125.092 116.008 125.113 116.133 125.153C116.257 125.195 116.319 125.246 116.319 125.307V142.086C116.319 142.7 116.382 143.155 116.505 143.451C116.63 143.748 116.858 143.948 117.189 144.05C117.521 144.151 118.038 144.203 118.742 144.203ZM142.007 144.203C142.11 144.203 142.163 144.264 142.163 144.386C142.163 144.51 142.11 144.571 142.007 144.571C141.593 144.571 140.951 144.551 140.081 144.51C139.17 144.469 138.518 144.448 138.124 144.448C137.607 144.448 136.975 144.469 136.229 144.51C135.525 144.551 134.967 144.571 134.552 144.571C134.47 144.571 134.428 144.51 134.428 144.386C134.428 144.264 134.47 144.203 134.552 144.203C135.09 144.203 135.479 144.146 135.717 144.034C135.955 143.922 136.074 143.722 136.074 143.436C136.074 143.088 135.867 142.506 135.454 141.688L129.303 129.693L124.488 140.215C124.219 140.808 124.085 141.36 124.085 141.872C124.085 142.608 124.349 143.181 124.876 143.589C125.405 143.999 126.113 144.203 127.005 144.203C127.108 144.203 127.16 144.264 127.16 144.386C127.16 144.51 127.108 144.571 127.005 144.571C126.631 144.571 126.093 144.551 125.389 144.51C124.602 144.469 123.918 144.448 123.339 144.448C122.78 144.448 122.107 144.469 121.32 144.51C120.616 144.551 120.046 144.571 119.611 144.571C119.529 144.571 119.488 144.51 119.488 144.386C119.488 144.264 119.529 144.203 119.611 144.203C120.192 144.203 120.678 144.085 121.072 143.85C121.464 143.615 121.859 143.196 122.252 142.592C122.646 141.989 123.112 141.095 123.649 139.909L130.39 125.276C130.431 125.215 130.525 125.185 130.669 125.185C130.836 125.185 130.928 125.215 130.949 125.276L138.715 140.369C139.439 141.82 140.041 142.823 140.517 143.374C140.993 143.927 141.49 144.203 142.007 144.203ZM152.972 144.939C151.046 144.939 149.332 144.494 147.831 143.604C146.33 142.715 145.17 141.509 144.353 139.985C143.534 138.462 143.125 136.8 143.125 135C143.125 132.893 143.664 131.089 144.74 129.586C145.818 128.083 147.2 126.953 148.887 126.197C150.575 125.44 152.299 125.062 154.058 125.062C156.026 125.062 157.755 125.517 159.246 126.427C160.738 127.337 161.881 128.539 162.679 130.031C163.475 131.523 163.875 133.109 163.875 134.786C163.875 136.646 163.378 138.355 162.384 139.909C161.389 141.462 160.059 142.69 158.393 143.589C156.725 144.49 154.919 144.939 152.972 144.939ZM153.997 144.172C155.156 144.172 156.197 143.839 157.119 143.176C158.04 142.511 158.76 141.539 159.278 140.262C159.796 138.983 160.054 137.454 160.054 135.676C160.054 133.794 159.764 132.112 159.184 130.629C158.605 129.146 157.766 127.986 156.669 127.148C155.571 126.309 154.287 125.89 152.817 125.89C150.932 125.89 149.482 126.59 148.469 127.991C147.453 129.392 146.946 131.35 146.946 133.865C146.946 135.849 147.252 137.623 147.862 139.188C148.474 140.751 149.312 141.974 150.379 142.853C151.445 143.732 152.651 144.172 153.997 144.172ZM176.579 133.804C178.318 134.009 179.7 134.581 180.726 135.522C181.751 136.462 182.263 137.628 182.263 139.018C182.263 140.082 181.952 141.043 181.332 141.902C180.71 142.761 179.851 143.441 178.753 143.942C177.656 144.443 176.434 144.693 175.088 144.693C174.508 144.693 173.846 144.663 173.1 144.602C172.81 144.581 172.452 144.561 172.029 144.541C171.604 144.52 171.133 144.51 170.615 144.51L168.347 144.541C167.934 144.561 167.374 144.571 166.67 144.571C166.609 144.571 166.577 144.51 166.577 144.386C166.577 144.264 166.609 144.203 166.67 144.203C167.271 144.203 167.727 144.146 168.037 144.034C168.347 143.922 168.57 143.718 168.705 143.421C168.839 143.125 168.906 142.68 168.906 142.086V127.884C168.906 127.025 168.762 126.458 168.472 126.181C168.182 125.905 167.591 125.767 166.701 125.767C166.66 125.767 166.639 125.706 166.639 125.583C166.639 125.46 166.66 125.399 166.701 125.399L168.347 125.43C169.3 125.471 170.055 125.492 170.615 125.492C171.196 125.492 171.795 125.46 172.416 125.399C172.624 125.379 172.934 125.358 173.349 125.337C173.763 125.318 174.124 125.307 174.435 125.307C176.32 125.307 177.78 125.644 178.815 126.32C179.851 126.994 180.369 127.976 180.369 129.264C180.369 130.246 180.042 131.136 179.391 131.934C178.737 132.731 177.801 133.354 176.579 133.804ZM173.97 125.982C173.37 125.982 172.955 126.12 172.727 126.396C172.499 126.672 172.386 127.188 172.386 127.946V133.774L173.628 133.804C174.705 133.804 175.533 133.405 176.113 132.607C176.693 131.81 176.983 130.788 176.983 129.541C176.983 128.374 176.724 127.49 176.206 126.887C175.688 126.283 174.943 125.982 173.97 125.982ZM174.56 143.927C177.272 143.927 178.629 142.536 178.629 139.755C178.629 138.181 178.246 136.933 177.479 136.013C176.714 135.092 175.553 134.632 174.001 134.632C173.4 134.632 172.862 134.653 172.386 134.693V142.086C172.386 142.761 172.52 143.237 172.789 143.513C173.059 143.788 173.649 143.927 174.56 143.927ZM196.956 125.062C197.867 125.062 198.819 125.138 199.813 125.292C200.807 125.445 201.584 125.644 202.142 125.89C202.329 125.951 202.448 126.028 202.5 126.12C202.552 126.212 202.598 126.371 202.639 126.595L203.013 130.86C203.013 130.921 202.961 130.962 202.856 130.982C202.754 131.002 202.692 130.972 202.671 130.89C201.967 129.274 201.024 128.027 199.844 127.148C198.664 126.268 197.297 125.829 195.744 125.829C193.694 125.829 192.11 126.575 190.992 128.067C189.873 129.56 189.314 131.565 189.314 134.08C189.314 135.962 189.619 137.679 190.231 139.234C190.841 140.788 191.701 142.02 192.809 142.93C193.916 143.839 195.174 144.295 196.582 144.295C197.908 144.295 199.093 143.86 200.14 142.991C201.184 142.122 202.121 140.799 202.95 139.018C202.971 138.937 203.039 138.906 203.152 138.927C203.267 138.948 203.323 138.988 203.323 139.049L202.856 143.222C202.816 143.467 202.769 143.625 202.718 143.697C202.665 143.769 202.547 143.844 202.36 143.927C200.517 144.602 198.623 144.939 196.676 144.939C194.149 144.939 192.037 144.443 190.339 143.451C188.641 142.46 187.393 141.202 186.597 139.678C185.799 138.155 185.401 136.565 185.401 134.909C185.401 132.966 185.933 131.248 187 129.755C188.067 128.262 189.485 127.107 191.255 126.288C193.026 125.471 194.926 125.062 196.956 125.062ZM225.656 144.203C225.719 144.203 225.75 144.264 225.75 144.386C225.75 144.51 225.719 144.571 225.656 144.571H220.873C220.604 144.571 220.361 144.49 220.143 144.325C219.926 144.162 219.547 143.738 219.009 143.053C218.471 142.367 217.59 141.156 216.368 139.418L215.53 138.251C214.806 137.209 214.267 136.478 213.915 136.058C213.563 135.639 213.196 135.343 212.812 135.169C212.429 134.995 211.927 134.909 211.305 134.909V142.086C211.305 142.7 211.363 143.155 211.477 143.451C211.59 143.748 211.813 143.948 212.145 144.05C212.477 144.151 212.993 144.203 213.697 144.203C213.759 144.203 213.791 144.264 213.791 144.386C213.791 144.51 213.759 144.571 213.697 144.571C212.973 144.571 212.393 144.561 211.959 144.541L209.379 144.51L207.113 144.541C206.698 144.561 206.14 144.571 205.436 144.571C205.373 144.571 205.342 144.51 205.342 144.386C205.342 144.264 205.373 144.203 205.436 144.203C206.14 144.203 206.657 144.151 206.988 144.05C207.32 143.948 207.547 143.748 207.671 143.451C207.796 143.155 207.859 142.7 207.859 142.086V127.884C207.859 127.27 207.796 126.82 207.671 126.534C207.547 126.248 207.325 126.048 207.004 125.935C206.683 125.823 206.171 125.767 205.467 125.767C205.404 125.767 205.373 125.706 205.373 125.583C205.373 125.46 205.404 125.399 205.467 125.399L207.113 125.43C208.065 125.471 208.821 125.492 209.379 125.492C210.084 125.492 210.954 125.471 211.99 125.43L213.697 125.399C213.759 125.399 213.791 125.46 213.791 125.583C213.791 125.706 213.759 125.767 213.697 125.767C213.014 125.767 212.507 125.829 212.176 125.951C211.844 126.074 211.616 126.283 211.492 126.58C211.368 126.876 211.305 127.332 211.305 127.946V134.387C211.865 134.367 212.569 134.357 213.418 134.357L216.679 129.939C217.529 128.774 217.953 127.802 217.953 127.025C217.953 126.637 217.839 126.33 217.611 126.104C217.384 125.879 217.074 125.767 216.679 125.767C216.638 125.767 216.617 125.706 216.617 125.583C216.617 125.46 216.638 125.399 216.679 125.399L218.108 125.43C219.019 125.471 219.827 125.492 220.531 125.492C221.339 125.492 222.177 125.471 223.048 125.43L224.383 125.399C224.445 125.399 224.476 125.46 224.476 125.583C224.476 125.706 224.445 125.767 224.383 125.767C223.472 125.767 222.447 126.095 221.308 126.749C220.169 127.404 219.206 128.221 218.419 129.202L214.194 134.387C215.002 134.428 215.664 134.576 216.182 134.832C216.7 135.088 217.213 135.491 217.72 136.043C218.228 136.595 218.947 137.516 219.879 138.804L220.438 139.571C221.308 140.757 221.986 141.646 222.473 142.239C222.959 142.832 223.461 143.303 223.979 143.651C224.497 143.999 225.055 144.182 225.656 144.203ZM248.145 144.203C248.208 144.203 248.238 144.264 248.238 144.386C248.238 144.51 248.208 144.571 248.145 144.571C247.421 144.571 246.84 144.561 246.406 144.541L244.014 144.51L241.219 144.541C240.845 144.561 240.338 144.571 239.696 144.571C239.634 144.571 239.603 144.51 239.603 144.386C239.603 144.264 239.634 144.203 239.696 144.203C240.463 144.203 241.021 144.151 241.374 144.05C241.725 143.948 241.963 143.753 242.088 143.467C242.212 143.181 242.274 142.72 242.274 142.086V129.541L229.85 144.909C229.788 144.97 229.632 145 229.384 145C228.99 145 228.794 144.929 228.794 144.786V127.884C228.794 127.27 228.731 126.82 228.607 126.534C228.483 126.248 228.255 126.048 227.925 125.935C227.592 125.823 227.075 125.767 226.371 125.767C226.309 125.767 226.277 125.706 226.277 125.583C226.277 125.46 226.309 125.399 226.371 125.399L228.11 125.43C229.146 125.471 229.943 125.492 230.502 125.492C231.33 125.492 232.263 125.471 233.297 125.43L234.819 125.399C234.882 125.399 234.913 125.46 234.913 125.583C234.913 125.706 234.882 125.767 234.819 125.767C234.053 125.767 233.494 125.823 233.142 125.935C232.79 126.048 232.552 126.248 232.428 126.534C232.303 126.82 232.242 127.27 232.242 127.884V140.553L244.666 125.185C244.728 125.123 244.883 125.092 245.132 125.092C245.278 125.092 245.411 125.113 245.536 125.153C245.66 125.195 245.722 125.246 245.722 125.307V142.086C245.722 142.7 245.785 143.155 245.909 143.451C246.033 143.748 246.261 143.948 246.592 144.05C246.924 144.151 247.441 144.203 248.145 144.203ZM261.595 124.08C260.808 124.08 260.062 123.948 259.358 123.681C258.654 123.416 258.085 123.063 257.649 122.623C257.215 122.183 256.998 121.718 256.998 121.227C256.998 120.86 257.117 120.563 257.355 120.337C257.593 120.113 257.929 120 258.364 120C258.841 120 259.172 120.139 259.358 120.414C259.545 120.69 259.721 121.125 259.886 121.718C260.072 122.352 260.275 122.818 260.493 123.114C260.71 123.411 261.067 123.558 261.564 123.558C262.082 123.558 262.46 123.4 262.698 123.083C262.936 122.767 263.159 122.301 263.365 121.688C263.552 121.114 263.743 120.69 263.94 120.414C264.137 120.139 264.452 120 264.887 120C265.323 120 265.653 120.113 265.881 120.337C266.108 120.563 266.223 120.86 266.223 121.227C266.223 121.739 266.006 122.214 265.571 122.653C265.135 123.094 264.567 123.441 263.862 123.697C263.159 123.953 262.403 124.08 261.595 124.08ZM271.907 144.203C271.969 144.203 272 144.264 272 144.386C272 144.51 271.969 144.571 271.907 144.571C271.182 144.571 270.603 144.561 270.168 144.541L267.777 144.51L264.98 144.541C264.608 144.561 264.101 144.571 263.458 144.571C263.397 144.571 263.365 144.51 263.365 144.386C263.365 144.264 263.397 144.203 263.458 144.203C264.225 144.203 264.784 144.151 265.135 144.05C265.488 143.948 265.726 143.753 265.85 143.467C265.975 143.181 266.037 142.72 266.037 142.086V129.541L253.612 144.909C253.549 144.97 253.395 145 253.146 145C252.753 145 252.556 144.929 252.556 144.786V127.884C252.556 127.27 252.494 126.82 252.369 126.534C252.245 126.248 252.018 126.048 251.686 125.935C251.355 125.823 250.837 125.767 250.133 125.767C250.071 125.767 250.04 125.706 250.04 125.583C250.04 125.46 250.071 125.399 250.133 125.399L251.872 125.43C252.908 125.471 253.706 125.492 254.264 125.492C255.093 125.492 256.024 125.471 257.06 125.43L258.582 125.399C258.644 125.399 258.675 125.46 258.675 125.583C258.675 125.706 258.644 125.767 258.582 125.767C257.816 125.767 257.257 125.823 256.905 125.935C256.552 126.048 256.314 126.248 256.19 126.534C256.066 126.82 256.003 127.27 256.003 127.884V140.553L268.429 125.185C268.491 125.123 268.646 125.092 268.895 125.092C269.039 125.092 269.174 125.113 269.298 125.153C269.423 125.195 269.484 125.246 269.484 125.307V142.086C269.484 142.7 269.546 143.155 269.671 143.451C269.795 143.748 270.023 143.948 270.354 144.05C270.685 144.151 271.203 144.203 271.907 144.203Z"/>
</mask>
<path d="M29.1289 144.203C29.1698 144.203 29.1907 144.264 29.1907 144.386C29.1907 144.51 29.1698 144.571 29.1289 144.571C28.4248 144.571 27.8652 144.561 27.4519 144.541L25.1524 144.51L22.823 144.541C22.4297 144.561 21.8909 144.571 21.2077 144.571C21.146 144.571 21.1151 144.51 21.1151 144.386C21.1151 144.264 21.146 144.203 21.2077 144.203C22.0781 144.203 22.6677 144.1 22.9784 143.896C23.2891 143.692 23.4445 143.262 23.4445 142.608L23.4136 142.086L22.7613 129.541L16.3628 144.356C16.321 144.438 16.2383 144.479 16.1138 144.479C15.9893 144.479 15.9067 144.438 15.8659 144.356L8.00641 129.602L7.75843 140.675C7.73752 141.779 7.9606 142.644 8.42667 143.267C8.89174 143.891 9.55001 144.203 10.3985 144.203C10.4602 144.203 10.4921 144.264 10.4921 144.386C10.4921 144.51 10.4602 144.571 10.3985 144.571C9.83981 144.571 9.40462 144.561 9.0939 144.541L7.38598 144.51L5.42908 144.541C5.09745 144.561 4.6523 144.571 4.09262 144.571C4.03087 144.571 4 144.51 4 144.386C4 144.264 4.03087 144.203 4.09262 144.203C4.9421 144.203 5.61531 143.886 6.11225 143.252C6.60919 142.618 6.86812 141.758 6.88903 140.675L7.16788 127.976L7.13701 127.946C6.72272 127.188 6.2935 126.637 5.84834 126.288C5.40219 125.941 4.89031 125.767 4.31071 125.767C4.24797 125.767 4.2171 125.706 4.2171 125.583C4.2171 125.46 4.24797 125.399 4.31071 125.399L5.77067 125.43C6.06047 125.45 6.43292 125.46 6.88903 125.46L8.53522 125.43C8.72144 125.409 8.95946 125.399 9.24926 125.399C9.51914 125.399 9.72529 125.492 9.87069 125.675C10.0151 125.86 10.284 126.299 10.6783 126.994L17.4493 139.54L23.3518 126.165C23.4753 125.879 23.6048 125.681 23.7392 125.567C23.8747 125.455 24.0549 125.399 24.283 125.399C24.4692 125.399 24.6813 125.409 24.9204 125.43C25.1584 125.45 25.4322 125.46 25.7429 125.46L27.5754 125.43C27.8652 125.409 28.2804 125.399 28.8182 125.399C28.88 125.399 28.9118 125.46 28.9118 125.583C28.9118 125.706 28.88 125.767 28.8182 125.767C27.8452 125.767 27.1412 125.961 26.706 126.35C26.2708 126.739 26.0746 127.342 26.1164 128.16L26.8613 142.086C26.9031 142.72 26.9808 143.181 27.0943 143.467C27.2079 143.753 27.415 143.948 27.7158 144.05C28.0155 144.151 28.4866 144.203 29.1289 144.203ZM52.6425 144.203C52.7053 144.203 52.7361 144.264 52.7361 144.386C52.7361 144.51 52.7053 144.571 52.6425 144.571C51.9175 144.571 51.3379 144.561 50.9027 144.541L48.5106 144.51L45.7162 144.541C45.3428 144.561 44.8359 144.571 44.1935 144.571C44.1318 144.571 44.1009 144.51 44.1009 144.386C44.1009 144.264 44.1318 144.203 44.1935 144.203C44.9594 144.203 45.519 144.151 45.8716 144.05C46.2231 143.948 46.4611 143.753 46.5856 143.467C46.7101 143.181 46.7718 142.72 46.7718 142.086V129.541L34.3473 144.909C34.2856 144.97 34.1292 145 33.8812 145C33.4879 145 33.2907 144.929 33.2907 144.786V127.884C33.2907 127.27 33.2289 126.82 33.1045 126.534C32.98 126.248 32.7529 126.048 32.4213 125.935C32.0897 125.823 31.5728 125.767 30.8677 125.767C30.806 125.767 30.7751 125.706 30.7751 125.583C30.7751 125.46 30.806 125.399 30.8677 125.399L32.6075 125.43C33.6432 125.471 34.4399 125.492 34.9996 125.492C35.8282 125.492 36.7593 125.471 37.795 125.43L39.3167 125.399C39.3795 125.399 39.4103 125.46 39.4103 125.583C39.4103 125.706 39.3795 125.767 39.3167 125.767C38.5509 125.767 37.9912 125.823 37.6397 125.935C37.2881 126.048 37.0491 126.248 36.9256 126.534C36.8011 126.82 36.7394 127.27 36.7394 127.884V140.553L49.1639 125.185C49.2257 125.123 49.381 125.092 49.629 125.092C49.7744 125.092 49.9089 125.113 50.0333 125.153C50.1578 125.195 50.2196 125.246 50.2196 125.307V142.086C50.2196 142.7 50.2823 143.155 50.4058 143.451C50.5303 143.748 50.7583 143.948 51.09 144.05C51.4206 144.151 51.9385 144.203 52.6425 144.203ZM73.6406 144.203C73.7023 144.203 73.7332 144.264 73.7332 144.386C73.7332 144.51 73.7023 144.571 73.6406 144.571C73.0401 144.571 72.574 144.561 72.2424 144.541L70.3791 144.51L67.8316 144.541C67.4383 144.561 66.8895 144.571 66.1854 144.571C66.1227 144.571 66.0918 144.51 66.0918 144.386C66.0918 144.264 66.1227 144.203 66.1854 144.203C66.8686 144.203 67.2102 144.029 67.2102 143.681C67.2102 143.497 67.1176 143.272 66.9304 143.006L62.676 136.504L60.004 140.276C59.1964 141.401 58.7931 142.311 58.7931 143.006C58.7931 143.804 59.3308 144.203 60.4074 144.203C60.4492 144.203 60.4701 144.264 60.4701 144.386C60.4701 144.51 60.4492 144.571 60.4074 144.571C59.7252 144.571 59.2073 144.561 58.8548 144.541L56.5563 144.51L55.0964 144.541C54.8275 144.561 54.3923 144.571 53.7918 144.571C53.73 144.571 53.6982 144.51 53.6982 144.386C53.6982 144.264 53.73 144.203 53.7918 144.203C54.4341 144.203 55.2209 143.865 56.152 143.19C57.0841 142.516 58.0571 141.483 59.0719 140.092L62.2408 135.86L57.2704 128.221C56.7117 127.342 56.1739 126.713 55.6561 126.335C55.1382 125.956 54.5895 125.767 54.0089 125.767C53.9471 125.767 53.9163 125.706 53.9163 125.583C53.9163 125.46 53.9471 125.399 54.0089 125.399L55.3453 125.43C55.9249 125.471 56.3591 125.492 56.6489 125.492C57.3739 125.492 58.2752 125.471 59.3517 125.43L61.1224 125.399C61.1642 125.399 61.1842 125.46 61.1842 125.583C61.1842 125.706 61.1642 125.767 61.1224 125.767C60.4183 125.767 60.0668 125.941 60.0668 126.288C60.0668 126.452 60.1594 126.688 60.3456 126.994L64.4456 133.221L66.9304 129.725C67.738 128.579 68.1423 127.659 68.1423 126.963C68.1423 126.165 67.6046 125.767 66.527 125.767C66.4862 125.767 66.4653 125.706 66.4653 125.583C66.4653 125.46 66.4862 125.399 66.527 125.399L68.0806 125.43C68.9092 125.471 69.674 125.492 70.3791 125.492C70.8133 125.492 71.3003 125.471 71.838 125.43L73.1436 125.399C73.2054 125.399 73.2362 125.46 73.2362 125.583C73.2362 125.706 73.2054 125.767 73.1436 125.767C72.4814 125.767 71.6887 126.109 70.7675 126.795C69.8453 127.479 68.8663 128.518 67.8316 129.909L64.8808 133.896L70.1919 142.025C70.7097 142.781 71.2385 143.334 71.7763 143.681C72.3151 144.029 72.9355 144.203 73.6406 144.203ZM96.0049 144.203C96.1085 144.203 96.1603 144.264 96.1603 144.386C96.1603 144.51 96.1085 144.571 96.0049 144.571C95.5907 144.571 94.9483 144.551 94.0789 144.51C93.1677 144.469 92.5154 144.448 92.122 144.448C91.6042 144.448 90.9728 144.469 90.2269 144.51C89.5228 144.551 88.9641 144.571 88.5498 144.571C88.4672 144.571 88.4253 144.51 88.4253 144.386C88.4253 144.264 88.4672 144.203 88.5498 144.203C89.0886 144.203 89.476 144.146 89.715 144.034C89.953 143.922 90.0715 143.722 90.0715 143.436C90.0715 143.088 89.8654 142.506 89.4501 141.688L86.2205 135.399H80.6914L78.4865 140.215C78.2166 140.808 78.0822 141.36 78.0822 141.872C78.0822 142.608 78.3461 143.181 78.8739 143.589C79.4017 143.999 80.1118 144.203 81.0021 144.203C81.1056 144.203 81.1574 144.264 81.1574 144.386C81.1574 144.51 81.1056 144.571 81.0021 144.571C80.6296 144.571 80.0909 144.551 79.3868 144.51C78.6 144.469 77.9169 144.448 77.3363 144.448C76.7776 144.448 76.1044 144.469 75.3176 144.51C74.6135 144.551 74.0439 144.571 73.6097 144.571C73.526 144.571 73.4852 144.51 73.4852 144.386C73.4852 144.264 73.526 144.203 73.6097 144.203C74.1893 144.203 74.6753 144.085 75.0687 143.85C75.463 143.615 75.8564 143.196 76.2498 142.592C76.6431 141.989 77.1092 141.095 77.647 139.909L84.3881 125.276C84.4289 125.215 84.5225 125.185 84.6669 125.185C84.8322 125.185 84.9258 125.215 84.9467 125.276L92.7116 140.369C93.4366 141.82 94.0371 142.823 94.5141 143.374C94.9901 143.927 95.4871 144.203 96.0049 144.203ZM81.0947 134.54H85.7853L83.3006 129.693L81.0947 134.54ZM108.429 124.08C107.643 124.08 106.897 123.948 106.193 123.681C105.489 123.416 104.919 123.063 104.485 122.623C104.05 122.183 103.833 121.718 103.833 121.227C103.833 120.86 103.952 120.563 104.19 120.337C104.427 120.113 104.765 120 105.199 120C105.675 120 106.007 120.139 106.193 120.414C106.379 120.69 106.555 121.125 106.722 121.718C106.908 122.352 107.109 122.818 107.327 123.114C107.544 123.411 107.901 123.558 108.399 123.558C108.916 123.558 109.294 123.4 109.532 123.083C109.77 122.767 109.993 122.301 110.2 121.688C110.386 121.114 110.578 120.69 110.775 120.414C110.971 120.139 111.288 120 111.722 120C112.157 120 112.488 120.113 112.716 120.337C112.944 120.563 113.057 120.86 113.057 121.227C113.057 121.739 112.84 122.214 112.405 122.653C111.97 123.094 111.401 123.441 110.697 123.697C109.993 123.953 109.237 124.08 108.429 124.08ZM118.742 144.203C118.804 144.203 118.835 144.264 118.835 144.386C118.835 144.51 118.804 144.571 118.742 144.571C118.018 144.571 117.437 144.561 117.003 144.541L114.611 144.51L111.815 144.541C111.442 144.561 110.935 144.571 110.293 144.571C110.231 144.571 110.2 144.51 110.2 144.386C110.2 144.264 110.231 144.203 110.293 144.203C111.06 144.203 111.618 144.151 111.97 144.05C112.322 143.948 112.56 143.753 112.685 143.467C112.809 143.181 112.871 142.72 112.871 142.086V129.541L100.447 144.909C100.385 144.97 100.229 145 99.9805 145C99.5871 145 99.3909 144.929 99.3909 144.786V127.884C99.3909 127.27 99.3282 126.82 99.2037 126.534C99.0802 126.248 98.8521 126.048 98.5205 125.935C98.1889 125.823 97.672 125.767 96.968 125.767C96.9052 125.767 96.8743 125.706 96.8743 125.583C96.8743 125.46 96.9052 125.399 96.968 125.399L98.7067 125.43C99.7425 125.471 100.539 125.492 101.099 125.492C101.927 125.492 102.86 125.471 103.894 125.43L105.416 125.399C105.479 125.399 105.51 125.46 105.51 125.583C105.51 125.706 105.479 125.767 105.416 125.767C104.65 125.767 104.09 125.823 103.739 125.935C103.387 126.048 103.149 126.248 103.025 126.534C102.9 126.82 102.839 127.27 102.839 127.884V140.553L115.263 125.185C115.325 125.123 115.48 125.092 115.729 125.092C115.875 125.092 116.008 125.113 116.133 125.153C116.257 125.195 116.319 125.246 116.319 125.307V142.086C116.319 142.7 116.382 143.155 116.505 143.451C116.63 143.748 116.858 143.948 117.189 144.05C117.521 144.151 118.038 144.203 118.742 144.203ZM142.007 144.203C142.11 144.203 142.163 144.264 142.163 144.386C142.163 144.51 142.11 144.571 142.007 144.571C141.593 144.571 140.951 144.551 140.081 144.51C139.17 144.469 138.518 144.448 138.124 144.448C137.607 144.448 136.975 144.469 136.229 144.51C135.525 144.551 134.967 144.571 134.552 144.571C134.47 144.571 134.428 144.51 134.428 144.386C134.428 144.264 134.47 144.203 134.552 144.203C135.09 144.203 135.479 144.146 135.717 144.034C135.955 143.922 136.074 143.722 136.074 143.436C136.074 143.088 135.867 142.506 135.454 141.688L129.303 129.693L124.488 140.215C124.219 140.808 124.085 141.36 124.085 141.872C124.085 142.608 124.349 143.181 124.876 143.589C125.405 143.999 126.113 144.203 127.005 144.203C127.108 144.203 127.16 144.264 127.16 144.386C127.16 144.51 127.108 144.571 127.005 144.571C126.631 144.571 126.093 144.551 125.389 144.51C124.602 144.469 123.918 144.448 123.339 144.448C122.78 144.448 122.107 144.469 121.32 144.51C120.616 144.551 120.046 144.571 119.611 144.571C119.529 144.571 119.488 144.51 119.488 144.386C119.488 144.264 119.529 144.203 119.611 144.203C120.192 144.203 120.678 144.085 121.072 143.85C121.464 143.615 121.859 143.196 122.252 142.592C122.646 141.989 123.112 141.095 123.649 139.909L130.39 125.276C130.431 125.215 130.525 125.185 130.669 125.185C130.836 125.185 130.928 125.215 130.949 125.276L138.715 140.369C139.439 141.82 140.041 142.823 140.517 143.374C140.993 143.927 141.49 144.203 142.007 144.203ZM152.972 144.939C151.046 144.939 149.332 144.494 147.831 143.604C146.33 142.715 145.17 141.509 144.353 139.985C143.534 138.462 143.125 136.8 143.125 135C143.125 132.893 143.664 131.089 144.74 129.586C145.818 128.083 147.2 126.953 148.887 126.197C150.575 125.44 152.299 125.062 154.058 125.062C156.026 125.062 157.755 125.517 159.246 126.427C160.738 127.337 161.881 128.539 162.679 130.031C163.475 131.523 163.875 133.109 163.875 134.786C163.875 136.646 163.378 138.355 162.384 139.909C161.389 141.462 160.059 142.69 158.393 143.589C156.725 144.49 154.919 144.939 152.972 144.939ZM153.997 144.172C155.156 144.172 156.197 143.839 157.119 143.176C158.04 142.511 158.76 141.539 159.278 140.262C159.796 138.983 160.054 137.454 160.054 135.676C160.054 133.794 159.764 132.112 159.184 130.629C158.605 129.146 157.766 127.986 156.669 127.148C155.571 126.309 154.287 125.89 152.817 125.89C150.932 125.89 149.482 126.59 148.469 127.991C147.453 129.392 146.946 131.35 146.946 133.865C146.946 135.849 147.252 137.623 147.862 139.188C148.474 140.751 149.312 141.974 150.379 142.853C151.445 143.732 152.651 144.172 153.997 144.172ZM176.579 133.804C178.318 134.009 179.7 134.581 180.726 135.522C181.751 136.462 182.263 137.628 182.263 139.018C182.263 140.082 181.952 141.043 181.332 141.902C180.71 142.761 179.851 143.441 178.753 143.942C177.656 144.443 176.434 144.693 175.088 144.693C174.508 144.693 173.846 144.663 173.1 144.602C172.81 144.581 172.452 144.561 172.029 144.541C171.604 144.52 171.133 144.51 170.615 144.51L168.347 144.541C167.934 144.561 167.374 144.571 166.67 144.571C166.609 144.571 166.577 144.51 166.577 144.386C166.577 144.264 166.609 144.203 166.67 144.203C167.271 144.203 167.727 144.146 168.037 144.034C168.347 143.922 168.57 143.718 168.705 143.421C168.839 143.125 168.906 142.68 168.906 142.086V127.884C168.906 127.025 168.762 126.458 168.472 126.181C168.182 125.905 167.591 125.767 166.701 125.767C166.66 125.767 166.639 125.706 166.639 125.583C166.639 125.46 166.66 125.399 166.701 125.399L168.347 125.43C169.3 125.471 170.055 125.492 170.615 125.492C171.196 125.492 171.795 125.46 172.416 125.399C172.624 125.379 172.934 125.358 173.349 125.337C173.763 125.318 174.124 125.307 174.435 125.307C176.32 125.307 177.78 125.644 178.815 126.32C179.851 126.994 180.369 127.976 180.369 129.264C180.369 130.246 180.042 131.136 179.391 131.934C178.737 132.731 177.801 133.354 176.579 133.804ZM173.97 125.982C173.37 125.982 172.955 126.12 172.727 126.396C172.499 126.672 172.386 127.188 172.386 127.946V133.774L173.628 133.804C174.705 133.804 175.533 133.405 176.113 132.607C176.693 131.81 176.983 130.788 176.983 129.541C176.983 128.374 176.724 127.49 176.206 126.887C175.688 126.283 174.943 125.982 173.97 125.982ZM174.56 143.927C177.272 143.927 178.629 142.536 178.629 139.755C178.629 138.181 178.246 136.933 177.479 136.013C176.714 135.092 175.553 134.632 174.001 134.632C173.4 134.632 172.862 134.653 172.386 134.693V142.086C172.386 142.761 172.52 143.237 172.789 143.513C173.059 143.788 173.649 143.927 174.56 143.927ZM196.956 125.062C197.867 125.062 198.819 125.138 199.813 125.292C200.807 125.445 201.584 125.644 202.142 125.89C202.329 125.951 202.448 126.028 202.5 126.12C202.552 126.212 202.598 126.371 202.639 126.595L203.013 130.86C203.013 130.921 202.961 130.962 202.856 130.982C202.754 131.002 202.692 130.972 202.671 130.89C201.967 129.274 201.024 128.027 199.844 127.148C198.664 126.268 197.297 125.829 195.744 125.829C193.694 125.829 192.11 126.575 190.992 128.067C189.873 129.56 189.314 131.565 189.314 134.08C189.314 135.962 189.619 137.679 190.231 139.234C190.841 140.788 191.701 142.02 192.809 142.93C193.916 143.839 195.174 144.295 196.582 144.295C197.908 144.295 199.093 143.86 200.14 142.991C201.184 142.122 202.121 140.799 202.95 139.018C202.971 138.937 203.039 138.906 203.152 138.927C203.267 138.948 203.323 138.988 203.323 139.049L202.856 143.222C202.816 143.467 202.769 143.625 202.718 143.697C202.665 143.769 202.547 143.844 202.36 143.927C200.517 144.602 198.623 144.939 196.676 144.939C194.149 144.939 192.037 144.443 190.339 143.451C188.641 142.46 187.393 141.202 186.597 139.678C185.799 138.155 185.401 136.565 185.401 134.909C185.401 132.966 185.933 131.248 187 129.755C188.067 128.262 189.485 127.107 191.255 126.288C193.026 125.471 194.926 125.062 196.956 125.062ZM225.656 144.203C225.719 144.203 225.75 144.264 225.75 144.386C225.75 144.51 225.719 144.571 225.656 144.571H220.873C220.604 144.571 220.361 144.49 220.143 144.325C219.926 144.162 219.547 143.738 219.009 143.053C218.471 142.367 217.59 141.156 216.368 139.418L215.53 138.251C214.806 137.209 214.267 136.478 213.915 136.058C213.563 135.639 213.196 135.343 212.812 135.169C212.429 134.995 211.927 134.909 211.305 134.909V142.086C211.305 142.7 211.363 143.155 211.477 143.451C211.59 143.748 211.813 143.948 212.145 144.05C212.477 144.151 212.993 144.203 213.697 144.203C213.759 144.203 213.791 144.264 213.791 144.386C213.791 144.51 213.759 144.571 213.697 144.571C212.973 144.571 212.393 144.561 211.959 144.541L209.379 144.51L207.113 144.541C206.698 144.561 206.14 144.571 205.436 144.571C205.373 144.571 205.342 144.51 205.342 144.386C205.342 144.264 205.373 144.203 205.436 144.203C206.14 144.203 206.657 144.151 206.988 144.05C207.32 143.948 207.547 143.748 207.671 143.451C207.796 143.155 207.859 142.7 207.859 142.086V127.884C207.859 127.27 207.796 126.82 207.671 126.534C207.547 126.248 207.325 126.048 207.004 125.935C206.683 125.823 206.171 125.767 205.467 125.767C205.404 125.767 205.373 125.706 205.373 125.583C205.373 125.46 205.404 125.399 205.467 125.399L207.113 125.43C208.065 125.471 208.821 125.492 209.379 125.492C210.084 125.492 210.954 125.471 211.99 125.43L213.697 125.399C213.759 125.399 213.791 125.46 213.791 125.583C213.791 125.706 213.759 125.767 213.697 125.767C213.014 125.767 212.507 125.829 212.176 125.951C211.844 126.074 211.616 126.283 211.492 126.58C211.368 126.876 211.305 127.332 211.305 127.946V134.387C211.865 134.367 212.569 134.357 213.418 134.357L216.679 129.939C217.529 128.774 217.953 127.802 217.953 127.025C217.953 126.637 217.839 126.33 217.611 126.104C217.384 125.879 217.074 125.767 216.679 125.767C216.638 125.767 216.617 125.706 216.617 125.583C216.617 125.46 216.638 125.399 216.679 125.399L218.108 125.43C219.019 125.471 219.827 125.492 220.531 125.492C221.339 125.492 222.177 125.471 223.048 125.43L224.383 125.399C224.445 125.399 224.476 125.46 224.476 125.583C224.476 125.706 224.445 125.767 224.383 125.767C223.472 125.767 222.447 126.095 221.308 126.749C220.169 127.404 219.206 128.221 218.419 129.202L214.194 134.387C215.002 134.428 215.664 134.576 216.182 134.832C216.7 135.088 217.213 135.491 217.72 136.043C218.228 136.595 218.947 137.516 219.879 138.804L220.438 139.571C221.308 140.757 221.986 141.646 222.473 142.239C222.959 142.832 223.461 143.303 223.979 143.651C224.497 143.999 225.055 144.182 225.656 144.203ZM248.145 144.203C248.208 144.203 248.238 144.264 248.238 144.386C248.238 144.51 248.208 144.571 248.145 144.571C247.421 144.571 246.84 144.561 246.406 144.541L244.014 144.51L241.219 144.541C240.845 144.561 240.338 144.571 239.696 144.571C239.634 144.571 239.603 144.51 239.603 144.386C239.603 144.264 239.634 144.203 239.696 144.203C240.463 144.203 241.021 144.151 241.374 144.05C241.725 143.948 241.963 143.753 242.088 143.467C242.212 143.181 242.274 142.72 242.274 142.086V129.541L229.85 144.909C229.788 144.97 229.632 145 229.384 145C228.99 145 228.794 144.929 228.794 144.786V127.884C228.794 127.27 228.731 126.82 228.607 126.534C228.483 126.248 228.255 126.048 227.925 125.935C227.592 125.823 227.075 125.767 226.371 125.767C226.309 125.767 226.277 125.706 226.277 125.583C226.277 125.46 226.309 125.399 226.371 125.399L228.11 125.43C229.146 125.471 229.943 125.492 230.502 125.492C231.33 125.492 232.263 125.471 233.297 125.43L234.819 125.399C234.882 125.399 234.913 125.46 234.913 125.583C234.913 125.706 234.882 125.767 234.819 125.767C234.053 125.767 233.494 125.823 233.142 125.935C232.79 126.048 232.552 126.248 232.428 126.534C232.303 126.82 232.242 127.27 232.242 127.884V140.553L244.666 125.185C244.728 125.123 244.883 125.092 245.132 125.092C245.278 125.092 245.411 125.113 245.536 125.153C245.66 125.195 245.722 125.246 245.722 125.307V142.086C245.722 142.7 245.785 143.155 245.909 143.451C246.033 143.748 246.261 143.948 246.592 144.05C246.924 144.151 247.441 144.203 248.145 144.203ZM261.595 124.08C260.808 124.08 260.062 123.948 259.358 123.681C258.654 123.416 258.085 123.063 257.649 122.623C257.215 122.183 256.998 121.718 256.998 121.227C256.998 120.86 257.117 120.563 257.355 120.337C257.593 120.113 257.929 120 258.364 120C258.841 120 259.172 120.139 259.358 120.414C259.545 120.69 259.721 121.125 259.886 121.718C260.072 122.352 260.275 122.818 260.493 123.114C260.71 123.411 261.067 123.558 261.564 123.558C262.082 123.558 262.46 123.4 262.698 123.083C262.936 122.767 263.159 122.301 263.365 121.688C263.552 121.114 263.743 120.69 263.94 120.414C264.137 120.139 264.452 120 264.887 120C265.323 120 265.653 120.113 265.881 120.337C266.108 120.563 266.223 120.86 266.223 121.227C266.223 121.739 266.006 122.214 265.571 122.653C265.135 123.094 264.567 123.441 263.862 123.697C263.159 123.953 262.403 124.08 261.595 124.08ZM271.907 144.203C271.969 144.203 272 144.264 272 144.386C272 144.51 271.969 144.571 271.907 144.571C271.182 144.571 270.603 144.561 270.168 144.541L267.777 144.51L264.98 144.541C264.608 144.561 264.101 144.571 263.458 144.571C263.397 144.571 263.365 144.51 263.365 144.386C263.365 144.264 263.397 144.203 263.458 144.203C264.225 144.203 264.784 144.151 265.135 144.05C265.488 143.948 265.726 143.753 265.85 143.467C265.975 143.181 266.037 142.72 266.037 142.086V129.541L253.612 144.909C253.549 144.97 253.395 145 253.146 145C252.753 145 252.556 144.929 252.556 144.786V127.884C252.556 127.27 252.494 126.82 252.369 126.534C252.245 126.248 252.018 126.048 251.686 125.935C251.355 125.823 250.837 125.767 250.133 125.767C250.071 125.767 250.04 125.706 250.04 125.583C250.04 125.46 250.071 125.399 250.133 125.399L251.872 125.43C252.908 125.471 253.706 125.492 254.264 125.492C255.093 125.492 256.024 125.471 257.06 125.43L258.582 125.399C258.644 125.399 258.675 125.46 258.675 125.583C258.675 125.706 258.644 125.767 258.582 125.767C257.816 125.767 257.257 125.823 256.905 125.935C256.552 126.048 256.314 126.248 256.19 126.534C256.066 126.82 256.003 127.27 256.003 127.884V140.553L268.429 125.185C268.491 125.123 268.646 125.092 268.895 125.092C269.039 125.092 269.174 125.113 269.298 125.153C269.423 125.195 269.484 125.246 269.484 125.307V142.086C269.484 142.7 269.546 143.155 269.671 143.451C269.795 143.748 270.023 143.948 270.354 144.05C270.685 144.151 271.203 144.203 271.907 144.203Z" fill="#FEFEFE" stroke="white" stroke-width="6" mask="url(#path-1-inside-1_71:2214)"/>
<path d="M270.54 154H5.46046C4.65387 154 4 154.672 4 155.5C4 156.328 4.65387 157 5.46046 157H270.54C271.346 157 272 156.328 272 155.5C272 154.672 271.346 154 270.54 154Z" fill="#CCCCCC"/>
<path d="M11.592 175.312C11.6987 174.213 11.992 173.264 12.472 172.464C12.9627 171.653 13.5867 171.035 14.344 170.608C15.112 170.181 15.9653 169.968 16.904 169.968C18.6107 169.968 19.896 170.48 20.76 171.504C21.624 172.528 22.056 173.952 22.056 175.776C22.056 177.067 21.832 178.197 21.384 179.168C20.936 180.128 20.312 180.869 19.512 181.392C18.712 181.904 17.8 182.16 16.776 182.16C15.0907 182.16 13.8107 181.664 12.936 180.672C12.0613 179.669 11.6027 178.288 11.56 176.528H9.24V180.864L10.584 181.04V182H5.656V181.04L6.904 180.864V171.312L5.688 171.104V170.112H10.536V171.104L9.24 171.312V175.312H11.592ZM16.856 170.96C16.0027 170.96 15.3307 171.392 14.84 172.256C14.36 173.109 14.12 174.395 14.12 176.112C14.12 177.744 14.3547 178.992 14.824 179.856C15.2933 180.72 15.9707 181.152 16.856 181.152C17.6987 181.152 18.344 180.709 18.792 179.824C19.2507 178.928 19.48 177.616 19.48 175.888C19.48 174.267 19.256 173.04 18.808 172.208C18.36 171.376 17.7093 170.96 16.856 170.96ZM28.2634 171.312L27.0634 171.104V170.112H29.4794C29.7034 170.112 30.05 170.101 30.5194 170.08C31.138 170.037 31.698 170.016 32.1994 170.016C33.3087 170.016 34.1834 170.155 34.8234 170.432C35.474 170.699 35.9327 171.088 36.1994 171.6C36.4767 172.101 36.6154 172.741 36.6154 173.52C36.6154 174.864 36.194 175.909 35.3514 176.656C34.5194 177.403 33.362 177.776 31.8794 177.776C31.2927 177.776 30.8714 177.76 30.6154 177.728V180.88L32.7594 181.04V182H26.9994V181.04L28.2634 180.88V171.312ZM30.5994 176.704C30.8447 176.757 31.2607 176.784 31.8474 176.784C32.562 176.784 33.1327 176.539 33.5594 176.048C33.9967 175.547 34.2154 174.72 34.2154 173.568C34.2154 172.672 34.018 172.021 33.6234 171.616C33.2394 171.2 32.6474 170.992 31.8474 170.992C31.5487 170.992 31.2394 171.013 30.9194 171.056C30.77 171.077 30.6634 171.088 30.5994 171.088V176.704ZM46.4304 170.112V171.104L44.9584 171.312V178.768L46.0304 176.976L50.1104 171.696V171.312L48.7664 171.104V170.112H53.6624V171.104L52.4304 171.312V180.88L53.7104 181.04V182H48.7664V181.04L50.1104 180.88V173.328L49.1504 175.056L44.9584 180.384V180.88L46.3824 181.04V182H41.3904V181.04L42.6544 180.88V171.312L41.4224 171.104V170.112H46.4304ZM69.6286 180.864C69.6286 181.184 69.5806 181.952 69.4846 183.168C69.3886 184.395 69.33 185.056 69.3086 185.152H68.0126C68.002 184.875 67.938 184.304 67.8206 183.44C67.7033 182.576 67.6126 182.096 67.5486 182H60.5086C60.434 182.096 60.3006 182.544 60.1086 183.344C59.9273 184.144 59.8046 184.752 59.7406 185.168H58.4126L58.4286 184.448C58.482 182.656 58.53 181.461 58.5726 180.864H59.7246C59.9806 180.512 60.258 179.973 60.5566 179.248C60.8553 178.523 61.1166 177.552 61.3406 176.336C61.5646 175.12 61.6766 173.701 61.6766 172.08V171.312L60.0126 171.104V170.112H69.6606V171.104L68.1246 171.312V180.864H69.6286ZM62.8446 172.176C62.8553 173.637 62.7753 174.965 62.6046 176.16C62.434 177.344 62.2313 178.325 61.9966 179.104C61.762 179.883 61.538 180.469 61.3246 180.864H65.8046L65.8206 171.2H62.8446V172.176ZM79.7585 170.112V171.104L78.2865 171.312V178.768L79.3585 176.976L83.4385 171.696V171.312L82.0945 171.104V170.112H86.9905V171.104L85.7585 171.312V180.88L87.0385 181.04V182H82.0945V181.04L83.4385 180.88V173.328L82.4785 175.056L78.2865 180.384V180.88L79.7105 181.04V182H74.7185V181.04L75.9825 180.88V171.312L74.7505 171.104V170.112H79.7585ZM98.7968 176.944C98.4341 177.157 97.9754 177.323 97.4208 177.44C96.8768 177.557 96.3541 177.616 95.8528 177.616C95.0741 177.616 94.4448 177.509 93.9648 177.296C93.4848 177.072 93.1221 176.699 92.8768 176.176C92.6421 175.643 92.5247 174.917 92.5247 174V171.328L91.5968 171.12V170.112H96.0608V171.12L94.8608 171.312V173.456C94.8608 174.32 94.9141 174.949 95.0208 175.344C95.1274 175.739 95.3088 176 95.5648 176.128C95.8208 176.245 96.2261 176.304 96.7808 176.304C97.1541 176.304 97.5328 176.256 97.9168 176.16C98.3114 176.064 98.6048 175.947 98.7968 175.808V171.312L97.4848 171.104V170.112H102.429V171.104L101.133 171.312V180.88L102.445 181.056V182H97.1008V181.04L98.7968 180.88V176.944ZM108.716 171.312L107.436 171.104V170.112H115.964L116.172 172.8H115.052L114.524 171.216L111.068 171.072V175.376L113.292 175.328L113.548 174.016H114.572V177.888H113.548L113.292 176.512L111.068 176.464V180.976L114.94 180.784L115.868 178.736L117.068 179.072L116.652 182H107.452V181.04L108.716 180.88V171.312ZM127.173 182.176C125.36 182.176 123.973 181.637 123.013 180.56C122.053 179.472 121.573 177.989 121.573 176.112C121.573 174.875 121.824 173.797 122.325 172.88C122.837 171.952 123.536 171.237 124.421 170.736C125.307 170.235 126.309 169.984 127.429 169.984C127.899 169.984 128.352 170.016 128.789 170.08C129.227 170.133 129.744 170.208 130.341 170.304C130.789 170.379 131.035 170.416 131.077 170.416L130.901 173.712H129.429L128.933 171.424C128.816 171.307 128.613 171.211 128.325 171.136C128.037 171.061 127.669 171.024 127.221 171.024C126.315 171.024 125.584 171.445 125.029 172.288C124.485 173.12 124.213 174.331 124.213 175.92C124.213 177.456 124.475 178.709 124.997 179.68C125.52 180.651 126.283 181.136 127.285 181.136C127.765 181.136 128.133 181.093 128.389 181.008C128.656 180.912 128.88 180.779 129.061 180.608L129.765 178.96L131.109 179.088L130.789 181.568C130.565 181.589 130.341 181.632 130.117 181.696C129.904 181.749 129.771 181.781 129.717 181.792C129.291 181.909 128.891 182 128.517 182.064C128.155 182.139 127.707 182.176 127.173 182.176ZM142.206 175.648C142.59 175.744 142.952 175.973 143.294 176.336C143.646 176.688 143.95 177.077 144.206 177.504C144.472 177.92 144.792 178.469 145.166 179.152C145.454 179.696 145.683 180.107 145.854 180.384C146.035 180.661 146.2 180.821 146.35 180.864L146.942 181.04V182H144.414C144.147 182 143.886 181.797 143.63 181.392C143.384 180.987 143.059 180.352 142.654 179.488C142.206 178.517 141.811 177.776 141.47 177.264C141.139 176.752 140.787 176.496 140.414 176.496H139.661V180.864L141.086 181.056V182H136.11V181.04L137.342 180.864V171.312L136.11 171.104V170.112H140.878V171.104L139.661 171.312V175.6H140.83L143.694 171.312L142.494 171.104V170.112H146.718V171.104L145.39 171.312L142.206 175.648ZM156.462 170.112V171.104L154.99 171.312V178.768L156.062 176.976L160.142 171.696V171.312L158.798 171.104V170.112H163.694V171.104L162.462 171.312V180.88L163.742 181.04V182H158.798V181.04L160.142 180.88V173.328L159.182 175.056L154.99 180.384V180.88L156.414 181.04V182H151.422V181.04L152.686 180.88V171.312L151.454 171.104V170.112H156.462ZM170.06 171.312L168.78 171.104V170.112H177.308L177.516 172.8H176.396L175.868 171.216L172.412 171.072V175.376L174.636 175.328L174.892 174.016H175.916V177.888H174.892L174.636 176.512L172.412 176.464V180.976L176.284 180.784L177.212 178.736L178.412 179.072L177.996 182H168.796V181.04L170.06 180.88V171.312ZM192.81 179.488C192.543 180.085 192.314 180.549 192.122 180.88C191.93 181.211 191.642 181.509 191.258 181.776C190.885 182.043 190.415 182.176 189.85 182.176C189.551 182.176 189.231 182.149 188.89 182.096C188.549 182.043 188.287 181.979 188.106 181.904V180.592L189.258 180.608C189.77 180.608 190.133 180.528 190.346 180.368C190.559 180.208 190.725 179.915 190.842 179.488L187.034 171.312L186.17 171.104V170.112H191.05V171.104L189.594 171.312L191.802 176.448L192.25 177.792L192.714 176.432L194.506 171.312L193.274 171.104V170.112H196.826V171.104L195.994 171.312L192.81 179.488ZM206.423 182.176C204.61 182.176 203.223 181.637 202.263 180.56C201.303 179.472 200.823 177.989 200.823 176.112C200.823 174.875 201.074 173.797 201.575 172.88C202.087 171.952 202.786 171.237 203.671 170.736C204.557 170.235 205.559 169.984 206.679 169.984C207.149 169.984 207.602 170.016 208.039 170.08C208.477 170.133 208.994 170.208 209.591 170.304C210.039 170.379 210.285 170.416 210.327 170.416L210.151 173.712H208.679L208.183 171.424C208.066 171.307 207.863 171.211 207.575 171.136C207.287 171.061 206.919 171.024 206.471 171.024C205.565 171.024 204.834 171.445 204.279 172.288C203.735 173.12 203.463 174.331 203.463 175.92C203.463 177.456 203.725 178.709 204.247 179.68C204.77 180.651 205.533 181.136 206.535 181.136C207.015 181.136 207.383 181.093 207.639 181.008C207.906 180.912 208.13 180.779 208.311 180.608L209.015 178.96L210.359 179.088L210.039 181.568C209.815 181.589 209.591 181.632 209.367 181.696C209.154 181.749 209.021 181.781 208.967 181.792C208.541 181.909 208.141 182 207.767 182.064C207.405 182.139 206.957 182.176 206.423 182.176ZM219.504 172.576C219.504 174.432 219.402 176.101 219.2 177.584C219.008 179.056 218.709 180.165 218.304 180.912C217.877 181.701 217.264 182.096 216.464 182.096C215.92 182.096 215.509 182.064 215.232 182L215.088 180.56C215.514 180.603 215.92 180.624 216.304 180.624C216.517 180.624 216.698 180.576 216.848 180.48C217.008 180.384 217.146 180.213 217.264 179.968C217.605 179.371 217.866 178.459 218.048 177.232C218.24 176.005 218.336 174.352 218.336 172.272V171.312L216.416 171.104V170.112H226.32V171.104L224.848 171.312V180.88L226.4 181.04V182H220.88V181.04L222.528 180.864L222.544 171.312H219.504V172.576ZM237.107 179.488C236.84 180.085 236.611 180.549 236.419 180.88C236.227 181.211 235.939 181.509 235.555 181.776C235.182 182.043 234.712 182.176 234.147 182.176C233.848 182.176 233.528 182.149 233.187 182.096C232.846 182.043 232.584 181.979 232.403 181.904V180.592L233.555 180.608C234.067 180.608 234.43 180.528 234.643 180.368C234.856 180.208 235.022 179.915 235.139 179.488L231.331 171.312L230.467 171.104V170.112H235.347V171.104L233.891 171.312L236.099 176.448L236.547 177.792L237.011 176.432L238.803 171.312L237.571 171.104V170.112H241.123V171.104L240.291 171.312L237.107 179.488ZM253.856 170.112L254.048 174.608H252.672L252.128 171.296L249.184 171.136V180.864L251.808 181.056V182H245.088V181.056L246.832 180.864V171.328L245.12 171.088V170.112H253.856ZM263.649 170.112V171.104L262.177 171.312V178.768L263.249 176.976L267.329 171.696V171.312L265.985 171.104V170.112H270.881V171.104L269.649 171.312V180.88L270.929 181.04V182H265.985V181.04L267.329 180.88V173.328L266.369 175.056L262.177 180.384V180.88L263.601 181.04V182H258.609V181.04L259.873 180.88V171.312L258.641 171.104V170.112H263.649Z" fill="url(#paint0_linear_71:2214)"/>
<path fill-rule="evenodd" clip-rule="evenodd" d="M137.746 98.4859L137.086 98.3215C104.269 85.8258 86.6238 47.0233 93.7149 15.1264C94.3745 12.1669 94.8692 11.6736 100.146 10.1939C105.259 8.71412 115.318 6.08344 122.244 4.11043C129.335 2.30184 133.293 0.986504 136.097 0.328835C136.756 0.164417 137.251 0 137.746 0C138.24 0 138.735 0.164417 139.395 0.328835C142.198 0.986504 146.156 2.30184 153.247 4.11043C160.173 6.08344 170.233 8.71412 175.345 10.1939C180.622 11.6736 181.117 12.1669 181.776 15.1264C188.867 47.0233 171.222 85.8258 138.405 98.3215L137.746 98.4859ZM107.237 21.3742C106.743 24.827 106.413 28.4442 106.413 32.0614C106.413 35.5141 106.743 38.8025 107.237 42.0908C106.248 43.735 105.094 45.8724 104.104 47.681C102.95 42.5841 102.455 37.3227 102.455 31.8969C102.455 27.1288 102.785 22.5252 103.609 18.0859C107.073 17.4282 115.318 14.962 120.595 13.9755C121.255 13.8111 122.079 13.6466 123.069 13.3178C126.202 12.6601 131.479 11.5092 134.283 10.8515C136.097 10.3583 136.756 10.1939 137.911 10.1939C138.9 10.1939 139.725 10.3583 141.374 10.8515C144.177 11.5092 149.619 12.6601 152.752 13.3178C153.742 13.6466 154.566 13.8111 155.061 13.9755C160.338 14.962 168.749 17.4282 172.047 18.0859C172.871 22.5252 173.366 27.1288 173.366 31.8969C173.366 37.816 172.706 43.5706 171.387 48.9963C170.398 47.3522 169.408 45.3792 168.254 43.4062C168.913 39.789 169.243 36.0074 169.243 32.0614C169.243 28.4442 168.913 24.827 168.419 21.3742L168.089 21.2098C165.615 20.5522 162.152 19.5657 159.514 19.0724C158.029 18.5792 156.875 18.4147 156.051 18.0859C155.391 17.9215 154.731 17.9215 154.072 17.5926C150.114 16.7706 144.177 15.2908 141.044 14.4687C139.56 14.1399 138.735 13.9755 137.911 13.9755C137.086 13.9755 136.261 14.1399 134.612 14.4687C131.644 15.2908 125.707 16.7706 121.585 17.5926C120.925 17.9215 120.265 17.9215 119.606 18.0859C118.781 18.4147 117.627 18.5792 116.143 19.0724C113.669 19.5657 110.041 20.5522 107.732 21.2098L107.237 21.3742ZM115.978 31.5681C116.472 31.7325 116.967 32.0614 117.462 32.2258C118.121 32.3902 118.946 32.2258 120.265 31.8969C121.749 31.4037 124.058 30.5816 126.037 30.0884C128.181 29.5951 129.83 29.4307 131.479 29.4307C133.128 29.5951 134.612 29.9239 135.437 30.2528C135.602 30.2528 135.767 30.4172 135.932 30.4172V28.9374C135.437 28.2798 135.272 27.4577 135.272 26.4712C135.272 25.6491 135.602 24.4982 136.097 23.3473C136.426 22.3607 136.921 21.2098 137.251 20.881C137.416 20.7166 137.416 20.5522 137.581 20.5522C137.581 20.5522 137.746 20.7166 137.746 20.881C138.075 21.2098 138.57 22.3607 139.065 23.3473C139.395 24.4982 139.725 25.6491 139.889 26.4712C139.889 27.4577 139.725 28.2798 139.23 28.9374H139.395V30.2528C139.395 30.2528 139.395 30.2528 139.56 30.2528C140.219 29.9239 141.703 29.5951 143.353 29.4307C145.002 29.4307 146.816 29.5951 148.795 30.0884C150.773 30.5816 153.082 31.4037 154.566 31.8969C156.051 32.2258 156.71 32.3902 157.37 32.2258C158.029 32.0614 158.524 31.7325 159.019 31.5681C158.854 31.2393 158.854 31.0749 158.854 30.746C158.854 29.4307 159.843 28.4442 160.998 28.4442C162.152 28.4442 163.142 29.4307 163.142 30.746C163.142 31.5681 162.647 32.3902 161.822 32.719L170.563 52.7779H172.047C169.903 56.3951 165.78 58.697 161.163 58.697C156.545 58.697 152.423 56.3951 150.279 52.7779H151.763L160.338 32.8835C160.338 32.719 160.173 32.719 160.173 32.719L160.008 32.8835C159.349 33.3767 158.524 34.1988 157.37 34.3632C156.215 34.5276 155.061 34.0344 153.082 33.5411C150.938 33.0479 148.135 32.3902 146.156 32.2258C144.012 32.0614 142.528 32.5546 141.539 32.8835C140.549 33.3767 140.054 33.87 139.56 34.3632L139.395 34.5276V37.4871H144.507V38.8025H131.149V37.4871H135.932V34.8565C135.767 34.8565 135.602 34.5276 135.272 34.3632C134.942 33.87 134.283 33.3767 133.293 32.8835C132.304 32.5546 130.984 32.0614 128.841 32.2258C126.697 32.3902 123.893 33.0479 121.914 33.5411C119.935 34.0344 118.616 34.5276 117.462 34.3632C116.472 34.1988 115.483 33.3767 114.823 32.8835C114.823 32.8835 114.823 32.719 114.658 32.719C114.658 32.719 114.658 32.719 114.493 32.8835L123.069 52.7779H124.553C122.409 56.3951 118.451 58.697 113.669 58.697C109.051 58.697 105.094 56.3951 102.95 52.7779H104.434L113.009 32.719C112.185 32.3902 111.69 31.5681 111.69 30.746C111.69 29.4307 112.679 28.4442 113.834 28.4442C115.153 28.4442 116.143 29.4307 116.143 30.746C116.143 31.0749 115.978 31.2393 115.978 31.5681ZM161.163 32.8835L169.408 52.7779H152.917L161.163 32.8835ZM139.395 68.3976V69.2197H144.507V70.535H131.149V69.2197H135.932V68.3976H131.149V67.0822H135.932H139.395H144.507V68.3976H139.395ZM144.012 64.4516H139.23V63.1362C139.395 63.1362 139.56 62.9718 139.889 62.643C140.054 62.1497 140.219 61.6565 140.219 61.3276V48.8319H139.889L138.24 64.4516H136.591L134.777 48.8319H134.612L134.447 61.1632C134.447 62.3141 134.777 62.9718 135.437 63.1362V64.4516H131.479V63.1362C131.974 62.8074 132.304 62.1497 132.304 61.1632V45.0503C132.304 43.4062 131.974 42.5841 131.314 42.4197V41.1043H136.591L137.746 52.9424L137.911 53.1068L139.395 41.1043H143.847V42.4197C143.188 42.5841 143.023 43.4062 143.023 44.8859V61.3276C143.023 62.1497 143.353 62.643 144.012 63.1362C144.012 63.3006 144.012 63.7939 144.012 64.4516ZM113.834 32.8835H113.669L105.588 52.7779H122.079L113.834 32.8835ZM168.089 59.1902C161.987 74.1522 151.103 85.1681 138.075 88.6209C137.911 88.6209 137.911 88.6209 137.911 88.6209C137.746 88.6209 137.746 88.6209 137.746 88.6209C124.883 85.3326 113.999 74.481 107.732 59.6835C109.381 60.3411 111.03 60.8344 113.174 60.9988C118.781 72.0148 127.521 80.4 137.911 84.0172C148.3 80.4 157.04 72.0148 162.647 60.8344C164.791 60.5056 166.44 60.0123 168.089 59.1902ZM137.746 96.8418L137.086 96.5129C105.423 84.5105 88.4378 47.1878 95.1991 16.2773C95.8587 13.4822 96.3534 12.989 101.466 11.5092C106.413 10.0295 116.143 7.56319 122.739 5.7546C129.5 3.94601 133.458 2.79509 136.097 1.97301C136.756 1.80859 137.251 1.64417 137.746 1.80859C138.24 1.64417 138.735 1.80859 139.395 1.97301C142.033 2.79509 145.991 3.94601 152.587 5.7546C159.349 7.56319 169.078 10.0295 174.026 11.5092C179.138 12.989 179.633 13.4822 180.292 16.2773C187.053 47.1878 170.068 84.5105 138.405 96.5129L137.746 96.8418ZM137.746 94.3755L137.086 94.2111C107.073 82.7019 90.9114 47.1878 97.3429 17.9215C98.0025 15.2908 98.3323 14.7976 103.28 13.4822C108.062 12.0025 117.132 9.70062 123.563 7.89203C129.995 6.08344 133.623 5.09694 136.261 4.27485C136.756 4.27485 137.251 4.11043 137.746 4.11043C138.24 4.11043 138.735 4.27485 139.23 4.27485C141.868 5.09694 145.496 6.08344 151.928 7.89203C158.359 9.70062 167.429 12.0025 172.212 13.4822C176.994 14.7976 177.489 15.2908 178.148 17.9215C184.58 47.1878 168.419 82.7019 138.405 94.2111L137.746 94.3755Z" fill="url(#paint1_linear_71:2214)"/>
<path fill-rule="evenodd" clip-rule="evenodd" d="M94.5393 79.5773C108.886 75.9601 123.234 73.165 137.746 73.165C152.093 73.165 166.44 75.9601 180.952 79.5773C180.952 82.3724 180.952 85.3319 180.952 88.2914C180.952 91.0865 180.952 94.046 180.952 96.8411C166.44 94.046 152.093 91.5798 137.746 91.7442C123.234 91.7442 108.886 94.046 94.5393 96.8411C94.5393 94.046 94.5393 91.0865 94.5393 88.2914C94.5393 85.3319 94.5393 82.3724 94.5393 79.5773Z" fill="#E9E9E9" stroke="white" stroke-width="0.499835"/>
<path d="M104.104 90.2635C103.939 90.2635 103.939 90.2635 103.774 90.2635C103.774 90.099 103.774 90.099 103.774 90.099C103.774 89.9346 103.774 89.9346 103.774 89.9346C103.939 89.7702 103.939 89.7702 103.939 89.7702C104.269 89.6058 104.434 89.6058 104.599 89.4414C104.764 89.277 104.764 88.9481 104.929 88.7837C105.094 88.2905 105.259 87.9616 105.424 87.4684C105.588 86.9751 105.753 86.6463 105.918 86.153C106.083 85.6598 106.248 85.3309 106.413 84.8377C106.413 84.3444 106.578 83.8512 106.743 83.3579C106.908 83.0291 106.908 82.8647 107.073 82.7003C107.073 82.5359 107.073 82.5359 107.073 82.3714C107.238 82.3714 107.238 82.3714 107.402 82.207C107.567 82.207 107.732 82.207 107.732 82.0426C107.897 82.0426 108.062 81.8782 108.062 81.7138C108.227 81.7138 108.227 81.5494 108.392 81.5494C108.392 81.5494 108.392 81.5494 108.557 81.5494V81.7138C108.557 81.7138 108.557 81.7138 108.557 81.8782C108.722 82.3714 108.887 82.8647 109.052 83.3579C109.216 83.8512 109.381 84.3444 109.546 84.8377C109.711 85.3309 109.876 85.8242 110.041 86.3175C110.206 86.8107 110.371 87.1395 110.536 87.6328C110.536 87.7972 110.536 87.9616 110.701 87.9616C110.866 88.126 110.866 88.126 111.03 88.2905C111.195 88.2905 111.195 88.2905 111.36 88.2905C111.525 88.2905 111.525 88.2905 111.525 88.2905C111.69 88.4549 111.69 88.4549 111.69 88.4549C111.69 88.6193 111.69 88.6193 111.525 88.6193C111.525 88.6193 111.525 88.6193 111.36 88.7837C111.36 88.7837 111.195 88.7837 110.866 88.7837C110.701 88.7837 110.536 88.7837 110.206 88.9481C110.041 88.9481 109.876 88.9481 109.711 88.9481C109.546 88.9481 109.381 88.9481 109.216 89.1125C109.052 89.1125 108.722 89.1125 108.557 89.277C108.392 89.277 108.227 89.277 108.062 89.277H107.897C107.897 89.1125 107.897 89.1125 107.897 88.9481H108.062C108.392 88.7837 108.557 88.6193 108.722 88.6193C108.722 88.4549 108.887 88.2905 108.722 88.126C108.722 87.9616 108.722 87.7972 108.722 87.6328C108.557 87.4684 108.557 87.304 108.557 87.1395C108.557 86.9751 108.392 86.9751 108.392 86.8107C108.392 86.6463 108.392 86.6463 108.392 86.6463H108.227C107.567 86.8107 106.908 86.8107 106.413 86.9751C106.248 86.9751 106.248 86.9751 106.248 87.1395C106.248 87.1395 106.083 87.1395 106.083 87.304C106.083 87.304 106.083 87.4684 106.083 87.6328C106.083 87.6328 105.918 87.7972 105.918 87.9616C105.918 87.9616 105.918 88.126 105.918 88.2905C105.753 88.2905 105.753 88.4549 105.753 88.6193C105.753 88.7837 105.753 88.9481 105.918 89.1125C105.918 89.1125 106.083 89.277 106.413 89.277C106.578 89.277 106.743 89.277 106.743 89.4414C106.743 89.4414 106.743 89.6058 106.578 89.6058C106.578 89.6058 106.578 89.6058 106.413 89.6058C106.248 89.7702 106.083 89.7702 105.918 89.7702C105.753 89.7702 105.424 89.7702 105.259 89.9346C105.094 89.9346 104.929 89.9346 104.599 90.099C104.434 90.099 104.269 90.099 104.104 90.2635ZM106.578 86.3175C107.073 86.153 107.567 86.153 108.062 85.9886C108.227 85.9886 108.227 85.9886 108.227 85.9886C108.227 85.8242 108.227 85.8242 108.227 85.8242C107.897 85.0021 107.732 84.18 107.402 83.3579C107.402 83.3579 107.402 83.3579 107.238 83.3579C107.073 84.3444 106.743 85.3309 106.413 86.153V86.3175C106.413 86.3175 106.413 86.3175 106.578 86.3175ZM114.164 90.5923C113.999 90.5923 113.999 90.5923 113.999 90.4279C113.834 90.4279 113.834 90.2635 113.834 90.099C113.834 89.7702 113.834 89.4414 113.834 89.277C113.669 88.9481 113.669 88.6193 113.669 88.4549C113.669 88.2905 113.504 87.9616 113.504 87.9616C113.504 87.9616 113.504 87.7972 113.669 87.7972C114.329 87.6328 114.658 87.304 114.988 86.9751C115.318 86.4819 115.648 85.8242 115.813 84.8377C115.813 84.5089 115.978 84.0156 115.978 83.3579C115.978 82.8647 115.978 82.207 115.978 81.5494C115.978 81.3849 115.978 81.2205 115.813 81.2205C115.648 81.0561 115.318 81.0561 114.988 81.0561C114.823 81.0561 114.823 80.8917 114.823 80.7273C114.988 80.5629 114.988 80.5629 114.988 80.5629C115.153 80.5629 115.318 80.5629 115.483 80.5629C115.648 80.5629 115.978 80.3984 116.143 80.3984C116.308 80.3984 116.472 80.3984 116.637 80.3984C116.802 80.3984 116.802 80.3984 116.967 80.3984C117.132 80.3984 117.132 80.234 117.132 80.234C117.297 80.234 117.297 80.234 117.462 80.234C117.627 80.234 117.792 80.234 118.122 80.234C118.286 80.234 118.616 80.0696 119.111 80.0696C119.276 80.0696 119.441 80.0696 119.606 79.9052C119.771 79.9052 119.936 79.9052 120.1 79.9052C120.43 79.9052 120.595 79.7408 120.76 79.7408C120.76 79.7408 120.76 79.7408 120.925 79.7408C120.925 79.9052 120.925 79.9052 120.925 79.9052C120.925 80.0696 120.925 80.0696 120.76 80.0696C120.76 80.0696 120.76 80.234 120.595 80.234C120.43 80.3984 120.265 80.3984 120.1 80.5629C119.936 80.7273 119.936 80.8917 119.936 81.0561C119.936 81.8782 119.936 82.7003 119.936 83.6868C119.936 84.5089 119.936 85.3309 119.936 86.153C119.936 86.3175 119.936 86.3175 120.1 86.4819C120.1 86.4819 120.1 86.6463 120.265 86.6463C120.265 86.6463 120.43 86.6463 120.595 86.8107H120.76C120.925 86.8107 120.925 86.8107 120.925 86.8107C120.925 86.8107 120.925 86.8107 120.925 86.9751C120.925 86.9751 120.925 87.1395 120.925 87.4684C120.925 87.6328 120.76 87.9616 120.76 88.2905C120.76 88.6193 120.76 88.9481 120.76 89.1125C120.76 89.277 120.595 89.4414 120.595 89.6058L120.43 89.7702C120.265 89.7702 120.265 89.7702 120.265 89.6058C120.1 89.4414 120.1 89.4414 120.1 89.277C120.1 88.7837 120.1 88.4549 119.936 88.2905C119.936 87.9616 119.936 87.7972 119.771 87.6328C119.606 87.4684 119.441 87.4684 119.111 87.4684C117.957 87.6328 116.637 87.7972 115.483 87.9616C115.153 88.126 114.988 88.126 114.823 88.2905C114.658 88.4549 114.658 88.7837 114.494 88.9481C114.494 89.277 114.494 89.6058 114.494 90.099C114.494 90.099 114.329 90.2635 114.329 90.4279C114.329 90.4279 114.329 90.5923 114.164 90.5923ZM115.483 87.4684C116.308 87.4684 116.967 87.304 117.792 87.1395C117.957 87.1395 118.122 87.1395 118.122 86.9751C118.286 86.9751 118.286 86.8107 118.286 86.6463C118.286 85.8242 118.286 84.8377 118.286 84.0156C118.286 83.1935 118.286 82.207 118.286 81.3849C118.286 81.2205 118.286 81.0561 118.122 80.8917C118.122 80.7273 117.957 80.7273 117.627 80.7273C117.462 80.7273 117.297 80.7273 117.132 80.7273C116.967 80.8917 116.802 80.8917 116.637 81.0561C116.637 81.2205 116.472 81.3849 116.472 81.5494C116.472 82.207 116.472 82.8647 116.472 83.5224C116.472 84.0156 116.308 84.6733 116.308 85.1665C116.143 85.6598 115.978 85.9886 115.813 86.3175C115.813 86.8107 115.648 87.1395 115.483 87.304C115.318 87.4684 115.318 87.4684 115.318 87.4684H115.483ZM124.883 86.9751C124.718 86.9751 124.718 86.9751 124.718 86.9751V86.8107C124.718 86.6463 124.718 86.6463 124.883 86.4819C125.048 86.4819 125.378 86.3175 125.378 86.3175C125.542 86.153 125.542 85.9886 125.542 85.8242C125.542 84.8377 125.542 84.0156 125.542 83.1935C125.542 82.207 125.542 81.3849 125.542 80.3984C125.542 80.234 125.542 80.0696 125.378 79.9052C125.378 79.9052 125.213 79.7408 124.883 79.7408H124.718C124.718 79.5763 124.718 79.5763 124.718 79.5763C124.718 79.4119 124.718 79.4119 124.718 79.4119H124.883C125.048 79.2475 125.378 79.2475 125.378 79.2475C125.542 79.2475 125.707 79.2475 125.872 79.2475C126.037 79.2475 126.202 79.2475 126.367 79.2475C126.532 79.2475 126.697 79.2475 126.862 79.2475C127.027 79.2475 127.027 79.2475 127.192 79.0831C127.356 79.0831 127.686 79.0831 127.851 79.0831C128.676 79.0831 129.335 79.0831 129.83 79.4119C130.325 79.5763 130.49 80.0696 130.49 80.5629C130.49 80.8917 130.49 81.0561 130.325 81.3849C130.325 81.5494 130.16 81.7138 129.995 81.8782C129.83 82.0426 129.665 82.0426 129.665 82.207C129.5 82.207 129.335 82.3714 129.17 82.3714C129.17 82.5359 129.17 82.5359 129.17 82.5359C129.335 82.5359 129.5 82.5359 129.83 82.7003C129.995 82.7003 130.16 82.7003 130.325 82.8647C130.49 83.0291 130.655 83.1935 130.82 83.3579C130.82 83.6868 130.984 83.8512 130.984 84.3444C130.984 84.6733 130.82 85.0021 130.655 85.3309C130.655 85.4954 130.49 85.8242 130.325 85.8242C130.16 85.9886 129.995 86.153 129.83 86.3175C129.5 86.3175 129.335 86.4819 129.006 86.6463C128.676 86.6463 128.346 86.6463 127.851 86.8107C127.686 86.8107 127.356 86.8107 127.192 86.8107C126.862 86.8107 126.697 86.8107 126.367 86.8107C126.202 86.8107 126.037 86.8107 125.872 86.8107C125.707 86.8107 125.542 86.8107 125.378 86.9751C125.213 86.9751 125.048 86.9751 124.883 86.9751ZM127.851 86.153C128.181 86.153 128.346 85.9886 128.511 85.8242C128.676 85.6598 128.841 85.4954 129.006 85.3309C129.006 85.0021 129.17 84.6733 129.17 84.5089C129.17 84.18 129.17 84.0156 129.006 83.8512C129.006 83.6868 128.841 83.5224 128.841 83.3579C128.676 83.1935 128.676 83.1935 128.511 83.1935C128.511 83.0291 128.346 83.0291 128.346 83.0291C128.181 83.0291 128.016 82.8647 127.686 83.0291C127.686 83.0291 127.521 83.0291 127.356 83.0291C127.356 83.1935 127.192 83.1935 127.192 83.3579C127.192 84.0156 127.192 84.6733 127.192 85.3309C127.192 85.6598 127.356 85.8242 127.356 85.9886C127.521 85.9886 127.686 86.153 127.851 86.153ZM127.686 82.3714C127.851 82.3714 128.016 82.3714 128.181 82.3714C128.346 82.207 128.511 82.207 128.511 82.0426C128.676 82.0426 128.676 81.8782 128.841 81.7138C128.841 81.5494 129.006 81.2205 129.006 81.0561C129.006 80.7273 128.841 80.3984 128.841 80.234C128.676 79.9052 128.676 79.7408 128.511 79.7408C128.346 79.5763 128.016 79.5763 127.851 79.5763C127.521 79.5763 127.521 79.7408 127.356 79.7408C127.356 79.9052 127.192 79.9052 127.192 80.0696C127.192 80.7273 127.192 81.3849 127.192 82.0426C127.192 82.207 127.356 82.3714 127.356 82.3714C127.521 82.3714 127.521 82.3714 127.686 82.3714ZM138.405 86.4819C137.911 86.4819 137.416 86.4819 136.921 86.3175C136.591 86.153 136.097 85.8242 135.767 85.4954C135.437 85.1665 135.107 84.6733 134.942 84.3444C134.777 83.8512 134.612 83.3579 134.612 82.7003C134.612 82.207 134.777 81.7138 134.942 81.2205C135.107 80.7273 135.272 80.234 135.602 79.9052C135.932 79.5763 136.426 79.2475 136.756 78.9187C137.251 78.7543 137.911 78.5898 138.405 78.5898C139.065 78.5898 139.395 78.7543 139.89 78.9187C140.384 79.0831 140.714 79.4119 141.044 79.7408C141.539 80.0696 141.704 80.3984 141.868 80.8917C142.198 81.3849 142.198 81.8782 142.198 82.5359C142.198 83.0291 142.198 83.5224 142.033 84.0156C141.868 84.5089 141.539 85.0021 141.209 85.3309C140.879 85.6598 140.549 85.9886 140.054 86.153C139.56 86.4819 139.065 86.4819 138.405 86.4819ZM138.57 85.9886C139.065 85.9886 139.395 85.8242 139.56 85.6598C139.89 85.3309 140.054 85.0021 140.219 84.6733C140.384 84.18 140.384 83.6868 140.384 83.0291C140.384 82.5359 140.384 82.207 140.384 81.7138C140.219 81.2205 140.054 80.7273 139.89 80.3984C139.725 80.0696 139.56 79.7408 139.23 79.5763C138.9 79.2475 138.57 79.0831 138.24 79.2475C137.911 79.2475 137.581 79.2475 137.251 79.5763C136.921 79.7408 136.756 80.0696 136.591 80.5629C136.426 81.0561 136.426 81.5494 136.426 82.0426C136.426 82.5359 136.426 83.0291 136.591 83.5224C136.591 84.0156 136.756 84.3444 136.921 84.8377C137.086 85.1665 137.416 85.4954 137.581 85.6598C137.911 85.8242 138.24 85.9886 138.57 85.9886ZM151.928 87.1395C151.598 87.1395 151.268 87.1395 150.938 86.8107C150.774 86.6463 150.444 86.4819 150.279 85.9886C149.949 85.1665 149.619 84.5089 149.289 83.6868C149.124 83.5224 149.124 83.3579 148.96 83.3579C148.96 83.1935 148.795 83.1935 148.795 83.0291C148.63 83.0291 148.63 83.0291 148.63 83.0291C148.63 83.0291 148.63 83.0291 148.465 83.0291C148.465 83.1935 148.465 83.1935 148.465 83.1935C148.465 84.0156 148.465 84.8377 148.465 85.4954C148.465 85.6598 148.465 85.8242 148.465 85.9886C148.63 85.9886 148.63 86.153 148.63 86.153C148.795 86.3175 148.96 86.3175 149.124 86.4819H149.289L149.454 86.6463L149.289 86.8107H149.124C148.795 86.8107 148.63 86.8107 148.465 86.8107C148.3 86.6463 148.135 86.6463 147.97 86.6463C147.97 86.6463 147.805 86.6463 147.64 86.6463C147.475 86.6463 147.31 86.6463 147.146 86.6463C146.981 86.6463 146.981 86.6463 146.816 86.6463C146.651 86.6463 146.321 86.6463 146.156 86.6463C145.991 86.6463 145.991 86.6463 145.991 86.6463C145.826 86.4819 145.826 86.4819 145.826 86.4819C145.826 86.3175 145.991 86.3175 146.156 86.153C146.321 86.153 146.651 86.153 146.651 85.9886C146.816 85.8242 146.816 85.6598 146.816 85.4954C146.816 84.6733 146.816 83.6868 146.816 82.8647C146.816 81.8782 146.816 81.0561 146.816 80.234C146.816 79.9052 146.816 79.7408 146.651 79.7408C146.486 79.5763 146.321 79.4119 145.991 79.4119C145.991 79.4119 145.826 79.2475 145.826 79.0831C145.826 79.0831 145.826 79.0831 145.991 78.9187C146.156 78.9187 146.321 78.9187 146.651 78.9187C146.816 79.0831 146.981 79.0831 147.146 79.0831C147.31 79.0831 147.475 79.0831 147.64 79.0831C147.805 79.0831 147.97 79.0831 148.135 79.0831C148.3 79.0831 148.465 79.0831 148.63 79.0831C148.795 79.0831 148.96 79.0831 149.124 79.2475C149.289 79.2475 149.289 79.2475 149.289 79.2475C149.289 79.2475 149.289 79.2475 149.289 79.4119C149.289 79.4119 149.289 79.4119 149.289 79.5763C149.289 79.5763 149.289 79.5763 149.124 79.5763C148.795 79.5763 148.63 79.7408 148.63 79.9052C148.465 79.9052 148.465 80.0696 148.465 80.3984C148.465 81.0561 148.465 81.7138 148.465 82.3714V82.5359C148.465 82.5359 148.465 82.5359 148.63 82.5359H148.795C149.124 82.7003 149.289 82.5359 149.454 82.3714C149.619 82.0426 149.784 81.8782 149.949 81.5494C150.114 81.2205 150.279 80.8917 150.279 80.5629C150.444 80.3984 150.609 80.0696 150.609 79.9052C150.774 79.7408 150.938 79.5763 151.103 79.4119C151.268 79.2475 151.598 79.2475 151.928 79.2475C152.093 79.2475 152.423 79.4119 152.588 79.5763C152.588 79.7408 152.752 79.9052 152.752 80.234C152.752 80.3984 152.752 80.5629 152.588 80.7273C152.588 80.8917 152.423 80.8917 152.093 80.8917C152.093 80.8917 151.928 80.8917 151.763 80.7273C151.598 80.5629 151.433 80.5629 151.433 80.5629C151.268 80.5629 151.103 80.5629 150.938 80.7273C150.938 80.7273 150.774 80.8917 150.774 81.0561C150.609 81.3849 150.444 81.7138 150.444 81.8782C150.279 82.0426 150.279 82.207 150.114 82.3714C150.114 82.3714 149.949 82.5359 149.784 82.5359V82.7003C149.784 82.7003 149.784 82.7003 149.949 82.7003C150.114 82.8647 150.444 82.8647 150.609 83.0291C150.774 83.1935 150.938 83.5224 151.103 83.8512C151.268 84.5089 151.598 85.0021 151.928 85.6598C152.093 85.8242 152.093 85.9886 152.258 86.153C152.258 86.3175 152.423 86.3175 152.588 86.4819C152.588 86.4819 152.752 86.4819 152.917 86.6463C152.917 86.6463 153.082 86.6463 153.247 86.6463C153.247 86.6463 153.247 86.6463 153.412 86.6463C153.412 86.8107 153.412 86.8107 153.412 86.8107V86.9751C153.247 86.9751 153.247 86.9751 153.247 86.9751C153.247 87.1395 153.082 87.1395 152.752 87.1395C152.588 87.304 152.258 87.304 151.928 87.1395ZM156.051 87.4684H155.886L155.721 87.304C155.721 87.1395 155.886 87.1395 155.886 87.1395C155.886 87.1395 155.886 87.1395 156.051 87.1395C156.216 86.9751 156.38 86.9751 156.545 86.8107C156.71 86.8107 156.875 86.6463 156.875 86.4819C157.04 85.9886 157.205 85.6598 157.37 85.1665C157.535 84.8377 157.7 84.3444 157.865 84.0156C158.03 83.6868 158.194 83.1935 158.359 82.8647C158.524 82.3714 158.689 82.0426 158.854 81.5494C158.854 81.2205 159.019 81.0561 159.019 80.8917C159.019 80.7273 159.019 80.7273 159.019 80.7273C159.184 80.7273 159.349 80.7273 159.514 80.5629C159.514 80.5629 159.679 80.5629 159.844 80.5629C160.008 80.5629 160.008 80.3984 160.173 80.3984L160.338 80.234C160.338 80.234 160.338 80.234 160.503 80.234C160.503 80.3984 160.503 80.3984 160.668 80.3984C160.668 80.5629 160.668 80.5629 160.668 80.5629C160.833 81.2205 160.998 81.7138 161.163 82.207C161.328 82.8647 161.493 83.3579 161.658 84.0156C161.822 84.5089 161.987 85.0021 161.987 85.6598C162.152 86.153 162.317 86.6463 162.482 87.1395C162.647 87.304 162.647 87.4684 162.812 87.6328C162.812 87.7972 162.977 87.7972 162.977 87.9616C163.142 87.9616 163.307 88.126 163.472 88.126L163.636 88.2905C163.636 88.2905 163.636 88.2905 163.636 88.4549C163.636 88.4549 163.636 88.4549 163.636 88.6193H163.472C163.307 88.6193 163.142 88.4549 162.977 88.4549C162.647 88.4549 162.482 88.4549 162.317 88.2905C162.152 88.2905 161.822 88.2905 161.658 88.2905C161.658 88.126 161.493 88.126 161.163 88.126C160.998 88.126 160.833 88.126 160.668 88.126C160.338 88.126 160.173 87.9616 160.173 87.9616C160.008 87.9616 160.008 87.9616 160.008 87.9616C159.844 87.9616 159.844 87.7972 159.844 87.7972C159.844 87.7972 159.844 87.6328 160.008 87.6328C160.008 87.6328 160.008 87.6328 160.173 87.6328C160.338 87.6328 160.503 87.4684 160.668 87.4684C160.833 87.304 160.833 87.304 160.833 86.9751C160.833 86.8107 160.833 86.6463 160.668 86.4819C160.668 86.3175 160.668 86.153 160.668 85.9886C160.503 85.8242 160.503 85.6598 160.503 85.4954C160.503 85.4954 160.503 85.4954 160.338 85.3309C159.679 85.1665 159.019 85.1665 158.359 85.0021C158.359 85.0021 158.194 85.0021 158.194 85.1665C158.194 85.3309 158.194 85.4954 158.03 85.4954C158.03 85.6598 158.03 85.8242 158.03 85.8242C158.03 85.9886 157.865 85.9886 157.865 86.153C157.865 86.3175 157.865 86.3175 157.865 86.4819C157.7 86.6463 157.7 86.8107 157.865 86.9751C158.03 87.1395 158.194 87.304 158.524 87.304C158.689 87.4684 158.689 87.4684 158.689 87.6328C158.689 87.7972 158.689 87.7972 158.689 87.7972H158.524C158.194 87.7972 158.03 87.7972 157.865 87.6328C157.7 87.6328 157.535 87.6328 157.37 87.6328C157.04 87.6328 156.875 87.6328 156.71 87.6328C156.545 87.4684 156.216 87.4684 156.051 87.4684ZM158.689 84.5089C159.184 84.5089 159.679 84.6733 160.008 84.6733C160.173 84.6733 160.173 84.6733 160.173 84.6733V84.5089C160.008 83.5224 159.679 82.7003 159.514 81.7138C159.514 81.7138 159.514 81.7138 159.349 81.7138C159.019 82.5359 158.854 83.3579 158.524 84.18C158.524 84.3444 158.524 84.3444 158.524 84.3444C158.524 84.3444 158.524 84.3444 158.524 84.5089H158.689ZM167.759 89.277C167.594 89.277 167.594 89.277 167.594 89.277C167.429 89.277 167.429 89.277 167.429 89.1125C167.429 89.1125 167.429 88.9481 167.594 88.9481C167.594 88.9481 167.594 88.9481 167.759 88.9481C167.924 88.9481 168.254 88.9481 168.254 88.7837C168.419 88.7837 168.419 88.6193 168.419 88.2905C168.419 87.6328 168.419 86.8107 168.419 85.9886C168.419 85.1665 168.419 84.5089 168.419 83.6868C168.419 83.3579 168.419 83.1935 168.419 83.0291C168.419 82.8647 168.419 82.7003 168.419 82.7003C168.419 82.7003 168.419 82.5359 168.254 82.5359H168.089C167.924 82.3714 167.924 82.3714 167.759 82.3714H167.594C167.264 82.3714 167.1 82.3714 166.935 82.3714C166.77 82.5359 166.605 82.5359 166.44 82.7003C166.44 82.8647 166.275 82.8647 166.275 82.8647C166.275 83.0291 166.11 83.0291 166.11 83.1935C165.945 83.1935 165.945 83.1935 165.78 83.1935C165.615 83.0291 165.615 83.0291 165.615 83.0291C165.615 82.8647 165.78 82.8647 165.78 82.7003C165.945 82.3714 165.945 82.207 166.11 82.0426C166.11 81.8782 166.11 81.5494 166.11 81.3849C166.11 81.2205 166.275 81.2205 166.275 81.0561H166.44L166.605 81.2205C166.605 81.3849 166.77 81.5494 166.77 81.5494C166.935 81.5494 166.935 81.7138 167.1 81.7138C167.264 81.8782 167.429 81.8782 167.594 81.8782C168.914 82.207 170.233 82.5359 171.717 82.8647C171.882 82.8647 172.047 82.8647 172.047 82.8647C172.212 82.8647 172.377 82.8647 172.377 82.8647C172.542 82.7003 172.542 82.7003 172.706 82.7003C172.706 82.5359 172.871 82.5359 172.871 82.5359L173.036 82.7003C173.036 82.7003 173.036 82.7003 173.036 82.8647C173.036 83.0291 173.036 83.0291 173.036 83.0291C173.036 83.1935 172.871 83.3579 172.871 83.3579C172.871 83.5224 172.871 83.6868 172.871 83.8512C172.706 83.8512 172.706 84.0156 172.706 84.18V84.3444C172.706 84.5089 172.706 84.6733 172.706 84.6733C172.706 84.6733 172.706 84.8377 172.542 84.6733C172.542 84.6733 172.542 84.6733 172.377 84.6733C172.377 84.5089 172.377 84.3444 172.212 84.18C172.212 84.0156 172.047 83.6868 171.882 83.5224C171.717 83.3579 171.552 83.1935 171.222 83.1935C171.057 83.1935 170.892 83.0291 170.728 83.0291C170.563 83.0291 170.398 83.0291 170.398 83.0291C170.233 83.0291 170.233 83.1935 170.233 83.3579C170.233 83.5224 170.068 83.8512 170.068 84.18C170.068 84.8377 170.068 85.6598 170.068 86.4819C170.068 87.1395 170.068 87.9616 170.068 88.7837C170.068 88.9481 170.233 89.1125 170.398 89.277C170.398 89.4414 170.563 89.4414 170.892 89.6058C171.057 89.6058 171.057 89.7702 171.057 89.7702C171.222 89.7702 171.222 89.9346 171.222 89.9346C171.222 89.9346 171.222 90.099 171.057 90.099C171.057 90.099 171.057 90.099 170.892 90.099C170.728 89.9346 170.563 89.9346 170.398 89.9346C170.233 89.9346 170.068 89.7702 169.903 89.7702C169.573 89.7702 169.408 89.6058 169.243 89.6058C169.078 89.6058 168.914 89.6058 168.749 89.6058C168.584 89.4414 168.419 89.4414 168.254 89.4414C168.089 89.4414 167.924 89.4414 167.759 89.277Z" fill="#000B3A"/>
<path fill-rule="evenodd" clip-rule="evenodd" d="M94.5394 86.6479L82.9957 89.7719L82.501 104.076L94.5394 101.117V96.8418V86.6479Z" fill="#E9E9E9" stroke="white" stroke-width="0.499835"/>
<path fill-rule="evenodd" clip-rule="evenodd" d="M180.952 86.6479L192.495 89.7719L192.825 104.076L180.952 101.117V96.8418V86.6479Z" fill="#E9E9E9" stroke="white" stroke-width="0.499835"/>
</g>
<defs>
<filter id="filter0_d_71:2214" x="0" y="0" width="276" height="193.168" filterUnits="userSpaceOnUse" color-interpolation-filters="sRGB">
<feFlood flood-opacity="0" result="BackgroundImageFix"/>
<feColorMatrix in="SourceAlpha" type="matrix" values="0 0 0 0 0 0 0 0 0 0 0 0 0 0 0 0 0 0 127 0" result="hardAlpha"/>
<feOffset dy="4"/>
<feGaussianBlur stdDeviation="2"/>
<feComposite in2="hardAlpha" operator="out"/>
<feColorMatrix type="matrix" values="0 0 0 0 0 0 0 0 0 0 0 0 0 0 0 0 0 0 0.25 0"/>
<feBlend mode="normal" in2="BackgroundImageFix" result="effect1_dropShadow_71:2214"/>
<feBlend mode="normal" in="SourceGraphic" in2="effect1_dropShadow_71:2214" result="shape"/>
</filter>
<linearGradient id="paint0_linear_71:2214" x1="138.041" y1="171.727" x2="138.041" y2="215.787" gradientUnits="userSpaceOnUse">
<stop stop-color="white"/>
<stop offset="1" stop-color="#385DF1"/>
</linearGradient>
<linearGradient id="paint1_linear_71:2214" x1="137.746" y1="34" x2="137.746" y2="112.5" gradientUnits="userSpaceOnUse">
<stop stop-color="#E9E9E9"/>
<stop offset="1" stop-color="#3F4868"/>
</linearGradient>
</defs>
</svg>
