<svg width="371" height="100" viewBox="0 0 371 100" fill="none" xmlns="http://www.w3.org/2000/svg">
<mask id="path-1-inside-1_70:146" fill="white">
<path d="M131.535 36.2352C131.573 36.2352 131.593 36.2938 131.593 36.4109C131.593 36.5298 131.573 36.5884 131.535 36.5884C130.875 36.5884 130.351 36.5789 129.964 36.5591L127.811 36.5298L125.629 36.5591C125.261 36.5789 124.756 36.5884 124.116 36.5884C124.058 36.5884 124.029 36.5298 124.029 36.4109C124.029 36.2938 124.058 36.2352 124.116 36.2352C124.931 36.2352 125.484 36.1361 125.775 35.9397C126.066 35.7443 126.211 35.3317 126.211 34.7039L126.182 34.2025L125.571 22.1591L119.579 36.3816C119.539 36.4609 119.462 36.4996 119.345 36.4996C119.229 36.4996 119.151 36.4609 119.113 36.3816L111.752 22.2176L111.52 32.8477C111.5 33.9079 111.709 34.7378 112.146 35.3364C112.581 35.935 113.198 36.2352 113.993 36.2352C114.05 36.2352 114.08 36.2938 114.08 36.4109C114.08 36.5298 114.05 36.5884 113.993 36.5884C113.469 36.5884 113.062 36.5789 112.771 36.5591L111.171 36.5298L109.338 36.5591C109.028 36.5789 108.611 36.5884 108.087 36.5884C108.029 36.5884 108 36.5298 108 36.4109C108 36.2938 108.029 36.2352 108.087 36.2352C108.882 36.2352 109.513 35.9303 109.978 35.3223C110.444 34.7133 110.686 33.8881 110.706 32.8477L110.967 20.657L110.938 20.6277C110.55 19.9007 110.148 19.371 109.731 19.0368C109.313 18.7035 108.834 18.5364 108.291 18.5364C108.232 18.5364 108.203 18.4779 108.203 18.3599C108.203 18.2419 108.232 18.1833 108.291 18.1833L109.658 18.2126C109.93 18.2324 110.279 18.2419 110.706 18.2419L112.248 18.2126C112.422 18.1928 112.645 18.1833 112.916 18.1833C113.169 18.1833 113.362 18.2721 113.498 18.4477C113.634 18.6252 113.885 19.0472 114.255 19.7138L120.596 31.7581L126.124 18.9188C126.24 18.6441 126.361 18.4533 126.487 18.3448C126.614 18.2371 126.783 18.1833 126.996 18.1833C127.171 18.1833 127.369 18.1928 127.593 18.2126C127.816 18.2324 128.073 18.2419 128.364 18.2419L130.08 18.2126C130.351 18.1928 130.74 18.1833 131.244 18.1833C131.302 18.1833 131.332 18.2419 131.332 18.3599C131.332 18.4779 131.302 18.5364 131.244 18.5364C130.333 18.5364 129.673 18.7224 129.266 19.0963C128.858 19.4692 128.674 20.048 128.713 20.8335L129.411 34.2025C129.45 34.8115 129.523 35.2533 129.629 35.5281C129.736 35.8028 129.93 35.9898 130.211 36.088C130.492 36.1852 130.933 36.2352 131.535 36.2352ZM153.557 36.2352C153.616 36.2352 153.645 36.2938 153.645 36.4109C153.645 36.5298 153.616 36.5884 153.557 36.5884C152.878 36.5884 152.335 36.5789 151.928 36.5591L149.687 36.5298L147.07 36.5591C146.72 36.5789 146.246 36.5884 145.644 36.5884C145.586 36.5884 145.557 36.5298 145.557 36.4109C145.557 36.2938 145.586 36.2352 145.644 36.2352C146.361 36.2352 146.885 36.1852 147.216 36.088C147.545 35.9898 147.768 35.8028 147.884 35.5281C148.001 35.2533 148.059 34.8115 148.059 34.2025V22.1591L136.422 36.9122C136.364 36.9707 136.218 37 135.986 37C135.617 37 135.433 36.932 135.433 36.7942V20.5682C135.433 19.9791 135.375 19.5476 135.258 19.2729C135.142 18.9981 134.929 18.8065 134.618 18.6979C134.308 18.5902 133.824 18.5364 133.163 18.5364C133.106 18.5364 133.077 18.4779 133.077 18.3599C133.077 18.2419 133.106 18.1833 133.163 18.1833L134.793 18.2126C135.763 18.2522 136.509 18.2721 137.033 18.2721C137.809 18.2721 138.681 18.2522 139.651 18.2126L141.076 18.1833C141.135 18.1833 141.164 18.2419 141.164 18.3599C141.164 18.4779 141.135 18.5364 141.076 18.5364C140.359 18.5364 139.835 18.5902 139.506 18.6979C139.177 18.8065 138.953 18.9981 138.837 19.2729C138.72 19.5476 138.663 19.9791 138.663 20.5682V32.7306L150.299 17.9775C150.357 17.918 150.502 17.8887 150.735 17.8887C150.871 17.8887 150.997 17.9086 151.113 17.9473C151.23 17.9869 151.288 18.036 151.288 18.0946V34.2025C151.288 34.7917 151.346 35.2288 151.462 35.513C151.579 35.7981 151.792 35.9898 152.103 36.088C152.413 36.1852 152.898 36.2352 153.557 36.2352ZM173.223 36.2352C173.281 36.2352 173.31 36.2938 173.31 36.4109C173.31 36.5298 173.281 36.5884 173.223 36.5884C172.661 36.5884 172.224 36.5789 171.914 36.5591L170.168 36.5298L167.783 36.5591C167.414 36.5789 166.9 36.5884 166.241 36.5884C166.182 36.5884 166.153 36.5298 166.153 36.4109C166.153 36.2938 166.182 36.2352 166.241 36.2352C166.881 36.2352 167.201 36.0681 167.201 35.7339C167.201 35.5574 167.114 35.3411 166.939 35.0862L162.954 28.8436L160.452 32.4653C159.695 33.5454 159.317 34.4187 159.317 35.0862C159.317 35.8519 159.821 36.2352 160.829 36.2352C160.868 36.2352 160.888 36.2938 160.888 36.4109C160.888 36.5298 160.868 36.5884 160.829 36.5884C160.19 36.5884 159.705 36.5789 159.375 36.5591L157.223 36.5298L155.855 36.5591C155.603 36.5789 155.196 36.5884 154.633 36.5884C154.576 36.5884 154.546 36.5298 154.546 36.4109C154.546 36.2938 154.576 36.2352 154.633 36.2352C155.235 36.2352 155.972 35.9105 156.844 35.2628C157.717 34.6151 158.628 33.6238 159.579 32.2887L162.546 28.2252L157.891 20.8921C157.368 20.048 156.864 19.4447 156.379 19.0812C155.894 18.7177 155.38 18.5364 154.837 18.5364C154.779 18.5364 154.75 18.4779 154.75 18.3599C154.75 18.2419 154.779 18.1833 154.837 18.1833L156.088 18.2126C156.631 18.2522 157.038 18.2721 157.309 18.2721C157.988 18.2721 158.832 18.2522 159.841 18.2126L161.499 18.1833C161.538 18.1833 161.557 18.2419 161.557 18.3599C161.557 18.4779 161.538 18.5364 161.499 18.5364C160.84 18.5364 160.51 18.7035 160.51 19.0368C160.51 19.1935 160.597 19.4201 160.771 19.7138L164.611 25.6921L166.939 22.3356C167.695 21.2357 168.074 20.353 168.074 19.6845C168.074 18.9188 167.57 18.5364 166.561 18.5364C166.523 18.5364 166.503 18.4779 166.503 18.3599C166.503 18.2419 166.523 18.1833 166.561 18.1833L168.016 18.2126C168.792 18.2522 169.508 18.2721 170.168 18.2721C170.575 18.2721 171.031 18.2522 171.535 18.2126L172.758 18.1833C172.815 18.1833 172.844 18.2419 172.844 18.3599C172.844 18.4779 172.815 18.5364 172.758 18.5364C172.137 18.5364 171.395 18.865 170.532 19.5231C169.669 20.1802 168.752 21.1772 167.783 22.5122L165.019 26.3397L169.993 34.144C170.478 34.87 170.973 35.4006 171.477 35.7339C171.982 36.0681 172.563 36.2352 173.223 36.2352ZM194.169 36.2352C194.266 36.2352 194.314 36.2938 194.314 36.4109C194.314 36.5298 194.266 36.5884 194.169 36.5884C193.781 36.5884 193.179 36.5685 192.365 36.5298C191.512 36.4902 190.901 36.4703 190.532 36.4703C190.047 36.4703 189.456 36.4902 188.757 36.5298C188.098 36.5685 187.575 36.5884 187.187 36.5884C187.109 36.5884 187.07 36.5298 187.07 36.4109C187.07 36.2938 187.109 36.2352 187.187 36.2352C187.691 36.2352 188.054 36.1805 188.278 36.0729C188.501 35.9652 188.612 35.7736 188.612 35.4988C188.612 35.1646 188.419 34.6057 188.03 33.8201L185.005 27.7833H179.827L177.762 32.4068C177.509 32.9761 177.383 33.5057 177.383 33.9967C177.383 34.7039 177.63 35.2533 178.124 35.6452C178.619 36.0389 179.284 36.2352 180.118 36.2352C180.215 36.2352 180.263 36.2938 180.263 36.4109C180.263 36.5298 180.215 36.5884 180.118 36.5884C179.769 36.5884 179.264 36.5685 178.605 36.5298C177.868 36.4902 177.228 36.4703 176.684 36.4703C176.161 36.4703 175.531 36.4902 174.794 36.5298C174.134 36.5685 173.601 36.5884 173.194 36.5884C173.116 36.5884 173.078 36.5298 173.078 36.4109C173.078 36.2938 173.116 36.2352 173.194 36.2352C173.737 36.2352 174.192 36.122 174.561 35.8963C174.93 35.6707 175.298 35.2684 175.667 34.6887C176.035 34.109 176.472 33.2508 176.975 32.1122L183.289 18.0653C183.327 18.0068 183.415 17.9775 183.55 17.9775C183.705 17.9775 183.792 18.0068 183.812 18.0653L191.084 32.5541C191.763 33.9476 192.326 34.9097 192.773 35.4393C193.218 35.9699 193.684 36.2352 194.169 36.2352ZM180.204 26.9581H184.597L182.27 22.3054L180.204 26.9581ZM205.805 16.9172C205.068 16.9172 204.37 16.7898 203.71 16.5339C203.051 16.279 202.517 15.94 202.111 15.518C201.703 15.096 201.5 14.6494 201.5 14.1783C201.5 13.8252 201.612 13.54 201.835 13.3238C202.057 13.1086 202.373 13 202.78 13C203.225 13 203.536 13.1331 203.71 13.3975C203.885 13.6628 204.05 14.0801 204.206 14.6494C204.38 15.2584 204.568 15.705 204.773 15.9891C204.976 16.2743 205.31 16.4159 205.776 16.4159C206.261 16.4159 206.615 16.2639 206.838 15.9599C207.061 15.6559 207.27 15.2093 207.464 14.6201C207.638 14.0697 207.817 13.6628 208.002 13.3975C208.185 13.1331 208.482 13 208.889 13C209.296 13 209.606 13.1086 209.82 13.3238C210.033 13.54 210.139 13.8252 210.139 14.1783C210.139 14.6692 209.936 15.1253 209.529 15.5473C209.121 15.9703 208.588 16.3035 207.929 16.549C207.27 16.7945 206.562 16.9172 205.805 16.9172ZM215.463 36.2352C215.521 36.2352 215.551 36.2938 215.551 36.4109C215.551 36.5298 215.521 36.5884 215.463 36.5884C214.785 36.5884 214.242 36.5789 213.835 36.5591L211.595 36.5298L208.976 36.5591C208.627 36.5789 208.152 36.5884 207.55 36.5884C207.492 36.5884 207.464 36.5298 207.464 36.4109C207.464 36.2938 207.492 36.2352 207.55 36.2352C208.268 36.2352 208.792 36.1852 209.121 36.088C209.451 35.9898 209.674 35.8028 209.791 35.5281C209.907 35.2533 209.965 34.8115 209.965 34.2025V22.1591L198.329 36.9122C198.271 36.9707 198.125 37 197.892 37C197.524 37 197.34 36.932 197.34 36.7942V20.5682C197.34 19.9791 197.281 19.5476 197.165 19.2729C197.049 18.9981 196.835 18.8065 196.525 18.6979C196.214 18.5902 195.73 18.5364 195.071 18.5364C195.012 18.5364 194.983 18.4779 194.983 18.3599C194.983 18.2419 195.012 18.1833 195.071 18.1833L196.699 18.2126C197.669 18.2522 198.415 18.2721 198.94 18.2721C199.716 18.2721 200.589 18.2522 201.558 18.2126L202.983 18.1833C203.042 18.1833 203.071 18.2419 203.071 18.3599C203.071 18.4779 203.042 18.5364 202.983 18.5364C202.266 18.5364 201.741 18.5902 201.412 18.6979C201.083 18.8065 200.86 18.9981 200.743 19.2729C200.627 19.5476 200.569 19.9791 200.569 20.5682V32.7306L212.205 17.9775C212.263 17.918 212.409 17.8887 212.642 17.8887C212.778 17.8887 212.903 17.9086 213.02 17.9473C213.136 17.9869 213.194 18.036 213.194 18.0946V34.2025C213.194 34.7917 213.253 35.2288 213.369 35.513C213.485 35.7981 213.699 35.9898 214.009 36.088C214.32 36.1852 214.804 36.2352 215.463 36.2352ZM237.253 36.2352C237.349 36.2352 237.399 36.2938 237.399 36.4109C237.399 36.5298 237.349 36.5884 237.253 36.5884C236.865 36.5884 236.264 36.5685 235.449 36.5298C234.596 36.4902 233.985 36.4703 233.617 36.4703C233.132 36.4703 232.54 36.4902 231.842 36.5298C231.182 36.5685 230.659 36.5884 230.271 36.5884C230.194 36.5884 230.154 36.5298 230.154 36.4109C230.154 36.2938 230.194 36.2352 230.271 36.2352C230.775 36.2352 231.139 36.1805 231.362 36.0729C231.585 35.9652 231.696 35.7736 231.696 35.4988C231.696 35.1646 231.502 34.6057 231.115 33.8201L225.355 22.3054L220.845 32.4068C220.593 32.9761 220.467 33.5057 220.467 33.9967C220.467 34.7039 220.714 35.2533 221.209 35.6452C221.704 36.0389 222.367 36.2352 223.202 36.2352C223.299 36.2352 223.348 36.2938 223.348 36.4109C223.348 36.5298 223.299 36.5884 223.202 36.5884C222.852 36.5884 222.349 36.5685 221.689 36.5298C220.952 36.4902 220.312 36.4703 219.769 36.4703C219.245 36.4703 218.615 36.4902 217.878 36.5298C217.219 36.5685 216.685 36.5884 216.278 36.5884C216.2 36.5884 216.162 36.5298 216.162 36.4109C216.162 36.2938 216.2 36.2352 216.278 36.2352C216.821 36.2352 217.277 36.122 217.646 35.8963C218.013 35.6707 218.383 35.2684 218.751 34.6887C219.12 34.109 219.556 33.2508 220.06 32.1122L226.372 18.0653C226.411 18.0068 226.499 17.9775 226.634 17.9775C226.79 17.9775 226.877 18.0068 226.896 18.0653L234.17 32.5541C234.848 33.9476 235.411 34.9097 235.857 35.4393C236.303 35.9699 236.768 36.2352 237.253 36.2352ZM247.522 36.9415C245.718 36.9415 244.113 36.5147 242.708 35.6603C241.301 34.8068 240.215 33.6483 239.45 32.1858C238.683 30.7234 238.3 29.1278 238.3 27.4C238.3 25.3777 238.804 23.6452 239.813 22.2025C240.822 20.7599 242.116 19.6751 243.696 18.949C245.277 18.222 246.892 17.8595 248.54 17.8595C250.383 17.8595 252.002 18.2966 253.398 19.1699C254.796 20.0433 255.866 21.197 256.613 22.6302C257.359 24.0625 257.734 25.5844 257.734 27.1942C257.734 28.9805 257.268 30.6205 256.337 32.1122C255.405 33.6039 254.159 34.7822 252.599 35.6452C251.038 36.51 249.346 36.9415 247.522 36.9415ZM248.482 36.205C249.568 36.205 250.542 35.8859 251.406 35.2486C252.269 34.6104 252.943 33.6776 253.428 32.4511C253.913 31.2238 254.155 29.7556 254.155 28.0486C254.155 26.2425 253.883 24.6271 253.34 23.2042C252.798 21.7805 252.012 20.6664 250.984 19.862C249.957 19.0566 248.753 18.6544 247.377 18.6544C245.612 18.6544 244.254 19.3267 243.305 20.6711C242.353 22.0165 241.878 23.8963 241.878 26.3105C241.878 28.2148 242.165 29.918 242.737 31.4201C243.309 32.9213 244.095 34.0949 245.094 34.9389C246.092 35.783 247.222 36.205 248.482 36.205ZM269.632 26.2519C271.261 26.4483 272.555 26.9978 273.516 27.9013C274.476 28.8039 274.955 29.9227 274.955 31.2577C274.955 32.2784 274.664 33.2017 274.083 34.026C273.501 34.8502 272.696 35.5035 271.668 35.9841C270.64 36.4656 269.496 36.7054 268.236 36.7054C267.692 36.7054 267.072 36.6762 266.373 36.6176C266.102 36.5978 265.767 36.5789 265.37 36.5591C264.972 36.5393 264.531 36.5298 264.046 36.5298L261.922 36.5591C261.535 36.5789 261.011 36.5884 260.352 36.5884C260.294 36.5884 260.264 36.5298 260.264 36.4109C260.264 36.2938 260.294 36.2352 260.352 36.2352C260.914 36.2352 261.341 36.1805 261.631 36.0729C261.922 35.9652 262.131 35.7688 262.257 35.4837C262.383 35.1995 262.446 34.7728 262.446 34.2025V20.5682C262.446 19.744 262.31 19.1992 262.039 18.9339C261.767 18.6686 261.214 18.5364 260.381 18.5364C260.342 18.5364 260.323 18.4779 260.323 18.3599C260.323 18.2419 260.342 18.1833 260.381 18.1833L261.922 18.2126C262.815 18.2522 263.522 18.2721 264.046 18.2721C264.59 18.2721 265.151 18.2419 265.733 18.1833C265.927 18.1635 266.218 18.1437 266.606 18.1238C266.994 18.105 267.333 18.0946 267.624 18.0946C269.39 18.0946 270.757 18.4184 271.726 19.067C272.696 19.7138 273.181 20.657 273.181 21.8938C273.181 22.836 272.875 23.6905 272.265 24.4562C271.653 25.2219 270.776 25.8195 269.632 26.2519ZM267.188 18.7422C266.626 18.7422 266.238 18.8754 266.024 19.1397C265.811 19.405 265.704 19.9007 265.704 20.6277V26.2227L266.868 26.2519C267.877 26.2519 268.652 25.8686 269.196 25.1029C269.738 24.3372 270.01 23.3563 270.01 22.1591C270.01 21.0393 269.767 20.1906 269.282 19.6118C268.797 19.0321 268.1 18.7422 267.188 18.7422ZM267.74 35.9699C270.281 35.9699 271.552 34.6349 271.552 31.9649C271.552 30.4533 271.193 29.2552 270.475 28.3725C269.758 27.4887 268.671 27.0469 267.217 27.0469C266.655 27.0469 266.15 27.0667 265.704 27.1054V34.2025C265.704 34.8502 265.83 35.3072 266.082 35.5725C266.335 35.8368 266.888 35.9699 267.74 35.9699ZM288.716 17.8595C289.57 17.8595 290.461 17.9322 291.392 18.0804C292.323 18.2268 293.05 18.4184 293.574 18.6544C293.748 18.713 293.86 18.7866 293.908 18.8754C293.957 18.9632 294.001 19.1161 294.039 19.3314L294.389 23.4252C294.389 23.4837 294.34 23.5234 294.242 23.5422C294.146 23.5621 294.088 23.5328 294.069 23.4544C293.409 21.9032 292.526 20.7061 291.421 19.862C290.316 19.017 289.036 18.5959 287.581 18.5959C285.661 18.5959 284.178 19.3116 283.13 20.7448C282.083 22.178 281.559 24.1021 281.559 26.5172C281.559 28.3234 281.845 29.9718 282.418 31.4645C282.989 32.9563 283.794 34.1393 284.832 35.0126C285.869 35.8859 287.047 36.3231 288.366 36.3231C289.608 36.3231 290.718 35.9057 291.698 35.0711C292.676 34.2374 293.554 32.9666 294.33 31.2577C294.35 31.1794 294.413 31.1501 294.519 31.1699C294.627 31.1898 294.68 31.2285 294.68 31.287L294.242 35.293C294.204 35.5281 294.16 35.6801 294.113 35.749C294.063 35.8179 293.952 35.8906 293.778 35.9699C292.051 36.6176 290.277 36.9415 288.454 36.9415C286.088 36.9415 284.109 36.4656 282.519 35.513C280.929 34.5613 279.76 33.3537 279.014 31.8913C278.267 30.4288 277.894 28.9021 277.894 27.3122C277.894 25.4475 278.393 23.7981 279.392 22.3649C280.391 20.9317 281.719 19.8223 283.377 19.0368C285.036 18.2522 286.815 17.8595 288.716 17.8595ZM315.596 36.2352C315.654 36.2352 315.683 36.2938 315.683 36.4109C315.683 36.5298 315.654 36.5884 315.596 36.5884H311.116C310.864 36.5884 310.636 36.51 310.432 36.3523C310.229 36.1956 309.874 35.7887 309.371 35.1306C308.866 34.4725 308.042 33.3094 306.897 31.6411L306.112 30.5213C305.434 29.5205 304.929 28.819 304.599 28.4159C304.27 28.0137 303.926 27.7295 303.567 27.5624C303.208 27.3953 302.737 27.3122 302.155 27.3122V34.2025C302.155 34.7917 302.21 35.2288 302.316 35.513C302.422 35.7981 302.631 35.9898 302.942 36.088C303.252 36.1852 303.736 36.2352 304.396 36.2352C304.454 36.2352 304.483 36.2938 304.483 36.4109C304.483 36.5298 304.454 36.5884 304.396 36.5884C303.718 36.5884 303.174 36.5789 302.767 36.5591L300.352 36.5298L298.229 36.5591C297.841 36.5789 297.317 36.5884 296.658 36.5884C296.599 36.5884 296.57 36.5298 296.57 36.4109C296.57 36.2938 296.599 36.2352 296.658 36.2352C297.317 36.2352 297.802 36.1852 298.112 36.088C298.423 35.9898 298.635 35.7981 298.752 35.513C298.869 35.2288 298.927 34.7917 298.927 34.2025V20.5682C298.927 19.9791 298.869 19.5476 298.752 19.2729C298.635 18.9981 298.427 18.8065 298.127 18.6979C297.826 18.5902 297.346 18.5364 296.687 18.5364C296.628 18.5364 296.599 18.4779 296.599 18.3599C296.599 18.2419 296.628 18.1833 296.687 18.1833L298.229 18.2126C299.12 18.2522 299.828 18.2721 300.352 18.2721C301.012 18.2721 301.826 18.2522 302.796 18.2126L304.396 18.1833C304.454 18.1833 304.483 18.2419 304.483 18.3599C304.483 18.4779 304.454 18.5364 304.396 18.5364C303.756 18.5364 303.281 18.5959 302.971 18.713C302.66 18.831 302.446 19.0321 302.33 19.3172C302.214 19.6014 302.155 20.0386 302.155 20.6277V26.8118C302.68 26.792 303.339 26.7825 304.134 26.7825L307.188 22.5415C307.984 21.4227 308.381 20.4899 308.381 19.744C308.381 19.371 308.275 19.0765 308.061 18.8603C307.849 18.6441 307.558 18.5364 307.188 18.5364C307.15 18.5364 307.13 18.4779 307.13 18.3599C307.13 18.2419 307.15 18.1833 307.188 18.1833L308.527 18.2126C309.38 18.2522 310.137 18.2721 310.796 18.2721C311.552 18.2721 312.338 18.2522 313.153 18.2126L314.404 18.1833C314.462 18.1833 314.49 18.2419 314.49 18.3599C314.49 18.4779 314.462 18.5364 314.404 18.5364C313.55 18.5364 312.59 18.8508 311.523 19.4787C310.456 20.1075 309.555 20.8921 308.818 21.8343L304.861 26.8118C305.618 26.8505 306.238 26.9931 306.723 27.2386C307.208 27.484 307.688 27.8711 308.163 28.4017C308.639 28.9314 309.312 29.8151 310.185 31.0519L310.708 31.7884C311.523 32.927 312.159 33.7805 312.615 34.3498C313.07 34.9191 313.54 35.3704 314.025 35.7046C314.51 36.0389 315.033 36.2145 315.596 36.2352ZM336.658 36.2352C336.717 36.2352 336.746 36.2938 336.746 36.4109C336.746 36.5298 336.717 36.5884 336.658 36.5884C335.98 36.5884 335.436 36.5789 335.029 36.5591L332.789 36.5298L330.171 36.5591C329.821 36.5789 329.347 36.5884 328.745 36.5884C328.687 36.5884 328.658 36.5298 328.658 36.4109C328.658 36.2938 328.687 36.2352 328.745 36.2352C329.463 36.2352 329.986 36.1852 330.317 36.088C330.646 35.9898 330.869 35.8028 330.985 35.5281C331.102 35.2533 331.16 34.8115 331.16 34.2025V22.1591L319.523 36.9122C319.465 36.9707 319.32 37 319.087 37C318.718 37 318.535 36.932 318.535 36.7942V20.5682C318.535 19.9791 318.476 19.5476 318.359 19.2729C318.244 18.9981 318.03 18.8065 317.72 18.6979C317.409 18.5902 316.925 18.5364 316.265 18.5364C316.208 18.5364 316.178 18.4779 316.178 18.3599C316.178 18.2419 316.208 18.1833 316.265 18.1833L317.894 18.2126C318.864 18.2522 319.611 18.2721 320.134 18.2721C320.91 18.2721 321.783 18.2522 322.752 18.2126L324.177 18.1833C324.236 18.1833 324.265 18.2419 324.265 18.3599C324.265 18.4779 324.236 18.5364 324.177 18.5364C323.46 18.5364 322.937 18.5902 322.607 18.6979C322.278 18.8065 322.055 18.9981 321.938 19.2729C321.821 19.5476 321.764 19.9791 321.764 20.5682V32.7306L333.4 17.9775C333.458 17.918 333.603 17.8887 333.837 17.8887C333.973 17.8887 334.098 17.9086 334.214 17.9473C334.331 17.9869 334.389 18.036 334.389 18.0946V34.2025C334.389 34.7917 334.447 35.2288 334.564 35.513C334.68 35.7981 334.893 35.9898 335.204 36.088C335.515 36.1852 335.999 36.2352 336.658 36.2352ZM349.255 16.9172C348.518 16.9172 347.82 16.7898 347.16 16.5339C346.501 16.279 345.967 15.94 345.56 15.518C345.153 15.096 344.95 14.6494 344.95 14.1783C344.95 13.8252 345.061 13.54 345.284 13.3238C345.507 13.1086 345.822 13 346.229 13C346.675 13 346.986 13.1331 347.16 13.3975C347.335 13.6628 347.5 14.0801 347.655 14.6494C347.829 15.2584 348.018 15.705 348.223 15.9891C348.426 16.2743 348.761 16.4159 349.226 16.4159C349.711 16.4159 350.065 16.2639 350.288 15.9599C350.511 15.6559 350.719 15.2093 350.913 14.6201C351.088 14.0697 351.267 13.6628 351.452 13.3975C351.635 13.1331 351.931 13 352.339 13C352.746 13 353.056 13.1086 353.269 13.3238C353.482 13.54 353.589 13.8252 353.589 14.1783C353.589 14.6692 353.386 15.1253 352.978 15.5473C352.571 15.9703 352.038 16.3035 351.378 16.549C350.719 16.7945 350.012 16.9172 349.255 16.9172ZM358.913 36.2352C358.971 36.2352 359 36.2938 359 36.4109C359 36.5298 358.971 36.5884 358.913 36.5884C358.234 36.5884 357.691 36.5789 357.284 36.5591L355.044 36.5298L352.425 36.5591C352.077 36.5789 351.602 36.5884 351 36.5884C350.942 36.5884 350.913 36.5298 350.913 36.4109C350.913 36.2938 350.942 36.2352 351 36.2352C351.718 36.2352 352.242 36.1852 352.571 36.088C352.901 35.9898 353.124 35.8028 353.241 35.5281C353.357 35.2533 353.415 34.8115 353.415 34.2025V22.1591L341.779 36.9122C341.72 36.9707 341.575 37 341.342 37C340.974 37 340.789 36.932 340.789 36.7942V20.5682C340.789 19.9791 340.731 19.5476 340.615 19.2729C340.498 18.9981 340.285 18.8065 339.975 18.6979C339.664 18.5902 339.179 18.5364 338.52 18.5364C338.462 18.5364 338.433 18.4779 338.433 18.3599C338.433 18.2419 338.462 18.1833 338.52 18.1833L340.149 18.2126C341.119 18.2522 341.866 18.2721 342.389 18.2721C343.165 18.2721 344.038 18.2522 345.008 18.2126L346.433 18.1833C346.492 18.1833 346.52 18.2419 346.52 18.3599C346.52 18.4779 346.492 18.5364 346.433 18.5364C345.715 18.5364 345.192 18.5902 344.862 18.6979C344.532 18.8065 344.309 18.9981 344.193 19.2729C344.077 19.5476 344.018 19.9791 344.018 20.5682V32.7306L355.655 17.9775C355.713 17.918 355.859 17.8887 356.092 17.8887C356.227 17.8887 356.353 17.9086 356.47 17.9473C356.586 17.9869 356.644 18.036 356.644 18.0946V34.2025C356.644 34.7917 356.702 35.2288 356.818 35.513C356.935 35.7981 357.149 35.9898 357.458 36.088C357.769 36.1852 358.254 36.2352 358.913 36.2352Z"/>
</mask>
<path d="M131.535 36.2352C131.573 36.2352 131.593 36.2938 131.593 36.4109C131.593 36.5298 131.573 36.5884 131.535 36.5884C130.875 36.5884 130.351 36.5789 129.964 36.5591L127.811 36.5298L125.629 36.5591C125.261 36.5789 124.756 36.5884 124.116 36.5884C124.058 36.5884 124.029 36.5298 124.029 36.4109C124.029 36.2938 124.058 36.2352 124.116 36.2352C124.931 36.2352 125.484 36.1361 125.775 35.9397C126.066 35.7443 126.211 35.3317 126.211 34.7039L126.182 34.2025L125.571 22.1591L119.579 36.3816C119.539 36.4609 119.462 36.4996 119.345 36.4996C119.229 36.4996 119.151 36.4609 119.113 36.3816L111.752 22.2176L111.52 32.8477C111.5 33.9079 111.709 34.7378 112.146 35.3364C112.581 35.935 113.198 36.2352 113.993 36.2352C114.05 36.2352 114.08 36.2938 114.08 36.4109C114.08 36.5298 114.05 36.5884 113.993 36.5884C113.469 36.5884 113.062 36.5789 112.771 36.5591L111.171 36.5298L109.338 36.5591C109.028 36.5789 108.611 36.5884 108.087 36.5884C108.029 36.5884 108 36.5298 108 36.4109C108 36.2938 108.029 36.2352 108.087 36.2352C108.882 36.2352 109.513 35.9303 109.978 35.3223C110.444 34.7133 110.686 33.8881 110.706 32.8477L110.967 20.657L110.938 20.6277C110.55 19.9007 110.148 19.371 109.731 19.0368C109.313 18.7035 108.834 18.5364 108.291 18.5364C108.232 18.5364 108.203 18.4779 108.203 18.3599C108.203 18.2419 108.232 18.1833 108.291 18.1833L109.658 18.2126C109.93 18.2324 110.279 18.2419 110.706 18.2419L112.248 18.2126C112.422 18.1928 112.645 18.1833 112.916 18.1833C113.169 18.1833 113.362 18.2721 113.498 18.4477C113.634 18.6252 113.885 19.0472 114.255 19.7138L120.596 31.7581L126.124 18.9188C126.24 18.6441 126.361 18.4533 126.487 18.3448C126.614 18.2371 126.783 18.1833 126.996 18.1833C127.171 18.1833 127.369 18.1928 127.593 18.2126C127.816 18.2324 128.073 18.2419 128.364 18.2419L130.08 18.2126C130.351 18.1928 130.74 18.1833 131.244 18.1833C131.302 18.1833 131.332 18.2419 131.332 18.3599C131.332 18.4779 131.302 18.5364 131.244 18.5364C130.333 18.5364 129.673 18.7224 129.266 19.0963C128.858 19.4692 128.674 20.048 128.713 20.8335L129.411 34.2025C129.45 34.8115 129.523 35.2533 129.629 35.5281C129.736 35.8028 129.93 35.9898 130.211 36.088C130.492 36.1852 130.933 36.2352 131.535 36.2352ZM153.557 36.2352C153.616 36.2352 153.645 36.2938 153.645 36.4109C153.645 36.5298 153.616 36.5884 153.557 36.5884C152.878 36.5884 152.335 36.5789 151.928 36.5591L149.687 36.5298L147.07 36.5591C146.72 36.5789 146.246 36.5884 145.644 36.5884C145.586 36.5884 145.557 36.5298 145.557 36.4109C145.557 36.2938 145.586 36.2352 145.644 36.2352C146.361 36.2352 146.885 36.1852 147.216 36.088C147.545 35.9898 147.768 35.8028 147.884 35.5281C148.001 35.2533 148.059 34.8115 148.059 34.2025V22.1591L136.422 36.9122C136.364 36.9707 136.218 37 135.986 37C135.617 37 135.433 36.932 135.433 36.7942V20.5682C135.433 19.9791 135.375 19.5476 135.258 19.2729C135.142 18.9981 134.929 18.8065 134.618 18.6979C134.308 18.5902 133.824 18.5364 133.163 18.5364C133.106 18.5364 133.077 18.4779 133.077 18.3599C133.077 18.2419 133.106 18.1833 133.163 18.1833L134.793 18.2126C135.763 18.2522 136.509 18.2721 137.033 18.2721C137.809 18.2721 138.681 18.2522 139.651 18.2126L141.076 18.1833C141.135 18.1833 141.164 18.2419 141.164 18.3599C141.164 18.4779 141.135 18.5364 141.076 18.5364C140.359 18.5364 139.835 18.5902 139.506 18.6979C139.177 18.8065 138.953 18.9981 138.837 19.2729C138.72 19.5476 138.663 19.9791 138.663 20.5682V32.7306L150.299 17.9775C150.357 17.918 150.502 17.8887 150.735 17.8887C150.871 17.8887 150.997 17.9086 151.113 17.9473C151.23 17.9869 151.288 18.036 151.288 18.0946V34.2025C151.288 34.7917 151.346 35.2288 151.462 35.513C151.579 35.7981 151.792 35.9898 152.103 36.088C152.413 36.1852 152.898 36.2352 153.557 36.2352ZM173.223 36.2352C173.281 36.2352 173.31 36.2938 173.31 36.4109C173.31 36.5298 173.281 36.5884 173.223 36.5884C172.661 36.5884 172.224 36.5789 171.914 36.5591L170.168 36.5298L167.783 36.5591C167.414 36.5789 166.9 36.5884 166.241 36.5884C166.182 36.5884 166.153 36.5298 166.153 36.4109C166.153 36.2938 166.182 36.2352 166.241 36.2352C166.881 36.2352 167.201 36.0681 167.201 35.7339C167.201 35.5574 167.114 35.3411 166.939 35.0862L162.954 28.8436L160.452 32.4653C159.695 33.5454 159.317 34.4187 159.317 35.0862C159.317 35.8519 159.821 36.2352 160.829 36.2352C160.868 36.2352 160.888 36.2938 160.888 36.4109C160.888 36.5298 160.868 36.5884 160.829 36.5884C160.19 36.5884 159.705 36.5789 159.375 36.5591L157.223 36.5298L155.855 36.5591C155.603 36.5789 155.196 36.5884 154.633 36.5884C154.576 36.5884 154.546 36.5298 154.546 36.4109C154.546 36.2938 154.576 36.2352 154.633 36.2352C155.235 36.2352 155.972 35.9105 156.844 35.2628C157.717 34.6151 158.628 33.6238 159.579 32.2887L162.546 28.2252L157.891 20.8921C157.368 20.048 156.864 19.4447 156.379 19.0812C155.894 18.7177 155.38 18.5364 154.837 18.5364C154.779 18.5364 154.75 18.4779 154.75 18.3599C154.75 18.2419 154.779 18.1833 154.837 18.1833L156.088 18.2126C156.631 18.2522 157.038 18.2721 157.309 18.2721C157.988 18.2721 158.832 18.2522 159.841 18.2126L161.499 18.1833C161.538 18.1833 161.557 18.2419 161.557 18.3599C161.557 18.4779 161.538 18.5364 161.499 18.5364C160.84 18.5364 160.51 18.7035 160.51 19.0368C160.51 19.1935 160.597 19.4201 160.771 19.7138L164.611 25.6921L166.939 22.3356C167.695 21.2357 168.074 20.353 168.074 19.6845C168.074 18.9188 167.57 18.5364 166.561 18.5364C166.523 18.5364 166.503 18.4779 166.503 18.3599C166.503 18.2419 166.523 18.1833 166.561 18.1833L168.016 18.2126C168.792 18.2522 169.508 18.2721 170.168 18.2721C170.575 18.2721 171.031 18.2522 171.535 18.2126L172.758 18.1833C172.815 18.1833 172.844 18.2419 172.844 18.3599C172.844 18.4779 172.815 18.5364 172.758 18.5364C172.137 18.5364 171.395 18.865 170.532 19.5231C169.669 20.1802 168.752 21.1772 167.783 22.5122L165.019 26.3397L169.993 34.144C170.478 34.87 170.973 35.4006 171.477 35.7339C171.982 36.0681 172.563 36.2352 173.223 36.2352ZM194.169 36.2352C194.266 36.2352 194.314 36.2938 194.314 36.4109C194.314 36.5298 194.266 36.5884 194.169 36.5884C193.781 36.5884 193.179 36.5685 192.365 36.5298C191.512 36.4902 190.901 36.4703 190.532 36.4703C190.047 36.4703 189.456 36.4902 188.757 36.5298C188.098 36.5685 187.575 36.5884 187.187 36.5884C187.109 36.5884 187.07 36.5298 187.07 36.4109C187.07 36.2938 187.109 36.2352 187.187 36.2352C187.691 36.2352 188.054 36.1805 188.278 36.0729C188.501 35.9652 188.612 35.7736 188.612 35.4988C188.612 35.1646 188.419 34.6057 188.03 33.8201L185.005 27.7833H179.827L177.762 32.4068C177.509 32.9761 177.383 33.5057 177.383 33.9967C177.383 34.7039 177.63 35.2533 178.124 35.6452C178.619 36.0389 179.284 36.2352 180.118 36.2352C180.215 36.2352 180.263 36.2938 180.263 36.4109C180.263 36.5298 180.215 36.5884 180.118 36.5884C179.769 36.5884 179.264 36.5685 178.605 36.5298C177.868 36.4902 177.228 36.4703 176.684 36.4703C176.161 36.4703 175.531 36.4902 174.794 36.5298C174.134 36.5685 173.601 36.5884 173.194 36.5884C173.116 36.5884 173.078 36.5298 173.078 36.4109C173.078 36.2938 173.116 36.2352 173.194 36.2352C173.737 36.2352 174.192 36.122 174.561 35.8963C174.93 35.6707 175.298 35.2684 175.667 34.6887C176.035 34.109 176.472 33.2508 176.975 32.1122L183.289 18.0653C183.327 18.0068 183.415 17.9775 183.55 17.9775C183.705 17.9775 183.792 18.0068 183.812 18.0653L191.084 32.5541C191.763 33.9476 192.326 34.9097 192.773 35.4393C193.218 35.9699 193.684 36.2352 194.169 36.2352ZM180.204 26.9581H184.597L182.27 22.3054L180.204 26.9581ZM205.805 16.9172C205.068 16.9172 204.37 16.7898 203.71 16.5339C203.051 16.279 202.517 15.94 202.111 15.518C201.703 15.096 201.5 14.6494 201.5 14.1783C201.5 13.8252 201.612 13.54 201.835 13.3238C202.057 13.1086 202.373 13 202.78 13C203.225 13 203.536 13.1331 203.71 13.3975C203.885 13.6628 204.05 14.0801 204.206 14.6494C204.38 15.2584 204.568 15.705 204.773 15.9891C204.976 16.2743 205.31 16.4159 205.776 16.4159C206.261 16.4159 206.615 16.2639 206.838 15.9599C207.061 15.6559 207.27 15.2093 207.464 14.6201C207.638 14.0697 207.817 13.6628 208.002 13.3975C208.185 13.1331 208.482 13 208.889 13C209.296 13 209.606 13.1086 209.82 13.3238C210.033 13.54 210.139 13.8252 210.139 14.1783C210.139 14.6692 209.936 15.1253 209.529 15.5473C209.121 15.9703 208.588 16.3035 207.929 16.549C207.27 16.7945 206.562 16.9172 205.805 16.9172ZM215.463 36.2352C215.521 36.2352 215.551 36.2938 215.551 36.4109C215.551 36.5298 215.521 36.5884 215.463 36.5884C214.785 36.5884 214.242 36.5789 213.835 36.5591L211.595 36.5298L208.976 36.5591C208.627 36.5789 208.152 36.5884 207.55 36.5884C207.492 36.5884 207.464 36.5298 207.464 36.4109C207.464 36.2938 207.492 36.2352 207.55 36.2352C208.268 36.2352 208.792 36.1852 209.121 36.088C209.451 35.9898 209.674 35.8028 209.791 35.5281C209.907 35.2533 209.965 34.8115 209.965 34.2025V22.1591L198.329 36.9122C198.271 36.9707 198.125 37 197.892 37C197.524 37 197.34 36.932 197.34 36.7942V20.5682C197.34 19.9791 197.281 19.5476 197.165 19.2729C197.049 18.9981 196.835 18.8065 196.525 18.6979C196.214 18.5902 195.73 18.5364 195.071 18.5364C195.012 18.5364 194.983 18.4779 194.983 18.3599C194.983 18.2419 195.012 18.1833 195.071 18.1833L196.699 18.2126C197.669 18.2522 198.415 18.2721 198.94 18.2721C199.716 18.2721 200.589 18.2522 201.558 18.2126L202.983 18.1833C203.042 18.1833 203.071 18.2419 203.071 18.3599C203.071 18.4779 203.042 18.5364 202.983 18.5364C202.266 18.5364 201.741 18.5902 201.412 18.6979C201.083 18.8065 200.86 18.9981 200.743 19.2729C200.627 19.5476 200.569 19.9791 200.569 20.5682V32.7306L212.205 17.9775C212.263 17.918 212.409 17.8887 212.642 17.8887C212.778 17.8887 212.903 17.9086 213.02 17.9473C213.136 17.9869 213.194 18.036 213.194 18.0946V34.2025C213.194 34.7917 213.253 35.2288 213.369 35.513C213.485 35.7981 213.699 35.9898 214.009 36.088C214.32 36.1852 214.804 36.2352 215.463 36.2352ZM237.253 36.2352C237.349 36.2352 237.399 36.2938 237.399 36.4109C237.399 36.5298 237.349 36.5884 237.253 36.5884C236.865 36.5884 236.264 36.5685 235.449 36.5298C234.596 36.4902 233.985 36.4703 233.617 36.4703C233.132 36.4703 232.54 36.4902 231.842 36.5298C231.182 36.5685 230.659 36.5884 230.271 36.5884C230.194 36.5884 230.154 36.5298 230.154 36.4109C230.154 36.2938 230.194 36.2352 230.271 36.2352C230.775 36.2352 231.139 36.1805 231.362 36.0729C231.585 35.9652 231.696 35.7736 231.696 35.4988C231.696 35.1646 231.502 34.6057 231.115 33.8201L225.355 22.3054L220.845 32.4068C220.593 32.9761 220.467 33.5057 220.467 33.9967C220.467 34.7039 220.714 35.2533 221.209 35.6452C221.704 36.0389 222.367 36.2352 223.202 36.2352C223.299 36.2352 223.348 36.2938 223.348 36.4109C223.348 36.5298 223.299 36.5884 223.202 36.5884C222.852 36.5884 222.349 36.5685 221.689 36.5298C220.952 36.4902 220.312 36.4703 219.769 36.4703C219.245 36.4703 218.615 36.4902 217.878 36.5298C217.219 36.5685 216.685 36.5884 216.278 36.5884C216.2 36.5884 216.162 36.5298 216.162 36.4109C216.162 36.2938 216.2 36.2352 216.278 36.2352C216.821 36.2352 217.277 36.122 217.646 35.8963C218.013 35.6707 218.383 35.2684 218.751 34.6887C219.12 34.109 219.556 33.2508 220.06 32.1122L226.372 18.0653C226.411 18.0068 226.499 17.9775 226.634 17.9775C226.79 17.9775 226.877 18.0068 226.896 18.0653L234.17 32.5541C234.848 33.9476 235.411 34.9097 235.857 35.4393C236.303 35.9699 236.768 36.2352 237.253 36.2352ZM247.522 36.9415C245.718 36.9415 244.113 36.5147 242.708 35.6603C241.301 34.8068 240.215 33.6483 239.45 32.1858C238.683 30.7234 238.3 29.1278 238.3 27.4C238.3 25.3777 238.804 23.6452 239.813 22.2025C240.822 20.7599 242.116 19.6751 243.696 18.949C245.277 18.222 246.892 17.8595 248.54 17.8595C250.383 17.8595 252.002 18.2966 253.398 19.1699C254.796 20.0433 255.866 21.197 256.613 22.6302C257.359 24.0625 257.734 25.5844 257.734 27.1942C257.734 28.9805 257.268 30.6205 256.337 32.1122C255.405 33.6039 254.159 34.7822 252.599 35.6452C251.038 36.51 249.346 36.9415 247.522 36.9415ZM248.482 36.205C249.568 36.205 250.542 35.8859 251.406 35.2486C252.269 34.6104 252.943 33.6776 253.428 32.4511C253.913 31.2238 254.155 29.7556 254.155 28.0486C254.155 26.2425 253.883 24.6271 253.34 23.2042C252.798 21.7805 252.012 20.6664 250.984 19.862C249.957 19.0566 248.753 18.6544 247.377 18.6544C245.612 18.6544 244.254 19.3267 243.305 20.6711C242.353 22.0165 241.878 23.8963 241.878 26.3105C241.878 28.2148 242.165 29.918 242.737 31.4201C243.309 32.9213 244.095 34.0949 245.094 34.9389C246.092 35.783 247.222 36.205 248.482 36.205ZM269.632 26.2519C271.261 26.4483 272.555 26.9978 273.516 27.9013C274.476 28.8039 274.955 29.9227 274.955 31.2577C274.955 32.2784 274.664 33.2017 274.083 34.026C273.501 34.8502 272.696 35.5035 271.668 35.9841C270.64 36.4656 269.496 36.7054 268.236 36.7054C267.692 36.7054 267.072 36.6762 266.373 36.6176C266.102 36.5978 265.767 36.5789 265.37 36.5591C264.972 36.5393 264.531 36.5298 264.046 36.5298L261.922 36.5591C261.535 36.5789 261.011 36.5884 260.352 36.5884C260.294 36.5884 260.264 36.5298 260.264 36.4109C260.264 36.2938 260.294 36.2352 260.352 36.2352C260.914 36.2352 261.341 36.1805 261.631 36.0729C261.922 35.9652 262.131 35.7688 262.257 35.4837C262.383 35.1995 262.446 34.7728 262.446 34.2025V20.5682C262.446 19.744 262.31 19.1992 262.039 18.9339C261.767 18.6686 261.214 18.5364 260.381 18.5364C260.342 18.5364 260.323 18.4779 260.323 18.3599C260.323 18.2419 260.342 18.1833 260.381 18.1833L261.922 18.2126C262.815 18.2522 263.522 18.2721 264.046 18.2721C264.59 18.2721 265.151 18.2419 265.733 18.1833C265.927 18.1635 266.218 18.1437 266.606 18.1238C266.994 18.105 267.333 18.0946 267.624 18.0946C269.39 18.0946 270.757 18.4184 271.726 19.067C272.696 19.7138 273.181 20.657 273.181 21.8938C273.181 22.836 272.875 23.6905 272.265 24.4562C271.653 25.2219 270.776 25.8195 269.632 26.2519ZM267.188 18.7422C266.626 18.7422 266.238 18.8754 266.024 19.1397C265.811 19.405 265.704 19.9007 265.704 20.6277V26.2227L266.868 26.2519C267.877 26.2519 268.652 25.8686 269.196 25.1029C269.738 24.3372 270.01 23.3563 270.01 22.1591C270.01 21.0393 269.767 20.1906 269.282 19.6118C268.797 19.0321 268.1 18.7422 267.188 18.7422ZM267.74 35.9699C270.281 35.9699 271.552 34.6349 271.552 31.9649C271.552 30.4533 271.193 29.2552 270.475 28.3725C269.758 27.4887 268.671 27.0469 267.217 27.0469C266.655 27.0469 266.15 27.0667 265.704 27.1054V34.2025C265.704 34.8502 265.83 35.3072 266.082 35.5725C266.335 35.8368 266.888 35.9699 267.74 35.9699ZM288.716 17.8595C289.57 17.8595 290.461 17.9322 291.392 18.0804C292.323 18.2268 293.05 18.4184 293.574 18.6544C293.748 18.713 293.86 18.7866 293.908 18.8754C293.957 18.9632 294.001 19.1161 294.039 19.3314L294.389 23.4252C294.389 23.4837 294.34 23.5234 294.242 23.5422C294.146 23.5621 294.088 23.5328 294.069 23.4544C293.409 21.9032 292.526 20.7061 291.421 19.862C290.316 19.017 289.036 18.5959 287.581 18.5959C285.661 18.5959 284.178 19.3116 283.13 20.7448C282.083 22.178 281.559 24.1021 281.559 26.5172C281.559 28.3234 281.845 29.9718 282.418 31.4645C282.989 32.9563 283.794 34.1393 284.832 35.0126C285.869 35.8859 287.047 36.3231 288.366 36.3231C289.608 36.3231 290.718 35.9057 291.698 35.0711C292.676 34.2374 293.554 32.9666 294.33 31.2577C294.35 31.1794 294.413 31.1501 294.519 31.1699C294.627 31.1898 294.68 31.2285 294.68 31.287L294.242 35.293C294.204 35.5281 294.16 35.6801 294.113 35.749C294.063 35.8179 293.952 35.8906 293.778 35.9699C292.051 36.6176 290.277 36.9415 288.454 36.9415C286.088 36.9415 284.109 36.4656 282.519 35.513C280.929 34.5613 279.76 33.3537 279.014 31.8913C278.267 30.4288 277.894 28.9021 277.894 27.3122C277.894 25.4475 278.393 23.7981 279.392 22.3649C280.391 20.9317 281.719 19.8223 283.377 19.0368C285.036 18.2522 286.815 17.8595 288.716 17.8595ZM315.596 36.2352C315.654 36.2352 315.683 36.2938 315.683 36.4109C315.683 36.5298 315.654 36.5884 315.596 36.5884H311.116C310.864 36.5884 310.636 36.51 310.432 36.3523C310.229 36.1956 309.874 35.7887 309.371 35.1306C308.866 34.4725 308.042 33.3094 306.897 31.6411L306.112 30.5213C305.434 29.5205 304.929 28.819 304.599 28.4159C304.27 28.0137 303.926 27.7295 303.567 27.5624C303.208 27.3953 302.737 27.3122 302.155 27.3122V34.2025C302.155 34.7917 302.21 35.2288 302.316 35.513C302.422 35.7981 302.631 35.9898 302.942 36.088C303.252 36.1852 303.736 36.2352 304.396 36.2352C304.454 36.2352 304.483 36.2938 304.483 36.4109C304.483 36.5298 304.454 36.5884 304.396 36.5884C303.718 36.5884 303.174 36.5789 302.767 36.5591L300.352 36.5298L298.229 36.5591C297.841 36.5789 297.317 36.5884 296.658 36.5884C296.599 36.5884 296.57 36.5298 296.57 36.4109C296.57 36.2938 296.599 36.2352 296.658 36.2352C297.317 36.2352 297.802 36.1852 298.112 36.088C298.423 35.9898 298.635 35.7981 298.752 35.513C298.869 35.2288 298.927 34.7917 298.927 34.2025V20.5682C298.927 19.9791 298.869 19.5476 298.752 19.2729C298.635 18.9981 298.427 18.8065 298.127 18.6979C297.826 18.5902 297.346 18.5364 296.687 18.5364C296.628 18.5364 296.599 18.4779 296.599 18.3599C296.599 18.2419 296.628 18.1833 296.687 18.1833L298.229 18.2126C299.12 18.2522 299.828 18.2721 300.352 18.2721C301.012 18.2721 301.826 18.2522 302.796 18.2126L304.396 18.1833C304.454 18.1833 304.483 18.2419 304.483 18.3599C304.483 18.4779 304.454 18.5364 304.396 18.5364C303.756 18.5364 303.281 18.5959 302.971 18.713C302.66 18.831 302.446 19.0321 302.33 19.3172C302.214 19.6014 302.155 20.0386 302.155 20.6277V26.8118C302.68 26.792 303.339 26.7825 304.134 26.7825L307.188 22.5415C307.984 21.4227 308.381 20.4899 308.381 19.744C308.381 19.371 308.275 19.0765 308.061 18.8603C307.849 18.6441 307.558 18.5364 307.188 18.5364C307.15 18.5364 307.13 18.4779 307.13 18.3599C307.13 18.2419 307.15 18.1833 307.188 18.1833L308.527 18.2126C309.38 18.2522 310.137 18.2721 310.796 18.2721C311.552 18.2721 312.338 18.2522 313.153 18.2126L314.404 18.1833C314.462 18.1833 314.49 18.2419 314.49 18.3599C314.49 18.4779 314.462 18.5364 314.404 18.5364C313.55 18.5364 312.59 18.8508 311.523 19.4787C310.456 20.1075 309.555 20.8921 308.818 21.8343L304.861 26.8118C305.618 26.8505 306.238 26.9931 306.723 27.2386C307.208 27.484 307.688 27.8711 308.163 28.4017C308.639 28.9314 309.312 29.8151 310.185 31.0519L310.708 31.7884C311.523 32.927 312.159 33.7805 312.615 34.3498C313.07 34.9191 313.54 35.3704 314.025 35.7046C314.51 36.0389 315.033 36.2145 315.596 36.2352ZM336.658 36.2352C336.717 36.2352 336.746 36.2938 336.746 36.4109C336.746 36.5298 336.717 36.5884 336.658 36.5884C335.98 36.5884 335.436 36.5789 335.029 36.5591L332.789 36.5298L330.171 36.5591C329.821 36.5789 329.347 36.5884 328.745 36.5884C328.687 36.5884 328.658 36.5298 328.658 36.4109C328.658 36.2938 328.687 36.2352 328.745 36.2352C329.463 36.2352 329.986 36.1852 330.317 36.088C330.646 35.9898 330.869 35.8028 330.985 35.5281C331.102 35.2533 331.16 34.8115 331.16 34.2025V22.1591L319.523 36.9122C319.465 36.9707 319.32 37 319.087 37C318.718 37 318.535 36.932 318.535 36.7942V20.5682C318.535 19.9791 318.476 19.5476 318.359 19.2729C318.244 18.9981 318.03 18.8065 317.72 18.6979C317.409 18.5902 316.925 18.5364 316.265 18.5364C316.208 18.5364 316.178 18.4779 316.178 18.3599C316.178 18.2419 316.208 18.1833 316.265 18.1833L317.894 18.2126C318.864 18.2522 319.611 18.2721 320.134 18.2721C320.91 18.2721 321.783 18.2522 322.752 18.2126L324.177 18.1833C324.236 18.1833 324.265 18.2419 324.265 18.3599C324.265 18.4779 324.236 18.5364 324.177 18.5364C323.46 18.5364 322.937 18.5902 322.607 18.6979C322.278 18.8065 322.055 18.9981 321.938 19.2729C321.821 19.5476 321.764 19.9791 321.764 20.5682V32.7306L333.4 17.9775C333.458 17.918 333.603 17.8887 333.837 17.8887C333.973 17.8887 334.098 17.9086 334.214 17.9473C334.331 17.9869 334.389 18.036 334.389 18.0946V34.2025C334.389 34.7917 334.447 35.2288 334.564 35.513C334.68 35.7981 334.893 35.9898 335.204 36.088C335.515 36.1852 335.999 36.2352 336.658 36.2352ZM349.255 16.9172C348.518 16.9172 347.82 16.7898 347.16 16.5339C346.501 16.279 345.967 15.94 345.56 15.518C345.153 15.096 344.95 14.6494 344.95 14.1783C344.95 13.8252 345.061 13.54 345.284 13.3238C345.507 13.1086 345.822 13 346.229 13C346.675 13 346.986 13.1331 347.16 13.3975C347.335 13.6628 347.5 14.0801 347.655 14.6494C347.829 15.2584 348.018 15.705 348.223 15.9891C348.426 16.2743 348.761 16.4159 349.226 16.4159C349.711 16.4159 350.065 16.2639 350.288 15.9599C350.511 15.6559 350.719 15.2093 350.913 14.6201C351.088 14.0697 351.267 13.6628 351.452 13.3975C351.635 13.1331 351.931 13 352.339 13C352.746 13 353.056 13.1086 353.269 13.3238C353.482 13.54 353.589 13.8252 353.589 14.1783C353.589 14.6692 353.386 15.1253 352.978 15.5473C352.571 15.9703 352.038 16.3035 351.378 16.549C350.719 16.7945 350.012 16.9172 349.255 16.9172ZM358.913 36.2352C358.971 36.2352 359 36.2938 359 36.4109C359 36.5298 358.971 36.5884 358.913 36.5884C358.234 36.5884 357.691 36.5789 357.284 36.5591L355.044 36.5298L352.425 36.5591C352.077 36.5789 351.602 36.5884 351 36.5884C350.942 36.5884 350.913 36.5298 350.913 36.4109C350.913 36.2938 350.942 36.2352 351 36.2352C351.718 36.2352 352.242 36.1852 352.571 36.088C352.901 35.9898 353.124 35.8028 353.241 35.5281C353.357 35.2533 353.415 34.8115 353.415 34.2025V22.1591L341.779 36.9122C341.72 36.9707 341.575 37 341.342 37C340.974 37 340.789 36.932 340.789 36.7942V20.5682C340.789 19.9791 340.731 19.5476 340.615 19.2729C340.498 18.9981 340.285 18.8065 339.975 18.6979C339.664 18.5902 339.179 18.5364 338.52 18.5364C338.462 18.5364 338.433 18.4779 338.433 18.3599C338.433 18.2419 338.462 18.1833 338.52 18.1833L340.149 18.2126C341.119 18.2522 341.866 18.2721 342.389 18.2721C343.165 18.2721 344.038 18.2522 345.008 18.2126L346.433 18.1833C346.492 18.1833 346.52 18.2419 346.52 18.3599C346.52 18.4779 346.492 18.5364 346.433 18.5364C345.715 18.5364 345.192 18.5902 344.862 18.6979C344.532 18.8065 344.309 18.9981 344.193 19.2729C344.077 19.5476 344.018 19.9791 344.018 20.5682V32.7306L355.655 17.9775C355.713 17.918 355.859 17.8887 356.092 17.8887C356.227 17.8887 356.353 17.9086 356.47 17.9473C356.586 17.9869 356.644 18.036 356.644 18.0946V34.2025C356.644 34.7917 356.702 35.2288 356.818 35.513C356.935 35.7981 357.149 35.9898 357.458 36.088C357.769 36.1852 358.254 36.2352 358.913 36.2352Z" fill="#FEFEFE" stroke="white" stroke-width="6" mask="url(#path-1-inside-1_70:146)"/>
<path d="M357.632 45H109.368C108.612 45 108 45.6716 108 46.5C108 47.3284 108.612 48 109.368 48H357.632C358.388 48 359 47.3284 359 46.5C359 45.6716 358.388 45 357.632 45Z" fill="#CCCCCC"/>
<path d="M114.133 65.5822C114.233 64.5522 114.508 63.6622 114.958 62.9122C115.418 62.1522 116.003 61.5722 116.713 61.1722C117.433 60.7722 118.233 60.5722 119.113 60.5722C120.713 60.5722 121.918 61.0522 122.728 62.0122C123.538 62.9722 123.943 64.3072 123.943 66.0172C123.943 67.2272 123.733 68.2872 123.313 69.1972C122.893 70.0972 122.308 70.7922 121.558 71.2822C120.808 71.7622 119.953 72.0022 118.993 72.0022C117.413 72.0022 116.213 71.5372 115.393 70.6072C114.573 69.6672 114.143 68.3722 114.103 66.7222H111.928V70.7872L113.188 70.9522V71.8522H108.568V70.9522L109.738 70.7872V61.8322L108.598 61.6372V60.7072H113.143V61.6372L111.928 61.8322V65.5822H114.133ZM119.068 61.5022C118.268 61.5022 117.638 61.9072 117.178 62.7172C116.728 63.5172 116.503 64.7222 116.503 66.3322C116.503 67.8622 116.723 69.0322 117.163 69.8422C117.603 70.6522 118.238 71.0572 119.068 71.0572C119.858 71.0572 120.463 70.6422 120.883 69.8122C121.313 68.9722 121.528 67.7422 121.528 66.1222C121.528 64.6022 121.318 63.4522 120.898 62.6722C120.478 61.8922 119.868 61.5022 119.068 61.5022ZM129.763 61.8322L128.638 61.6372V60.7072H130.903C131.113 60.7072 131.438 60.6972 131.878 60.6772C132.458 60.6372 132.983 60.6172 133.453 60.6172C134.493 60.6172 135.313 60.7472 135.913 61.0072C136.523 61.2572 136.953 61.6222 137.203 62.1022C137.463 62.5722 137.593 63.1722 137.593 63.9022C137.593 65.1622 137.198 66.1422 136.408 66.8422C135.628 67.5422 134.543 67.8922 133.153 67.8922C132.603 67.8922 132.208 67.8772 131.968 67.8472V70.8022L133.978 70.9522V71.8522H128.578V70.9522L129.763 70.8022V61.8322ZM131.953 66.8872C132.183 66.9372 132.573 66.9622 133.123 66.9622C133.793 66.9622 134.328 66.7322 134.728 66.2722C135.138 65.8022 135.343 65.0272 135.343 63.9472C135.343 63.1072 135.158 62.4972 134.788 62.1172C134.428 61.7272 133.873 61.5322 133.123 61.5322C132.843 61.5322 132.553 61.5522 132.253 61.5922C132.113 61.6122 132.013 61.6222 131.953 61.6222V66.8872ZM146.794 60.7072V61.6372L145.414 61.8322V68.8222L146.419 67.1422L150.244 62.1922V61.8322L148.984 61.6372V60.7072H153.574V61.6372L152.419 61.8322V70.8022L153.619 70.9522V71.8522H148.984V70.9522L150.244 70.8022V63.7222L149.344 65.3422L145.414 70.3372V70.8022L146.749 70.9522V71.8522H142.069V70.9522L143.254 70.8022V61.8322L142.099 61.6372V60.7072H146.794ZM168.542 70.7872C168.542 71.0872 168.497 71.8072 168.407 72.9472C168.317 74.0972 168.262 74.7172 168.242 74.8072H167.027C167.017 74.5472 166.957 74.0122 166.847 73.2022C166.737 72.3922 166.652 71.9422 166.592 71.8522H159.992C159.922 71.9422 159.797 72.3622 159.617 73.1122C159.447 73.8622 159.332 74.4322 159.272 74.8222H158.027L158.042 74.1472C158.092 72.4672 158.137 71.3472 158.177 70.7872H159.257C159.497 70.4572 159.757 69.9522 160.037 69.2722C160.317 68.5922 160.562 67.6822 160.772 66.5422C160.982 65.4022 161.087 64.0722 161.087 62.5522V61.8322L159.527 61.6372V60.7072H168.572V61.6372L167.132 61.8322V70.7872H168.542ZM162.182 62.6422C162.192 64.0122 162.117 65.2572 161.957 66.3772C161.797 67.4872 161.607 68.4072 161.387 69.1372C161.167 69.8672 160.957 70.4172 160.757 70.7872H164.957L164.972 61.7272H162.182V62.6422ZM178.039 60.7072V61.6372L176.659 61.8322V68.8222L177.664 67.1422L181.489 62.1922V61.8322L180.229 61.6372V60.7072H184.819V61.6372L183.664 61.8322V70.8022L184.864 70.9522V71.8522H180.229V70.9522L181.489 70.8022V63.7222L180.589 65.3422L176.659 70.3372V70.8022L177.994 70.9522V71.8522H173.314V70.9522L174.499 70.8022V61.8322L173.344 61.6372V60.7072H178.039ZM195.888 67.1122C195.548 67.3122 195.118 67.4672 194.598 67.5772C194.088 67.6872 193.598 67.7422 193.128 67.7422C192.398 67.7422 191.808 67.6422 191.358 67.4422C190.908 67.2322 190.568 66.8822 190.338 66.3922C190.118 65.8922 190.008 65.2122 190.008 64.3522V61.8472L189.138 61.6522V60.7072H193.323V61.6522L192.198 61.8322V63.8422C192.198 64.6522 192.248 65.2422 192.348 65.6122C192.448 65.9822 192.618 66.2272 192.858 66.3472C193.098 66.4572 193.478 66.5122 193.998 66.5122C194.348 66.5122 194.703 66.4672 195.063 66.3772C195.433 66.2872 195.708 66.1772 195.888 66.0472V61.8322L194.658 61.6372V60.7072H199.293V61.6372L198.078 61.8322V70.8022L199.308 70.9672V71.8522H194.298V70.9522L195.888 70.8022V67.1122ZM205.187 61.8322L203.987 61.6372V60.7072H211.982L212.177 63.2272H211.127L210.632 61.7422L207.392 61.6072V65.6422L209.477 65.5972L209.717 64.3672H210.677V67.9972H209.717L209.477 66.7072L207.392 66.6622V70.8922L211.022 70.7122L211.892 68.7922L213.017 69.1072L212.627 71.8522H204.002V70.9522L205.187 70.8022V61.8322ZM222.491 72.0172C220.791 72.0172 219.491 71.5122 218.591 70.5022C217.691 69.4822 217.241 68.0922 217.241 66.3322C217.241 65.1722 217.476 64.1622 217.946 63.3022C218.426 62.4322 219.081 61.7622 219.911 61.2922C220.741 60.8222 221.681 60.5872 222.731 60.5872C223.171 60.5872 223.596 60.6172 224.006 60.6772C224.416 60.7272 224.901 60.7972 225.461 60.8872C225.881 60.9572 226.111 60.9922 226.151 60.9922L225.986 64.0822H224.606L224.141 61.9372C224.031 61.8272 223.841 61.7372 223.571 61.6672C223.301 61.5972 222.956 61.5622 222.536 61.5622C221.686 61.5622 221.001 61.9572 220.481 62.7472C219.971 63.5272 219.716 64.6622 219.716 66.1522C219.716 67.5922 219.961 68.7672 220.451 69.6772C220.941 70.5872 221.656 71.0422 222.596 71.0422C223.046 71.0422 223.391 71.0022 223.631 70.9222C223.881 70.8322 224.091 70.7072 224.261 70.5472L224.921 69.0022L226.181 69.1222L225.881 71.4472C225.671 71.4672 225.461 71.5072 225.251 71.5672C225.051 71.6172 224.926 71.6472 224.876 71.6572C224.476 71.7672 224.101 71.8522 223.751 71.9122C223.411 71.9822 222.991 72.0172 222.491 72.0172ZM236.583 65.8972C236.943 65.9872 237.283 66.2022 237.603 66.5422C237.933 66.8722 238.218 67.2372 238.458 67.6372C238.708 68.0272 239.008 68.5422 239.358 69.1822C239.628 69.6922 239.843 70.0772 240.003 70.3372C240.173 70.5972 240.328 70.7472 240.468 70.7872L241.023 70.9522V71.8522H238.653C238.403 71.8522 238.158 71.6622 237.918 71.2822C237.688 70.9022 237.383 70.3072 237.003 69.4972C236.583 68.5872 236.213 67.8922 235.893 67.4122C235.583 66.9322 235.253 66.6922 234.903 66.6922H234.198V70.7872L235.533 70.9672V71.8522H230.868V70.9522L232.023 70.7872V61.8322L230.868 61.6372V60.7072H235.338V61.6372L234.198 61.8322V65.8522H235.293L237.978 61.8322L236.853 61.6372V60.7072H240.813V61.6372L239.568 61.8322L236.583 65.8972ZM249.948 60.7072V61.6372L248.568 61.8322V68.8222L249.573 67.1422L253.398 62.1922V61.8322L252.138 61.6372V60.7072H256.728V61.6372L255.573 61.8322V70.8022L256.773 70.9522V71.8522H252.138V70.9522L253.398 70.8022V63.7222L252.498 65.3422L248.568 70.3372V70.8022L249.903 70.9522V71.8522H245.223V70.9522L246.408 70.8022V61.8322L245.253 61.6372V60.7072H249.948ZM262.697 61.8322L261.497 61.6372V60.7072H269.492L269.687 63.2272H268.637L268.142 61.7422L264.902 61.6072V65.6422L266.987 65.5972L267.227 64.3672H268.187V67.9972H267.227L266.987 66.7072L264.902 66.6622V70.8922L268.532 70.7122L269.402 68.7922L270.527 69.1072L270.137 71.8522H261.512V70.9522L262.697 70.8022V61.8322ZM284.025 69.4972C283.775 70.0572 283.56 70.4922 283.38 70.8022C283.2 71.1122 282.93 71.3922 282.57 71.6422C282.22 71.8922 281.78 72.0172 281.25 72.0172C280.97 72.0172 280.67 71.9922 280.35 71.9422C280.03 71.8922 279.785 71.8322 279.615 71.7622V70.5322L280.695 70.5472C281.175 70.5472 281.515 70.4722 281.715 70.3222C281.915 70.1722 282.07 69.8972 282.18 69.4972L278.61 61.8322L277.8 61.6372V60.7072H282.375V61.6372L281.01 61.8322L283.08 66.6472L283.5 67.9072L283.935 66.6322L285.615 61.8322L284.46 61.6372V60.7072H287.79V61.6372L287.01 61.8322L284.025 69.4972ZM296.788 72.0172C295.088 72.0172 293.788 71.5122 292.888 70.5022C291.988 69.4822 291.538 68.0922 291.538 66.3322C291.538 65.1722 291.773 64.1622 292.243 63.3022C292.723 62.4322 293.378 61.7622 294.208 61.2922C295.038 60.8222 295.978 60.5872 297.028 60.5872C297.468 60.5872 297.893 60.6172 298.303 60.6772C298.713 60.7272 299.198 60.7972 299.758 60.8872C300.178 60.9572 300.408 60.9922 300.448 60.9922L300.283 64.0822H298.903L298.438 61.9372C298.328 61.8272 298.138 61.7372 297.868 61.6672C297.598 61.5972 297.253 61.5622 296.833 61.5622C295.983 61.5622 295.298 61.9572 294.778 62.7472C294.268 63.5272 294.013 64.6622 294.013 66.1522C294.013 67.5922 294.258 68.7672 294.748 69.6772C295.238 70.5872 295.953 71.0422 296.893 71.0422C297.343 71.0422 297.688 71.0022 297.928 70.9222C298.178 70.8322 298.388 70.7072 298.558 70.5472L299.218 69.0022L300.478 69.1222L300.178 71.4472C299.968 71.4672 299.758 71.5072 299.548 71.5672C299.348 71.6172 299.223 71.6472 299.173 71.6572C298.773 71.7672 298.398 71.8522 298.048 71.9122C297.708 71.9822 297.288 72.0172 296.788 72.0172ZM309.05 63.0172C309.05 64.7572 308.955 66.3222 308.765 67.7122C308.585 69.0922 308.305 70.1322 307.925 70.8322C307.525 71.5722 306.95 71.9422 306.2 71.9422C305.69 71.9422 305.305 71.9122 305.045 71.8522L304.91 70.5022C305.31 70.5422 305.69 70.5622 306.05 70.5622C306.25 70.5622 306.42 70.5172 306.56 70.4272C306.71 70.3372 306.84 70.1772 306.95 69.9472C307.27 69.3872 307.515 68.5322 307.685 67.3822C307.865 66.2322 307.955 64.6822 307.955 62.7322V61.8322L306.155 61.6372V60.7072H315.44V61.6372L314.06 61.8322V70.8022L315.515 70.9522V71.8522H310.34V70.9522L311.885 70.7872L311.9 61.8322H309.05V63.0172ZM325.553 69.4972C325.303 70.0572 325.088 70.4922 324.908 70.8022C324.728 71.1122 324.458 71.3922 324.098 71.6422C323.748 71.8922 323.308 72.0172 322.778 72.0172C322.498 72.0172 322.198 71.9922 321.878 71.9422C321.558 71.8922 321.313 71.8322 321.143 71.7622V70.5322L322.223 70.5472C322.703 70.5472 323.043 70.4722 323.243 70.3222C323.443 70.1722 323.598 69.8972 323.708 69.4972L320.138 61.8322L319.328 61.6372V60.7072H323.903V61.6372L322.538 61.8322L324.608 66.6472L325.028 67.9072L325.463 66.6322L327.143 61.8322L325.988 61.6372V60.7072H329.318V61.6372L328.538 61.8322L325.553 69.4972ZM341.256 60.7072L341.436 64.9222H340.146L339.636 61.8172L336.876 61.6672V70.7872L339.336 70.9672V71.8522H333.036V70.9672L334.671 70.7872V61.8472L333.066 61.6222V60.7072H341.256ZM350.437 60.7072V61.6372L349.057 61.8322V68.8222L350.062 67.1422L353.887 62.1922V61.8322L352.627 61.6372V60.7072H357.217V61.6372L356.062 61.8322V70.8022L357.262 70.9522V71.8522H352.627V70.9522L353.887 70.8022V63.7222L352.987 65.3422L349.057 70.3372V70.8022L350.392 70.9522V71.8522H345.712V70.9522L346.897 70.8022V61.8322L345.742 61.6372V60.7072H350.437Z" fill="url(#paint0_linear_70:146)"/>
<g filter="url(#filter0_d_70:146)">
<path fill-rule="evenodd" clip-rule="evenodd" d="M46.5 92L45.885 91.8464C15.2888 80.1736 -1.16241 43.9265 5.44883 14.1302C6.06383 11.3656 6.52508 10.9048 11.4451 9.52254C16.2113 8.14023 25.59 5.6828 32.0475 3.83973C38.6588 2.15025 42.3488 0.921536 44.9625 0.307179C45.5775 0.153589 46.0387 0 46.5 0C46.9612 0 47.4225 0.153589 48.0375 0.307179C50.6512 0.921536 54.3412 2.15025 60.9525 3.83973C67.41 5.6828 76.7887 8.14023 81.5549 9.52254C86.4749 10.9048 86.9362 11.3656 87.5512 14.1302C94.1624 43.9265 77.7112 80.1736 47.115 91.8464L46.5 92ZM18.0563 19.9666C17.5951 23.192 17.2876 26.5709 17.2876 29.9499C17.2876 33.1753 17.5951 36.2471 18.0563 39.3189C17.1338 40.8548 16.0576 42.8514 15.1351 44.5409C14.0588 39.7796 13.5976 34.8648 13.5976 29.7963C13.5976 25.3422 13.9051 21.0417 14.6738 16.8948C17.9026 16.2805 25.59 13.9766 30.51 13.0551C31.125 12.9015 31.8938 12.7479 32.8163 12.4407C35.7375 11.8264 40.6575 10.7513 43.2713 10.1369C44.9625 9.67613 45.5775 9.52254 46.6537 9.52254C47.5762 9.52254 48.345 9.67613 49.8825 10.1369C52.4962 10.7513 57.57 11.8264 60.4912 12.4407C61.4137 12.7479 62.1825 12.9015 62.6437 13.0551C67.5637 13.9766 75.4049 16.2805 78.4799 16.8948C79.2487 21.0417 79.7099 25.3422 79.7099 29.7963C79.7099 35.3255 79.0949 40.7012 77.8649 45.7696C76.9424 44.2337 76.0199 42.3906 74.9437 40.5476C75.5587 37.1686 75.8662 33.6361 75.8662 29.9499C75.8662 26.5709 75.5587 23.192 75.0974 19.9666L74.7899 19.813C72.4837 19.1987 69.255 18.2771 66.795 17.8164C65.4112 17.3556 64.335 17.202 63.5662 16.8948C62.9512 16.7412 62.3362 16.7412 61.7212 16.4341C58.0312 15.6661 52.4962 14.2838 49.575 13.5159C48.1912 13.2087 47.4225 13.0551 46.6537 13.0551C45.885 13.0551 45.1162 13.2087 43.5788 13.5159C40.8113 14.2838 35.2763 15.6661 31.4325 16.4341C30.8175 16.7412 30.2025 16.7412 29.5875 16.8948C28.8188 17.202 27.7425 17.3556 26.3588 17.8164C24.0525 18.2771 20.67 19.1987 18.5176 19.813L18.0563 19.9666ZM26.205 29.4891C26.6663 29.6427 27.1275 29.9499 27.5888 30.1035C28.2038 30.2571 28.9725 30.1035 30.2025 29.7963C31.5863 29.3356 33.7388 28.5676 35.5838 28.1068C37.5825 27.6461 39.12 27.4925 40.6575 27.4925C42.195 27.6461 43.5788 27.9533 44.3475 28.2604C44.5013 28.2604 44.655 28.414 44.8088 28.414V27.0317C44.3475 26.4174 44.1938 25.6494 44.1938 24.7279C44.1938 23.9599 44.5013 22.8848 44.9625 21.8097C45.27 20.8881 45.7313 19.813 46.0387 19.5058C46.1925 19.3523 46.1925 19.1987 46.3462 19.1987C46.3462 19.1987 46.5 19.3523 46.5 19.5058C46.8075 19.813 47.2687 20.8881 47.73 21.8097C48.0375 22.8848 48.345 23.9599 48.4987 24.7279C48.4987 25.6494 48.345 26.4174 47.8837 27.0317H48.0375V28.2604C48.0375 28.2604 48.0375 28.2604 48.1912 28.2604C48.8062 27.9533 50.19 27.6461 51.7275 27.4925C53.265 27.4925 54.9562 27.6461 56.8012 28.1068C58.6462 28.5676 60.7987 29.3356 62.1825 29.7963C63.5662 30.1035 64.1812 30.2571 64.7962 30.1035C65.4112 29.9499 65.8725 29.6427 66.3337 29.4891C66.18 29.182 66.18 29.0284 66.18 28.7212C66.18 27.4925 67.1025 26.5709 68.1787 26.5709C69.255 26.5709 70.1775 27.4925 70.1775 28.7212C70.1775 29.4891 69.7162 30.2571 68.9475 30.5643L77.0962 49.3022H78.4799C76.4812 52.6811 72.6374 54.8314 68.3325 54.8314C64.0275 54.8314 60.1837 52.6811 58.185 49.3022H59.5687L67.5637 30.7179C67.5637 30.5643 67.41 30.5643 67.41 30.5643L67.2562 30.7179C66.6412 31.1786 65.8725 31.9466 64.7962 32.1002C63.72 32.2538 62.6437 31.793 60.7987 31.3322C58.8 30.8715 56.1862 30.2571 54.3412 30.1035C52.3425 29.9499 50.9587 30.4107 50.0362 30.7179C49.1137 31.1786 48.6525 31.6394 48.1912 32.1002L48.0375 32.2538V35.0184H52.8037V36.2471H40.35V35.0184H44.8088V32.5609C44.655 32.5609 44.5013 32.2538 44.1938 32.1002C43.8863 31.6394 43.2713 31.1786 42.3488 30.7179C41.4263 30.4107 40.1963 29.9499 38.1975 30.1035C36.1988 30.2571 33.585 30.8715 31.74 31.3322C29.895 31.793 28.665 32.2538 27.5888 32.1002C26.6663 31.9466 25.7438 31.1786 25.1288 30.7179C25.1288 30.7179 25.1288 30.5643 24.975 30.5643C24.975 30.5643 24.975 30.5643 24.8213 30.7179L32.8163 49.3022H34.2C32.2013 52.6811 28.5113 54.8314 24.0525 54.8314C19.7476 54.8314 16.0576 52.6811 14.0588 49.3022H15.4426L23.4375 30.5643C22.6688 30.2571 22.2075 29.4891 22.2075 28.7212C22.2075 27.4925 23.13 26.5709 24.2063 26.5709C25.4363 26.5709 26.3588 27.4925 26.3588 28.7212C26.3588 29.0284 26.205 29.182 26.205 29.4891ZM68.3325 30.7179L76.0199 49.3022H60.645L68.3325 30.7179ZM48.0375 63.8932V64.6611H52.8037V65.8898H40.35V64.6611H44.8088V63.8932H40.35V62.6644H44.8088H48.0375H52.8037V63.8932H48.0375ZM52.3425 60.207H47.8837V58.9783C48.0375 58.9783 48.1912 58.8247 48.4987 58.5175C48.6525 58.0568 48.8062 57.596 48.8062 57.2888V45.616H48.4987L46.9612 60.207H45.4238L43.7325 45.616H43.5788L43.425 57.1352C43.425 58.2103 43.7325 58.8247 44.3475 58.9783V60.207H40.6575V58.9783C41.1188 58.6711 41.4263 58.0568 41.4263 57.1352V42.0835C41.4263 40.5476 41.1188 39.7796 40.5038 39.626V38.3973H45.4238L46.5 49.4558L46.6537 49.6093L48.0375 38.3973H52.1887V39.626C51.5737 39.7796 51.42 40.5476 51.42 41.9299V57.2888C51.42 58.0568 51.7275 58.5175 52.3425 58.9783C52.3425 59.1319 52.3425 59.5927 52.3425 60.207ZM24.2063 30.7179H24.0525L16.5188 49.3022H31.8938L24.2063 30.7179ZM74.7899 55.2922C69.1012 69.2688 58.9537 79.5593 46.8075 82.7846C46.6537 82.7846 46.6537 82.7846 46.6537 82.7846C46.5 82.7846 46.5 82.7846 46.5 82.7846C34.5075 79.7129 24.36 69.576 18.5176 55.7529C20.0551 56.3673 21.5925 56.828 23.5913 56.9816C28.8188 67.2721 36.9675 75.1052 46.6537 78.4841C56.34 75.1052 64.4887 67.2721 69.7162 56.828C71.715 56.5209 73.2524 56.0601 74.7899 55.2922ZM46.5 90.4641L45.885 90.1569C16.3651 78.9449 0.528841 44.0801 6.83258 15.2053C7.44758 12.5943 7.90883 12.1336 12.6751 10.7513C17.2876 9.36895 26.3588 7.06511 32.5088 5.37563C38.8125 3.68614 42.5025 2.61102 44.9625 1.84307C45.5775 1.68948 46.0387 1.53589 46.5 1.68948C46.9612 1.53589 47.4225 1.68948 48.0375 1.84307C50.4975 2.61102 54.1875 3.68614 60.3375 5.37563C66.6412 7.06511 75.7124 9.36895 80.3249 10.7513C85.0912 12.1336 85.5524 12.5943 86.1674 15.2053C92.4712 44.0801 76.6349 78.9449 47.115 90.1569L46.5 90.4641ZM46.5 88.1603L45.885 88.0067C17.9026 77.2554 2.83509 44.0801 8.83132 16.7412C9.44632 14.2838 9.75382 13.823 14.3663 12.5943C18.8251 11.212 27.2813 9.06177 33.2775 7.37229C39.2738 5.6828 42.6563 4.76127 45.1162 3.99332C45.5775 3.99332 46.0387 3.83973 46.5 3.83973C46.9612 3.83973 47.4225 3.99332 47.8837 3.99332C50.3437 4.76127 53.7262 5.6828 59.7225 7.37229C65.7187 9.06177 74.1749 11.212 78.6337 12.5943C83.0924 13.823 83.5537 14.2838 84.1687 16.7412C90.1649 44.0801 75.0974 77.2554 47.115 88.0067L46.5 88.1603Z" fill="url(#paint1_linear_70:146)"/>
</g>
<defs>
<filter id="filter0_d_70:146" x="0" y="0" width="93" height="100" filterUnits="userSpaceOnUse" color-interpolation-filters="sRGB">
<feFlood flood-opacity="0" result="BackgroundImageFix"/>
<feColorMatrix in="SourceAlpha" type="matrix" values="0 0 0 0 0 0 0 0 0 0 0 0 0 0 0 0 0 0 127 0" result="hardAlpha"/>
<feOffset dy="4"/>
<feGaussianBlur stdDeviation="2"/>
<feComposite in2="hardAlpha" operator="out"/>
<feColorMatrix type="matrix" values="0 0 0 0 0 0 0 0 0 0 0 0 0 0 0 0 0 0 0.25 0"/>
<feBlend mode="normal" in2="BackgroundImageFix" result="effect1_dropShadow_70:146"/>
<feBlend mode="normal" in="SourceGraphic" in2="effect1_dropShadow_70:146" result="shape"/>
</filter>
<linearGradient id="paint0_linear_70:146" x1="239.025" y1="62.2759" x2="239.025" y2="79.9027" gradientUnits="userSpaceOnUse">
<stop stop-color="white"/>
<stop offset="1" stop-color="#1A2038"/>
</linearGradient>
<linearGradient id="paint1_linear_70:146" x1="46.5" y1="0" x2="47.0208" y2="135.386" gradientUnits="userSpaceOnUse">
<stop stop-color="#E9E9E9"/>
<stop offset="1" stop-color="#1C233D"/>
</linearGradient>
</defs>
</svg>
