<svg width="268" height="191" viewBox="0 0 268 191" fill="none" xmlns="http://www.w3.org/2000/svg">
<path fill-rule="evenodd" clip-rule="evenodd" d="M135.902 115.631L135.127 115.438C124.41 111.351 115.074 104.866 107.36 96.8278C108.053 96.7268 108.745 96.6281 109.437 96.534C116.661 103.755 125.288 109.579 135.127 113.316L135.902 113.701L136.676 113.316C146.355 109.64 154.862 103.943 162.011 96.8843C162.184 96.9102 162.357 96.9362 162.529 96.9625C160.513 96.6541 158.499 96.3681 156.486 96.1102C157.358 96.2221 158.231 96.3393 159.104 96.4612C152.664 102.481 145.141 107.362 136.676 110.613L135.904 110.806H135.902L135.127 110.613C126.519 107.306 118.885 102.311 112.372 96.1509C114.615 95.8712 116.861 95.6244 119.109 95.4176C124.203 99.5355 129.866 102.504 135.902 104.051H136.095H136.288C142.172 102.488 147.68 99.6086 152.642 95.653C149.778 95.3397 146.916 95.0905 144.055 94.9217C141.516 96.433 138.853 97.681 136.095 98.6447C133.272 97.6599 130.551 96.3742 127.957 94.8182C129.658 94.7472 131.36 94.7015 133.065 94.6857C118.111 94.8201 103.317 97.2115 88.5223 100.097V104.643L75.7454 107.788L76.2703 92.5829L88.5222 89.2618V81.7454C90.6734 81.2023 92.8246 80.6766 94.9763 80.1742L94.8919 80.1939C83.8827 61.2237 79.728 38.2766 84.2828 17.7598C85.0573 14.2858 85.6363 13.7053 91.8224 11.9683C94.7984 11.1058 99.2048 9.90995 103.881 8.64075C108.622 7.35411 113.641 5.99207 117.729 4.82541C122.335 3.64932 125.813 2.65077 128.559 1.86255C130.768 1.22831 132.503 0.730258 133.969 0.385469C134.129 0.345571 134.28 0.305673 134.426 0.267486L134.426 0.267471C134.982 0.12119 135.442 0 135.902 0C136.361 0 136.821 0.12119 137.377 0.267471L137.377 0.267484C137.523 0.305672 137.674 0.345571 137.834 0.385469C139.3 0.730261 141.035 1.22832 143.244 1.86256C145.99 2.65078 149.468 3.64933 154.074 4.82541C158.162 5.99208 163.181 7.35414 167.922 8.64079C172.598 9.90997 177.005 11.1058 179.981 11.9683C186.167 13.7053 186.748 14.2858 187.52 17.7598C192.127 38.509 187.826 61.7425 176.537 80.8372C177.772 81.1336 179.008 81.4367 180.244 81.7454V91.0108V100.097C174.708 99.0296 169.193 98.007 163.694 97.1431C163.821 97.1632 163.948 97.1835 164.075 97.2039C156.435 105.068 147.224 111.417 136.676 115.438L135.902 115.631ZM174.876 80.4423C185.953 61.9728 190.206 39.3692 185.781 19.1113C185.009 15.8301 184.427 15.2495 178.434 13.5126C174.43 12.3135 167.755 10.5623 161.397 8.89445L161.397 8.8944L161.396 8.89416L161.395 8.89404C158.543 8.14594 155.756 7.41463 153.302 6.75745C145.569 4.63268 140.929 3.28118 137.834 2.31751C137.75 2.29624 137.668 2.275 137.588 2.25429C136.935 2.08499 136.417 1.95071 135.902 2.12243C135.386 1.95071 134.868 2.08499 134.215 2.25429C134.135 2.275 134.053 2.29624 133.969 2.31751C130.876 3.28118 126.236 4.63268 118.308 6.75745C115.371 7.5637 111.904 8.48152 108.415 9.40503C102.719 10.9127 96.9657 12.4354 93.3689 13.5126C87.3759 15.2495 86.7968 15.8301 86.0224 19.1113C81.6488 39.139 85.7563 61.4583 96.5534 79.8103C97.3362 79.6319 98.119 79.4567 98.902 79.2851C88.376 61.7066 84.3253 40.2292 88.5363 21.0409C89.3108 17.9525 89.6968 17.3743 95.4968 15.8277C98.8909 14.7763 104.127 13.3709 109.403 11.9545C112.843 11.0311 116.3 10.103 119.276 9.26535C121.134 8.74221 122.793 8.27761 124.284 7.86002L124.284 7.86L124.284 7.85991C128.842 6.58336 131.831 5.74604 134.162 5.01814C134.453 5.01814 134.743 4.96986 135.034 4.92163C135.323 4.8735 135.612 4.82541 135.902 4.82541C136.193 4.82541 136.483 4.87369 136.773 4.92192C137.063 4.97006 137.352 5.01814 137.641 5.01814C139.984 5.74936 142.989 6.591 147.583 7.87742C149.058 8.29051 150.696 8.74946 152.53 9.26535C155.505 10.103 158.963 11.0311 162.403 11.9546C167.679 13.3709 172.915 14.7763 176.309 15.8277C181.916 17.3719 182.495 17.9525 183.269 21.0409C187.527 40.455 183.33 62.2077 172.529 79.8991C173.311 80.0771 174.093 80.2582 174.876 80.4423ZM166.976 78.6909C168.654 75.8002 170.158 72.7262 171.474 69.4948C169.541 70.4608 167.609 71.0391 165.095 71.4245C164.012 73.5868 162.83 75.6597 161.555 77.6339C163.36 77.9634 165.167 78.3168 166.976 78.6909ZM143.248 75.2492V74.1275C142.476 73.5493 142.088 72.9687 142.088 72.0051V52.7011C142.088 50.9618 142.281 49.9981 143.055 49.8054V48.2611H137.834L136.095 62.3519L135.902 62.1592L134.548 48.2611H128.362V49.8054C129.134 49.9981 129.52 50.9618 129.52 52.8938V71.8123C129.52 72.9687 129.134 73.742 128.555 74.1275V75.0672C130.1 74.9951 131.646 74.9504 133.195 74.9351V74.1275C132.42 73.9348 132.034 73.1638 132.034 71.8123L132.227 57.3338H132.422L134.463 74.929H134.386C134.217 74.929 134.048 74.9294 133.879 74.9303L134.131 74.9295L134.386 74.9292C135.11 74.9292 135.834 74.9359 136.558 74.9491L138.416 57.3338H138.802V72.0051C138.802 72.3881 138.611 72.9615 138.419 73.5384L138.419 73.5386L138.416 73.5493C138.029 73.9348 137.834 74.1275 137.641 74.1275V74.9737L137.599 74.9726C139.481 75.0229 141.365 75.1165 143.248 75.2492ZM110.21 77.0879C109.097 75.3348 108.057 73.5113 107.097 71.6196C104.583 71.4245 102.65 70.8463 100.715 70.073C101.899 72.872 103.222 75.5488 104.674 78.0892C106.518 77.7306 108.364 77.3956 110.21 77.0879ZM100.136 25.0954C99.5573 29.1499 99.1689 33.3971 99.1689 37.6443C99.1689 41.6964 99.5573 45.5582 100.136 49.4175C99.1097 51.1267 97.9321 53.2884 96.8723 55.2338C96.7341 55.4874 96.5979 55.7374 96.4643 55.9823C95.1108 49.9981 94.5294 43.8212 94.5294 37.4492C94.5294 31.8529 94.9154 26.4469 95.8829 21.2337C97.6827 20.892 100.584 20.1327 103.796 19.2924C107.83 18.2369 112.353 17.0534 115.797 16.4083C115.981 16.3624 116.175 16.3166 116.381 16.2681L116.381 16.2681L116.381 16.2681C117.04 16.1129 117.813 15.9311 118.697 15.6373C122.369 14.864 128.555 13.5126 131.843 12.7393C133.969 12.1611 134.743 11.9683 136.097 11.9683C137.255 11.9683 138.223 12.1611 140.155 12.7393C143.441 13.5126 149.823 14.864 153.495 15.6373C154.173 15.8628 154.786 16.0223 155.294 16.1545L155.294 16.1545L155.294 16.1547C155.654 16.2484 155.961 16.3283 156.202 16.4083C159.792 17.0809 164.621 18.3386 168.797 19.4264L168.797 19.4265C171.815 20.2128 174.493 20.9102 176.116 21.2337C177.081 26.4469 177.662 31.8529 177.662 37.4492C177.662 44.3994 176.888 51.1569 175.341 57.5265C174.733 56.5147 174.126 55.3979 173.491 54.2306L173.49 54.23L173.49 54.2293L173.49 54.2287L173.489 54.2281C172.912 53.1672 172.312 52.0648 171.669 50.9618C172.441 46.7169 172.827 42.2746 172.827 37.6443C172.827 33.3971 172.441 29.1499 171.862 25.0954L171.476 24.9027C170.948 24.7619 170.382 24.6084 169.79 24.4479L169.789 24.4477L169.789 24.4477C167.129 23.7266 163.952 22.8653 161.423 22.3924C160.549 22.101 159.773 21.9073 159.095 21.7379C158.421 21.5698 157.844 21.4256 157.362 21.2337C157.104 21.1695 156.847 21.1267 156.589 21.084C156.074 20.9982 155.559 20.9126 155.043 20.6555C150.402 19.6895 143.443 17.9525 139.769 16.9865C138.029 16.601 137.062 16.4083 136.097 16.4083C135.129 16.4083 134.162 16.601 132.229 16.9865C128.75 17.9525 121.79 19.6895 116.957 20.6555C116.441 20.9125 115.925 20.9982 115.41 21.0839C115.152 21.1267 114.894 21.1695 114.636 21.2337C114.155 21.426 113.577 21.5704 112.902 21.7389C112.224 21.9081 111.449 22.1016 110.576 22.3924C107.676 22.9706 103.425 24.1294 100.718 24.9027L100.136 25.0954ZM110.383 37.0638C110.672 37.1601 110.963 37.3053 111.253 37.4504C111.543 37.5955 111.833 37.7407 112.122 37.837C112.897 38.0298 113.862 37.837 115.408 37.4516C115.719 37.3479 116.061 37.232 116.425 37.1083C118.102 36.5391 120.269 35.8037 122.176 35.3268C124.69 34.7486 126.622 34.5559 128.555 34.5559C130.488 34.7486 132.227 35.1341 133.195 35.5195C133.292 35.5195 133.389 35.5677 133.485 35.6159C133.582 35.6641 133.678 35.7123 133.776 35.7123V33.9753C133.195 33.2044 133.002 32.2383 133.002 31.0796C133.002 30.1159 133.388 28.7644 133.969 27.4129C134.355 26.2542 134.934 24.9027 135.322 24.5172C135.396 24.4436 135.442 24.37 135.481 24.3071C135.544 24.2054 135.589 24.1317 135.709 24.1317C135.709 24.1317 135.902 24.3245 135.902 24.5172C136.191 24.8057 136.589 25.6355 137.014 26.5205L137.014 26.5215C137.157 26.8186 137.303 27.1218 137.448 27.4129L137.48 27.5232C137.855 28.8377 138.228 30.1421 138.416 31.0796C138.416 32.2383 138.22 33.2044 137.641 33.9753H137.834V35.5195H138.029C138.802 35.1341 140.541 34.7462 142.476 34.5559C144.409 34.5559 146.534 34.7486 148.855 35.3268C150.759 35.8034 152.924 36.5383 154.601 37.1074L154.601 37.1075L154.611 37.1109L154.611 37.111C154.973 37.2337 155.312 37.3487 155.62 37.4516L155.9 37.5137C157.447 37.8572 158.177 38.0191 158.909 37.837C159.368 37.7225 159.759 37.5389 160.123 37.3684C160.371 37.2521 160.606 37.1419 160.841 37.0638C160.648 36.6783 160.648 36.4855 160.648 36.0977C160.648 34.5559 161.809 33.3971 163.162 33.3971C164.516 33.3971 165.674 34.5559 165.674 36.0977C165.674 37.0638 165.095 38.0298 164.127 38.4152L174.374 61.9664H176.116C173.602 66.2136 168.769 68.9166 163.355 68.9166C157.941 68.9166 153.109 66.2136 150.595 61.9664H152.337L162.388 38.608C162.388 38.4152 162.195 38.4152 162.195 38.4152L162.002 38.608C161.866 38.71 161.724 38.8238 161.575 38.9432C160.876 39.5034 160.024 40.1865 158.909 40.3473C157.908 40.4897 156.908 40.2098 155.517 39.8206C155.026 39.6832 154.486 39.5322 153.881 39.3813L153.657 39.3295C151.176 38.7558 148.012 38.0241 145.762 37.837C143.248 37.6443 141.509 38.2225 140.348 38.6103C139.188 39.1885 138.609 39.7667 138.029 40.3473L137.834 40.54V44.0139H143.827V45.5582H128.169V44.0139H133.776V40.9255C133.678 40.9255 133.582 40.8291 133.461 40.7087C133.341 40.5882 133.196 40.4437 133.002 40.3473C132.616 39.7667 131.841 39.1885 130.681 38.6103L130.499 38.5493C129.361 38.1652 127.847 37.6542 125.462 37.837C122.948 38.0298 119.662 38.8007 117.341 39.3813C116.817 39.512 116.332 39.6429 115.88 39.7649C114.333 40.1825 113.17 40.4964 112.122 40.3473C111.083 40.1725 110.043 39.3805 109.28 38.8C109.192 38.7327 109.108 38.6683 109.027 38.608C109.027 38.608 109.027 38.4152 108.834 38.4152L108.641 38.608L118.695 61.9664H120.434C117.92 66.2136 113.281 68.9166 107.674 68.9166C102.262 68.9166 97.6224 66.2136 95.1084 61.9664H96.848L106.901 38.4152C105.934 38.0298 105.355 37.0638 105.355 36.0977C105.355 34.5559 106.515 33.3971 107.869 33.3971C109.415 33.3971 110.576 34.5559 110.576 36.0977C110.576 36.2919 110.527 36.4372 110.478 36.5823C110.429 36.7269 110.381 36.8713 110.381 37.0638H110.383ZM163.353 38.608L173.02 61.9664H153.688L163.353 38.608ZM107.869 38.608H107.676L98.2038 61.9664H117.536L107.869 38.608ZM25.1289 149.203C25.1698 149.203 25.1907 149.264 25.1907 149.386C25.1907 149.51 25.1698 149.571 25.1289 149.571C24.4248 149.571 23.8652 149.561 23.4519 149.541L21.1524 149.51L18.823 149.541C18.4297 149.561 17.8909 149.571 17.2077 149.571C17.146 149.571 17.1151 149.51 17.1151 149.386C17.1151 149.264 17.146 149.203 17.2077 149.203C18.0781 149.203 18.6677 149.1 18.9784 148.896C19.2891 148.692 19.4445 148.262 19.4445 147.608L19.4136 147.086L18.7613 134.541L12.3628 149.356C12.321 149.438 12.2383 149.479 12.1138 149.479C11.9893 149.479 11.9067 149.438 11.8659 149.356L4.00641 134.602L3.75843 145.675C3.73752 146.779 3.9606 147.644 4.42667 148.267C4.89174 148.891 5.55001 149.203 6.3985 149.203C6.46024 149.203 6.49211 149.264 6.49211 149.386C6.49211 149.51 6.46024 149.571 6.3985 149.571C5.83981 149.571 5.40462 149.561 5.0939 149.541L3.38598 149.51L1.42908 149.541C1.09745 149.561 0.652298 149.571 0.0926164 149.571C0.0308721 149.571 0 149.51 0 149.386C0 149.264 0.0308721 149.203 0.0926164 149.203C0.942098 149.203 1.61531 148.886 2.11225 148.252C2.60919 147.618 2.86812 146.758 2.88903 145.675L3.16788 132.976L3.13701 132.946C2.72272 132.188 2.2935 131.637 1.84834 131.288C1.40219 130.941 0.890313 130.767 0.310713 130.767C0.247973 130.767 0.217101 130.706 0.217101 130.583C0.217101 130.46 0.247973 130.399 0.310713 130.399L1.77067 130.43C2.06047 130.45 2.43292 130.46 2.88903 130.46L4.53522 130.43C4.72145 130.409 4.95946 130.399 5.24926 130.399C5.51914 130.399 5.72529 130.492 5.87069 130.675C6.01509 130.86 6.28397 131.299 6.67834 131.994L13.4493 144.54L19.3518 131.165C19.4753 130.879 19.6048 130.681 19.7392 130.567C19.8747 130.455 20.0549 130.399 20.283 130.399C20.4692 130.399 20.6813 130.409 20.9204 130.43C21.1584 130.45 21.4322 130.46 21.7429 130.46L23.5754 130.43C23.8652 130.409 24.2804 130.399 24.8182 130.399C24.88 130.399 24.9118 130.46 24.9118 130.583C24.9118 130.706 24.88 130.767 24.8182 130.767C23.8452 130.767 23.1412 130.961 22.706 131.35C22.2708 131.739 22.0746 132.342 22.1164 133.16L22.8613 147.086C22.9031 147.72 22.9808 148.181 23.0943 148.467C23.2079 148.753 23.415 148.948 23.7158 149.05C24.0155 149.151 24.4866 149.203 25.1289 149.203ZM48.6425 149.203C48.7053 149.203 48.7361 149.264 48.7361 149.386C48.7361 149.51 48.7053 149.571 48.6425 149.571C47.9175 149.571 47.3379 149.561 46.9027 149.541L44.5106 149.51L41.7162 149.541C41.3428 149.561 40.8359 149.571 40.1935 149.571C40.1318 149.571 40.1009 149.51 40.1009 149.386C40.1009 149.264 40.1318 149.203 40.1935 149.203C40.9594 149.203 41.519 149.151 41.8716 149.05C42.2231 148.948 42.4611 148.753 42.5856 148.467C42.7101 148.181 42.7719 147.72 42.7719 147.086V134.541L30.3473 149.909C30.2856 149.97 30.1292 150 29.8812 150C29.4879 150 29.2907 149.929 29.2907 149.786V132.884C29.2907 132.27 29.2289 131.82 29.1045 131.534C28.98 131.248 28.7529 131.048 28.4213 130.935C28.0897 130.823 27.5728 130.767 26.8677 130.767C26.806 130.767 26.7751 130.706 26.7751 130.583C26.7751 130.46 26.806 130.399 26.8677 130.399L28.6075 130.43C29.6432 130.471 30.4399 130.492 30.9996 130.492C31.8282 130.492 32.7593 130.471 33.795 130.43L35.3167 130.399C35.3795 130.399 35.4103 130.46 35.4103 130.583C35.4103 130.706 35.3795 130.767 35.3167 130.767C34.5509 130.767 33.9912 130.823 33.6397 130.935C33.2881 131.048 33.0491 131.248 32.9256 131.534C32.8011 131.82 32.7394 132.27 32.7394 132.884V145.553L45.1639 130.185C45.2257 130.123 45.381 130.092 45.629 130.092C45.7744 130.092 45.9089 130.113 46.0333 130.153C46.1578 130.195 46.2196 130.246 46.2196 130.307V147.086C46.2196 147.7 46.2823 148.155 46.4058 148.451C46.5303 148.748 46.7583 148.948 47.09 149.05C47.4206 149.151 47.9384 149.203 48.6425 149.203ZM68.2424 149.541C68.5679 149.561 69.0231 149.571 69.6079 149.571L69.6097 149.571H69.6201H69.6406L69.6433 149.571C70.0732 149.57 70.6316 149.55 71.3176 149.51C72.1044 149.469 72.7776 149.448 73.3363 149.448C73.9169 149.448 74.6 149.469 75.3868 149.51C76.0909 149.551 76.6296 149.571 77.0021 149.571C77.1056 149.571 77.1574 149.51 77.1574 149.386C77.1574 149.264 77.1056 149.203 77.0021 149.203C76.1118 149.203 75.4017 148.999 74.8739 148.589C74.3461 148.181 74.0822 147.608 74.0822 146.872C74.0822 146.36 74.2166 145.808 74.4865 145.215L76.6914 140.399H82.2205L85.4501 146.688C85.8654 147.506 86.0715 148.088 86.0715 148.436C86.0715 148.722 85.953 148.922 85.715 149.034C85.476 149.146 85.0886 149.203 84.5498 149.203C84.4672 149.203 84.4253 149.264 84.4253 149.386C84.4253 149.51 84.4672 149.571 84.5498 149.571C84.9641 149.571 85.5228 149.551 86.2269 149.51C86.9728 149.469 87.6042 149.448 88.122 149.448C88.5154 149.448 89.1677 149.469 90.0789 149.51C90.9483 149.551 91.5907 149.571 92.0049 149.571C92.1085 149.571 92.1603 149.51 92.1603 149.386C92.1603 149.264 92.1085 149.203 92.0049 149.203C91.4871 149.203 90.9901 148.927 90.5141 148.374C90.0371 147.823 89.4366 146.82 88.7116 145.369L80.9467 130.276C80.9258 130.215 80.8322 130.185 80.6669 130.185C80.5225 130.185 80.4289 130.215 80.3881 130.276L73.647 144.909C73.1092 146.095 72.6431 146.989 72.2498 147.592C71.8564 148.196 71.463 148.615 71.0686 148.85C70.6788 149.083 70.1979 149.201 69.6251 149.203C68.9264 149.201 68.3111 149.027 67.7763 148.681C67.2385 148.334 66.7097 147.781 66.1918 147.025L60.8808 138.896L63.8316 134.909C64.8663 133.518 65.8453 132.479 66.7675 131.795C67.6887 131.109 68.4814 130.767 69.1436 130.767C69.2054 130.767 69.2362 130.706 69.2362 130.583C69.2362 130.46 69.2054 130.399 69.1436 130.399L67.838 130.43C67.3003 130.471 66.8133 130.492 66.3791 130.492C65.674 130.492 64.9092 130.471 64.0806 130.43L62.527 130.399C62.4862 130.399 62.4653 130.46 62.4653 130.583C62.4653 130.706 62.4862 130.767 62.527 130.767C63.6046 130.767 64.1423 131.165 64.1423 131.963C64.1423 132.659 63.738 133.579 62.9304 134.725L60.4456 138.221L56.3456 131.994C56.1594 131.688 56.0668 131.452 56.0668 131.288C56.0668 130.941 56.4183 130.767 57.1224 130.767C57.1642 130.767 57.1842 130.706 57.1842 130.583C57.1842 130.46 57.1642 130.399 57.1224 130.399L55.3517 130.43C54.2752 130.471 53.3739 130.492 52.6489 130.492C52.3591 130.492 51.9249 130.471 51.3453 130.43L50.0089 130.399C49.9471 130.399 49.9163 130.46 49.9163 130.583C49.9163 130.706 49.9471 130.767 50.0089 130.767C50.5895 130.767 51.1382 130.956 51.6561 131.335C52.1739 131.713 52.7117 132.342 53.2704 133.221L58.2408 140.86L55.0719 145.092C54.0571 146.483 53.0841 147.516 52.152 148.19C51.2209 148.865 50.4341 149.203 49.7918 149.203C49.73 149.203 49.6982 149.264 49.6982 149.386C49.6982 149.51 49.73 149.571 49.7918 149.571C50.3923 149.571 50.8275 149.561 51.0964 149.541L52.5563 149.51L54.8548 149.541C55.2073 149.561 55.7252 149.571 56.4074 149.571C56.4492 149.571 56.4701 149.51 56.4701 149.386C56.4701 149.264 56.4492 149.203 56.4074 149.203C55.3308 149.203 54.7931 148.804 54.7931 148.006C54.7931 147.311 55.1964 146.401 56.004 145.276L58.676 141.504L62.9304 148.006C63.1176 148.272 63.2102 148.497 63.2102 148.681C63.2102 149.029 62.8686 149.203 62.1854 149.203C62.1227 149.203 62.0918 149.264 62.0918 149.386C62.0918 149.51 62.1227 149.571 62.1854 149.571C62.8895 149.571 63.4383 149.561 63.8316 149.541L66.3791 149.51L68.2424 149.541ZM77.0947 139.54H81.7853L79.3006 134.693L77.0947 139.54ZM104.429 129.08C103.643 129.08 102.897 128.948 102.193 128.681C101.489 128.416 100.919 128.063 100.485 127.623C100.05 127.183 99.8325 126.718 99.8325 126.227C99.8325 125.86 99.952 125.563 100.19 125.337C100.427 125.113 100.765 125 101.199 125C101.675 125 102.007 125.139 102.193 125.414C102.379 125.69 102.555 126.125 102.722 126.718C102.908 127.352 103.109 127.818 103.327 128.114C103.544 128.411 103.901 128.558 104.399 128.558C104.916 128.558 105.294 128.4 105.532 128.083C105.77 127.767 105.993 127.301 106.2 126.688C106.386 126.114 106.578 125.69 106.775 125.414C106.971 125.139 107.288 125 107.722 125C108.157 125 108.488 125.113 108.716 125.337C108.944 125.563 109.057 125.86 109.057 126.227C109.057 126.739 108.84 127.214 108.405 127.653C107.97 128.094 107.401 128.441 106.697 128.697C105.993 128.953 105.237 129.08 104.429 129.08ZM114.742 149.203C114.804 149.203 114.835 149.264 114.835 149.386C114.835 149.51 114.804 149.571 114.742 149.571C114.018 149.571 113.437 149.561 113.003 149.541L110.611 149.51L107.815 149.541C107.442 149.561 106.935 149.571 106.293 149.571C106.231 149.571 106.2 149.51 106.2 149.386C106.2 149.264 106.231 149.203 106.293 149.203C107.06 149.203 107.618 149.151 107.97 149.05C108.322 148.948 108.56 148.753 108.685 148.467C108.809 148.181 108.871 147.72 108.871 147.086V134.541L96.4465 149.909C96.3848 149.97 96.2294 150 95.9805 150C95.5871 150 95.3909 149.929 95.3909 149.786V132.884C95.3909 132.27 95.3282 131.82 95.2037 131.534C95.0802 131.248 94.8521 131.048 94.5205 130.935C94.1889 130.823 93.672 130.767 92.9679 130.767C92.9052 130.767 92.8743 130.706 92.8743 130.583C92.8743 130.46 92.9052 130.399 92.9679 130.399L94.7067 130.43C95.7425 130.471 96.5392 130.492 97.0988 130.492C97.9274 130.492 98.8596 130.471 99.8943 130.43L101.416 130.399C101.479 130.399 101.51 130.46 101.51 130.583C101.51 130.706 101.479 130.767 101.416 130.767C100.65 130.767 100.09 130.823 99.7389 130.935C99.3874 131.048 99.1493 131.248 99.0249 131.534C98.9004 131.82 98.8386 132.27 98.8386 132.884V145.553L111.263 130.185C111.325 130.123 111.48 130.092 111.729 130.092C111.875 130.092 112.008 130.113 112.133 130.153C112.257 130.195 112.319 130.246 112.319 130.307V147.086C112.319 147.7 112.382 148.155 112.505 148.451C112.63 148.748 112.858 148.948 113.189 149.05C113.521 149.151 114.038 149.203 114.742 149.203ZM138.007 149.203C138.11 149.203 138.163 149.264 138.163 149.386C138.163 149.51 138.11 149.571 138.007 149.571C137.593 149.571 136.951 149.551 136.081 149.51C135.17 149.469 134.518 149.448 134.124 149.448C133.607 149.448 132.975 149.469 132.229 149.51C131.525 149.551 130.967 149.571 130.552 149.571C130.47 149.571 130.428 149.51 130.428 149.386C130.428 149.264 130.47 149.203 130.552 149.203C131.09 149.203 131.479 149.146 131.717 149.034C131.955 148.922 132.074 148.722 132.074 148.436C132.074 148.088 131.867 147.506 131.454 146.688L125.303 134.693L120.488 145.215C120.219 145.808 120.085 146.36 120.085 146.872C120.085 147.608 120.349 148.181 120.876 148.589C121.405 148.999 122.113 149.203 123.005 149.203C123.108 149.203 123.16 149.264 123.16 149.386C123.16 149.51 123.108 149.571 123.005 149.571C122.631 149.571 122.093 149.551 121.389 149.51C120.602 149.469 119.918 149.448 119.339 149.448C118.78 149.448 118.107 149.469 117.32 149.51C116.616 149.551 116.046 149.571 115.611 149.571C115.529 149.571 115.488 149.51 115.488 149.386C115.488 149.264 115.529 149.203 115.611 149.203C116.192 149.203 116.678 149.085 117.072 148.85C117.464 148.615 117.859 148.196 118.252 147.592C118.646 146.989 119.112 146.095 119.649 144.909L126.39 130.276C126.431 130.215 126.525 130.185 126.669 130.185C126.836 130.185 126.928 130.215 126.949 130.276L134.715 145.369C135.439 146.82 136.041 147.823 136.517 148.374C136.993 148.927 137.49 149.203 138.007 149.203ZM148.972 149.939C147.046 149.939 145.332 149.494 143.831 148.604C142.33 147.715 141.17 146.509 140.353 144.985C139.534 143.462 139.125 141.8 139.125 140C139.125 137.893 139.664 136.089 140.74 134.586C141.818 133.083 143.2 131.953 144.887 131.197C146.575 130.44 148.299 130.062 150.059 130.062C152.026 130.062 153.755 130.517 155.246 131.427C156.738 132.337 157.881 133.539 158.679 135.031C159.475 136.523 159.875 138.109 159.875 139.786C159.875 141.646 159.378 143.355 158.384 144.909C157.389 146.462 156.059 147.69 154.393 148.589C152.725 149.49 150.919 149.939 148.972 149.939ZM149.997 149.172C151.156 149.172 152.197 148.839 153.119 148.176C154.04 147.511 154.76 146.539 155.278 145.262C155.796 143.983 156.054 142.454 156.054 140.676C156.054 138.794 155.764 137.112 155.184 135.629C154.605 134.146 153.766 132.986 152.669 132.148C151.571 131.309 150.287 130.89 148.817 130.89C146.932 130.89 145.482 131.59 144.469 132.991C143.453 134.392 142.946 136.35 142.946 138.865C142.946 140.849 143.252 142.623 143.862 144.188C144.474 145.751 145.312 146.974 146.379 147.853C147.445 148.732 148.651 149.172 149.997 149.172ZM172.579 138.804C174.318 139.009 175.7 139.581 176.726 140.522C177.751 141.462 178.263 142.628 178.263 144.018C178.263 145.082 177.952 146.043 177.332 146.902C176.71 147.761 175.851 148.441 174.753 148.942C173.656 149.443 172.434 149.693 171.088 149.693C170.508 149.693 169.846 149.663 169.1 149.602C168.81 149.581 168.452 149.561 168.029 149.541C167.604 149.52 167.133 149.51 166.615 149.51L164.347 149.541C163.934 149.561 163.374 149.571 162.67 149.571C162.609 149.571 162.577 149.51 162.577 149.386C162.577 149.264 162.609 149.203 162.67 149.203C163.271 149.203 163.727 149.146 164.037 149.034C164.347 148.922 164.57 148.718 164.705 148.421C164.839 148.125 164.906 147.68 164.906 147.086V132.884C164.906 132.025 164.762 131.458 164.472 131.181C164.182 130.905 163.591 130.767 162.701 130.767C162.66 130.767 162.639 130.706 162.639 130.583C162.639 130.46 162.66 130.399 162.701 130.399L164.347 130.43C165.3 130.471 166.055 130.492 166.615 130.492C167.196 130.492 167.795 130.46 168.416 130.399C168.624 130.379 168.934 130.358 169.349 130.337C169.763 130.318 170.124 130.307 170.435 130.307C172.32 130.307 173.78 130.644 174.815 131.32C175.851 131.994 176.369 132.976 176.369 134.264C176.369 135.246 176.042 136.136 175.391 136.934C174.737 137.731 173.801 138.354 172.579 138.804ZM169.97 130.982C169.37 130.982 168.955 131.12 168.727 131.396C168.499 131.672 168.386 132.188 168.386 132.946V138.774L169.628 138.804C170.705 138.804 171.533 138.405 172.113 137.607C172.693 136.81 172.983 135.788 172.983 134.541C172.983 133.374 172.724 132.49 172.206 131.887C171.688 131.283 170.943 130.982 169.97 130.982ZM170.56 148.927C173.272 148.927 174.629 147.536 174.629 144.755C174.629 143.181 174.246 141.933 173.479 141.013C172.714 140.092 171.553 139.632 170.001 139.632C169.4 139.632 168.862 139.653 168.386 139.693V147.086C168.386 147.761 168.52 148.237 168.789 148.513C169.059 148.788 169.649 148.927 170.56 148.927ZM192.956 130.062C193.867 130.062 194.819 130.138 195.813 130.292C196.807 130.445 197.584 130.644 198.142 130.89C198.329 130.951 198.448 131.028 198.5 131.12C198.552 131.212 198.598 131.371 198.639 131.595L199.013 135.86C199.013 135.921 198.961 135.962 198.856 135.982C198.754 136.002 198.692 135.972 198.671 135.89C197.967 134.274 197.024 133.027 195.844 132.148C194.664 131.268 193.297 130.829 191.744 130.829C189.694 130.829 188.11 131.575 186.992 133.067C185.873 134.56 185.314 136.565 185.314 139.08C185.314 140.962 185.619 142.679 186.231 144.234C186.841 145.788 187.701 147.02 188.809 147.93C189.916 148.839 191.174 149.295 192.582 149.295C193.908 149.295 195.093 148.86 196.14 147.991C197.184 147.122 198.121 145.799 198.95 144.018C198.971 143.937 199.039 143.906 199.152 143.927C199.267 143.948 199.323 143.988 199.323 144.049L198.856 148.222C198.816 148.467 198.769 148.625 198.718 148.697C198.665 148.769 198.547 148.844 198.36 148.927C196.517 149.602 194.623 149.939 192.676 149.939C190.149 149.939 188.037 149.443 186.339 148.451C184.641 147.46 183.393 146.202 182.597 144.678C181.799 143.155 181.401 141.565 181.401 139.909C181.401 137.966 181.933 136.248 183 134.755C184.067 133.262 185.485 132.107 187.255 131.288C189.026 130.471 190.926 130.062 192.956 130.062ZM221.656 149.203C221.719 149.203 221.75 149.264 221.75 149.386C221.75 149.51 221.719 149.571 221.656 149.571H216.873C216.604 149.571 216.361 149.49 216.143 149.325C215.926 149.162 215.547 148.738 215.009 148.053C214.471 147.367 213.59 146.156 212.368 144.418L211.53 143.251C210.806 142.209 210.267 141.478 209.915 141.058C209.563 140.639 209.196 140.343 208.812 140.169C208.429 139.995 207.927 139.909 207.305 139.909V147.086C207.305 147.7 207.363 148.155 207.477 148.451C207.59 148.748 207.813 148.948 208.145 149.05C208.477 149.151 208.993 149.203 209.697 149.203C209.759 149.203 209.791 149.264 209.791 149.386C209.791 149.51 209.759 149.571 209.697 149.571C208.973 149.571 208.393 149.561 207.959 149.541L205.379 149.51L203.113 149.541C202.698 149.561 202.14 149.571 201.436 149.571C201.373 149.571 201.342 149.51 201.342 149.386C201.342 149.264 201.373 149.203 201.436 149.203C202.14 149.203 202.657 149.151 202.988 149.05C203.32 148.948 203.547 148.748 203.671 148.451C203.796 148.155 203.859 147.7 203.859 147.086V132.884C203.859 132.27 203.796 131.82 203.671 131.534C203.547 131.248 203.325 131.048 203.004 130.935C202.683 130.823 202.171 130.767 201.467 130.767C201.404 130.767 201.373 130.706 201.373 130.583C201.373 130.46 201.404 130.399 201.467 130.399L203.113 130.43C204.065 130.471 204.821 130.492 205.379 130.492C206.084 130.492 206.954 130.471 207.99 130.43L209.697 130.399C209.759 130.399 209.791 130.46 209.791 130.583C209.791 130.706 209.759 130.767 209.697 130.767C209.014 130.767 208.507 130.829 208.176 130.951C207.844 131.074 207.616 131.283 207.492 131.58C207.368 131.876 207.305 132.332 207.305 132.946V139.387C207.865 139.367 208.569 139.357 209.418 139.357L212.679 134.939C213.529 133.774 213.953 132.802 213.953 132.025C213.953 131.637 213.839 131.33 213.611 131.104C213.384 130.879 213.074 130.767 212.679 130.767C212.638 130.767 212.617 130.706 212.617 130.583C212.617 130.46 212.638 130.399 212.679 130.399L214.108 130.43C215.019 130.471 215.827 130.492 216.531 130.492C217.339 130.492 218.177 130.471 219.048 130.43L220.383 130.399C220.445 130.399 220.476 130.46 220.476 130.583C220.476 130.706 220.445 130.767 220.383 130.767C219.472 130.767 218.447 131.095 217.308 131.749C216.169 132.404 215.206 133.221 214.419 134.202L210.194 139.387C211.002 139.428 211.664 139.576 212.182 139.832C212.7 140.088 213.213 140.491 213.72 141.043C214.228 141.595 214.947 142.516 215.879 143.804L216.438 144.571C217.308 145.757 217.986 146.646 218.473 147.239C218.959 147.832 219.461 148.303 219.979 148.651C220.497 148.999 221.055 149.182 221.656 149.203ZM244.145 149.203C244.208 149.203 244.238 149.264 244.238 149.386C244.238 149.51 244.208 149.571 244.145 149.571C243.421 149.571 242.84 149.561 242.406 149.541L240.014 149.51L237.219 149.541C236.845 149.561 236.338 149.571 235.696 149.571C235.634 149.571 235.603 149.51 235.603 149.386C235.603 149.264 235.634 149.203 235.696 149.203C236.463 149.203 237.021 149.151 237.374 149.05C237.725 148.948 237.963 148.753 238.088 148.467C238.212 148.181 238.274 147.72 238.274 147.086V134.541L225.85 149.909C225.788 149.97 225.632 150 225.384 150C224.99 150 224.794 149.929 224.794 149.786V132.884C224.794 132.27 224.731 131.82 224.607 131.534C224.483 131.248 224.255 131.048 223.925 130.935C223.592 130.823 223.075 130.767 222.371 130.767C222.309 130.767 222.277 130.706 222.277 130.583C222.277 130.46 222.309 130.399 222.371 130.399L224.11 130.43C225.146 130.471 225.943 130.492 226.502 130.492C227.33 130.492 228.263 130.471 229.297 130.43L230.819 130.399C230.882 130.399 230.913 130.46 230.913 130.583C230.913 130.706 230.882 130.767 230.819 130.767C230.053 130.767 229.494 130.823 229.142 130.935C228.79 131.048 228.552 131.248 228.428 131.534C228.303 131.82 228.242 132.27 228.242 132.884V145.553L240.666 130.185C240.728 130.123 240.883 130.092 241.132 130.092C241.278 130.092 241.411 130.113 241.536 130.153C241.66 130.195 241.722 130.246 241.722 130.307V147.086C241.722 147.7 241.785 148.155 241.909 148.451C242.033 148.748 242.261 148.948 242.592 149.05C242.924 149.151 243.441 149.203 244.145 149.203ZM257.595 129.08C256.808 129.08 256.062 128.948 255.358 128.681C254.654 128.416 254.085 128.063 253.649 127.623C253.215 127.183 252.998 126.718 252.998 126.227C252.998 125.86 253.117 125.563 253.355 125.337C253.593 125.113 253.929 125 254.364 125C254.841 125 255.172 125.139 255.358 125.414C255.545 125.69 255.721 126.125 255.886 126.718C256.072 127.352 256.275 127.818 256.493 128.114C256.71 128.411 257.067 128.558 257.564 128.558C258.082 128.558 258.46 128.4 258.698 128.083C258.936 127.767 259.159 127.301 259.365 126.688C259.552 126.114 259.743 125.69 259.94 125.414C260.137 125.139 260.452 125 260.887 125C261.323 125 261.653 125.113 261.881 125.337C262.108 125.563 262.223 125.86 262.223 126.227C262.223 126.739 262.006 127.214 261.571 127.653C261.135 128.094 260.567 128.441 259.862 128.697C259.159 128.953 258.403 129.08 257.595 129.08ZM267.907 149.203C267.969 149.203 268 149.264 268 149.386C268 149.51 267.969 149.571 267.907 149.571C267.182 149.571 266.603 149.561 266.168 149.541L263.776 149.51L260.98 149.541C260.608 149.561 260.101 149.571 259.458 149.571C259.397 149.571 259.365 149.51 259.365 149.386C259.365 149.264 259.397 149.203 259.458 149.203C260.225 149.203 260.784 149.151 261.135 149.05C261.488 148.948 261.726 148.753 261.85 148.467C261.975 148.181 262.037 147.72 262.037 147.086V134.541L249.612 149.909C249.549 149.97 249.395 150 249.146 150C248.753 150 248.556 149.929 248.556 149.786V132.884C248.556 132.27 248.494 131.82 248.369 131.534C248.245 131.248 248.018 131.048 247.686 130.935C247.355 130.823 246.837 130.767 246.133 130.767C246.071 130.767 246.04 130.706 246.04 130.583C246.04 130.46 246.071 130.399 246.133 130.399L247.872 130.43C248.908 130.471 249.706 130.492 250.264 130.492C251.093 130.492 252.024 130.471 253.06 130.43L254.582 130.399C254.644 130.399 254.675 130.46 254.675 130.583C254.675 130.706 254.644 130.767 254.582 130.767C253.816 130.767 253.257 130.823 252.905 130.935C252.552 131.048 252.314 131.248 252.19 131.534C252.066 131.82 252.003 132.27 252.003 132.884V145.553L264.429 130.185C264.491 130.123 264.646 130.092 264.895 130.092C265.039 130.092 265.174 130.113 265.298 130.153C265.423 130.195 265.484 130.246 265.484 130.307V147.086C265.484 147.7 265.546 148.155 265.671 148.451C265.795 148.748 266.023 148.948 266.354 149.05C266.685 149.151 267.203 149.203 267.907 149.203ZM268 160.5C268 159.672 267.346 159 266.54 159H1.46046C0.653869 159 0 159.672 0 160.5C0 161.328 0.653869 162 1.46046 162H266.54C267.346 162 268 161.328 268 160.5ZM8.472 177.464C7.992 178.264 7.69867 179.213 7.592 180.312H5.24V176.312L6.536 176.104V175.112H1.688V176.104L2.904 176.312V185.864L1.656 186.04V187H6.584V186.04L5.24 185.864V181.528H7.56C7.60267 183.288 8.06133 184.669 8.936 185.672C9.81067 186.664 11.0907 187.16 12.776 187.16C13.8 187.16 14.712 186.904 15.512 186.392C16.312 185.869 16.936 185.128 17.384 184.168C17.832 183.197 18.056 182.067 18.056 180.776C18.056 178.952 17.624 177.528 16.76 176.504C15.896 175.48 14.6107 174.968 12.904 174.968C11.9653 174.968 11.112 175.181 10.344 175.608C9.58667 176.035 8.96267 176.653 8.472 177.464ZM10.84 177.256C11.3307 176.392 12.0027 175.96 12.856 175.96C13.7093 175.96 14.36 176.376 14.808 177.208C15.256 178.04 15.48 179.267 15.48 180.888C15.48 182.616 15.2507 183.928 14.792 184.824C14.344 185.709 13.6987 186.152 12.856 186.152C11.9707 186.152 11.2933 185.72 10.824 184.856C10.3547 183.992 10.12 182.744 10.12 181.112C10.12 179.395 10.36 178.109 10.84 177.256ZM23.0634 176.104L24.2634 176.312V185.88L22.9994 186.04V187H28.7594V186.04L26.6154 185.88V182.728C26.8714 182.76 27.2927 182.776 27.8794 182.776C29.362 182.776 30.5194 182.403 31.3514 181.656C32.194 180.909 32.6154 179.864 32.6154 178.52C32.6154 177.741 32.4767 177.101 32.1994 176.6C31.9327 176.088 31.474 175.699 30.8234 175.432C30.1834 175.155 29.3087 175.016 28.1994 175.016C27.698 175.016 27.138 175.037 26.5194 175.08C26.05 175.101 25.7034 175.112 25.4794 175.112H23.0634V176.104ZM27.8474 181.784C27.2607 181.784 26.8447 181.757 26.5994 181.704V176.088C26.6634 176.088 26.77 176.077 26.9194 176.056C27.2394 176.013 27.5487 175.992 27.8474 175.992C28.6474 175.992 29.2394 176.2 29.6234 176.616C30.018 177.021 30.2154 177.672 30.2154 178.568C30.2154 179.72 29.9967 180.547 29.5594 181.048C29.1327 181.539 28.562 181.784 27.8474 181.784ZM40.9584 176.312L42.4304 176.104V175.112H37.4224V176.104L38.6544 176.312V185.88L37.3904 186.04V187H42.3824V186.04L40.9584 185.88V185.384L45.1504 180.056L46.1104 178.328V185.88L44.7664 186.04V187H49.7104V186.04L48.4304 185.88V176.312L49.6624 176.104V175.112H44.7664V176.104L46.1104 176.312V176.696L42.0304 181.976L40.9584 183.768V176.312ZM65.4846 188.168C65.5806 186.952 65.6286 186.184 65.6286 185.864H64.1246V176.312L65.6606 176.104V175.112H56.0126V176.104L57.6766 176.312V177.08C57.6766 178.701 57.5646 180.12 57.3406 181.336C57.1166 182.552 56.8553 183.523 56.5566 184.248C56.258 184.973 55.9806 185.512 55.7246 185.864H54.5726C54.53 186.461 54.482 187.656 54.4286 189.448L54.4126 190.168H55.7406C55.8046 189.752 55.9273 189.144 56.1086 188.344C56.3006 187.544 56.434 187.096 56.5086 187H63.5486C63.6126 187.096 63.7033 187.576 63.8206 188.44C63.938 189.304 64.002 189.875 64.0126 190.152H65.3086C65.33 190.056 65.3886 189.395 65.4846 188.168ZM58.6046 181.16C58.7753 179.965 58.8553 178.637 58.8446 177.176V176.2H61.8206L61.8046 185.864H57.3246C57.538 185.469 57.762 184.883 57.9966 184.104C58.2313 183.325 58.434 182.344 58.6046 181.16ZM74.2865 176.312L75.7585 176.104V175.112H70.7505V176.104L71.9825 176.312V185.88L70.7185 186.04V187H75.7105V186.04L74.2865 185.88V185.384L78.4785 180.056L79.4385 178.328V185.88L78.0945 186.04V187H83.0385V186.04L81.7585 185.88V176.312L82.9905 176.104V175.112H78.0945V176.104L79.4385 176.312V176.696L75.3585 181.976L74.2865 183.768V176.312ZM93.4208 182.44C93.9754 182.323 94.4341 182.157 94.7968 181.944V185.88L93.1008 186.04V187H98.4447V186.056L97.1328 185.88V176.312L98.4287 176.104V175.112H93.4847V176.104L94.7968 176.312V180.808C94.6048 180.947 94.3114 181.064 93.9167 181.16C93.5328 181.256 93.1541 181.304 92.7807 181.304C92.2261 181.304 91.8207 181.245 91.5648 181.128C91.3087 181 91.1274 180.739 91.0208 180.344C90.9141 179.949 90.8607 179.32 90.8607 178.456V176.312L92.0608 176.12V175.112H87.5967V176.12L88.5247 176.328V179C88.5247 179.917 88.6421 180.643 88.8767 181.176C89.1221 181.699 89.4847 182.072 89.9648 182.296C90.4447 182.509 91.0741 182.616 91.8528 182.616C92.3541 182.616 92.8767 182.557 93.4208 182.44ZM103.436 176.104L104.716 176.312V185.88L103.452 186.04V187H112.652L113.068 184.072L111.868 183.736L110.94 185.784L107.068 185.976V181.464L109.292 181.512L109.548 182.888H110.572V179.016H109.548L109.292 180.328L107.068 180.376V176.072L110.524 176.216L111.052 177.8H112.172L111.964 175.112H103.436V176.104ZM119.013 185.56C119.973 186.637 121.36 187.176 123.173 187.176C123.707 187.176 124.155 187.139 124.517 187.064C124.891 187 125.291 186.909 125.717 186.792C125.771 186.781 125.904 186.749 126.117 186.696C126.341 186.632 126.565 186.589 126.789 186.568L127.109 184.088L125.765 183.96L125.061 185.608C124.88 185.779 124.656 185.912 124.389 186.008C124.133 186.093 123.765 186.136 123.285 186.136C122.283 186.136 121.52 185.651 120.997 184.68C120.475 183.709 120.213 182.456 120.213 180.92C120.213 179.331 120.485 178.12 121.029 177.288C121.584 176.445 122.315 176.024 123.221 176.024C123.669 176.024 124.037 176.061 124.325 176.136C124.613 176.211 124.816 176.307 124.933 176.424L125.429 178.712H126.901L127.077 175.416C127.035 175.416 126.789 175.379 126.341 175.304C125.744 175.208 125.227 175.133 124.789 175.08C124.352 175.016 123.899 174.984 123.429 174.984C122.309 174.984 121.307 175.235 120.421 175.736C119.536 176.237 118.837 176.952 118.325 177.88C117.824 178.797 117.573 179.875 117.573 181.112C117.573 182.989 118.053 184.472 119.013 185.56ZM139.294 181.336C138.952 180.973 138.589 180.744 138.206 180.648L141.389 176.312L142.717 176.104V175.112H138.493V176.104L139.693 176.312L136.829 180.6H135.661V176.312L136.878 176.104V175.112H132.109V176.104L133.342 176.312V185.864L132.109 186.04V187H137.085V186.056L135.661 185.864V181.496H136.413C136.787 181.496 137.139 181.752 137.469 182.264C137.811 182.776 138.206 183.517 138.654 184.488C139.059 185.352 139.384 185.987 139.63 186.392C139.885 186.797 140.147 187 140.413 187H142.941V186.04L142.35 185.864C142.2 185.821 142.035 185.661 141.854 185.384C141.683 185.107 141.454 184.696 141.165 184.152C140.792 183.469 140.472 182.92 140.206 182.504C139.949 182.077 139.646 181.688 139.294 181.336ZM150.99 176.312L152.462 176.104V175.112H147.454V176.104L148.686 176.312V185.88L147.422 186.04V187H152.414V186.04L150.99 185.88V185.384L155.182 180.056L156.142 178.328V185.88L154.798 186.04V187H159.742V186.04L158.462 185.88V176.312L159.694 176.104V175.112H154.798V176.104L156.142 176.312V176.696L152.062 181.976L150.99 183.768V176.312ZM164.78 176.104L166.06 176.312V185.88L164.796 186.04V187H173.996L174.412 184.072L173.212 183.736L172.284 185.784L168.412 185.976V181.464L170.636 181.512L170.892 182.888H171.916V179.016H170.892L170.636 180.328L168.412 180.376V176.072L171.868 176.216L172.396 177.8H173.516L173.308 175.112H164.78V176.104ZM188.122 185.88C188.314 185.549 188.543 185.085 188.81 184.488L191.994 176.312L192.826 176.104V175.112H189.274V176.104L190.506 176.312L188.714 181.432L188.25 182.792L187.802 181.448L185.594 176.312L187.05 176.104V175.112H182.17V176.104L183.034 176.312L186.842 184.488C186.725 184.915 186.559 185.208 186.346 185.368C186.133 185.528 185.77 185.608 185.258 185.608L184.106 185.592V186.904C184.287 186.979 184.549 187.043 184.89 187.096C185.231 187.149 185.551 187.176 185.85 187.176C186.415 187.176 186.885 187.043 187.258 186.776C187.642 186.509 187.93 186.211 188.122 185.88ZM198.263 185.56C199.223 186.637 200.61 187.176 202.423 187.176C202.957 187.176 203.405 187.139 203.767 187.064C204.141 187 204.541 186.909 204.967 186.792C205.021 186.781 205.154 186.749 205.367 186.696C205.591 186.632 205.815 186.589 206.039 186.568L206.359 184.088L205.015 183.96L204.311 185.608C204.13 185.779 203.906 185.912 203.639 186.008C203.383 186.093 203.015 186.136 202.535 186.136C201.533 186.136 200.77 185.651 200.247 184.68C199.725 183.709 199.463 182.456 199.463 180.92C199.463 179.331 199.735 178.12 200.279 177.288C200.834 176.445 201.565 176.024 202.471 176.024C202.919 176.024 203.287 176.061 203.575 176.136C203.863 176.211 204.066 176.307 204.183 176.424L204.679 178.712H206.151L206.327 175.416C206.285 175.416 206.039 175.379 205.591 175.304C204.994 175.208 204.477 175.133 204.039 175.08C203.602 175.016 203.149 174.984 202.679 174.984C201.559 174.984 200.557 175.235 199.671 175.736C198.786 176.237 198.087 176.952 197.575 177.88C197.074 178.797 196.823 179.875 196.823 181.112C196.823 182.989 197.303 184.472 198.263 185.56ZM215.199 182.584C215.402 181.101 215.503 179.432 215.503 177.576V176.312H218.544L218.527 185.864L216.88 186.04V187H222.4V186.04L220.848 185.88V176.312L222.32 176.104V175.112H212.415V176.104L214.335 176.312V177.272C214.335 179.352 214.24 181.005 214.048 182.232C213.866 183.459 213.605 184.371 213.264 184.968C213.146 185.213 213.008 185.384 212.848 185.48C212.698 185.576 212.517 185.624 212.303 185.624C211.919 185.624 211.514 185.603 211.087 185.56L211.232 187C211.509 187.064 211.919 187.096 212.464 187.096C213.264 187.096 213.877 186.701 214.303 185.912C214.709 185.165 215.008 184.056 215.199 182.584ZM232.419 185.88C232.611 185.549 232.84 185.085 233.107 184.488L236.291 176.312L237.123 176.104V175.112H233.571V176.104L234.803 176.312L233.011 181.432L232.547 182.792L232.099 181.448L229.891 176.312L231.347 176.104V175.112H226.467V176.104L227.331 176.312L231.139 184.488C231.022 184.915 230.856 185.208 230.643 185.368C230.43 185.528 230.067 185.608 229.555 185.608L228.403 185.592V186.904C228.584 186.979 228.846 187.043 229.187 187.096C229.528 187.149 229.848 187.176 230.147 187.176C230.712 187.176 231.182 187.043 231.555 186.776C231.939 186.509 232.227 186.211 232.419 185.88ZM250.048 179.608L249.856 175.112H241.12V176.088L242.832 176.328V185.864L241.088 186.056V187H247.808V186.056L245.184 185.864V176.136L248.128 176.296L248.672 179.608H250.048ZM258.177 176.312L259.649 176.104V175.112H254.641V176.104L255.873 176.312V185.88L254.609 186.04V187H259.601V186.04L258.177 185.88V185.384L262.369 180.056L263.329 178.328V185.88L261.985 186.04V187H266.929V186.04L265.649 185.88V176.312L266.881 176.104V175.112H261.985V176.104L263.329 176.312V176.696L259.249 181.976L258.177 183.768V176.312ZM106.191 90.3726C106.785 90.2694 107.381 90.1659 107.98 90.0612V89.6522C107.881 89.6616 107.772 89.6616 107.659 89.6546C107.539 89.6475 107.441 89.6193 107.358 89.5817C107.238 89.5229 107.151 89.4548 107.09 89.3819C107.026 89.3044 106.967 89.2244 106.923 89.1234C106.8 88.8272 106.661 88.4817 106.515 88.1009L106.426 87.8658L106.425 87.8649C106.304 87.5461 106.173 87.2021 106.035 86.8341C105.861 86.3734 105.654 85.8304 105.411 85.2029L105.267 84.8263C105.064 84.2947 104.84 83.7087 104.597 83.071C104.282 83.1275 103.969 83.1862 103.646 83.2497C103.522 83.6207 103.393 83.9854 103.267 84.34L103.267 84.3418L103.266 84.3427L103.266 84.3436C103.176 84.5988 103.087 84.8489 103.003 85.0924C102.873 85.4751 102.747 85.8488 102.625 86.2095L102.625 86.2111L102.623 86.2171L102.621 86.2235C102.558 86.4095 102.497 86.5921 102.436 86.7706C102.362 86.9881 102.286 87.2068 102.21 87.4254L102.21 87.4255L102.21 87.4256C102.101 87.7408 101.992 88.0557 101.888 88.3665C101.779 88.6921 101.666 89.0159 101.553 89.3391L101.552 89.3429C101.481 89.548 101.409 89.7529 101.339 89.9578C101.278 90.1364 101.205 90.2962 101.113 90.442C101.024 90.5783 100.911 90.7052 100.784 90.8157C100.711 90.8838 100.61 90.9473 100.475 91.0014C100.344 91.0578 100.231 91.1001 100.136 91.1283V91.5349C100.737 91.4159 101.347 91.2938 101.959 91.1713L102.879 90.9873V90.5783C102.516 90.6135 102.255 90.6065 102.109 90.5595C101.961 90.5101 101.874 90.4279 101.874 90.3174C101.874 90.3122 101.874 90.3066 101.875 90.3003C101.876 90.2838 101.88 90.2634 101.884 90.2387C101.89 90.2083 101.896 90.1713 101.902 90.127C101.911 90.0377 101.942 89.8849 102.001 89.6781C102.025 89.5938 102.053 89.5037 102.082 89.4076C102.11 89.3189 102.138 89.225 102.168 89.1257C102.231 88.9189 102.288 88.7379 102.342 88.5804L102.757 88.4978C103.391 88.3715 104.029 88.2444 104.67 88.1268L104.793 88.4433C104.94 88.8234 105.089 89.2052 105.24 89.5841C105.261 89.6405 105.27 89.6851 105.273 89.7204C105.274 89.7375 105.278 89.7529 105.282 89.7678C105.287 89.7836 105.291 89.7987 105.291 89.8144C105.291 89.8943 105.164 89.9836 104.938 90.0776C104.71 90.1717 104.503 90.2422 104.336 90.2868V90.6958C104.953 90.5879 105.57 90.4805 106.19 90.3729L106.191 90.3726ZM104.293 87.1842L104.364 87.3679C104.379 87.4067 104.394 87.4456 104.41 87.4845C104.431 87.5403 104.453 87.5961 104.475 87.652C103.834 87.7742 103.178 87.9059 102.537 88.0375C102.638 87.7174 102.744 87.3984 102.85 87.079L102.85 87.0783C102.906 86.91 102.962 86.7417 103.018 86.5732C103.113 86.284 103.207 85.9923 103.301 85.6996C103.365 85.5022 103.429 85.3044 103.493 85.1065C103.571 85.3133 103.651 85.5202 103.731 85.7265C103.815 85.9445 103.899 86.1619 103.98 86.3781C104.083 86.6474 104.188 86.9157 104.293 87.1842ZM114.928 86.5896V88.0751C114.928 88.242 114.895 88.3642 114.829 88.4488C114.761 88.5358 114.66 88.5898 114.54 88.6039C113.53 88.7238 112.534 88.8484 111.525 88.9965C111.772 88.5123 112 87.9999 112.193 87.4569C112.386 86.9163 112.57 86.3475 112.716 85.7458C112.859 85.1488 112.972 84.5612 113.05 83.9948C113.128 83.4307 113.17 82.876 113.191 82.3377C113.482 82.3025 113.771 82.2672 114.06 82.2319C114.218 82.2126 114.376 82.1933 114.535 82.174C114.666 82.1581 114.797 82.1421 114.928 82.1262V83.6163V85.1018V86.5896ZM112.228 89.4054C112.36 89.3796 112.508 89.3537 112.647 89.3373C113.025 89.2913 113.405 89.2454 113.786 89.1994L114.673 89.0921L115.15 89.0341C115.255 89.0223 115.397 89.0082 115.571 88.9941C115.738 88.98 115.865 88.9823 115.959 88.9941C116.192 89.0223 116.454 89.2127 116.729 89.5605C117.007 89.9155 117.195 90.2868 117.296 90.6699C117.356 90.6641 117.417 90.6583 117.479 90.6524L117.48 90.6523C117.542 90.6465 117.603 90.6406 117.664 90.6347V88.2796C117.593 88.2876 117.52 88.295 117.447 88.3021L117.313 88.315L117.216 88.3242C117.016 88.343 116.868 88.3101 116.762 88.2326C116.656 88.1573 116.607 88.0257 116.607 87.84V85.17V82.4999C116.607 82.3871 116.618 82.2743 116.661 82.1732C116.705 82.0674 116.788 81.9852 116.908 81.9311C117.009 81.8864 117.122 81.8465 117.249 81.8136C117.376 81.7783 117.489 81.7525 117.591 81.736V81.327C115.538 81.548 113.485 81.7971 111.437 82.0698V82.4787C111.515 82.4745 111.631 82.4779 111.774 82.482L111.826 82.4834C111.993 82.4881 112.122 82.5093 112.207 82.5516C112.323 82.608 112.398 82.6903 112.436 82.7961C112.471 82.8995 112.487 83.0569 112.487 83.2638C112.487 83.6587 112.44 84.1005 112.353 84.5894C112.268 85.076 112.144 85.6142 111.972 86.1948C111.802 86.78 111.609 87.3159 111.419 87.7954C111.223 88.2819 111.016 88.7168 110.802 89.1022C110.649 89.1257 110.49 89.1492 110.331 89.1727L110.14 89.2009V90.395V91.5913C110.211 91.5816 110.281 91.5712 110.351 91.5609L110.352 91.5607L110.353 91.5606C110.401 91.5534 110.449 91.5463 110.496 91.5396C110.602 91.1236 110.785 90.7052 111.056 90.2845C111.327 89.8638 111.586 89.6052 111.838 89.5112C111.967 89.4642 112.106 89.4266 112.228 89.4054ZM127.079 85.2663C126.952 85.0407 126.785 84.8527 126.585 84.7093C126.397 84.573 126.163 84.4601 125.897 84.3779C125.636 84.298 125.382 84.2463 125.135 84.2298V84.1287C125.375 84.0535 125.61 83.9642 125.822 83.8631C126.036 83.7621 126.218 83.6375 126.371 83.5059C126.545 83.3578 126.677 83.1886 126.766 82.9958C126.856 82.8031 126.9 82.5775 126.9 82.3283C126.9 81.7807 126.698 81.3787 126.291 81.1155C125.89 80.8546 125.227 80.7324 124.311 80.7888C123.232 80.8562 122.142 80.935 121.06 81.0133L120.686 81.0403V81.4469L120.75 81.4554L120.751 81.4555L120.753 81.4557C120.829 81.4658 120.92 81.4778 121.023 81.4939C121.147 81.5127 121.27 81.5433 121.364 81.5809C121.496 81.6349 121.58 81.7031 121.609 81.7854C121.639 81.8676 121.663 81.9711 121.663 82.098V84.7234V87.3488C121.663 87.4851 121.642 87.5933 121.597 87.6849C121.555 87.7719 121.482 87.8471 121.364 87.9059C121.3 87.9388 121.194 87.974 121.056 88.0046C120.907 88.0351 120.773 88.0633 120.686 88.0845V88.4911C121.701 88.4169 122.717 88.3464 123.726 88.2762L124.151 88.2467C124.652 88.2138 125.088 88.1479 125.455 88.0657C125.829 87.9834 126.159 87.8588 126.439 87.6896C126.707 87.5251 126.917 87.3089 127.053 87.048C127.197 86.7777 127.267 86.458 127.267 86.0796C127.267 85.767 127.211 85.4967 127.079 85.2663ZM124.761 81.5809C124.965 81.7995 125.081 82.1168 125.081 82.5304C125.081 82.9794 124.958 83.3437 124.713 83.6234C124.469 83.9031 124.09 84.0606 123.584 84.0935C123.542 84.0968 123.504 84.0996 123.465 84.1024C123.423 84.1055 123.381 84.1086 123.336 84.1123V82.7326V81.3505C123.37 81.3458 123.41 81.3405 123.453 81.3348L123.514 81.3269L123.584 81.3176C123.675 81.3082 123.762 81.3012 123.824 81.2965C124.238 81.273 124.551 81.3599 124.761 81.5809ZM124.987 84.9232C125.262 85.1864 125.401 85.5766 125.401 86.096C125.401 86.6037 125.29 87.0033 125.055 87.2947C124.817 87.5885 124.513 87.7484 124.137 87.7742C123.925 87.7883 123.751 87.7578 123.595 87.6779C123.449 87.6003 123.341 87.4992 123.336 87.37C123.322 87.0674 123.327 86.7627 123.332 86.4587C123.334 86.307 123.336 86.1554 123.336 86.0044V84.6364C123.37 84.6334 123.41 84.6284 123.461 84.622L123.502 84.617L123.555 84.6106C123.657 84.5988 123.737 84.5894 123.791 84.5871C124.311 84.5518 124.713 84.6623 124.987 84.9232ZM137.427 82.6198C137.236 82.1403 136.968 81.7313 136.638 81.3905C136.323 81.0685 135.942 80.8076 135.501 80.6196C135.066 80.4362 134.59 80.3375 134.096 80.3305C133.595 80.3234 133.119 80.4127 132.672 80.6055C132.229 80.7935 131.843 81.0732 131.528 81.4211C131.203 81.7807 130.932 82.2084 130.747 82.702C130.558 83.198 130.471 83.7527 130.471 84.3591C130.471 84.9443 130.57 85.4708 130.758 85.9386C130.951 86.4133 131.213 86.8106 131.535 87.1396C131.869 87.4734 132.251 87.7272 132.684 87.9012C133.112 88.0704 133.574 88.155 134.063 88.1597C134.663 88.1668 135.186 88.0751 135.629 87.8753C136.057 87.6779 136.441 87.3958 136.765 87.0339C137.076 86.6836 137.309 86.2676 137.474 85.7834C137.636 85.3016 137.714 84.7892 137.714 84.2463C137.714 83.6398 137.618 83.1016 137.427 82.6198ZM135.734 85.6165C135.673 86.0208 135.57 86.371 135.426 86.6954C135.297 86.9939 135.122 87.2336 134.899 87.4052C134.675 87.5768 134.404 87.6614 134.096 87.6591C133.776 87.6544 133.512 87.5674 133.293 87.3958C133.077 87.2242 132.896 86.9798 132.759 86.6742C132.62 86.3663 132.514 86.0091 132.451 85.6001C132.387 85.1817 132.357 84.7445 132.357 84.2792C132.357 83.7292 132.387 83.2426 132.458 82.8219C132.528 82.3965 132.644 82.0275 132.792 81.729C133.091 81.1249 133.526 80.8288 134.096 80.8358C134.43 80.8405 134.703 80.9416 134.925 81.132C135.153 81.3294 135.332 81.5832 135.466 81.9052C135.6 82.2249 135.694 82.5892 135.749 82.9982C135.8 83.4048 135.829 83.8255 135.829 84.2557C135.829 84.761 135.793 85.2146 135.734 85.6165ZM147.688 88.6011C147.907 88.6217 148.126 88.6423 148.347 88.6627V88.2561L148.337 88.2542C148.266 88.2405 148.182 88.2243 148.081 88.1973C147.972 88.1715 147.885 88.1456 147.812 88.1197C147.761 88.1033 147.678 88.0563 147.584 87.9764C147.492 87.8965 147.386 87.7366 147.297 87.4992C147.273 87.4364 147.244 87.3679 147.213 87.2936L147.213 87.2934L147.213 87.293C147.169 87.1895 147.121 87.0749 147.076 86.9492C147.014 86.7756 146.945 86.6082 146.88 86.4495L146.835 86.3405C146.659 85.8986 146.421 85.5178 146.127 85.1958C145.84 84.8785 145.477 84.6388 145.037 84.4766V84.3849C145.185 84.2745 145.322 84.1358 145.44 83.9619C145.555 83.7903 145.673 83.5388 145.793 83.2027L145.801 83.1801C145.858 83.025 145.925 82.8423 145.993 82.6339C146.063 82.4153 146.141 82.2555 146.24 82.1544C146.435 82.4482 146.609 82.6503 146.748 82.7608C146.89 82.8713 147.043 82.9371 147.191 82.9488C147.431 82.97 147.631 82.9018 147.779 82.749C147.932 82.5939 148.012 82.3659 148.012 82.0627C148.012 81.7901 147.923 81.5527 147.739 81.3576C147.556 81.1649 147.304 81.0544 146.991 81.0285C146.795 81.0097 146.621 81.0262 146.454 81.0849C146.301 81.1367 146.162 81.226 146.054 81.3388C145.835 81.5621 145.673 81.7666 145.6 81.964C145.524 82.1638 145.435 82.4059 145.345 82.6926C145.263 82.9512 145.167 83.2074 145.056 83.4518C144.945 83.6986 144.769 83.9336 144.543 84.1687C144.434 84.2792 144.314 84.3544 144.176 84.3873C144.041 84.4178 143.907 84.4272 143.787 84.4202C143.718 84.417 143.647 84.4127 143.579 84.408C143.547 84.4059 143.516 84.4036 143.486 84.4014V83.1698V81.9334C143.486 81.8183 143.502 81.7149 143.54 81.6185C143.575 81.5221 143.66 81.4493 143.78 81.4164C143.853 81.3952 143.961 81.3764 144.093 81.3576C144.234 81.3388 144.347 81.3294 144.449 81.3294V80.9228C143.239 80.8428 142.026 80.7653 140.824 80.7089V81.1155C140.894 81.1223 140.99 81.1487 141.128 81.1864L141.144 81.1907C141.297 81.233 141.417 81.2847 141.506 81.3317C141.631 81.4023 141.711 81.4822 141.746 81.5644C141.784 81.6514 141.808 81.7525 141.808 81.877V84.5001V87.1255C141.808 87.2501 141.786 87.3559 141.739 87.4499C141.699 87.5345 141.619 87.6003 141.506 87.6403C141.438 87.6638 141.325 87.6873 141.172 87.699C141.019 87.7131 140.911 87.7202 140.824 87.7202V88.1268C142.026 88.1809 143.239 88.2608 144.449 88.343V87.9341C144.354 87.92 144.234 87.8941 144.088 87.8518C143.947 87.8142 143.846 87.7789 143.78 87.7413C143.672 87.6849 143.596 87.605 143.552 87.511C143.509 87.4146 143.486 87.3041 143.486 87.1866V84.895C143.714 84.9091 143.919 84.9514 144.081 85.0148C144.253 85.0807 144.397 85.1747 144.517 85.2898C144.642 85.4121 144.748 85.5531 144.837 85.7176C144.922 85.8798 145.011 86.0796 145.098 86.3099C145.216 86.6249 145.336 86.968 145.444 87.33C145.555 87.699 145.666 88.0633 145.779 88.4277C146.415 88.4818 147.047 88.5411 147.684 88.6007L147.684 88.6008L147.688 88.6011ZM154.62 89.3749C155.832 89.5535 157.049 89.7321 158.266 89.9108V89.5018C158.172 89.4806 158.064 89.4501 157.951 89.4054C157.838 89.3608 157.729 89.3044 157.642 89.2338C157.529 89.1398 157.435 89.0435 157.376 88.9494C157.315 88.8554 157.263 88.7544 157.223 88.6415C157.096 88.3031 156.962 87.92 156.814 87.4922C156.755 87.3199 156.692 87.1395 156.627 86.9518C156.531 86.6761 156.43 86.3845 156.326 86.0796C156.152 85.5672 155.945 84.9584 155.705 84.2604C155.661 84.134 155.616 84.0045 155.571 83.8721L155.45 83.523L155.443 83.5011L155.439 83.4914C155.267 82.9933 155.082 82.4557 154.881 81.8794C154.568 81.8347 154.253 81.7901 153.937 81.7501C153.821 82.05 153.707 82.3447 153.595 82.6323L153.59 82.6438C153.492 82.8954 153.397 83.1416 153.304 83.3813C153.207 83.6303 153.114 83.8739 153.024 84.1116C152.925 84.3698 152.83 84.6209 152.734 84.8644C152.652 85.076 152.567 85.2866 152.482 85.4969C152.377 85.7562 152.273 86.0151 152.174 86.2747C152.084 86.5081 151.993 86.7422 151.903 86.9763C151.812 87.2111 151.721 87.446 151.63 87.6802C151.569 87.84 151.496 87.9717 151.404 88.0845C151.317 88.1973 151.209 88.2866 151.082 88.3571C151.009 88.4018 150.901 88.4277 150.769 88.4417C150.642 88.4559 150.522 88.4606 150.42 88.4559V88.8625L150.868 88.9166C151.634 89.0089 152.396 89.1011 153.163 89.1915V88.7849C152.807 88.7074 152.553 88.6204 152.4 88.5217C152.252 88.4277 152.174 88.3219 152.174 88.2091C152.174 88.1762 152.176 88.1127 152.186 88.0257C152.195 87.9388 152.233 87.8001 152.294 87.6144C152.333 87.4876 152.383 87.3448 152.437 87.1891L152.461 87.1185C152.494 87.0214 152.528 86.9308 152.559 86.8466L152.559 86.8453C152.587 86.7689 152.613 86.6978 152.635 86.6319L152.992 86.6755C153.643 86.7548 154.299 86.8347 154.954 86.9281C155.07 87.2619 155.189 87.5966 155.308 87.9305C155.383 88.1397 155.457 88.3487 155.531 88.5569C155.552 88.6227 155.566 88.6721 155.571 88.7074C155.571 88.7159 155.572 88.7241 155.573 88.7321L155.574 88.7455L155.574 88.7461V88.7462C155.576 88.7658 155.578 88.784 155.578 88.8014C155.578 88.8836 155.462 88.9353 155.229 88.9541C155.001 88.9729 154.794 88.9776 154.62 88.9659V89.3749ZM154.278 84.9678C154.439 85.4403 154.601 85.9174 154.768 86.3969C154.258 86.3249 153.749 86.2631 153.239 86.2011C153.1 86.1842 152.961 86.1672 152.821 86.1501C152.947 85.824 153.067 85.4979 153.186 85.1709L153.191 85.1597L153.251 84.9957C153.268 84.9473 153.286 84.8988 153.304 84.8503L153.347 84.7333C153.493 84.3395 153.639 83.9442 153.791 83.5529C153.819 83.6331 153.846 83.7132 153.874 83.7934C153.919 83.924 153.964 84.0546 154.009 84.1854L154.01 84.1865L154.01 84.1876C154.1 84.4468 154.19 84.7066 154.278 84.9678ZM166.639 86.1242C166.759 86.1501 166.879 86.1736 167.013 86.1971V84.0629C164.84 83.6398 162.68 83.2191 160.519 82.8501V84.9772L160.519 84.9773C160.639 84.9985 160.759 85.0196 160.888 85.0407C160.987 84.7422 161.142 84.4296 161.354 84.1052C161.569 83.7809 161.771 83.6163 161.95 83.6187C162.021 83.6203 162.105 83.6278 162.199 83.6361L162.253 83.6409L162.324 83.6469C162.47 83.661 162.607 83.6798 162.705 83.6963C162.718 83.6988 162.731 83.7013 162.744 83.7039L162.768 83.7087C162.795 83.7142 162.822 83.7197 162.848 83.7252C162.875 83.7306 162.901 83.7359 162.927 83.7409V85.2123V86.686V88.1597V89.6334C162.927 89.7627 162.903 89.8685 162.866 89.9554C162.83 90.04 162.738 90.1012 162.618 90.1364C162.564 90.1529 162.444 90.1576 162.284 90.1482C162.222 90.1446 162.165 90.1411 162.114 90.138L162.113 90.1379C162.028 90.1327 161.96 90.1285 161.91 90.127V90.536C163.141 90.7616 164.379 91.0084 165.622 91.2576V90.8486C165.514 90.8133 165.387 90.764 165.234 90.6982C165.088 90.6347 164.97 90.583 164.899 90.536C164.784 90.4584 164.702 90.3667 164.659 90.2563C164.619 90.1576 164.598 90.04 164.598 89.9155V88.4535V86.9915V85.5296V84.07C164.673 84.0841 164.746 84.0958 164.819 84.1099C164.925 84.1311 165.059 84.1616 165.201 84.1992C165.349 84.2392 165.469 84.2768 165.568 84.3097C165.756 84.3732 165.949 84.6106 166.163 85.0125C166.382 85.4215 166.538 85.7881 166.639 86.1242ZM192.499 92.5829L180.247 89.2617V100.097V104.643L192.85 107.788L192.499 92.5829Z" fill="#FEFEFE"/>
</svg>
