<svg width="474" height="474" viewBox="0 0 474 474" fill="none" xmlns="http://www.w3.org/2000/svg">
<g filter="url(#filter0_d_70:71)">
<path fill-rule="evenodd" clip-rule="evenodd" d="M237.005 0C365.681 0 470 104.319 470 233C470 361.681 365.681 466 237.005 466C108.319 466 4 361.681 4 233C4 104.319 108.319 0 237.005 0ZM178.318 398.719L184.039 400.551L183.709 401.57C183.02 401.391 182.565 401.804 182.34 402.819L182.024 404.403C182.63 404.389 183.585 404.302 184.889 404.137L184.916 404.045C184.976 403.925 185.036 403.783 185.081 403.632C185.407 402.612 185.27 402.006 184.664 401.813L184.971 400.854L189.898 402.429L189.572 403.448C188.855 403.347 188.295 403.696 187.891 404.504C186.376 407.553 185.293 409.756 184.65 411.111C183.456 413.604 182.446 415.831 181.606 417.787C181.431 418.209 181.399 418.618 181.514 419.003C181.629 419.398 181.872 419.623 182.249 419.683C182.033 420.298 181.923 420.675 181.918 420.821L174.241 418.365L174.577 417.222C174.916 417.392 175.247 417.355 175.568 417.103C175.885 416.85 176.096 416.501 176.197 416.051C176.734 413.668 177.584 408.838 178.745 401.57C178.888 400.684 178.635 400.069 177.992 399.738L178.318 398.719ZM181.546 406.868L180.063 414.137L180.192 414.215L183.621 406.726L181.546 406.868ZM164.301 393.701C164.981 394.017 165.55 393.682 166.014 392.695C166.087 392.534 166.124 392.456 166.128 392.47C166.138 392.484 166.142 392.484 166.151 392.466C166.161 392.447 166.184 392.383 166.22 392.268C166.266 392.158 166.372 391.915 166.546 391.534L169.811 391.933L167.905 396.033C167.735 396.391 167.735 396.795 167.901 397.245C167.979 397.452 168.075 397.626 168.181 397.764L167.671 398.87L165.646 397.934C164.939 398.416 164.214 399.072 163.47 399.908C162.722 400.739 161.992 401.657 161.285 402.663C160.578 403.668 159.916 404.72 159.297 405.822C158.677 406.919 158.144 407.98 157.694 408.994C157.07 410.193 157.143 411.024 157.915 411.487L157.437 412.516L147.024 407.681L147.502 406.657C148.388 406.919 149.067 406.437 149.549 405.216L155.206 393.09L153.075 392.103L153.59 390.996C153.769 390.987 153.962 390.95 154.168 390.872C154.618 390.707 154.926 390.445 155.091 390.083L156.569 386.905L159.829 387.3L158.865 389.38C158.406 390.367 158.516 391.019 159.2 391.336L164.301 393.701ZM154.995 407.741C155.504 406.648 156.051 405.542 156.638 404.421C157.221 403.306 157.837 402.25 158.484 401.249C159.136 400.248 159.802 399.334 160.481 398.503C161.161 397.672 161.831 396.997 162.492 396.469L158.686 394.706L153.08 406.855L154.995 407.741ZM132.318 382.663C134.311 379.468 136.795 378.806 139.761 380.684L145.132 384.031L144.517 385.018C143.824 384.559 143.154 384.807 142.511 385.762L135.201 397.493C134.476 398.655 134.481 399.522 135.22 400.101L134.655 401.01L129.201 397.612C128.31 397.057 127.662 396.267 127.249 395.239C126.662 393.746 126.882 392.172 127.92 390.505C128.962 388.838 130.211 387.998 131.671 387.971C130.899 386.368 131.111 384.601 132.318 382.663ZM131.212 392.764C130.56 393.806 130.537 394.518 131.143 394.894C131.712 395.252 132.245 395.037 132.74 394.242L134.499 391.419C133.094 391.051 131.997 391.506 131.212 392.764ZM135.665 385.45C134.816 386.814 134.554 387.723 134.871 388.182C135.436 388.251 135.936 388.333 136.372 388.416L138.53 384.959C138.948 384.284 138.907 383.793 138.397 383.476C137.846 383.131 137.3 383.246 136.753 383.815C136.616 383.967 136.248 384.509 135.665 385.45ZM116.037 368.806C116.212 368.586 116.515 368.311 116.956 367.975C118.838 366.626 120.794 366.745 122.823 368.329C124.857 369.918 125.436 371.782 124.573 373.921C124.366 374.44 124.178 374.812 124.008 375.032L117.084 383.843C116.115 385.051 115.018 385.689 113.792 385.767C112.566 385.836 111.34 385.4 110.124 384.449C108.907 383.494 108.2 382.434 108.016 381.254C107.833 380.074 108.214 378.875 109.159 377.659L116.037 368.806ZM118.732 371.249L111.983 379.899C111.749 380.193 111.653 380.537 111.685 380.928C111.717 381.318 111.891 381.639 112.203 381.878C112.511 382.126 112.878 382.227 113.292 382.181C113.7 382.14 114.022 381.97 114.251 381.676L121.005 373.026C121.253 372.714 121.354 372.351 121.317 371.947C121.285 371.543 121.115 371.226 120.821 370.992C120.505 370.749 120.142 370.652 119.724 370.703C119.311 370.758 118.976 370.937 118.732 371.249ZM101.832 348.922L106.148 353.352L105.275 354.165C104.83 353.848 104.421 353.876 104.036 354.252C103.935 354.344 103.843 354.468 103.755 354.606C103.443 355.161 102.433 356.823 100.73 359.592L102.649 358.921L104.862 356.759C105.886 355.74 106.102 354.95 105.505 354.394L106.359 353.563L110.84 358.164L109.968 359.018C109.178 358.348 108.296 358.485 107.332 359.422L97.897 368.618C96.9328 369.555 96.7721 370.432 97.4241 371.235L96.5701 372.066L92.089 367.466L92.9383 366.635C93.4801 367.25 94.2285 367.08 95.1973 366.139L99.1779 362.259C98.2918 362.571 97.3965 362.888 96.4966 363.21C95.3258 363.632 94.1505 364.133 92.9659 364.702C92.7088 364.84 92.5205 364.968 92.392 365.097C92.066 365.414 92.1119 365.785 92.5251 366.208L91.6711 367.039L87.8558 363.081L88.5996 362.356C88.7419 362.47 88.898 362.562 89.0816 362.636C89.4719 362.778 89.8759 362.783 90.2983 362.65C91.5564 362.259 93.5949 361.529 96.4277 360.459L101.23 351.584C101.607 350.831 101.515 350.23 100.959 349.771L101.832 348.922ZM88.246 331.135L91.74 336.025L90.8677 336.644C90.4177 336.089 89.8071 336.144 89.0265 336.828L87.8236 337.907C88.3149 338.256 89.1367 338.756 90.28 339.404L90.3534 339.349C90.4774 339.284 90.6014 339.211 90.7345 339.114C91.6069 338.49 91.8548 337.925 91.4829 337.406L92.3047 336.819L95.3166 341.029L94.4443 341.653C93.9301 341.139 93.2735 341.089 92.4654 341.493C89.426 343.031 87.2405 344.156 85.9182 344.858C83.4711 346.139 81.3315 347.319 79.4904 348.389C79.0955 348.623 78.8292 348.931 78.6869 349.312C78.5446 349.693 78.6089 350.019 78.8752 350.294C78.3288 350.652 78.0166 350.896 77.9248 351.011L73.237 344.45L74.192 343.738C74.3619 344.073 74.6511 344.243 75.0552 344.229C75.4592 344.22 75.8403 344.068 76.1846 343.77C78.0441 342.177 81.6116 338.807 86.887 333.678C87.5298 333.049 87.6951 332.407 87.3783 331.755L88.246 331.135ZM85.9641 339.597L80.427 344.541L80.4913 344.679L87.7134 340.726L85.9641 339.597ZM66.8275 317.958L67.1122 320.795L64.0406 322.499C63.7146 322.682 63.6412 322.981 63.8294 323.398C63.9075 323.582 64.0314 323.706 64.2013 323.77C64.3758 323.83 64.564 323.784 64.7706 323.628L76.2122 317.278C77.1121 316.778 77.4335 316.006 77.1764 314.973L78.1084 314.45L81.4601 320.487L80.5188 321.002C79.7796 320.24 78.9578 320.106 78.0533 320.602L66.6163 326.952C66.373 327.044 66.2261 327.172 66.1848 327.342C66.148 327.512 66.1802 327.682 66.2949 327.843C66.5521 328.224 66.8459 328.329 67.1903 328.164L70.2527 326.465L72.5116 328.201L65.2068 332.26L59.5228 322.016L66.8275 317.958ZM59.4723 291.801L61.1251 296.796L58.329 297.719L56.6807 292.724L59.4723 291.801ZM58.6596 253.156L59.7018 259.611L58.6183 259.79C58.5907 259.51 58.3795 259.249 57.9755 259.005C57.576 258.753 57.1812 258.661 56.7909 258.725L46.3136 260.451L46.387 260.709L59.9176 260.934L60.2941 263.252L47.466 267.761L47.5394 268.05L57.9939 266.393C58.8983 266.246 59.3712 265.759 59.4172 264.933L60.5329 264.749L61.4006 270.121L60.3125 270.295C59.9038 269.496 59.2748 269.157 58.43 269.271L44.8168 271.503C43.4669 271.737 42.8196 272.306 42.8609 273.202L41.7176 273.39L40.5836 266.374L50.386 263.105L50.4136 262.889L39.9684 262.554L38.9812 256.42L40.0923 256.241C40.377 257.118 41.1575 257.417 42.4385 257.127L56.1757 254.937C56.8736 254.749 57.3052 254.216 57.4842 253.344C57.7276 253.344 58.1224 253.28 58.6596 253.156ZM47.6818 237.472L42.5716 234.841L41.0244 234.887C39.6378 234.896 38.9215 235.231 38.8664 235.888L37.6773 235.897L37.6176 229.653L38.8113 229.639C38.7608 230.732 39.4679 231.274 40.9371 231.26L54.2519 231.136C55.7212 231.122 56.419 230.567 56.3502 229.478L57.5393 229.469L57.599 235.686L56.3777 235.695C56.3134 235.062 55.588 234.749 54.1968 234.763L47.4201 234.827L52.7093 237.426L54.3116 237.38C55.0876 237.371 55.5926 237.316 55.8268 237.219C56.2629 237.077 56.4604 236.756 56.4144 236.26L57.6036 236.246L57.6587 242.463L56.442 242.472C56.3318 241.485 55.6064 240.998 54.2565 241.007L41.084 241.131C39.7388 241.145 39.018 241.664 38.9261 242.692L37.7416 242.706L37.6819 236.434L38.871 236.421C38.8573 236.916 39.0547 237.233 39.4771 237.366C39.7112 237.463 40.2163 237.509 40.9922 237.504L47.6818 237.472ZM59.3988 206.352L58.4805 212.739L57.397 212.582C57.397 212.399 57.3097 212.178 57.1307 211.912C56.9011 211.559 56.6256 211.389 56.2997 211.402C56.2216 211.412 54.7891 211.66 52.0206 212.142L52.016 212.353C54.1647 213.322 55.5329 213.804 56.1344 213.813C56.6578 213.804 57.0297 213.597 57.2501 213.188L58.3933 213.354L57.6495 218.565L56.4971 218.4C56.3731 218.023 56.1022 217.541 55.6844 216.963C55.1518 216.623 52.5348 215.397 47.8333 213.285L40.3357 215.062C39.5276 215.245 39.0547 215.691 38.9124 216.393L37.8242 216.237L38.7241 209.965L39.9316 210.14C39.8811 210.351 39.9133 210.562 40.0234 210.769C40.1336 210.971 40.3035 211.095 40.5423 211.132C40.6754 211.145 40.8407 211.132 41.0244 211.081C41.8278 210.948 42.9665 210.746 44.4495 210.457C44.4724 210.438 44.4678 210.402 44.4403 210.333C42.7599 209.332 41.6258 208.79 41.0381 208.703C40.3862 208.611 40.0556 208.836 40.0418 209.373L38.8343 209.203L39.6011 203.841L40.7718 204.043C40.703 204.13 40.6571 204.235 40.6387 204.355C40.5515 204.961 41.1621 205.613 42.4614 206.297C42.9665 206.549 44.8076 207.596 47.994 209.433C50.0279 209.043 52.9618 208.432 56.7863 207.596C57.7597 207.376 58.2556 206.917 58.2739 206.219L59.3988 206.352ZM63.6733 184.686L62.3556 190.549L61.3088 190.315C61.4282 189.607 60.9736 189.19 59.9498 189.061L58.3428 188.882C58.4117 189.488 58.5815 190.429 58.8616 191.71L58.9488 191.733C59.082 191.779 59.2243 191.825 59.3804 191.857C60.4227 192.091 61.0149 191.903 61.1527 191.279L62.1398 191.504L61.0058 196.55L59.9589 196.315C60.0003 195.595 59.6008 195.067 58.7606 194.736C55.588 193.496 53.2924 192.61 51.892 192.091C49.3025 191.127 46.9977 190.315 44.9729 189.653C44.5367 189.511 44.1281 189.52 43.7516 189.667C43.3705 189.819 43.1685 190.08 43.1455 190.461C42.5074 190.296 42.1217 190.223 41.9794 190.227L43.747 182.367L44.9132 182.601C44.7709 182.955 44.8397 183.276 45.1198 183.575C45.3953 183.873 45.7626 184.052 46.2217 184.112C48.6413 184.433 53.5265 184.851 60.868 185.37C61.7679 185.425 62.3556 185.122 62.6311 184.451L63.6733 184.686ZM55.8405 188.625L48.4669 187.789L48.4072 187.927L56.1711 190.677L55.8405 188.625ZM59.4723 166.665L55.6615 162.367L54.2014 161.853C52.8975 161.38 52.1032 161.431 51.8277 162.005L50.712 161.582L52.9159 155.737L54.027 156.16C53.8295 156.679 53.8387 157.124 54.0499 157.487C54.2657 157.854 54.7202 158.171 55.4227 158.437L67.8927 163.129C68.5952 163.396 69.1462 163.46 69.5502 163.327C69.9496 163.194 70.2481 162.863 70.4409 162.344L71.5566 162.762L69.3665 168.579L68.2279 168.148C68.3932 167.537 67.8284 166.982 66.5291 166.495L60.1885 164.107L64.1784 168.437L65.6889 168.974C66.1343 169.144 66.497 169.259 66.7816 169.323C67.0663 169.383 67.2867 169.401 67.452 169.364C67.6127 169.332 67.732 169.259 67.8147 169.153C67.8973 169.048 67.98 168.891 68.0534 168.689L69.1691 169.107L66.9791 174.924L65.8358 174.493C66.0883 173.533 65.5925 172.812 64.3299 172.34L52.0022 167.693C50.7212 167.216 49.8626 167.441 49.4265 168.377L48.3108 167.959L50.5238 162.087L51.6349 162.505C51.566 162.689 51.5247 162.854 51.5155 162.996C51.5017 163.143 51.5522 163.285 51.6578 163.419C51.7634 163.556 51.9425 163.69 52.1904 163.823C52.4338 163.96 52.7781 164.112 53.2235 164.282L59.4723 166.665ZM49.6468 161.467C49.275 162.454 48.7745 163.175 48.1455 163.639C47.5165 164.098 46.9288 164.227 46.3962 164.025C46.1345 163.928 45.9508 163.754 45.8452 163.501C45.735 163.249 45.7396 162.978 45.8498 162.679C46.0105 162.248 46.2263 162.018 46.4834 161.977C46.7405 161.936 47.0068 161.931 47.2823 161.959C47.5578 161.991 47.8241 161.982 48.0904 161.931C48.3521 161.881 48.5725 161.614 48.7561 161.132C48.9444 160.632 48.9581 160.264 48.8066 160.026C48.6505 159.787 48.4623 159.585 48.2419 159.415C48.0169 159.25 47.8195 159.071 47.645 158.887C47.4706 158.703 47.4614 158.4 47.6267 157.973C47.7277 157.693 47.9021 157.491 48.1409 157.358C48.3842 157.23 48.6322 157.211 48.8939 157.308C49.4632 157.528 49.8259 158.019 49.9682 158.795C50.1106 159.571 50.0004 160.439 49.6331 161.403L49.6468 161.467ZM65.2986 138.511C66.1251 138.979 67.0617 139.535 68.1131 140.177C69.1599 140.816 70.1976 141.509 71.226 142.253C72.2545 142.996 73.2187 143.782 74.1231 144.613C75.0276 145.448 75.7576 146.298 76.3224 147.161C76.6484 147.666 76.8963 148.185 77.0616 148.713C77.2315 149.241 77.3049 149.769 77.282 150.287C77.259 150.811 77.1167 151.33 76.8596 151.844C76.6025 152.358 76.2076 152.863 75.675 153.359L73.0763 151.063C73.6548 150.687 73.9211 150.228 73.8752 149.686C73.8293 149.149 73.5814 148.57 73.136 147.951C72.6264 147.248 71.9239 146.536 71.0378 145.802C70.1562 145.072 69.2426 144.383 68.3105 143.745C67.3785 143.097 66.497 142.533 65.6797 142.06C64.8579 141.582 64.2518 141.243 63.8616 141.045C62.7183 140.324 61.8781 140.338 61.3409 141.082L60.3584 140.526L65.7899 130.958L66.7724 131.518C66.4419 132.377 66.8643 133.098 68.0442 133.672L79.6511 140.265C80.1699 140.558 80.6566 140.687 81.1111 140.65C81.6667 140.595 82.0707 140.324 82.3278 139.833L83.3609 140.421L79.9679 146.394L78.9119 145.793C79.3389 144.833 78.9899 144.048 77.8467 143.446L66.2399 136.853L65.2986 138.511ZM91.4278 120.944C91.6528 121.105 91.9466 121.394 92.3047 121.817C93.7418 123.63 93.7189 125.591 92.2313 127.698C90.7437 129.801 88.9164 130.476 86.7355 129.714C86.2075 129.535 85.831 129.365 85.6014 129.204L76.4601 122.721C75.2067 121.812 74.5134 120.747 74.3803 119.526C74.2471 118.304 74.6282 117.06 75.5189 115.798C76.4142 114.535 77.4381 113.777 78.6043 113.539C79.775 113.291 80.9872 113.617 82.2544 114.507L91.4278 120.944ZM89.1184 123.754L80.1561 117.432C79.8439 117.212 79.4996 117.134 79.1093 117.184C78.719 117.235 78.4068 117.427 78.1819 117.749C77.9523 118.07 77.8697 118.438 77.9339 118.846C77.9982 119.255 78.1819 119.567 78.4895 119.787L87.4563 126.11C87.7777 126.339 88.1404 126.426 88.5445 126.371C88.9485 126.316 89.2561 126.133 89.4765 125.825C89.7061 125.504 89.7841 125.132 89.7107 124.718C89.6418 124.305 89.4444 123.979 89.1184 123.754ZM105.863 103.006C108.608 105.586 108.769 108.148 106.35 110.687L102.011 115.302L101.166 114.507C101.749 113.915 101.639 113.208 100.831 112.391L90.7575 102.914C89.7657 101.982 88.9118 101.817 88.2001 102.428L87.4196 101.693L91.8181 97.0145C92.5389 96.2523 93.4434 95.7656 94.5315 95.5682C96.1064 95.279 97.6123 95.807 99.0402 97.1522C100.468 98.4975 101.051 99.8932 100.785 101.33C102.511 100.88 104.205 101.44 105.863 103.006ZM96.1798 99.93C95.2845 99.0897 94.5912 98.929 94.0999 99.4525C93.6408 99.9391 93.751 100.508 94.4259 101.142L96.8501 103.424C97.4883 102.115 97.2634 100.954 96.1798 99.93ZM102.475 105.738C101.308 104.636 100.468 104.2 99.9539 104.425C99.7748 104.962 99.6003 105.44 99.4305 105.848L102.396 108.64C102.975 109.186 103.466 109.241 103.875 108.805C104.325 108.332 104.32 107.772 103.866 107.125C103.751 106.959 103.287 106.5 102.475 105.738ZM122.745 88.9062C125.013 91.7115 124.756 94.2 121.978 96.3717C120.835 97.2624 119.545 97.6343 118.113 97.4828C116.671 97.3404 115.523 96.7068 114.655 95.6003L108.452 87.6574C107.539 86.4866 107.08 85.3204 107.08 84.1634C107.08 82.8043 107.695 81.6428 108.93 80.6832C109.348 80.3526 109.839 80.045 110.395 79.7603C110.803 79.5675 111.244 79.4114 111.721 79.2874C112.061 79.2048 112.3 79.1038 112.442 78.9936C112.658 78.8237 112.929 78.4472 113.255 77.8641L114.297 78.1855C114.008 78.8145 114.045 79.3287 114.403 79.7236L117.346 83.539C116.983 84.2001 116.473 85.1918 115.817 86.505C115.707 86.3672 115.39 85.9632 114.862 85.2883C114.338 84.6179 114.072 84.2736 114.058 84.2552C113.168 83.1166 112.401 82.7952 111.763 83.2956C111.152 83.7731 111.294 84.5812 112.185 85.7198L117.695 92.7721C118.062 93.2404 118.484 93.5526 118.962 93.6949C119.435 93.8373 119.834 93.773 120.146 93.4975C120.652 93.0797 120.757 92.5563 120.468 91.9273C120.399 91.7804 120.119 91.3809 119.618 90.7427C119.054 90.0265 118.397 89.3562 117.64 88.7409C117.933 88.1854 118.489 87.1064 119.306 85.5132C119.664 85.8162 120.036 86.1285 120.422 86.459C121.294 87.2579 122.075 88.0706 122.745 88.9062ZM145.435 79.7419L140.256 83.1303L139.637 82.1157C140.027 81.7438 140.077 81.3305 139.784 80.8806C139.71 80.7658 139.609 80.651 139.494 80.5408C139.003 80.123 137.571 78.8145 135.178 76.6107L135.468 78.6217L137.162 81.2158C137.97 82.4141 138.705 82.7722 139.357 82.2947L140.013 83.291L134.632 86.808L133.966 85.7841C134.779 85.1367 134.811 84.2506 134.072 83.1211L126.868 72.0974C126.129 70.9679 125.303 70.642 124.384 71.124L123.732 70.1277L129.113 66.6154L129.761 67.6117C129.058 68.0249 129.081 68.7917 129.816 69.9211L132.86 74.5767C132.722 73.6447 132.584 72.7035 132.437 71.7576C132.254 70.5318 131.987 69.2783 131.657 68.0065C131.57 67.7311 131.478 67.5199 131.381 67.3729C131.129 66.9873 130.757 66.9597 130.261 67.2857L129.609 66.294L134.228 63.305L134.797 64.1774C134.66 64.2922 134.54 64.4299 134.435 64.5952C134.214 64.9487 134.132 65.3482 134.182 65.7889C134.324 67.0929 134.65 69.237 135.155 72.2214L142.938 78.6446C143.608 79.1543 144.214 79.1818 144.77 78.7273L145.435 79.7419ZM155.463 63.53L155.816 57.7955L155.146 56.3951C154.577 55.1325 153.98 54.6091 153.365 54.8249L152.873 53.7413L158.567 51.1702L159.053 52.2537C158.034 52.6486 157.827 53.5118 158.429 54.8478L163.911 66.9919C164.512 68.3279 165.302 68.7457 166.271 68.2453L166.757 69.3288L161.096 71.8862L160.596 70.7751C161.147 70.4583 161.138 69.6686 160.568 68.406L157.781 62.2261L157.529 68.1121L158.222 69.563C158.539 70.2655 158.792 70.7062 158.98 70.8807C159.287 71.2205 159.655 71.271 160.091 71.0322L160.582 72.1204L154.916 74.6731L154.416 73.562C155.279 73.0616 155.431 72.203 154.875 70.9725L149.457 58.9662C148.902 57.7358 148.135 57.2904 147.157 57.621L146.666 56.5374L152.382 53.9571L152.873 55.0407C152.414 55.2289 152.208 55.5411 152.254 55.9773C152.258 56.2344 152.419 56.7119 152.736 57.419L155.463 63.53ZM178.92 54.678L180.054 49.049L179.586 47.5752C179.177 46.2483 178.658 45.6468 178.029 45.7662L177.699 44.6276L183.686 42.8645L184.021 44.0032C183.488 44.1638 183.139 44.4347 182.979 44.825C182.813 45.2107 182.836 45.7662 183.052 46.4916L186.812 59.2693C187.028 59.9947 187.308 60.4722 187.657 60.7109C188.001 60.9497 188.447 60.9864 188.979 60.8303L189.315 61.9736L183.351 63.7274L183.011 62.5612C183.603 62.3225 183.699 61.5374 183.309 60.2105L181.395 53.7092L180.339 59.5034L180.825 61.0323C180.963 61.4915 181.087 61.8496 181.202 62.1159C181.326 62.3822 181.45 62.5612 181.569 62.6714C181.693 62.7816 181.826 62.8367 181.959 62.8413C182.097 62.8413 182.267 62.8092 182.478 62.7449L182.813 63.8881L176.849 65.6466L176.505 64.4758C177.428 64.0993 177.699 63.2683 177.322 61.9736L173.599 49.3383C173.208 48.0251 172.51 47.4788 171.5 47.6946L171.165 46.5513L177.184 44.7791L177.52 45.9223C177.327 45.9774 177.175 46.0417 177.051 46.1198C176.927 46.1978 176.845 46.3172 176.803 46.4871C176.757 46.6523 176.757 46.8773 176.799 47.1528C176.835 47.4329 176.927 47.8002 177.06 48.2547L178.92 54.678ZM177.148 43.7047C176.138 44.0032 175.261 44.0399 174.512 43.8149C173.764 43.5899 173.309 43.2043 173.144 42.6533C173.066 42.3824 173.098 42.1345 173.231 41.8957C173.374 41.657 173.594 41.5009 173.897 41.4091C174.333 41.2805 174.645 41.3035 174.834 41.4871C175.022 41.6708 175.187 41.8774 175.329 42.1161C175.472 42.3503 175.642 42.5615 175.839 42.7451C176.037 42.9196 176.381 42.938 176.877 42.791C177.391 42.6395 177.699 42.4329 177.795 42.1666C177.891 41.9003 177.937 41.6249 177.937 41.3494C177.937 41.0647 177.96 40.803 177.997 40.5551C178.038 40.3071 178.282 40.1143 178.718 39.9858C179.003 39.9031 179.269 39.9169 179.517 40.0317C179.769 40.1419 179.935 40.3301 180.013 40.601C180.187 41.1841 180.008 41.7718 179.475 42.3503C178.943 42.9334 178.181 43.365 177.194 43.6588L177.148 43.7047ZM335.011 145.228C331.884 149.135 328.996 152.014 325.842 155.907C323.179 159.195 317.945 164.149 316.315 167.381C321.099 164.53 324.083 161.256 328.353 158.203L326.177 164.663L328.436 164.645C326.26 177.808 308.918 193.06 296.811 197.495C293.648 198.652 282.596 203.166 280.921 203.152C281.37 199.525 304.029 166.527 307.578 158.699C293.983 176.573 272.486 211.65 261.706 232.449C251.49 252.146 242.193 276.319 239.025 298.853C236.288 318.307 239.736 313.233 241.486 324.243L228.162 324.454L169.09 167.923C167.722 204.107 168.608 254.859 168.58 292.113C168.58 295.575 168.658 298.486 168.902 300.938V324.344L143.764 324.386V300.313C144.43 293.794 143.897 284.253 143.764 270.415V147.377L177.533 147.367C179.857 156.463 200.724 208.992 205.885 223.051C215.301 248.702 224.957 272.921 233.896 299.014C237.239 292.04 239.975 275.447 236.279 267.655C231.568 257.724 228.602 251.292 227.115 239.63C227.34 239.928 227.923 240.86 228.267 241.319C228.368 241.453 228.52 241.673 228.635 241.815L230.54 243.937C229.764 239.768 228.446 238.271 228.873 233.707L239.585 254.878C238.676 246.058 230.981 233.702 236.045 224.635L237.657 229.4C238.57 229.515 237.115 226.797 238.832 230.902C239.86 233.358 239.879 235.466 241.729 237.982L242.239 229.428C243.524 208.257 240.687 211.627 251.389 196.104C255.384 190.315 267.335 176.421 271.715 173.106L271.986 187.964C272.89 183.653 273.648 180.012 274.281 174.879C275.062 168.561 277.101 167.358 280.911 165.007L281.201 173.542C288.62 160.095 277.289 159.218 297.481 144.617C300.769 142.239 303.211 140.343 306.636 138.222C313.174 134.167 318.762 130.513 325.649 126.849C334.841 121.95 346.154 111.642 358.596 112.225C349.597 124.861 351.273 126.881 335.011 145.228ZM247.151 280.805C247.34 275.245 249.663 267.017 254.236 264.322C259.401 261.278 265.044 258.854 269.989 255.888C271.495 259.152 268.529 255.631 269.722 258.748C271.325 257.091 273.717 255.732 275.957 254.717C271.738 267.655 258.937 274.437 247.151 280.805ZM299.07 201.958L304.12 200.847C302.165 206.352 287.073 231.453 283.078 236.949C277.922 244.038 277.197 248.119 270.328 252.642C267.344 254.607 255.191 261.971 251.706 262.398C253.363 255.011 275.163 208.818 280.25 206.191C283.868 204.332 297.789 199.575 301.568 198.827C300.608 200.723 300.48 200.434 299.07 201.958ZM317.789 324.349L302.137 324.372V297.756C302.867 288.977 301.963 275.46 302.018 254.726C302.041 246.673 300.989 219.929 302.376 214.052C302.844 212.082 316.545 189.061 318.064 187.532C318.064 188.928 318.06 190.765 318.05 192.955H317.789V240.539C317.752 251.315 317.738 262.196 317.789 271.723V324.349ZM243.432 35.5643C349.556 38.9619 434.555 126.05 434.555 233C434.555 339.955 349.556 427.043 243.432 430.436V419.435C343.486 416.047 423.559 333.88 423.559 233C423.559 132.12 343.486 49.9581 243.432 46.5651V35.5643ZM237.005 12.9705C358.518 12.9705 457.034 111.482 457.034 233C457.034 354.518 358.518 453.034 237.005 453.034C115.477 453.034 16.9705 354.518 16.9705 233C16.9705 111.482 115.477 12.9705 237.005 12.9705Z" fill="url(#paint0_linear_70:71)"/>
</g>
<defs>
<filter id="filter0_d_70:71" x="0" y="0" width="474" height="474" filterUnits="userSpaceOnUse" color-interpolation-filters="sRGB">
<feFlood flood-opacity="0" result="BackgroundImageFix"/>
<feColorMatrix in="SourceAlpha" type="matrix" values="0 0 0 0 0 0 0 0 0 0 0 0 0 0 0 0 0 0 127 0" result="hardAlpha"/>
<feOffset dy="4"/>
<feGaussianBlur stdDeviation="2"/>
<feComposite in2="hardAlpha" operator="out"/>
<feColorMatrix type="matrix" values="0 0 0 0 0 0 0 0 0 0 0 0 0 0 0 0 0 0 0.25 0"/>
<feBlend mode="normal" in2="BackgroundImageFix" result="effect1_dropShadow_70:71"/>
<feBlend mode="normal" in="SourceGraphic" in2="effect1_dropShadow_70:71" result="shape"/>
</filter>
<linearGradient id="paint0_linear_70:71" x1="282.188" y1="-811.028" x2="218.514" y2="614.424" gradientUnits="userSpaceOnUse">
<stop offset="0.255445" stop-color="#FEFEFE"/>
<stop offset="1" stop-color="#171D35"/>
</linearGradient>
</defs>
</svg>
