<svg width="474" height="474" fill="none" xmlns="http://www.w3.org/2000/svg"><g filter="url(#a)"><path fill-rule="evenodd" clip-rule="evenodd" d="M237.005 0C365.681 0 470 104.319 470 233c0 128.681-104.319 233-232.995 233C108.319 466 4 361.681 4 233 4 104.319 108.319 0 237.005 0zm-58.687 398.719 5.721 1.832-.33 1.019c-.689-.179-1.144.234-1.369 1.249l-.316 1.584c.606-.014 1.561-.101 2.865-.266l.027-.092c.06-.12.12-.262.165-.413.326-1.02.189-1.626-.417-1.819l.307-.959 4.927 1.575-.326 1.019c-.717-.101-1.277.248-1.681 1.056a471.659 471.659 0 0 0-3.241 6.607 179.949 179.949 0 0 0-3.044 6.676c-.175.422-.207.831-.092 1.216.115.395.358.62.735.68-.216.615-.326.992-.331 1.138l-7.677-2.456.336-1.143c.339.17.67.133.991-.119.317-.253.528-.602.629-1.052.537-2.383 1.387-7.213 2.548-14.481.143-.886-.11-1.501-.753-1.832l.326-1.019zm3.228 8.149-1.483 7.269.129.078 3.429-7.489-2.075.142zm-17.245-13.167c.68.316 1.249-.019 1.713-1.006.073-.161.11-.239.114-.225.01.014.014.014.023-.004.01-.019.033-.083.069-.198.046-.11.152-.353.326-.734l3.265.399-1.906 4.1c-.17.358-.17.762-.004 1.212.078.207.174.381.28.519l-.51 1.106-2.025-.936c-.707.482-1.432 1.138-2.176 1.974a29.267 29.267 0 0 0-2.185 2.755 36.836 36.836 0 0 0-1.988 3.159 36.824 36.824 0 0 0-1.603 3.172c-.624 1.199-.551 2.03.221 2.493l-.478 1.029-10.413-4.835.478-1.024c.886.262 1.565-.22 2.047-1.441l5.657-12.126-2.131-.987.515-1.107c.179-.009.372-.046.578-.124.45-.165.758-.427.923-.789l1.478-3.178 3.26.395-.964 2.08c-.459.987-.349 1.639.335 1.956l5.101 2.365zm-9.306 14.04a79.562 79.562 0 0 1 1.643-3.32 39.868 39.868 0 0 1 1.846-3.172 31.545 31.545 0 0 1 1.997-2.746c.68-.831 1.35-1.506 2.011-2.034l-3.806-1.763-5.606 12.149 1.915.886zm-22.677-25.078c1.993-3.195 4.477-3.857 7.443-1.979l5.371 3.347-.615.987c-.693-.459-1.363-.211-2.006.744l-7.31 11.731c-.725 1.162-.72 2.029.019 2.608l-.565.909-5.454-3.398c-.891-.555-1.539-1.345-1.952-2.373-.587-1.493-.367-3.067.671-4.734 1.042-1.667 2.291-2.507 3.751-2.534-.772-1.603-.56-3.37.647-5.308zm-1.106 10.101c-.652 1.042-.675 1.754-.069 2.13.569.358 1.102.143 1.597-.652l1.759-2.823c-1.405-.368-2.502.087-3.287 1.345zm4.453-7.314c-.849 1.364-1.111 2.273-.794 2.732.565.069 1.065.151 1.501.234l2.158-3.457c.418-.675.377-1.166-.133-1.483-.551-.345-1.097-.23-1.644.339-.137.152-.505.694-1.088 1.635zm-19.628-16.644c.175-.22.478-.495.919-.831 1.882-1.349 3.838-1.23 5.867.354 2.034 1.589 2.613 3.453 1.75 5.592-.207.519-.395.891-.565 1.111l-6.924 8.811c-.969 1.208-2.066 1.846-3.292 1.924-1.226.069-2.452-.367-3.668-1.318-1.217-.955-1.924-2.015-2.108-3.195-.183-1.18.198-2.379 1.143-3.595l6.878-8.853zm2.695 2.443-6.749 8.65c-.234.294-.33.638-.298 1.029.032.39.206.711.518.95.308.248.675.349 1.089.303.408-.041.73-.211.959-.505l6.754-8.65a1.46 1.46 0 0 0 .312-1.079 1.3 1.3 0 0 0-.496-.955 1.44 1.44 0 0 0-1.097-.289c-.413.055-.748.234-.992.546zm-16.9-22.327 4.316 4.43-.873.813c-.445-.317-.854-.289-1.239.087a1.76 1.76 0 0 0-.281.354c-.312.555-1.322 2.217-3.025 4.986l1.919-.671 2.213-2.162c1.024-1.019 1.24-1.809.643-2.365l.854-.831 4.481 4.601-.872.854c-.79-.67-1.672-.533-2.636.404l-9.435 9.196c-.964.937-1.125 1.814-.473 2.617l-.854.831-4.481-4.6.85-.831c.541.615 1.29.445 2.258-.496l3.98-3.88c-.885.312-1.78.629-2.68.951-1.171.422-2.347.923-3.531 1.492-.257.138-.445.266-.574.395-.326.317-.28.688.133 1.111l-.854.831-3.815-3.958.744-.725c.142.114.298.206.482.28.39.142.794.147 1.216.014 1.258-.391 3.297-1.121 6.13-2.191l4.802-8.875c.377-.753.285-1.354-.271-1.813l.873-.849zm-13.586-17.787 3.494 4.89-.872.619c-.45-.555-1.06-.5-1.841.184l-1.203 1.079c.49.349 1.313.849 2.456 1.497l.073-.055c.124-.065.248-.138.382-.235.872-.624 1.12-1.189.748-1.708l.822-.587 3.012 4.21-.873.624c-.514-.514-1.17-.564-1.979-.16a420.045 420.045 0 0 0-6.547 3.365 167.127 167.127 0 0 0-6.428 3.531c-.394.234-.66.542-.803.923-.142.381-.078.707.188.982-.546.358-.858.602-.95.717l-4.688-6.561.955-.712c.17.335.46.505.863.491.404-.009.785-.161 1.13-.459 1.86-1.593 5.427-4.963 10.702-10.092.643-.629.808-1.271.491-1.923l.868-.62zm-2.282 8.462-5.537 4.944.064.138 7.222-3.953-1.749-1.129zm-19.136-21.639.284 2.837-3.071 1.704c-.326.183-.4.482-.212.899a.643.643 0 0 0 .372.372c.175.06.363.014.57-.142l11.441-6.35c.9-.5 1.221-1.272.964-2.305l.932-.523 3.352 6.037-.941.515c-.74-.762-1.561-.896-2.466-.4l-11.437 6.35c-.243.092-.39.22-.431.39a.613.613 0 0 0 .11.501c.257.381.55.486.895.321l3.063-1.699 2.259 1.736-7.305 4.059-5.684-10.244 7.304-4.058zm-7.356-26.157 1.653 4.995-2.796.923-1.648-4.995 2.791-.923zm-.812-38.645 1.042 6.455-1.084.179c-.027-.28-.239-.541-.643-.785-.399-.252-.794-.344-1.184-.28l-10.477 1.726.073.258 13.53.225.377 2.318-12.828 4.509.073.289 10.455-1.657c.904-.147 1.377-.634 1.423-1.46l1.116-.184.868 5.372-1.089.174c-.408-.799-1.037-1.138-1.882-1.024l-13.613 2.232c-1.35.234-1.997.803-1.956 1.699l-1.143.188-1.134-7.016 9.802-3.269.028-.216-10.446-.335-.987-6.134 1.111-.179c.285.877 1.066 1.176 2.346.886l13.738-2.19c.698-.188 1.13-.721 1.308-1.593.244 0 .638-.064 1.176-.188zm-10.978-15.684-5.11-2.631-1.548.046c-1.386.009-2.102.344-2.158 1.001l-1.189.009-.06-6.244 1.194-.014c-.05 1.093.657 1.635 2.126 1.621l13.315-.124c1.47-.014 2.167-.569 2.098-1.658l1.19-.009.059 6.217-1.221.009c-.065-.633-.79-.946-2.181-.932l-6.777.064 5.29 2.599 1.602-.046c.776-.009 1.28-.064 1.515-.161.436-.142.633-.463.587-.959l1.19-.014.055 6.217-1.217.009c-.11-.987-.836-1.474-2.185-1.465l-13.173.124c-1.345.014-2.066.533-2.158 1.561l-1.184.014-.06-6.272 1.189-.013c-.014.495.184.812.606.945.234.097.74.143 1.515.138l6.69-.032zm11.717-31.12-.919 6.387-1.083-.157c0-.183-.087-.404-.266-.67-.23-.353-.505-.523-.831-.51-.078.01-1.51.258-4.28.74l-.004.211c2.149.969 3.517 1.451 4.118 1.46.524-.009.896-.216 1.116-.625l1.143.166-.743 5.211-1.153-.165c-.124-.377-.395-.859-.813-1.437-.532-.34-3.15-1.566-7.85-3.678l-7.498 1.777c-.808.183-1.281.629-1.424 1.331l-1.088-.156.9-6.272 1.208.175a.874.874 0 0 0 .091.629c.11.202.28.326.52.363.132.013.298 0 .481-.051.804-.133 1.943-.335 3.425-.624.023-.019.019-.055-.009-.124-1.68-1.001-2.814-1.543-3.402-1.63-.652-.092-.982.133-.996.67l-1.208-.17.767-5.362 1.17.202a.657.657 0 0 0-.132.312c-.088.606.523 1.258 1.822 1.942.506.252 2.347 1.299 5.533 3.136 2.034-.39 4.968-1.001 8.792-1.837.974-.22 1.47-.679 1.488-1.377l1.125.133zm4.274-21.666-1.317 5.863-1.047-.234c.12-.708-.335-1.125-1.36-1.254l-1.606-.179c.069.606.238 1.547.519 2.828l.087.023c.133.046.275.092.431.124 1.043.234 1.635.046 1.773-.578l.987.225-1.134 5.046-1.047-.235c.041-.72-.358-1.248-1.198-1.579a482.882 482.882 0 0 0-6.869-2.645 183.867 183.867 0 0 0-6.92-2.438c-.435-.142-.844-.133-1.22.014-.382.152-.584.413-.607.794-.638-.165-1.023-.238-1.166-.234l1.768-7.86 1.166.234c-.142.354-.073.675.207.974.275.298.643.477 1.102.537 2.42.321 7.304.739 14.646 1.258.9.055 1.488-.248 1.763-.919l1.042.235zm-7.833 3.939-7.373-.836-.06.138 7.764 2.75-.33-2.052zm3.632-21.96-3.81-4.298-1.46-.514c-1.304-.473-2.099-.422-2.374.152l-1.116-.423 2.204-5.845 1.111.423c-.197.519-.188.964.023 1.327.216.367.67.684 1.373.95l12.47 4.692c.702.267 1.253.331 1.657.198.4-.133.698-.464.89-.983l1.117.418-2.19 5.817-1.14-.431c.166-.611-.399-1.166-1.698-1.653l-6.34-2.388 3.99 4.33 1.51.537c.445.17.808.285 1.093.349.284.06.505.078.67.041a.587.587 0 0 0 .363-.211c.082-.105.165-.262.238-.464l1.116.418-2.19 5.817-1.143-.431c.252-.96-.243-1.681-1.506-2.153l-12.328-4.647c-1.28-.477-2.14-.252-2.576.684l-1.115-.418 2.213-5.872 1.11.418c-.068.184-.11.349-.118.491a.587.587 0 0 0 .142.423c.105.137.285.271.532.404.244.137.588.289 1.034.459l6.248 2.383zm-9.825-5.198c-.372.987-.872 1.708-1.502 2.172-.629.459-1.216.588-1.749.386a.915.915 0 0 1-.55-.524c-.111-.252-.106-.523.004-.822.16-.431.376-.661.633-.702a3.08 3.08 0 0 1 .8-.018c.275.032.541.023.807-.028.262-.05.482-.317.666-.799.188-.5.202-.868.05-1.106a2.47 2.47 0 0 0-.564-.611 4.445 4.445 0 0 1-.597-.528c-.174-.184-.184-.487-.018-.914.1-.28.275-.482.514-.615a.883.883 0 0 1 .753-.05c.57.22.932.711 1.074 1.487.143.776.032 1.644-.335 2.608l.014.064zm15.652-22.956c.826.468 1.763 1.024 2.814 1.666a47.846 47.846 0 0 1 3.113 2.076 31.772 31.772 0 0 1 2.897 2.36c.905.835 1.635 1.685 2.2 2.548.325.505.573 1.024.739 1.552.17.528.243 1.056.22 1.574a3.837 3.837 0 0 1-.422 1.557c-.257.514-.652 1.019-1.185 1.515l-2.599-2.296c.579-.376.845-.835.8-1.377-.047-.537-.295-1.116-.74-1.735-.51-.703-1.212-1.415-2.098-2.149a37.472 37.472 0 0 0-2.727-2.057 37.987 37.987 0 0 0-2.631-1.685 40.946 40.946 0 0 0-1.818-1.015c-1.144-.721-1.984-.707-2.521.037l-.983-.556 5.432-9.568.982.56c-.33.859.092 1.58 1.272 2.154l11.607 6.593c.519.293 1.006.422 1.46.385.556-.055.96-.326 1.217-.817l1.033.588-3.393 5.973-1.056-.601c.427-.96.078-1.745-1.065-2.347l-11.607-6.593-.941 1.658zm26.129-17.567c.225.161.519.45.877.873 1.437 1.813 1.414 3.774-.074 5.881-1.487 2.103-3.315 2.778-5.495 2.016-.529-.179-.905-.349-1.135-.51l-9.14-6.483c-1.254-.909-1.948-1.974-2.08-3.195-.134-1.222.247-2.466 1.138-3.728.895-1.263 1.92-2.021 3.085-2.259 1.171-.248 2.383.078 3.65.968l9.174 6.437zm-2.31 2.81-8.962-6.322a1.427 1.427 0 0 0-1.047-.248c-.39.051-.702.243-.927.565-.23.321-.312.689-.248 1.097.064.409.248.721.556.941l8.966 6.323c.322.229.684.316 1.088.261.404-.055.712-.238.933-.546.23-.321.307-.693.234-1.107-.07-.413-.267-.739-.593-.964zm16.745-20.748c2.745 2.58 2.906 5.142.487 7.681l-4.339 4.615-.845-.795c.583-.592.473-1.299-.335-2.116l-10.074-9.477c-.991-.932-1.845-1.097-2.557-.486l-.78-.735 4.398-4.678c.72-.763 1.625-1.25 2.713-1.447 1.575-.289 3.081.239 4.51 1.584 1.427 1.346 2.01 2.741 1.744 4.178 1.726-.45 3.42.11 5.078 1.676zM96.18 99.93c-.896-.84-1.589-1.001-2.08-.478-.46.487-.349 1.056.326 1.69l2.424 2.282c.638-1.309.413-2.47-.67-3.494zm6.295 5.808c-1.167-1.102-2.007-1.538-2.521-1.313-.18.537-.354 1.015-.523 1.423l2.965 2.792c.579.546 1.07.601 1.479.165.45-.473.445-1.033-.009-1.68-.115-.166-.579-.625-1.391-1.387zm20.27-16.832c2.268 2.805 2.011 5.294-.767 7.466-1.143.89-2.433 1.262-3.865 1.11-1.442-.142-2.59-.775-3.458-1.882l-6.203-7.943c-.913-1.17-1.372-2.337-1.372-3.494 0-1.359.615-2.52 1.85-3.48.418-.33.909-.638 1.465-.923a7.522 7.522 0 0 1 1.326-.473c.34-.082.579-.183.721-.293.216-.17.487-.547.813-1.13l1.042.322c-.289.628-.252 1.143.106 1.538l2.943 3.815a94.261 94.261 0 0 0-1.529 2.966 252.68 252.68 0 0 1-1.759-2.25c-.89-1.138-1.657-1.46-2.295-.96-.611.478-.469 1.286.422 2.425l5.51 7.052c.367.468.789.78 1.267.923.473.142.872.078 1.184-.197.506-.418.611-.942.322-1.57-.069-.148-.349-.547-.85-1.185a12.715 12.715 0 0 0-1.978-2.002c.293-.556.849-1.635 1.666-3.228.358.303.73.615 1.116.946a22.112 22.112 0 0 1 2.323 2.447zm22.69-9.164-5.179 3.388-.619-1.014c.39-.372.44-.785.147-1.235a1.95 1.95 0 0 0-.29-.34c-.491-.418-1.923-1.727-4.316-3.93l.29 2.01 1.694 2.595c.808 1.198 1.543 1.556 2.195 1.079l.656.996-5.381 3.517-.666-1.024c.813-.647.845-1.533.106-2.663l-7.204-11.024c-.739-1.13-1.565-1.455-2.484-.973l-.652-.996 5.381-3.513.648.997c-.703.413-.68 1.18.055 2.31l3.044 4.655c-.138-.932-.276-1.873-.423-2.82a36.382 36.382 0 0 0-.78-3.75 2.605 2.605 0 0 0-.276-.634c-.252-.386-.624-.413-1.12-.087l-.652-.992 4.619-2.989.569.872a1.789 1.789 0 0 0-.362.418 1.805 1.805 0 0 0-.253 1.194c.142 1.304.468 3.448.973 6.432l7.783 6.424c.67.51 1.276.537 1.832.082l.665 1.015zm10.028-16.212.353-5.735-.67-1.4c-.569-1.263-1.166-1.786-1.781-1.57l-.492-1.084 5.694-2.57.486 1.083c-1.019.395-1.226 1.258-.624 2.594l5.482 12.144c.601 1.336 1.391 1.754 2.36 1.253l.486 1.084-5.661 2.557-.5-1.11c.551-.318.542-1.107-.028-2.37l-2.787-6.18-.252 5.886.693 1.451c.317.703.57 1.143.758 1.318.307.34.675.39 1.111.151l.491 1.088-5.666 2.553-.5-1.111c.863-.5 1.015-1.359.459-2.59l-5.418-12.006c-.555-1.23-1.322-1.676-2.3-1.345l-.491-1.084 5.716-2.58.491 1.084c-.459.188-.665.5-.619.936.004.257.165.735.482 1.442l2.727 6.111zm23.457-8.852 1.134-5.629-.468-1.474c-.409-1.327-.928-1.928-1.557-1.809l-.33-1.138 5.987-1.764.335 1.14c-.533.16-.882.43-1.042.821-.166.386-.143.941.073 1.667l3.76 12.777c.216.726.496 1.203.845 1.442.344.239.79.275 1.322.12l.336 1.143-5.964 1.753-.34-1.166c.592-.239.688-1.024.298-2.35l-1.914-6.502-1.056 5.794.486 1.53c.138.459.262.817.377 1.083.124.266.248.445.367.555.124.11.257.166.39.17.138 0 .308-.032.519-.096l.335 1.143-5.964 1.759-.344-1.171c.923-.377 1.194-1.208.817-2.502l-3.723-12.636c-.391-1.313-1.089-1.86-2.099-1.643l-.335-1.144 6.019-1.772.336 1.143c-.193.055-.345.12-.469.198a.57.57 0 0 0-.248.367c-.046.165-.046.39-.004.666.036.28.128.647.261 1.102l1.86 6.423zm-1.772-10.973c-1.01.298-1.887.335-2.636.11-.748-.225-1.203-.61-1.368-1.162a.949.949 0 0 1 .087-.757c.143-.239.363-.395.666-.487.436-.128.748-.105.937.078.188.184.353.39.495.63.143.233.313.445.51.628.198.175.542.193 1.038.046.514-.151.822-.358.918-.624.096-.267.142-.542.142-.818 0-.284.023-.546.06-.794.041-.248.285-.44.721-.57.285-.082.551-.068.799.047.252.11.418.298.496.569.174.583-.005 1.17-.538 1.75-.532.582-1.294 1.014-2.281 1.308l-.046.046zm157.863 101.523c-3.127 3.907-6.015 6.786-9.169 10.679-2.663 3.288-7.897 8.242-9.527 11.474 4.784-2.851 7.768-6.125 12.038-9.178l-2.176 6.46 2.259-.018c-2.176 13.163-19.518 28.415-31.625 32.85-3.163 1.157-14.215 5.671-15.89 5.657.449-3.627 23.108-36.625 26.657-44.453-13.595 17.874-35.092 52.951-45.872 73.75-10.216 19.697-19.513 43.87-22.681 66.404-2.737 19.454.711 14.38 2.461 25.39l-13.324.211-59.072-156.531c-1.368 36.184-.482 86.936-.51 124.19 0 3.462.078 6.373.322 8.825v23.406l-25.138.042v-24.073c.666-6.519.133-16.06 0-29.898V147.377l33.769-.01c2.324 9.096 23.191 61.625 28.352 75.684 9.416 25.651 19.072 49.87 28.011 75.963 3.343-6.974 6.079-23.567 2.383-31.359-4.711-9.931-7.677-16.363-9.164-28.025.225.298.808 1.23 1.152 1.689.101.134.253.354.368.496l1.905 2.122c-.776-4.169-2.094-5.666-1.667-10.23l10.712 21.171c-.909-8.82-8.604-21.176-3.54-30.243l1.612 4.765c.913.115-.542-2.603 1.175 1.502 1.028 2.456 1.047 4.564 2.897 7.08l.51-8.554c1.285-21.171-1.552-17.801 9.15-33.324 3.995-5.789 15.946-19.683 20.326-22.998l.271 14.858c.904-4.311 1.662-7.952 2.295-13.085.781-6.318 2.82-7.521 6.63-9.872l.29 8.535c7.419-13.447-3.912-14.324 16.28-28.925 3.288-2.378 5.73-4.274 9.155-6.395 6.538-4.055 12.126-7.709 19.013-11.373 9.192-4.899 20.505-15.207 32.947-14.624-8.999 12.636-7.323 14.656-23.585 33.003zm-87.86 135.577c.189-5.56 2.512-13.788 7.085-16.483 5.165-3.044 10.808-5.468 15.753-8.434 1.506 3.264-1.46-.257-.267 2.86 1.603-1.657 3.995-3.016 6.235-4.031-4.219 12.938-17.02 19.72-28.806 26.088zm51.919-78.847 5.05-1.111c-1.955 5.505-17.047 30.606-21.042 36.102-5.156 7.089-5.881 11.17-12.75 15.693-2.984 1.965-15.137 9.329-18.622 9.756 1.657-7.387 23.457-53.58 28.544-56.207 3.618-1.859 17.539-6.616 21.318-7.364-.96 1.896-1.088 1.607-2.498 3.131zm18.719 122.391-15.652.023v-26.616c.73-8.779-.174-22.296-.119-43.03.023-8.053-1.029-34.797.358-40.674.468-1.97 14.169-24.991 15.688-26.52 0 1.396-.004 3.233-.014 5.423h-.261v47.584c-.037 10.776-.051 21.657 0 31.184v52.626zM243.432 35.564C349.556 38.962 434.555 126.05 434.555 233c0 106.955-84.999 194.043-191.123 197.436v-11.001C343.486 416.047 423.559 333.88 423.559 233S343.486 49.958 243.432 46.565v-11zm-6.427-22.593c121.513 0 220.029 98.511 220.029 220.029s-98.516 220.034-220.029 220.034c-121.528 0-220.034-98.516-220.034-220.034 0-121.518 98.506-220.03 220.034-220.03z" fill="url(#b)"/></g><defs><linearGradient id="b" x1="282.188" y1="-811.028" x2="218.514" y2="614.424" gradientUnits="userSpaceOnUse"><stop offset=".255" stop-color="#FEFEFE"/><stop offset="1" stop-color="#171D35"/></linearGradient><filter id="a" x="0" y="0" width="474" height="474" filterUnits="userSpaceOnUse" color-interpolation-filters="sRGB"><feFlood flood-opacity="0" result="BackgroundImageFix"/><feColorMatrix in="SourceAlpha" values="0 0 0 0 0 0 0 0 0 0 0 0 0 0 0 0 0 0 127 0" result="hardAlpha"/><feOffset dy="4"/><feGaussianBlur stdDeviation="2"/><feComposite in2="hardAlpha" operator="out"/><feColorMatrix values="0 0 0 0 0 0 0 0 0 0 0 0 0 0 0 0 0 0 0.25 0"/><feBlend in2="BackgroundImageFix" result="effect1_dropShadow_70:71"/><feBlend in="SourceGraphic" in2="effect1_dropShadow_70:71" result="shape"/></filter></defs></svg>