<svg width="331" height="74" viewBox="0 0 331 74" fill="none" xmlns="http://www.w3.org/2000/svg">
<path fill-rule="evenodd" clip-rule="evenodd" d="M34.0008 73.8748L34.5 74L34.9993 73.8748C59.8362 64.3589 73.1907 34.8097 67.8239 10.5192C67.3247 8.26544 66.9502 7.88982 62.9564 6.76294C61.0304 6.20199 58.1766 5.42386 55.1494 4.59844C52.0953 3.76568 48.8646 2.88479 46.232 2.13022C43.2621 1.36804 41.0184 0.72089 39.2471 0.20999C37.8176 -0.20233 36.6957 -0.525905 35.7481 -0.749583C35.6439 -0.775715 35.5452 -0.801847 35.4507 -0.826841C35.0926 -0.921602 34.7963 -1 34.5 -1C34.2037 -1 33.9075 -0.921602 33.5493 -0.826841C33.4549 -0.801847 33.3561 -0.775715 33.2519 -0.749583C32.3043 -0.525905 31.1825 -0.20233 29.753 0.20999C27.9816 0.72089 25.7379 1.36804 22.768 2.13022C20.1354 2.88479 16.9048 3.76569 13.8506 4.59845C10.8234 5.42387 7.96962 6.20199 6.04364 6.76294C2.04977 7.88982 1.67534 8.26544 1.17611 10.5192C-4.19066 34.8097 9.16386 64.3589 34.0008 73.8748ZM10.7864 23.4157C10.7864 20.6611 11.036 17.9065 11.4104 15.2771L11.7849 15.1519C13.5322 14.6511 16.278 13.8998 18.1501 13.5242C18.7117 13.3364 19.211 13.2112 19.6478 13.1016C20.0846 12.9921 20.4591 12.8982 20.7711 12.773C20.9375 12.7312 21.1039 12.7034 21.2703 12.6756C21.6031 12.6199 21.936 12.5643 22.2688 12.3973C25.389 11.7713 29.8821 10.6444 32.1287 10.0184C33.3767 9.7679 34.0008 9.6427 34.6248 9.6427C35.2489 9.6427 35.8729 9.7679 36.9962 10.0184C39.3676 10.6444 43.8607 11.7713 46.8561 12.3973C47.1889 12.5643 47.5217 12.6199 47.8545 12.6756C48.0209 12.7034 48.1874 12.7312 48.3538 12.773C48.6658 12.8982 49.0402 12.9921 49.4771 13.1016C49.9139 13.2112 50.4131 13.3364 50.9748 13.5242C52.6028 13.8304 54.6456 14.3863 56.3592 14.8526C56.7475 14.9583 57.1189 15.0594 57.4648 15.1519L57.7144 15.2771C58.0888 17.9065 58.3385 20.6611 58.3385 23.4157C58.3385 26.4207 58.0888 29.3005 57.5896 32.0551C58.0083 32.7751 58.3983 33.4951 58.7734 34.1876C59.181 34.9401 59.571 35.6601 59.961 36.3122C60.9594 32.1803 61.4587 27.798 61.4587 23.2905C61.4587 19.6594 61.0842 16.1536 60.4602 12.773C59.4152 12.5633 57.692 12.1122 55.7486 11.6035C53.05 10.8971 49.9267 10.0795 47.6049 9.6427C47.4498 9.5909 47.2519 9.539 47.02 9.4782C46.6921 9.3923 46.2963 9.2886 45.8576 9.1419C43.4862 8.64107 39.3676 7.76461 37.2458 7.26377C35.9977 6.88815 35.3737 6.76294 34.6248 6.76294C33.7512 6.76294 33.2519 6.88815 31.879 7.26377C29.7573 7.76461 25.7634 8.64107 23.3921 9.1419C22.82 9.3332 22.3207 9.4514 21.8944 9.5524C21.7626 9.5836 21.6378 9.6132 21.5199 9.6427C19.2934 10.0615 16.3687 10.8306 13.7621 11.516C11.693 12.06 9.82445 12.5513 8.66462 12.773C8.04058 16.1536 7.79096 19.6594 7.79096 23.2905C7.79096 27.4224 8.16539 31.429 9.03905 35.3105C9.13122 35.141 9.22529 34.9677 9.32078 34.7917C10.0011 33.5382 10.7538 32.1514 11.4104 31.0534C11.036 28.5492 10.7864 26.0451 10.7864 23.4157ZM18.5869 23.2905C18.3997 23.1966 18.2125 23.1027 18.0253 23.0401C18.0253 22.9149 18.0565 22.8209 18.0877 22.727C18.1189 22.6331 18.1501 22.5392 18.1501 22.414C18.1501 21.4124 17.4012 20.6611 16.4028 20.6611C15.5291 20.6611 14.7803 21.4124 14.7803 22.414C14.7803 23.0401 15.1547 23.6661 15.7787 23.9165L9.28867 39.192H8.16539C9.7879 41.9466 12.7833 43.6995 16.278 43.6995C19.8974 43.6995 22.8928 41.9466 24.5153 39.192H23.3921L16.902 24.0417L17.0268 23.9165C17.1516 23.9165 17.1516 24.0417 17.1516 24.0417C17.2046 24.0816 17.2604 24.1243 17.3187 24.1689C17.8098 24.5446 18.4792 25.0567 19.1486 25.1686C19.8259 25.2657 20.5783 25.0617 21.5802 24.7901C21.8705 24.7114 22.1819 24.627 22.5184 24.5426C24.0161 24.1669 26.1378 23.6661 27.7604 23.5409C29.2945 23.4225 30.2707 23.7519 31.0055 23.9998C31.0478 24.0141 31.0894 24.0281 31.1302 24.0417C31.879 24.4174 32.3783 24.793 32.6279 25.1686C32.7527 25.2312 32.8463 25.3251 32.9243 25.4034C33.0023 25.4816 33.0647 25.5442 33.1271 25.5442V27.5476H29.5077V28.5492H39.6172V27.5476H35.7481V25.2938L35.8729 25.1686C36.2473 24.793 36.6218 24.4174 37.3706 24.0417C38.1195 23.7913 39.2427 23.4157 40.8653 23.5409C42.3037 23.6612 44.3178 24.1279 45.9124 24.4974C45.9781 24.5127 46.043 24.5277 46.1072 24.5426C46.4958 24.64 46.8424 24.7375 47.1579 24.8262C48.0583 25.0794 48.7053 25.2613 49.3522 25.1686C50.0721 25.0654 50.6225 24.6222 51.0733 24.2593C51.1696 24.1817 51.2613 24.1078 51.3492 24.0417L51.474 23.9165C51.474 23.9165 51.5988 23.9165 51.5988 24.0417L45.1087 39.192H43.9855C45.608 41.9466 48.7282 43.6995 52.2228 43.6995C55.7175 43.6995 58.8377 41.9466 60.4602 39.192H59.3369L52.7221 23.9165C53.3461 23.6661 53.7205 23.0401 53.7205 22.414C53.7205 21.4124 52.9717 20.6611 52.098 20.6611C51.2244 20.6611 50.4755 21.4124 50.4755 22.414C50.4755 22.6644 50.4755 22.7896 50.6003 23.0401C50.4486 23.0908 50.2969 23.1621 50.137 23.2372C49.902 23.3476 49.6492 23.4664 49.3522 23.5409C48.8801 23.6593 48.4079 23.5537 47.4077 23.3301C47.3504 23.3172 47.2913 23.304 47.2305 23.2905C47.0214 23.2206 46.7907 23.142 46.544 23.0579C45.4653 22.6905 44.0811 22.2189 42.8622 21.9132C41.3645 21.5376 39.9916 21.4124 38.7435 21.4124C37.4954 21.5376 36.3721 21.788 35.8729 22.0384H35.7481V21.0367H35.6233C35.9977 20.5359 36.1225 19.9098 36.1225 19.1586C35.9977 18.5326 35.7481 17.6562 35.4985 16.7798V16.7796C35.4028 16.5877 35.3072 16.3877 35.2136 16.1919C34.9409 15.6215 34.6859 15.088 34.5 14.9015C34.5 14.7763 34.3752 14.6511 34.3752 14.6511C34.2981 14.6511 34.2686 14.6989 34.2279 14.765C34.2027 14.8059 34.1733 14.8537 34.1256 14.9015C33.876 15.1519 33.5015 16.0284 33.2519 16.7796C32.8775 17.6561 32.6279 18.5326 32.6279 19.1586C32.6279 19.9098 32.7527 20.5359 33.1271 21.0367V22.1636C33.0647 22.1636 33.0023 22.1323 32.9399 22.101C32.8775 22.0697 32.8151 22.0384 32.7527 22.0384C32.1287 21.788 31.0054 21.5376 29.7573 21.4124C28.5092 21.4124 27.2611 21.5376 25.6386 21.9132C24.4197 22.2189 23.0354 22.6905 21.9568 23.0579C21.7101 23.142 21.4794 23.2206 21.2703 23.2905C20.2718 23.5409 19.6478 23.6661 19.1486 23.5409C18.9614 23.4783 18.7741 23.3844 18.5869 23.2905ZM58.4633 39.192L52.2228 24.0417L45.9824 39.192H58.4633ZM35.7481 51.7129V51.0868H39.6172V50.0851H35.7481H33.1271H29.5077V51.0868H33.1271V51.7129H29.5077V52.7145H39.6172V51.7129H35.7481ZM35.6233 48.0818H39.2427V47.0801C38.7435 46.7045 38.4939 46.3289 38.4939 45.7028V33.182C38.4939 32.0551 38.6187 31.429 39.1179 31.3038V30.3022H35.7481L34.6248 39.4424L34.5 39.3172L33.6264 30.3022H29.6325V31.3038C30.1317 31.429 30.3813 32.0551 30.3813 33.3072V45.5776C30.3813 46.3289 30.1317 46.8297 29.7573 47.0801V48.0818H32.7527V47.0801C32.2535 46.9549 32.0038 46.4541 32.0038 45.5776L32.1287 36.187H32.2535L33.6264 48.0818H34.8744L36.1225 36.187H36.3721V45.7028C36.3721 45.9532 36.2473 46.3288 36.1225 46.7044V46.7045C35.8729 46.9549 35.7481 47.0801 35.6233 47.0801V48.0818ZM16.278 24.0417H16.4028L22.6432 39.192H10.1623L16.278 24.0417ZM34.7496 66.4875C44.6095 63.8581 52.8469 55.4691 57.4648 44.0751C56.2167 44.7012 54.9686 45.0768 53.3461 45.3272C49.1026 53.8414 42.4878 60.227 34.6248 62.9816C26.7619 60.227 20.147 53.8414 15.9035 45.4524C14.281 45.3272 13.0329 44.9516 11.7849 44.4507C16.5276 55.7195 24.7649 63.9833 34.5 66.4875H34.6248H34.7496ZM34.0008 72.4975L34.5 72.7479L34.9993 72.4975C58.9625 63.3573 71.8178 34.9349 66.7006 11.3957C66.2014 9.2671 65.827 8.89149 61.9579 7.76461C59.3764 6.98768 55.0745 5.85365 50.9745 4.77286C49.1277 4.28604 47.3219 3.81002 45.7328 3.3823C40.7404 2.00501 37.745 1.12855 35.7481 0.5025C35.6912 0.48823 35.6359 0.47396 35.5821 0.46005C35.1635 0.352 34.8318 0.26636 34.5 0.3773C34.1683 0.26636 33.8365 0.352 33.418 0.46005C33.3641 0.47396 33.3088 0.48823 33.2519 0.5025C31.255 1.12855 28.2596 2.00501 23.1424 3.3823C21.2426 3.90643 18.9994 4.50309 16.7428 5.10328C13.0697 6.08025 9.3615 7.06656 7.04211 7.76461C3.17305 8.89149 2.79862 9.2671 2.29939 11.3957C-2.81777 34.9349 10.0375 63.3573 34.0008 72.4975ZM34.0008 70.7446L34.5 70.8698L34.9993 70.7446C57.7144 61.98 69.9457 34.9349 65.0781 12.6477C64.5789 10.6444 64.2045 10.2688 60.585 9.2671C58.3968 8.58582 55.0224 7.6757 51.6203 6.7581C49.3952 6.15796 47.1583 5.55462 45.2336 5.01002C44.006 4.66267 42.9133 4.35513 41.9336 4.07939C39.0287 3.26176 37.1166 2.72358 35.6233 2.25543C35.4361 2.25543 35.2489 2.22412 35.0617 2.19282C34.8744 2.16152 34.6872 2.13022 34.5 2.13022C34.3128 2.13022 34.1256 2.16152 33.9384 2.19282C33.7512 2.22412 33.564 2.25543 33.3767 2.25543C31.8834 2.72358 29.9713 3.26176 27.0664 4.07939C26.0867 4.35514 24.9941 4.66267 23.7665 5.01002C21.8418 5.55462 19.6048 6.15796 17.3797 6.7581C13.9777 7.6757 10.6033 8.58582 8.41501 9.2671C4.67075 10.2688 4.42113 10.6444 3.9219 12.6477C-0.945637 34.9349 11.2856 61.98 34.0008 70.7446ZM103.593 27.4109C103.593 27.2938 103.573 27.2352 103.535 27.2352C102.933 27.2352 102.492 27.1852 102.211 27.088C101.93 26.9898 101.736 26.8028 101.629 26.5281C101.523 26.2533 101.45 25.8115 101.411 25.2025L100.714 11.8335C100.674 11.048 100.858 10.4692 101.266 10.0963C101.673 9.7224 102.333 9.5364 103.244 9.5364C103.302 9.5364 103.332 9.4779 103.332 9.3599C103.332 9.2419 103.302 9.1833 103.244 9.1833C102.74 9.1833 102.351 9.1928 102.08 9.2126L100.364 9.2419C100.073 9.2419 99.8162 9.2324 99.5933 9.2126C99.3695 9.1928 99.1708 9.1833 98.9964 9.1833C98.7828 9.1833 98.614 9.2371 98.4871 9.3448C98.3612 9.4533 98.24 9.6441 98.1243 9.9188L92.5962 22.7581L86.2547 10.7138C85.8854 10.0472 85.6336 9.6252 85.4983 9.4477C85.3621 9.2721 85.1691 9.1833 84.9163 9.1833C84.6449 9.1833 84.422 9.1928 84.2476 9.2126L82.7058 9.2419C82.2786 9.2419 81.9298 9.2324 81.6584 9.2126L80.291 9.1833C80.2323 9.1833 80.2033 9.2419 80.2033 9.3599C80.2033 9.4779 80.2323 9.5364 80.291 9.5364C80.8339 9.5364 81.3133 9.7035 81.7311 10.0368C82.148 10.371 82.55 10.9007 82.938 11.6277L82.9669 11.657L82.7058 23.8477C82.6862 24.8881 82.4437 25.7133 81.9783 26.3223C81.5129 26.9303 80.8824 27.2352 80.0868 27.2352C80.0289 27.2352 80 27.2938 80 27.4109C80 27.5298 80.0289 27.5884 80.0868 27.5884C80.6109 27.5884 81.0279 27.5789 81.3384 27.5591L83.1712 27.5298L84.7708 27.5591C85.0618 27.5789 85.4694 27.5884 85.9926 27.5884C86.0505 27.5884 86.0803 27.5298 86.0803 27.4109C86.0803 27.2938 86.0505 27.2352 85.9926 27.2352C85.198 27.2352 84.5815 26.935 84.1459 26.3364C83.7094 25.7378 83.5005 24.9079 83.52 23.8477L83.7523 13.2176L91.1132 27.3816C91.1514 27.4609 91.2288 27.4996 91.3454 27.4996C91.462 27.4996 91.5394 27.4609 91.5786 27.3816L97.5712 13.1591L98.1822 25.2025L98.2111 25.7039C98.2111 26.3317 98.0656 26.7443 97.7746 26.9397C97.4836 27.1361 96.9314 27.2352 96.1162 27.2352C96.0584 27.2352 96.0295 27.2938 96.0295 27.4109C96.0295 27.5298 96.0584 27.5884 96.1162 27.5884C96.7561 27.5884 97.2606 27.5789 97.6291 27.5591L99.8107 27.5298L101.964 27.5591C102.351 27.5789 102.876 27.5884 103.535 27.5884C103.573 27.5884 103.593 27.5298 103.593 27.4109ZM125.645 27.4109C125.645 27.2938 125.616 27.2352 125.557 27.2352C124.898 27.2352 124.413 27.1852 124.103 27.088C123.792 26.9898 123.579 26.7981 123.462 26.513C123.347 26.2288 123.288 25.7917 123.288 25.2025V9.0946C123.288 9.036 123.23 8.98694 123.113 8.94729C122.997 8.90858 122.871 8.88875 122.735 8.88875C122.502 8.88875 122.357 8.91802 122.299 8.9775L110.663 23.7306V11.5682C110.663 10.9791 110.72 10.5476 110.837 10.2729C110.953 9.9981 111.177 9.8065 111.506 9.6979C111.835 9.5902 112.359 9.5364 113.076 9.5364C113.135 9.5364 113.164 9.4779 113.164 9.3599C113.164 9.2419 113.135 9.1833 113.076 9.1833L111.651 9.2126C110.681 9.2522 109.809 9.2721 109.033 9.2721C108.509 9.2721 107.763 9.2522 106.793 9.2126L105.163 9.1833C105.106 9.1833 105.077 9.2419 105.077 9.3599C105.077 9.4779 105.106 9.5364 105.163 9.5364C105.824 9.5364 106.308 9.5902 106.618 9.6979C106.929 9.8065 107.142 9.9981 107.258 10.2729C107.375 10.5476 107.433 10.9791 107.433 11.5682V27.7942C107.433 27.932 107.617 28 107.986 28C108.218 28 108.364 27.9707 108.422 27.9122L120.059 13.1591V25.2025C120.059 25.8115 120.001 26.2533 119.884 26.5281C119.768 26.8028 119.545 26.9898 119.216 27.088C118.885 27.1852 118.361 27.2352 117.644 27.2352C117.586 27.2352 117.557 27.2938 117.557 27.4109C117.557 27.5298 117.586 27.5884 117.644 27.5884C118.246 27.5884 118.72 27.5789 119.07 27.5591L121.687 27.5298L123.928 27.5591C124.335 27.5789 124.878 27.5884 125.557 27.5884C125.616 27.5884 125.645 27.5298 125.645 27.4109ZM145.192 27.5883C144.645 27.588 144.218 27.5786 143.914 27.5591L142.168 27.5298L139.783 27.5591C139.414 27.5789 138.9 27.5884 138.241 27.5884C138.182 27.5884 138.153 27.5298 138.153 27.4109C138.153 27.2938 138.182 27.2352 138.241 27.2352C138.881 27.2352 139.201 27.0681 139.201 26.7339C139.201 26.5574 139.114 26.3411 138.939 26.0862L134.954 19.8436L132.452 23.4653C131.695 24.5454 131.317 25.4187 131.317 26.0862C131.317 26.8519 131.821 27.2352 132.829 27.2352C132.868 27.2352 132.888 27.2938 132.888 27.4109C132.888 27.5298 132.868 27.5884 132.829 27.5884C132.19 27.5884 131.705 27.5789 131.375 27.5591L129.223 27.5298L127.855 27.5591C127.603 27.5789 127.196 27.5884 126.633 27.5884C126.576 27.5884 126.546 27.5298 126.546 27.4109C126.546 27.2938 126.576 27.2352 126.633 27.2352C127.235 27.2352 127.972 26.9105 128.844 26.2628C129.717 25.6151 130.628 24.6238 131.579 23.2887L134.546 19.2252L129.891 11.8921C129.368 11.048 128.864 10.4447 128.379 10.0812C127.894 9.7177 127.38 9.5364 126.837 9.5364C126.779 9.5364 126.75 9.4779 126.75 9.3599C126.75 9.2419 126.779 9.1833 126.837 9.1833L128.088 9.2126C128.631 9.2522 129.038 9.2721 129.309 9.2721C129.988 9.2721 130.832 9.2522 131.841 9.2126L133.499 9.1833C133.538 9.1833 133.557 9.2419 133.557 9.3599C133.557 9.4779 133.538 9.5364 133.499 9.5364C132.84 9.5364 132.51 9.7035 132.51 10.0368C132.51 10.1935 132.597 10.4201 132.771 10.7138L136.611 16.6921L138.939 13.3356C139.695 12.2357 140.074 11.353 140.074 10.6845C140.074 9.9188 139.57 9.5364 138.561 9.5364C138.523 9.5364 138.503 9.4779 138.503 9.3599C138.503 9.2419 138.523 9.1833 138.561 9.1833L140.016 9.2126C140.792 9.2522 141.508 9.2721 142.168 9.2721C142.575 9.2721 143.031 9.2522 143.535 9.2126L144.758 9.1833C144.815 9.1833 144.844 9.2419 144.844 9.3599C144.844 9.4779 144.815 9.5364 144.758 9.5364C144.137 9.5364 143.395 9.865 142.532 10.5231C141.669 11.1802 140.752 12.1772 139.783 13.5122L137.019 17.3397L141.993 25.144C142.478 25.87 142.973 26.4006 143.477 26.7339C143.978 27.0657 144.554 27.2328 145.209 27.2352C145.745 27.2332 146.195 27.1199 146.561 26.8963C146.93 26.6707 147.298 26.2684 147.667 25.6887C148.035 25.109 148.472 24.2508 148.975 23.1122L155.289 9.0653C155.327 9.0068 155.415 8.9775 155.55 8.9775C155.705 8.9775 155.792 9.0068 155.812 9.0653L163.084 23.5541C163.763 24.9476 164.326 25.9097 164.773 26.4393C165.218 26.9699 165.684 27.2352 166.169 27.2352C166.266 27.2352 166.314 27.2938 166.314 27.4109C166.314 27.5298 166.266 27.5884 166.169 27.5884C165.781 27.5884 165.179 27.5685 164.365 27.5298C163.512 27.4902 162.901 27.4703 162.532 27.4703C162.047 27.4703 161.456 27.4902 160.757 27.5298C160.098 27.5685 159.575 27.5884 159.187 27.5884C159.109 27.5884 159.07 27.5298 159.07 27.4109C159.07 27.2938 159.109 27.2352 159.187 27.2352C159.691 27.2352 160.054 27.1805 160.278 27.0729C160.501 26.9652 160.612 26.7736 160.612 26.4988C160.612 26.1646 160.419 25.6057 160.03 24.8201L157.005 18.7833H151.827L149.762 23.4068C149.509 23.9761 149.383 24.5057 149.383 24.9967C149.383 25.7039 149.63 26.2533 150.124 26.6452C150.619 27.0389 151.284 27.2352 152.118 27.2352C152.215 27.2352 152.263 27.2938 152.263 27.4109C152.263 27.5298 152.215 27.5884 152.118 27.5884C151.769 27.5884 151.264 27.5685 150.605 27.5298C149.868 27.4902 149.228 27.4703 148.684 27.4703C148.161 27.4703 147.531 27.4902 146.794 27.5298C146.151 27.5675 145.628 27.5873 145.226 27.5883L145.223 27.5884H145.204H145.194L145.192 27.5883ZM156.597 17.9581H152.204L154.27 13.3054L156.597 17.9581ZM175.71 7.53391C176.37 7.78977 177.068 7.91723 177.805 7.91723C178.562 7.91723 179.27 7.79449 179.929 7.54902C180.588 7.30354 181.121 6.97026 181.529 6.54729C181.936 6.12526 182.14 5.66924 182.14 5.17828C182.14 4.82518 182.033 4.54005 181.82 4.32384C181.606 4.10858 181.296 4 180.889 4C180.482 4 180.186 4.13312 180.002 4.39748C179.817 4.66279 179.638 5.06971 179.464 5.62014C179.27 6.20928 179.061 6.65586 178.838 6.95987C178.615 7.26389 178.261 7.41589 177.776 7.41589C177.31 7.41589 176.976 7.27427 176.773 6.98914C176.568 6.70496 176.38 6.25838 176.206 5.64941C176.05 5.08009 175.885 4.66279 175.71 4.39748C175.536 4.13312 175.225 4 174.78 4C174.373 4 174.057 4.10858 173.835 4.32384C173.612 4.54005 173.5 4.82518 173.5 5.17828C173.5 5.64941 173.703 6.09599 174.111 6.51802C174.517 6.94005 175.051 7.27899 175.71 7.53391ZM187.551 27.4109C187.551 27.2938 187.521 27.2352 187.463 27.2352C186.804 27.2352 186.32 27.1852 186.009 27.088C185.699 26.9898 185.485 26.7981 185.369 26.513C185.253 26.2288 185.194 25.7917 185.194 25.2025V9.0946C185.194 9.036 185.136 8.98694 185.02 8.94729C184.903 8.90858 184.778 8.88875 184.642 8.88875C184.409 8.88875 184.263 8.91802 184.205 8.9775L172.569 23.7306V11.5682C172.569 10.9791 172.627 10.5476 172.743 10.2729C172.86 9.9981 173.083 9.8065 173.412 9.6979C173.741 9.5902 174.266 9.5364 174.983 9.5364C175.042 9.5364 175.071 9.4779 175.071 9.3599C175.071 9.2419 175.042 9.1833 174.983 9.1833L173.558 9.2126C172.589 9.2522 171.716 9.2721 170.94 9.2721C170.415 9.2721 169.669 9.2522 168.699 9.2126L167.071 9.1833C167.012 9.1833 166.983 9.2419 166.983 9.3599C166.983 9.4779 167.012 9.5364 167.071 9.5364C167.73 9.5364 168.214 9.5902 168.525 9.6979C168.835 9.8065 169.049 9.9981 169.165 10.2729C169.281 10.5476 169.34 10.9791 169.34 11.5682V27.7942C169.34 27.932 169.524 28 169.892 28C170.125 28 170.271 27.9707 170.329 27.9122L181.965 13.1591V25.2025C181.965 25.8115 181.907 26.2533 181.791 26.5281C181.674 26.8028 181.451 26.9898 181.121 27.088C180.792 27.1852 180.269 27.2352 179.55 27.2352C179.492 27.2352 179.464 27.2938 179.464 27.4109C179.464 27.5298 179.492 27.5884 179.55 27.5884C180.152 27.5884 180.627 27.5789 180.976 27.5591L183.595 27.5298L185.835 27.5591C186.242 27.5789 186.785 27.5884 187.463 27.5884C187.521 27.5884 187.551 27.5298 187.551 27.4109ZM209.399 27.4109C209.399 27.2938 209.349 27.2352 209.253 27.2352C208.768 27.2352 208.303 26.9699 207.857 26.4393C207.411 25.9097 206.848 24.9476 206.17 23.5541L198.896 9.0653C198.877 9.0068 198.79 8.9775 198.634 8.9775C198.499 8.9775 198.411 9.0068 198.372 9.0653L192.06 23.1122C191.556 24.2508 191.12 25.109 190.751 25.6887C190.383 26.2684 190.013 26.6707 189.646 26.8963C189.277 27.122 188.821 27.2352 188.278 27.2352C188.2 27.2352 188.162 27.2938 188.162 27.4109C188.162 27.5298 188.2 27.5884 188.278 27.5884C188.685 27.5884 189.219 27.5685 189.878 27.5298C190.615 27.4902 191.245 27.4703 191.769 27.4703C192.312 27.4703 192.952 27.4902 193.689 27.5298C194.349 27.5685 194.852 27.5884 195.202 27.5884C195.299 27.5884 195.348 27.5298 195.348 27.4109C195.348 27.2938 195.299 27.2352 195.202 27.2352C194.367 27.2352 193.704 27.0389 193.209 26.6452C192.715 26.2533 192.467 25.7039 192.467 24.9967C192.467 24.5057 192.593 23.9761 192.845 23.4068L197.355 13.3054L203.115 24.8201C203.502 25.6057 203.696 26.1646 203.696 26.4988C203.696 26.7736 203.585 26.9652 203.362 27.0729C203.139 27.1805 202.775 27.2352 202.271 27.2352C202.194 27.2352 202.154 27.2938 202.154 27.4109C202.154 27.5298 202.194 27.5884 202.271 27.5884C202.659 27.5884 203.182 27.5685 203.842 27.5298C204.54 27.4902 205.132 27.4703 205.617 27.4703C205.985 27.4703 206.596 27.4902 207.449 27.5298C208.264 27.5685 208.865 27.5884 209.253 27.5884C209.349 27.5884 209.399 27.5298 209.399 27.4109ZM214.708 26.6603C216.113 27.5147 217.718 27.9415 219.522 27.9415C221.346 27.9415 223.038 27.51 224.599 26.6452C226.159 25.7822 227.406 24.6039 228.337 23.1122C229.268 21.6205 229.734 19.9805 229.734 18.1942C229.734 16.5844 229.36 15.0625 228.613 13.6302C227.866 12.197 226.796 11.0433 225.398 10.1699C224.002 9.2966 222.383 8.85948 220.54 8.85948C218.892 8.85948 217.277 9.222 215.696 9.949C214.116 10.6751 212.822 11.7599 211.813 13.2025C210.804 14.6452 210.3 16.3777 210.3 18.4C210.3 20.1278 210.683 21.7234 211.45 23.1858C212.215 24.6483 213.301 25.8068 214.708 26.6603ZM223.406 26.2486C222.542 26.8859 221.568 27.205 220.482 27.205C219.222 27.205 218.092 26.783 217.094 25.9389C216.095 25.0949 215.309 23.9213 214.737 22.4201C214.165 20.918 213.878 19.2148 213.878 17.3105C213.878 14.8963 214.353 13.0165 215.305 11.6711C216.254 10.3267 217.612 9.6544 219.377 9.6544C220.753 9.6544 221.957 10.0566 222.984 10.862C224.012 11.6664 224.798 12.7805 225.34 14.2042C225.883 15.6271 226.155 17.2425 226.155 19.0486C226.155 20.7556 225.913 22.2238 225.428 23.4511C224.943 24.6776 224.269 25.6104 223.406 26.2486ZM245.516 18.9013C244.555 17.9978 243.261 17.4483 241.632 17.2519C242.776 16.8195 243.653 16.2219 244.265 15.4562C244.875 14.6905 245.181 13.836 245.181 12.8938C245.181 11.657 244.696 10.7138 243.726 10.067C242.757 9.4184 241.39 9.0946 239.624 9.0946C239.333 9.0946 238.994 9.105 238.606 9.1238C238.218 9.1437 237.927 9.1635 237.733 9.1833C237.151 9.2419 236.59 9.2721 236.046 9.2721C235.522 9.2721 234.815 9.2522 233.922 9.2126L232.381 9.1833C232.342 9.1833 232.323 9.2419 232.323 9.3599C232.323 9.4779 232.342 9.5364 232.381 9.5364C233.214 9.5364 233.767 9.6686 234.039 9.9339C234.31 10.1992 234.446 10.744 234.446 11.5682V25.2025C234.446 25.7728 234.383 26.1995 234.257 26.4837C234.131 26.7688 233.922 26.9652 233.631 27.0729C233.341 27.1805 232.914 27.2352 232.352 27.2352C232.294 27.2352 232.264 27.2938 232.264 27.4109C232.264 27.5298 232.294 27.5884 232.352 27.5884C233.011 27.5884 233.535 27.5789 233.922 27.5591L236.046 27.5298C236.531 27.5298 236.972 27.5393 237.371 27.5591C237.767 27.5789 238.102 27.5978 238.373 27.6176C239.072 27.6762 239.692 27.7054 240.236 27.7054C241.496 27.7054 242.64 27.4656 243.668 26.9841C244.696 26.5035 245.501 25.8502 246.083 25.026C246.664 24.2017 246.955 23.2784 246.955 22.2577C246.955 20.9227 246.476 19.8039 245.516 18.9013ZM238.024 10.1397C238.238 9.8754 238.626 9.7423 239.188 9.7423C240.1 9.7423 240.797 10.0321 241.282 10.6118C241.767 11.1906 242.01 12.0393 242.01 13.1591C242.01 14.3563 241.738 15.3372 241.196 16.1029C240.652 16.8686 239.877 17.2519 238.868 17.2519L237.704 17.2227V11.6277C237.704 10.9007 237.811 10.405 238.024 10.1397ZM243.552 22.9649C243.552 25.6349 242.281 26.9699 239.741 26.9699C238.888 26.9699 238.335 26.8368 238.082 26.5725C237.83 26.3072 237.704 25.8502 237.704 25.2025V18.1054C238.15 18.0667 238.655 18.0469 239.217 18.0469C240.671 18.0469 241.758 18.4887 242.475 19.3725C243.193 20.2552 243.552 21.4533 243.552 22.9649ZM263.392 9.0804C262.461 8.93218 261.57 8.85948 260.716 8.85948C258.815 8.85948 257.036 9.2522 255.377 10.0368C253.719 10.8223 252.391 11.9317 251.392 13.3649C250.393 14.7981 249.894 16.4475 249.894 18.3122C249.894 19.9021 250.267 21.4288 251.014 22.8913C251.76 24.3537 252.929 25.5613 254.519 26.513C256.109 27.4656 258.088 27.9415 260.454 27.9415C262.277 27.9415 264.051 27.6176 265.778 26.9699C265.952 26.8906 266.063 26.8179 266.113 26.749C266.16 26.6801 266.204 26.5281 266.242 26.293L266.68 22.287C266.68 22.2285 266.627 22.1898 266.519 22.1699C266.413 22.1501 266.35 22.1794 266.33 22.2577C265.554 23.9666 264.676 25.2374 263.698 26.0711C262.718 26.9057 261.608 27.3231 260.366 27.3231C259.047 27.3231 257.869 26.8859 256.832 26.0126C255.794 25.1393 254.989 23.9563 254.418 22.4645C253.845 20.9718 253.559 19.3234 253.559 17.5172C253.559 15.1021 254.083 13.178 255.13 11.7448C256.178 10.3116 257.661 9.5959 259.581 9.5959C261.036 9.5959 262.316 10.017 263.421 10.862C264.526 11.7061 265.409 12.9032 266.069 14.4544C266.088 14.5328 266.146 14.5621 266.242 14.5422C266.34 14.5234 266.389 14.4837 266.389 14.4252L266.039 10.3314C266.001 10.1161 265.957 9.9632 265.908 9.8754C265.86 9.7866 265.748 9.713 265.574 9.6544C265.05 9.4184 264.323 9.2268 263.392 9.0804ZM287.683 27.4109C287.683 27.2938 287.654 27.2352 287.596 27.2352C287.033 27.2145 286.51 27.0389 286.025 26.7046C285.54 26.3704 285.07 25.9191 284.615 25.3498C284.159 24.7805 283.523 23.927 282.708 22.7884L282.185 22.0519C281.312 20.8151 280.639 19.9314 280.163 19.4017C279.688 18.8711 279.208 18.484 278.723 18.2386C278.238 17.9931 277.618 17.8505 276.861 17.8118L280.818 12.8343C281.555 11.8921 282.456 11.1075 283.523 10.4787C284.591 9.8508 285.55 9.5364 286.404 9.5364C286.462 9.5364 286.49 9.4779 286.49 9.3599C286.49 9.2419 286.462 9.1833 286.404 9.1833L285.153 9.2126C284.338 9.2522 283.552 9.2721 282.796 9.2721C282.137 9.2721 281.38 9.2522 280.527 9.2126L279.188 9.1833C279.15 9.1833 279.13 9.2419 279.13 9.3599C279.13 9.4779 279.15 9.5364 279.188 9.5364C279.558 9.5364 279.849 9.6441 280.061 9.8603C280.275 10.0765 280.381 10.371 280.381 10.744C280.381 11.4899 279.984 12.4227 279.188 13.5415L276.134 17.7825C275.339 17.7825 274.68 17.792 274.155 17.8118V11.6277C274.155 11.0386 274.214 10.6014 274.33 10.3172C274.446 10.0321 274.66 9.831 274.971 9.713C275.281 9.5959 275.756 9.5364 276.396 9.5364C276.454 9.5364 276.483 9.4779 276.483 9.3599C276.483 9.2419 276.454 9.1833 276.396 9.1833L274.796 9.2126C273.826 9.2522 273.012 9.2721 272.352 9.2721C271.828 9.2721 271.12 9.2522 270.229 9.2126L268.687 9.1833C268.628 9.1833 268.599 9.2419 268.599 9.3599C268.599 9.4779 268.628 9.5364 268.687 9.5364C269.346 9.5364 269.826 9.5902 270.127 9.6979C270.427 9.8065 270.635 9.9981 270.752 10.2729C270.869 10.5476 270.927 10.9791 270.927 11.5682V25.2025C270.927 25.7917 270.869 26.2288 270.752 26.513C270.635 26.7981 270.423 26.9898 270.112 27.088C269.802 27.1852 269.318 27.2352 268.658 27.2352C268.599 27.2352 268.57 27.2938 268.57 27.4109C268.57 27.5298 268.599 27.5884 268.658 27.5884C269.318 27.5884 269.841 27.5789 270.229 27.5591L272.352 27.5298L274.767 27.5591C275.174 27.5789 275.718 27.5884 276.396 27.5884C276.454 27.5884 276.483 27.5298 276.483 27.4109C276.483 27.2938 276.454 27.2352 276.396 27.2352C275.736 27.2352 275.252 27.1852 274.942 27.088C274.631 26.9898 274.422 26.7981 274.316 26.513C274.21 26.2288 274.155 25.7917 274.155 25.2025V18.3122C274.737 18.3122 275.208 18.3953 275.567 18.5624C275.926 18.7295 276.27 19.0137 276.599 19.4159C276.929 19.819 277.434 20.5205 278.112 21.5213L278.897 22.6411C280.042 24.3094 280.866 25.4725 281.371 26.1306C281.874 26.7887 282.229 27.1956 282.432 27.3523C282.637 27.51 282.864 27.5884 283.116 27.5884H287.596C287.654 27.5884 287.683 27.5298 287.683 27.4109ZM308.746 27.4109C308.746 27.2938 308.717 27.2352 308.658 27.2352C307.999 27.2352 307.515 27.1852 307.204 27.088C306.893 26.9898 306.68 26.7981 306.564 26.513C306.448 26.2288 306.389 25.7917 306.389 25.2025V9.0946C306.389 9.036 306.331 8.98694 306.214 8.94729C306.098 8.90858 305.973 8.88875 305.837 8.88875C305.603 8.88875 305.458 8.91802 305.4 8.9775L293.764 23.7306V11.5682C293.764 10.9791 293.822 10.5476 293.938 10.2729C294.055 9.9981 294.278 9.8065 294.607 9.6979C294.937 9.5902 295.46 9.5364 296.178 9.5364C296.236 9.5364 296.265 9.4779 296.265 9.3599C296.265 9.2419 296.236 9.1833 296.178 9.1833L294.752 9.2126C293.783 9.2522 292.91 9.2721 292.134 9.2721C291.611 9.2721 290.864 9.2522 289.894 9.2126L288.265 9.1833C288.208 9.1833 288.178 9.2419 288.178 9.3599C288.178 9.4779 288.208 9.5364 288.265 9.5364C288.925 9.5364 289.409 9.5902 289.72 9.6979C290.03 9.8065 290.244 9.9981 290.359 10.2729C290.476 10.5476 290.535 10.9791 290.535 11.5682V27.7942C290.535 27.932 290.718 28 291.087 28C291.32 28 291.465 27.9707 291.523 27.9122L303.16 13.1591V25.2025C303.16 25.8115 303.102 26.2533 302.985 26.5281C302.869 26.8028 302.646 26.9898 302.317 27.088C301.986 27.1852 301.463 27.2352 300.745 27.2352C300.687 27.2352 300.658 27.2938 300.658 27.4109C300.658 27.5298 300.687 27.5884 300.745 27.5884C301.347 27.5884 301.821 27.5789 302.171 27.5591L304.789 27.5298L307.03 27.5591C307.436 27.5789 307.98 27.5884 308.658 27.5884C308.717 27.5884 308.746 27.5298 308.746 27.4109ZM319.16 7.53391C319.82 7.78977 320.518 7.91723 321.255 7.91723C322.012 7.91723 322.719 7.79449 323.378 7.54902C324.038 7.30354 324.571 6.97026 324.978 6.54729C325.386 6.12526 325.589 5.66924 325.589 5.17828C325.589 4.82518 325.482 4.54005 325.269 4.32384C325.056 4.10858 324.746 4 324.339 4C323.931 4 323.635 4.13312 323.452 4.39748C323.267 4.66279 323.088 5.06971 322.913 5.62014C322.719 6.20928 322.511 6.65586 322.288 6.95987C322.065 7.26389 321.711 7.41589 321.226 7.41589C320.761 7.41589 320.426 7.27427 320.223 6.98914C320.018 6.70496 319.829 6.25838 319.655 5.64941C319.5 5.08009 319.335 4.66279 319.16 4.39748C318.986 4.13312 318.675 4 318.229 4C317.822 4 317.507 4.10858 317.284 4.32384C317.061 4.54005 316.95 4.82518 316.95 5.17828C316.95 5.64941 317.153 6.09599 317.56 6.51802C317.967 6.94005 318.501 7.27899 319.16 7.53391ZM331 27.4109C331 27.2938 330.971 27.2352 330.913 27.2352C330.254 27.2352 329.769 27.1852 329.458 27.088C329.149 26.9898 328.935 26.7981 328.818 26.513C328.702 26.2288 328.644 25.7917 328.644 25.2025V9.0946C328.644 9.036 328.586 8.98694 328.47 8.94729C328.353 8.90858 328.227 8.88875 328.092 8.88875C327.859 8.88875 327.713 8.91802 327.655 8.9775L316.018 23.7306V11.5682C316.018 10.9791 316.077 10.5476 316.193 10.2729C316.309 9.9981 316.532 9.8065 316.862 9.6979C317.192 9.5902 317.716 9.5364 318.433 9.5364C318.492 9.5364 318.52 9.4779 318.52 9.3599C318.52 9.2419 318.492 9.1833 318.433 9.1833L317.008 9.2126C316.038 9.2522 315.165 9.2721 314.389 9.2721C313.866 9.2721 313.119 9.2522 312.149 9.2126L310.52 9.1833C310.462 9.1833 310.433 9.2419 310.433 9.3599C310.433 9.4779 310.462 9.5364 310.52 9.5364C311.179 9.5364 311.664 9.5902 311.975 9.6979C312.285 9.8065 312.498 9.9981 312.615 10.2729C312.731 10.5476 312.789 10.9791 312.789 11.5682V27.7942C312.789 27.932 312.974 28 313.342 28C313.575 28 313.72 27.9707 313.779 27.9122L325.415 13.1591V25.2025C325.415 25.8115 325.357 26.2533 325.241 26.5281C325.124 26.8028 324.901 26.9898 324.571 27.088C324.242 27.1852 323.718 27.2352 323 27.2352C322.942 27.2352 322.913 27.2938 322.913 27.4109C322.913 27.5298 322.942 27.5884 323 27.5884C323.602 27.5884 324.077 27.5789 324.425 27.5591L327.044 27.5298L329.284 27.5591C329.691 27.5789 330.234 27.5884 330.913 27.5884C330.971 27.5884 331 27.5298 331 27.4109ZM81.3678 36H329.632C330.388 36 331 36.6716 331 37.5C331 38.3284 330.388 39 329.632 39H81.3678C80.6124 39 80 38.3284 80 37.5C80 36.6716 80.6124 36 81.3678 36ZM86.18 56.73C86.28 55.7 86.555 54.81 87.005 54.06C87.465 53.3 88.05 52.72 88.76 52.32C89.48 51.92 90.28 51.72 91.16 51.72C92.76 51.72 93.965 52.2 94.775 53.16C95.585 54.12 95.99 55.455 95.99 57.165C95.99 58.375 95.78 59.435 95.36 60.345C94.94 61.245 94.355 61.94 93.605 62.43C92.855 62.91 92 63.15 91.04 63.15C89.46 63.15 88.26 62.685 87.44 61.755C86.62 60.815 86.19 59.52 86.15 57.87H83.975V61.935L85.235 62.1V63H80.615V62.1L81.785 61.935V52.98L80.645 52.785V51.855H85.19V52.785L83.975 52.98V56.73H86.18ZM91.115 52.65C90.315 52.65 89.685 53.055 89.225 53.865C88.775 54.665 88.55 55.87 88.55 57.48C88.55 59.01 88.77 60.18 89.21 60.99C89.65 61.8 90.285 62.205 91.115 62.205C91.905 62.205 92.51 61.79 92.93 60.96C93.36 60.12 93.575 58.89 93.575 57.27C93.575 55.75 93.365 54.6 92.945 53.82C92.525 53.04 91.915 52.65 91.115 52.65ZM101.809 52.98L100.684 52.785V51.855H102.949C103.159 51.855 103.484 51.845 103.924 51.825C104.504 51.785 105.029 51.765 105.499 51.765C106.539 51.765 107.359 51.895 107.959 52.155C108.569 52.405 108.999 52.77 109.249 53.25C109.509 53.72 109.639 54.32 109.639 55.05C109.639 56.31 109.244 57.29 108.454 57.99C107.674 58.69 106.589 59.04 105.199 59.04C104.649 59.04 104.254 59.025 104.014 58.995V61.95L106.024 62.1V63H100.624V62.1L101.809 61.95V52.98ZM103.999 58.035C104.229 58.085 104.619 58.11 105.169 58.11C105.839 58.11 106.374 57.88 106.774 57.42C107.184 56.95 107.389 56.175 107.389 55.095C107.389 54.255 107.204 53.645 106.834 53.265C106.474 52.875 105.919 52.68 105.169 52.68C104.889 52.68 104.599 52.7 104.299 52.74C104.159 52.76 104.059 52.77 103.999 52.77V58.035ZM118.841 52.785L117.461 52.98V59.97L118.466 58.29L122.291 53.34V52.98L121.031 52.785V51.855H125.621V52.785L124.466 52.98V61.95L125.666 62.1V63H121.031V62.1L122.291 61.95V54.87L121.391 56.49L117.461 61.485V61.95L118.796 62.1V63H114.116V62.1L115.301 61.95V52.98L114.146 52.785V51.855H118.841V52.785ZM140.589 61.935C140.589 62.235 140.544 62.955 140.454 64.095C140.364 65.245 140.309 65.865 140.289 65.955H139.074C139.064 65.695 139.004 65.16 138.894 64.35C138.784 63.54 138.699 63.09 138.639 63H132.039C131.969 63.09 131.844 63.51 131.664 64.26C131.494 65.01 131.379 65.58 131.319 65.97H130.074L130.089 65.295C130.139 63.615 130.184 62.495 130.224 61.935H131.304C131.544 61.605 131.804 61.1 132.084 60.42C132.364 59.74 132.609 58.83 132.819 57.69C133.029 56.55 133.134 55.22 133.134 53.7V52.98L131.574 52.785V51.855H140.619V52.785L139.179 52.98V61.935H140.589ZM134.229 53.79C134.239 55.16 134.164 56.405 134.004 57.525C133.844 58.635 133.654 59.555 133.434 60.285C133.214 61.015 133.004 61.565 132.804 61.935H137.004L137.019 52.875H134.229V53.79ZM150.086 52.785L148.706 52.98V59.97L149.711 58.29L153.536 53.34V52.98L152.276 52.785V51.855H156.866V52.785L155.711 52.98V61.95L156.911 62.1V63H152.276V62.1L153.536 61.95V54.87L152.636 56.49L148.706 61.485V61.95L150.041 62.1V63H145.361V62.1L146.546 61.95V52.98L145.391 52.785V51.855H150.086V52.785ZM167.934 58.26C167.594 58.46 167.164 58.615 166.644 58.725C166.134 58.835 165.644 58.89 165.174 58.89C164.444 58.89 163.854 58.79 163.404 58.59C162.954 58.38 162.614 58.03 162.384 57.54C162.164 57.04 162.054 56.36 162.054 55.5V52.995L161.184 52.8V51.855H165.369V52.8L164.244 52.98V54.99C164.244 55.8 164.294 56.39 164.394 56.76C164.494 57.13 164.664 57.375 164.904 57.495C165.144 57.605 165.524 57.66 166.044 57.66C166.394 57.66 166.749 57.615 167.109 57.525C167.479 57.435 167.754 57.325 167.934 57.195V52.98L166.704 52.785V51.855H171.339V52.785L170.124 52.98V61.95L171.354 62.115V63H166.344V62.1L167.934 61.95V58.26ZM177.234 52.98L176.034 52.785V51.855H184.029L184.224 54.375H183.174L182.679 52.89L179.439 52.755V56.79L181.524 56.745L181.764 55.515H182.724V59.145H181.764L181.524 57.855L179.439 57.81V62.04L183.069 61.86L183.939 59.94L185.064 60.255L184.674 63H176.049V62.1L177.234 61.95V52.98ZM194.538 63.165C192.838 63.165 191.538 62.66 190.638 61.65C189.738 60.63 189.288 59.24 189.288 57.48C189.288 56.32 189.523 55.31 189.993 54.45C190.473 53.58 191.128 52.91 191.958 52.44C192.788 51.97 193.728 51.735 194.778 51.735C195.218 51.735 195.643 51.765 196.053 51.825C196.463 51.875 196.948 51.945 197.508 52.035C197.928 52.105 198.158 52.14 198.198 52.14L198.033 55.23H196.653L196.188 53.085C196.078 52.975 195.888 52.885 195.618 52.815C195.348 52.745 195.003 52.71 194.583 52.71C193.733 52.71 193.048 53.105 192.528 53.895C192.018 54.675 191.763 55.81 191.763 57.3C191.763 58.74 192.008 59.915 192.498 60.825C192.988 61.735 193.703 62.19 194.643 62.19C195.093 62.19 195.438 62.15 195.678 62.07C195.928 61.98 196.138 61.855 196.308 61.695L196.968 60.15L198.228 60.27L197.928 62.595C197.718 62.615 197.508 62.655 197.298 62.715C197.098 62.765 196.973 62.795 196.923 62.805C196.523 62.915 196.148 63 195.798 63.06C195.458 63.13 195.038 63.165 194.538 63.165ZM208.63 57.045C208.99 57.135 209.33 57.35 209.65 57.69C209.98 58.02 210.265 58.385 210.505 58.785C210.755 59.175 211.055 59.69 211.405 60.33C211.675 60.84 211.89 61.225 212.05 61.485C212.22 61.745 212.375 61.895 212.515 61.935L213.07 62.1V63H210.7C210.45 63 210.205 62.81 209.965 62.43C209.735 62.05 209.43 61.455 209.05 60.645C208.63 59.735 208.26 59.04 207.94 58.56C207.63 58.08 207.3 57.84 206.95 57.84H206.245V61.935L207.58 62.115V63H202.915V62.1L204.07 61.935V52.98L202.915 52.785V51.855H207.385V52.785L206.245 52.98V57H207.34L210.025 52.98L208.9 52.785V51.855H212.86V52.785L211.615 52.98L208.63 57.045ZM221.995 52.785L220.615 52.98V59.97L221.62 58.29L225.445 53.34V52.98L224.185 52.785V51.855H228.775V52.785L227.62 52.98V61.95L228.82 62.1V63H224.185V62.1L225.445 61.95V54.87L224.545 56.49L220.615 61.485V61.95L221.95 62.1V63H217.27V62.1L218.455 61.95V52.98L217.3 52.785V51.855H221.995V52.785ZM234.744 52.98L233.544 52.785V51.855H241.539L241.734 54.375H240.684L240.189 52.89L236.949 52.755V56.79L239.034 56.745L239.274 55.515H240.234V59.145H239.274L239.034 57.855L236.949 57.81V62.04L240.579 61.86L241.449 59.94L242.574 60.255L242.184 63H233.559V62.1L234.744 61.95V52.98ZM256.072 60.645C255.822 61.205 255.607 61.64 255.427 61.95C255.247 62.26 254.977 62.54 254.617 62.79C254.267 63.04 253.827 63.165 253.297 63.165C253.017 63.165 252.717 63.14 252.397 63.09C252.077 63.04 251.832 62.98 251.662 62.91V61.68L252.742 61.695C253.222 61.695 253.562 61.62 253.762 61.47C253.962 61.32 254.117 61.045 254.227 60.645L250.657 52.98L249.847 52.785V51.855H254.422V52.785L253.057 52.98L255.127 57.795L255.547 59.055L255.982 57.78L257.662 52.98L256.507 52.785V51.855H259.837V52.785L259.057 52.98L256.072 60.645ZM268.834 63.165C267.134 63.165 265.834 62.66 264.934 61.65C264.034 60.63 263.584 59.24 263.584 57.48C263.584 56.32 263.819 55.31 264.289 54.45C264.769 53.58 265.424 52.91 266.254 52.44C267.084 51.97 268.024 51.735 269.074 51.735C269.514 51.735 269.939 51.765 270.349 51.825C270.759 51.875 271.244 51.945 271.804 52.035C272.224 52.105 272.454 52.14 272.494 52.14L272.329 55.23H270.949L270.484 53.085C270.374 52.975 270.184 52.885 269.914 52.815C269.644 52.745 269.299 52.71 268.879 52.71C268.029 52.71 267.344 53.105 266.824 53.895C266.314 54.675 266.059 55.81 266.059 57.3C266.059 58.74 266.304 59.915 266.794 60.825C267.284 61.735 267.999 62.19 268.939 62.19C269.389 62.19 269.734 62.15 269.974 62.07C270.224 61.98 270.434 61.855 270.604 61.695L271.264 60.15L272.524 60.27L272.224 62.595C272.014 62.615 271.804 62.655 271.594 62.715C271.394 62.765 271.269 62.795 271.219 62.805C270.819 62.915 270.444 63 270.094 63.06C269.754 63.13 269.334 63.165 268.834 63.165ZM281.097 54.165C281.097 55.905 281.002 57.47 280.812 58.86C280.632 60.24 280.352 61.28 279.972 61.98C279.572 62.72 278.997 63.09 278.247 63.09C277.737 63.09 277.352 63.06 277.092 63L276.957 61.65C277.357 61.69 277.737 61.71 278.097 61.71C278.297 61.71 278.467 61.665 278.607 61.575C278.757 61.485 278.887 61.325 278.997 61.095C279.317 60.535 279.562 59.68 279.732 58.53C279.912 57.38 280.002 55.83 280.002 53.88V52.98L278.202 52.785V51.855H287.487V52.785L286.107 52.98V61.95L287.562 62.1V63H282.387V62.1L283.932 61.935L283.947 52.98H281.097V54.165ZM297.6 60.645C297.35 61.205 297.135 61.64 296.955 61.95C296.775 62.26 296.505 62.54 296.145 62.79C295.795 63.04 295.355 63.165 294.825 63.165C294.545 63.165 294.245 63.14 293.925 63.09C293.605 63.04 293.36 62.98 293.19 62.91V61.68L294.27 61.695C294.75 61.695 295.09 61.62 295.29 61.47C295.49 61.32 295.645 61.045 295.755 60.645L292.185 52.98L291.375 52.785V51.855H295.95V52.785L294.585 52.98L296.655 57.795L297.075 59.055L297.51 57.78L299.19 52.98L298.035 52.785V51.855H301.365V52.785L300.585 52.98L297.6 60.645ZM313.303 51.855L313.483 56.07H312.193L311.683 52.965L308.923 52.815V61.935L311.383 62.115V63H305.083V62.115L306.718 61.935V52.995L305.113 52.77V51.855H313.303ZM322.484 52.785L321.104 52.98V59.97L322.109 58.29L325.934 53.34V52.98L324.674 52.785V51.855H329.264V52.785L328.109 52.98V61.95L329.309 62.1V63H324.674V62.1L325.934 61.95V54.87L325.034 56.49L321.104 61.485V61.95L322.439 62.1V63H317.759V62.1L318.944 61.95V52.98L317.789 52.785V51.855H322.484V52.785Z" fill="url(#paint0_linear_318_63)"/>
<defs>
<linearGradient id="paint0_linear_318_63" x1="34.5" y1="-1" x2="34.5" y2="149" gradientUnits="userSpaceOnUse">
<stop stop-color="#E9E9E9"/>
<stop offset="1" stop-color="#1C233D"/>
</linearGradient>
</defs>
</svg>
