<svg width="881" height="881" viewBox="0 0 881 881" fill="none" xmlns="http://www.w3.org/2000/svg">
<path fill-rule="evenodd" clip-rule="evenodd" d="M440.509 0C683.778 0 881 197.222 881 440.5C881 683.778 683.778 881 440.509 881C197.222 881 0 683.778 0 440.5C0 197.222 197.222 0 440.509 0ZM329.559 753.801L340.375 757.265L339.75 759.192C338.448 758.853 337.588 759.634 337.163 761.553L336.564 764.547C337.71 764.521 339.515 764.356 341.98 764.044L342.032 763.87C342.145 763.644 342.258 763.375 342.345 763.089C342.961 761.162 342.701 760.016 341.555 759.652L342.137 757.837L351.45 760.815L350.834 762.742C349.48 762.551 348.421 763.21 347.657 764.738C344.793 770.502 342.744 774.668 341.529 777.229C339.272 781.942 337.363 786.152 335.774 789.85C335.444 790.648 335.383 791.421 335.6 792.15C335.817 792.897 336.277 793.322 336.989 793.435C336.581 794.598 336.373 795.31 336.364 795.587L321.851 790.944L322.485 788.782C323.127 789.103 323.752 789.034 324.36 788.556C324.959 788.079 325.358 787.419 325.549 786.569C326.564 782.064 328.17 772.932 330.366 759.192C330.635 757.516 330.158 756.353 328.943 755.728L329.559 753.801ZM335.661 769.208L332.858 782.949L333.101 783.097L339.585 768.939L335.661 769.208ZM303.059 744.314C304.343 744.913 305.42 744.279 306.296 742.413C306.435 742.109 306.505 741.961 306.513 741.987C306.531 742.014 306.539 742.014 306.557 741.979C306.574 741.944 306.617 741.823 306.687 741.606C306.774 741.397 306.973 740.937 307.303 740.217L313.475 740.972L309.872 748.723C309.551 749.4 309.551 750.164 309.864 751.015C310.011 751.405 310.194 751.735 310.393 751.996L309.43 754.088L305.602 752.317C304.265 753.228 302.894 754.47 301.487 756.049C300.073 757.62 298.692 759.356 297.356 761.257C296.019 763.158 294.769 765.146 293.597 767.229C292.425 769.304 291.419 771.309 290.568 773.227C289.387 775.493 289.526 777.064 290.984 777.941L290.082 779.885L270.395 770.745L271.298 768.809C272.973 769.304 274.258 768.393 275.169 766.084L285.863 743.159L281.836 741.293L282.808 739.201C283.146 739.184 283.511 739.114 283.902 738.967C284.752 738.654 285.334 738.16 285.646 737.474L288.441 731.467L294.604 732.214L292.781 736.146C291.913 738.012 292.122 739.245 293.415 739.844L303.059 744.314ZM285.464 770.858C286.427 768.792 287.46 766.7 288.571 764.582C289.674 762.473 290.837 760.476 292.061 758.584C293.293 756.692 294.552 754.964 295.837 753.393C297.121 751.822 298.389 750.546 299.639 749.548L292.443 746.215L281.844 769.182L285.464 770.858ZM242.593 723.447C246.36 717.405 251.056 716.155 256.663 719.706L266.819 726.033L265.656 727.9C264.345 727.032 263.078 727.5 261.863 729.306L248.044 751.484C246.672 753.68 246.681 755.32 248.079 756.414L247.011 758.133L236.699 751.709C235.015 750.659 233.791 749.166 233.01 747.222C231.899 744.401 232.315 741.423 234.277 738.272C236.248 735.122 238.609 733.533 241.369 733.481C239.911 730.452 240.31 727.11 242.593 723.447ZM240.501 742.543C239.268 744.513 239.225 745.859 240.371 746.571C241.447 747.248 242.454 746.84 243.391 745.338L246.716 740C244.06 739.305 241.985 740.165 240.501 742.543ZM248.921 728.716C247.315 731.294 246.82 733.012 247.419 733.88C248.487 734.01 249.433 734.167 250.257 734.323L254.337 727.787C255.127 726.511 255.049 725.582 254.085 724.983C253.044 724.332 252.011 724.549 250.978 725.625C250.717 725.912 250.023 726.936 248.921 728.716ZM211.813 697.25C212.143 696.833 212.716 696.313 213.549 695.679C217.108 693.127 220.806 693.353 224.642 696.347C228.487 699.351 229.581 702.875 227.949 706.92C227.559 707.901 227.203 708.604 226.882 709.02L213.792 725.677C211.96 727.96 209.886 729.167 207.568 729.315C205.251 729.445 202.933 728.62 200.633 726.823C198.333 725.018 196.996 723.013 196.649 720.782C196.301 718.551 197.022 716.286 198.81 713.985L211.813 697.25ZM216.908 701.868L204.148 718.221C203.706 718.777 203.523 719.428 203.584 720.166C203.645 720.903 203.975 721.511 204.565 721.962C205.147 722.431 205.841 722.622 206.622 722.535C207.395 722.457 208.002 722.136 208.436 721.581L221.205 705.227C221.674 704.637 221.865 703.951 221.795 703.187C221.734 702.423 221.413 701.824 220.858 701.382C220.259 700.922 219.573 700.739 218.783 700.835C218.002 700.939 217.368 701.278 216.908 701.868ZM184.957 659.656L193.116 668.033L191.467 669.569C190.625 668.97 189.852 669.022 189.123 669.734C188.932 669.908 188.758 670.142 188.594 670.402C188.003 671.453 186.094 674.595 182.873 679.829L186.502 678.562L190.685 674.473C192.621 672.546 193.029 671.053 191.901 670.003L193.515 668.432L201.987 677.129L200.338 678.744C198.845 677.477 197.178 677.737 195.355 679.508L177.518 696.894C175.695 698.665 175.391 700.323 176.624 701.842L175.009 703.413L166.537 694.715L168.143 693.144C169.167 694.307 170.582 693.986 172.414 692.207L179.939 684.872C178.264 685.462 176.572 686.061 174.87 686.669C172.657 687.468 170.435 688.414 168.195 689.49C167.709 689.75 167.353 689.993 167.11 690.236C166.494 690.835 166.581 691.539 167.362 692.337L165.747 693.908L158.534 686.426L159.94 685.054C160.209 685.271 160.505 685.445 160.852 685.584C161.59 685.853 162.353 685.862 163.152 685.61C165.53 684.872 169.384 683.492 174.74 681.47L183.819 664.691C184.531 663.267 184.358 662.13 183.307 661.262L184.957 659.656ZM159.272 626.029L165.878 635.274L164.228 636.446C163.378 635.395 162.223 635.499 160.748 636.793L158.473 638.833C159.402 639.492 160.956 640.438 163.117 641.662L163.256 641.558C163.491 641.437 163.725 641.298 163.977 641.116C165.626 639.935 166.095 638.867 165.391 637.887L166.945 636.775L172.639 644.735L170.99 645.916C170.018 644.943 168.777 644.848 167.249 645.612C161.503 648.52 157.371 650.646 154.871 651.974C150.245 654.396 146.2 656.627 142.719 658.649C141.972 659.092 141.469 659.674 141.2 660.394C140.931 661.115 141.052 661.731 141.556 662.252C140.523 662.929 139.933 663.389 139.759 663.606L130.897 651.202L132.702 649.856C133.023 650.49 133.57 650.811 134.334 650.785C135.098 650.768 135.818 650.481 136.469 649.917C139.985 646.905 146.729 640.534 156.703 630.838C157.918 629.649 158.23 628.434 157.631 627.201L159.272 626.029ZM154.958 642.027L144.49 651.375L144.611 651.636L158.265 644.162L154.958 642.027ZM118.779 601.117L119.317 606.482L113.51 609.702C112.894 610.049 112.755 610.614 113.111 611.403C113.259 611.751 113.493 611.985 113.814 612.107C114.144 612.219 114.5 612.133 114.89 611.837L136.521 599.833C138.223 598.887 138.83 597.428 138.344 595.475L140.106 594.486L146.443 605.9L144.663 606.872C143.266 605.431 141.712 605.18 140.002 606.117L118.38 618.122C117.92 618.295 117.642 618.538 117.564 618.86C117.494 619.181 117.555 619.502 117.772 619.806C118.258 620.526 118.814 620.726 119.465 620.413L125.254 617.202L129.525 620.483L115.715 628.156L104.969 608.791L118.779 601.117ZM104.874 551.667L107.998 561.111L102.712 562.855L99.596 553.411L104.874 551.667ZM103.337 478.606L105.308 490.81L103.259 491.149C103.207 490.619 102.808 490.124 102.044 489.664C101.289 489.187 100.542 489.013 99.8043 489.135L79.9962 492.399L80.1351 492.885L105.715 493.31L106.427 497.693L82.1749 506.217L82.3138 506.764L102.079 503.631C103.788 503.353 104.683 502.433 104.769 500.87L106.879 500.523L108.519 510.679L106.462 511.009C105.689 509.498 104.5 508.856 102.903 509.073L77.1665 513.292C74.6145 513.734 73.3906 514.811 73.4688 516.503L71.3074 516.859L69.1634 503.596L87.6955 497.416L87.7476 497.008L68.0003 496.374L66.134 484.777L68.2346 484.439C68.7728 486.097 70.2484 486.661 72.6702 486.114L98.6412 481.974C99.9606 481.618 100.776 480.611 101.115 478.962C101.575 478.962 102.322 478.84 103.337 478.606ZM82.5829 448.954L72.9219 443.981L69.9967 444.068C67.3753 444.085 66.0212 444.719 65.917 445.96L63.6689 445.977L63.556 434.172L65.8129 434.146C65.7174 436.212 67.0541 437.236 69.8318 437.21L95.0042 436.976C97.7818 436.95 99.1012 435.9 98.971 433.842L101.219 433.825L101.332 445.578L99.0231 445.595C98.9016 444.397 97.5301 443.807 94.9 443.833L82.0881 443.955L92.0877 448.868L95.117 448.781C96.584 448.764 97.5388 448.659 97.9815 448.477C98.8061 448.208 99.1793 447.6 99.0925 446.663L101.341 446.637L101.445 458.39L99.1446 458.407C98.9363 456.541 97.5648 455.621 95.0129 455.638L70.1095 455.873C67.5663 455.899 66.2035 456.879 66.0299 458.824L63.7904 458.85L63.6775 446.993L65.9257 446.967C65.8997 447.904 66.2729 448.503 67.0715 448.755C67.5142 448.937 68.469 449.024 69.9359 449.015L82.5829 448.954ZM104.735 390.12L102.999 402.195L100.95 401.899C100.95 401.552 100.785 401.136 100.447 400.632C100.013 399.964 99.4918 399.643 98.8755 399.669C98.728 399.686 96.0198 400.155 90.7856 401.066L90.777 401.465C94.8393 403.297 97.4259 404.208 98.563 404.226C99.5526 404.208 100.256 403.818 100.672 403.045L102.834 403.358L101.427 413.21L99.2488 412.897C99.0144 412.185 98.5023 411.274 97.7124 410.18C96.7055 409.538 91.7578 407.22 82.8693 403.227L68.6947 406.587C67.167 406.934 66.2729 407.776 66.0038 409.104L63.9466 408.809L65.6479 396.952L67.9308 397.282C67.8353 397.681 67.8961 398.08 68.1044 398.471C68.3127 398.853 68.6339 399.087 69.0853 399.156C69.337 399.183 69.6495 399.156 69.9967 399.061C71.5157 398.809 73.6684 398.427 76.4721 397.88C76.5155 397.846 76.5068 397.776 76.4547 397.646C73.2778 395.754 71.1338 394.73 70.0227 394.565C68.7902 394.391 68.1652 394.816 68.1391 395.832L65.8563 395.511L67.3058 385.372L69.5193 385.754C69.3891 385.919 69.3023 386.119 69.2676 386.345C69.1026 387.49 70.2571 388.723 72.7136 390.016C73.6684 390.494 77.1491 392.473 83.1731 395.945C87.0185 395.207 92.5651 394.053 99.7956 392.473C101.636 392.056 102.573 391.188 102.608 389.869L104.735 390.12ZM112.816 349.159L110.325 360.243L108.346 359.801C108.571 358.464 107.712 357.674 105.776 357.431L102.738 357.092C102.868 358.238 103.19 360.018 103.719 362.439L103.884 362.483C104.136 362.57 104.405 362.656 104.7 362.717C106.67 363.16 107.79 362.804 108.05 361.624L109.917 362.049L107.773 371.588L105.794 371.146C105.872 369.783 105.117 368.785 103.528 368.16C97.5301 365.816 93.19 364.141 90.5426 363.16C85.647 361.337 81.2896 359.801 77.4616 358.551C76.637 358.282 75.8645 358.299 75.1527 358.577C74.4322 358.863 74.0503 359.358 74.0069 360.078C72.8004 359.766 72.0712 359.627 71.8022 359.636L75.144 344.775L77.3488 345.218C77.0797 345.886 77.2099 346.494 77.7394 347.058C78.2602 347.622 78.9546 347.961 79.8226 348.074C84.397 348.681 93.6327 349.471 107.512 350.452C109.214 350.556 110.325 349.983 110.845 348.716L112.816 349.159ZM98.0075 356.606L84.0672 355.027L83.9544 355.287L98.6325 360.486L98.0075 356.606ZM104.874 315.089L97.669 306.965L94.9087 305.992C92.4436 305.098 90.9419 305.194 90.4211 306.279L88.3118 305.48L92.4783 294.431L94.5789 295.229C94.2056 296.21 94.223 297.052 94.6223 297.738C95.0302 298.432 95.8896 299.031 97.2176 299.534L120.793 308.406C122.121 308.909 123.163 309.031 123.926 308.779C124.682 308.527 125.246 307.902 125.61 306.921L127.72 307.711L123.579 318.709L121.427 317.893C121.739 316.738 120.671 315.688 118.215 314.768L106.228 310.254L113.771 318.44L116.626 319.455C117.468 319.777 118.154 319.994 118.692 320.115C119.23 320.228 119.647 320.263 119.96 320.193C120.263 320.132 120.489 319.994 120.645 319.794C120.802 319.594 120.958 319.299 121.097 318.917L123.206 319.707L119.066 330.705L116.904 329.889C117.382 328.075 116.444 326.712 114.057 325.818L90.7509 317.034C88.3292 316.131 86.706 316.556 85.8814 318.327L83.7721 317.537L87.9559 306.435L90.0565 307.225C89.9263 307.572 89.8482 307.885 89.8308 308.154C89.8048 308.432 89.9003 308.701 90.0999 308.952C90.2996 309.213 90.6381 309.465 91.1068 309.716C91.5668 309.977 92.2179 310.263 93.0598 310.584L104.874 315.089ZM86.298 305.263C85.5949 307.13 84.6488 308.492 83.4596 309.369C82.2704 310.237 81.1594 310.48 80.1525 310.098C79.6577 309.916 79.3105 309.586 79.1108 309.109C78.9025 308.631 78.9112 308.119 79.1195 307.555C79.4233 306.739 79.8313 306.305 80.3174 306.227C80.8035 306.149 81.3069 306.14 81.8277 306.192C82.3485 306.253 82.852 306.236 83.3554 306.14C83.8502 306.045 84.2669 305.541 84.6141 304.63C84.9699 303.684 84.996 302.989 84.7095 302.538C84.4144 302.086 84.0585 301.704 83.6419 301.383C83.2166 301.071 82.8433 300.732 82.5135 300.385C82.1836 300.038 82.1663 299.465 82.4787 298.658C82.6697 298.128 82.9995 297.746 83.4509 297.495C83.911 297.252 84.3797 297.217 84.8745 297.399C85.9508 297.816 86.6365 298.745 86.9056 300.212C87.1747 301.678 86.9664 303.319 86.272 305.142L86.298 305.263ZM115.889 261.863C117.451 262.748 119.222 263.798 121.21 265.014C123.189 266.22 125.15 267.531 127.095 268.937C129.039 270.343 130.862 271.827 132.572 273.399C134.282 274.978 135.662 276.584 136.73 278.216C137.346 279.171 137.815 280.152 138.127 281.15C138.448 282.148 138.587 283.146 138.544 284.127C138.5 285.117 138.231 286.098 137.745 287.07C137.259 288.042 136.513 288.997 135.506 289.934L130.593 285.594C131.686 284.882 132.19 284.014 132.103 282.99C132.016 281.975 131.548 280.881 130.706 279.709C129.742 278.381 128.414 277.036 126.739 275.647C125.072 274.267 123.345 272.965 121.583 271.758C119.821 270.534 118.154 269.466 116.609 268.572C115.055 267.67 113.91 267.027 113.172 266.654C111.01 265.291 109.422 265.317 108.406 266.724L106.549 265.673L116.817 247.584L118.675 248.643C118.05 250.266 118.849 251.629 121.079 252.714L143.023 265.178C144.004 265.734 144.924 265.977 145.783 265.908C146.833 265.803 147.597 265.291 148.083 264.363L150.036 265.474L143.622 276.766L141.625 275.629C142.433 273.815 141.773 272.331 139.611 271.194L117.668 258.729L115.889 261.863ZM165.287 228.652C165.713 228.956 166.268 229.503 166.945 230.302C169.662 233.73 169.619 237.437 166.806 241.421C163.994 245.396 160.539 246.672 156.416 245.231C155.418 244.893 154.706 244.572 154.272 244.268L136.99 232.012C134.62 230.293 133.31 228.279 133.058 225.97C132.806 223.661 133.527 221.309 135.211 218.922C136.903 216.535 138.839 215.103 141.044 214.651C143.257 214.183 145.549 214.799 147.944 216.483L165.287 228.652ZM160.921 233.965L143.978 222.012C143.387 221.595 142.736 221.448 141.998 221.543C141.261 221.639 140.67 222.003 140.245 222.611C139.811 223.219 139.655 223.913 139.776 224.686C139.898 225.458 140.245 226.048 140.827 226.465L157.779 238.418C158.387 238.852 159.072 239.016 159.836 238.912C160.6 238.808 161.182 238.461 161.598 237.879C162.032 237.272 162.18 236.569 162.041 235.787C161.911 235.006 161.538 234.39 160.921 233.965ZM192.578 194.739C197.768 199.617 198.072 204.461 193.498 209.261L185.295 217.984L183.698 216.483C184.8 215.363 184.592 214.026 183.064 212.481L164.02 194.565C162.145 192.803 160.531 192.491 159.185 193.645L157.71 192.257L166.025 183.411C167.388 181.971 169.098 181.05 171.155 180.677C174.132 180.13 176.979 181.129 179.679 183.672C182.379 186.215 183.481 188.854 182.977 191.571C186.241 190.72 189.444 191.779 192.578 194.739ZM174.271 188.923C172.579 187.335 171.268 187.031 170.339 188.021C169.471 188.941 169.679 190.017 170.955 191.215L175.539 195.529C176.745 193.055 176.32 190.859 174.271 188.923ZM186.172 199.904C183.967 197.821 182.379 196.996 181.406 197.421C181.068 198.437 180.738 199.34 180.417 200.112L186.024 205.39C187.118 206.423 188.047 206.527 188.819 205.702C189.67 204.808 189.661 203.749 188.802 202.525C188.585 202.213 187.708 201.345 186.172 199.904ZM224.495 168.082C228.783 173.386 228.296 178.091 223.045 182.196C220.884 183.88 218.445 184.583 215.736 184.297C213.011 184.028 210.841 182.83 209.2 180.738L197.473 165.721C195.746 163.508 194.878 161.303 194.878 159.116C194.878 156.546 196.041 154.35 198.376 152.536C199.166 151.911 200.095 151.33 201.145 150.791C201.918 150.427 202.751 150.132 203.654 149.897C204.296 149.741 204.747 149.55 205.016 149.342C205.424 149.021 205.936 148.309 206.553 147.207L208.523 147.814C207.976 149.003 208.046 149.976 208.723 150.722L214.287 157.935C213.601 159.185 212.638 161.06 211.396 163.543C211.188 163.282 210.589 162.518 209.591 161.242C208.601 159.975 208.098 159.324 208.072 159.289C206.388 157.137 204.938 156.529 203.732 157.475C202.577 158.378 202.846 159.906 204.53 162.058L214.946 175.391C215.641 176.276 216.439 176.867 217.342 177.136C218.236 177.405 218.991 177.283 219.582 176.762C220.536 175.973 220.736 174.983 220.189 173.794C220.059 173.516 219.53 172.761 218.583 171.554C217.516 170.2 216.275 168.933 214.842 167.77C215.398 166.72 216.448 164.68 217.993 161.668C218.67 162.241 219.373 162.831 220.102 163.456C221.752 164.966 223.227 166.503 224.495 168.082ZM267.392 150.757L257.601 157.163L256.429 155.244C257.167 154.541 257.262 153.76 256.707 152.909C256.568 152.692 256.377 152.475 256.16 152.267C255.231 151.477 252.523 149.003 248 144.837L248.547 148.639L251.75 153.543C253.278 155.809 254.667 156.486 255.899 155.583L257.141 157.467L246.967 164.116L245.709 162.18C247.245 160.956 247.306 159.281 245.909 157.145L232.289 136.304C230.892 134.169 229.329 133.553 227.593 134.464L226.361 132.581L236.534 125.94L237.758 127.824C236.43 128.605 236.473 130.055 237.862 132.19L243.617 140.992C243.357 139.23 243.096 137.45 242.818 135.662C242.471 133.344 241.968 130.975 241.343 128.57C241.178 128.049 241.004 127.65 240.822 127.372C240.345 126.643 239.641 126.591 238.704 127.208L237.471 125.333L246.204 119.682L247.28 121.331C247.02 121.548 246.794 121.808 246.594 122.121C246.178 122.789 246.021 123.545 246.117 124.378C246.386 126.843 247.002 130.897 247.957 136.539L262.67 148.682C263.937 149.646 265.083 149.698 266.133 148.838L267.392 150.757ZM286.349 120.107L287.018 109.266L285.75 106.618C284.674 104.231 283.546 103.242 282.382 103.65L281.454 101.601L292.217 96.7402L293.137 98.7887C291.21 99.5352 290.82 101.167 291.957 103.693L302.321 126.652C303.458 129.178 304.951 129.968 306.782 129.022L307.702 131.07L297 135.905L296.054 133.804C297.095 133.206 297.078 131.713 296.002 129.325L290.733 117.642L290.255 128.77L291.566 131.513C292.165 132.841 292.642 133.674 292.998 134.004C293.58 134.646 294.274 134.742 295.099 134.291L296.028 136.348L285.316 141.174L284.37 139.073C286.002 138.127 286.289 136.504 285.238 134.178L274.996 111.479C273.945 109.153 272.496 108.311 270.647 108.936L269.718 106.887L280.525 102.009L281.454 104.058C280.586 104.413 280.195 105.004 280.282 105.828C280.291 106.314 280.594 107.217 281.193 108.554L286.349 120.107ZM330.696 103.372L332.84 92.73L331.955 89.9437C331.182 87.4351 330.201 86.298 329.012 86.5237L328.387 84.371L339.706 81.0378L340.34 83.1905C339.333 83.4943 338.673 84.0064 338.369 84.7443C338.057 85.4734 338.1 86.5237 338.508 87.8951L345.617 112.052C346.025 113.423 346.555 114.326 347.214 114.778C347.866 115.229 348.707 115.298 349.714 115.003L350.348 117.165L339.073 120.48L338.43 118.276C339.55 117.824 339.732 116.34 338.994 113.831L335.375 101.54L333.378 112.495L334.298 115.385C334.559 116.253 334.793 116.93 335.01 117.434C335.245 117.937 335.479 118.276 335.705 118.484C335.939 118.692 336.191 118.796 336.442 118.805C336.703 118.805 337.024 118.744 337.423 118.623L338.057 120.784L326.781 124.109L326.13 121.895C327.875 121.184 328.387 119.612 327.675 117.165L320.636 93.2768C319.898 90.7943 318.579 89.7614 316.669 90.1693L316.035 88.008L327.415 84.6575L328.049 86.8188C327.684 86.923 327.398 87.0445 327.163 87.1921C326.929 87.3396 326.773 87.5653 326.695 87.8865C326.608 88.199 326.608 88.6243 326.686 89.1451C326.755 89.6746 326.929 90.369 327.181 91.2283L330.696 103.372ZM327.346 82.6263C325.436 83.1905 323.778 83.26 322.363 82.8346C320.948 82.4093 320.089 81.6802 319.777 80.6385C319.629 80.1264 319.69 79.6577 319.941 79.2063C320.211 78.755 320.627 78.4598 321.2 78.2862C322.025 78.0432 322.615 78.0866 322.971 78.4338C323.327 78.781 323.639 79.1716 323.908 79.623C324.177 80.0657 324.499 80.4649 324.872 80.8121C325.245 81.142 325.896 81.1767 326.833 80.899C327.806 80.6125 328.387 80.2219 328.57 79.7185C328.752 79.215 328.839 78.6942 328.839 78.1734C328.839 77.6352 328.882 77.1404 328.951 76.6717C329.03 76.203 329.49 75.8384 330.314 75.5954C330.852 75.4391 331.356 75.4652 331.825 75.6822C332.302 75.8905 332.614 76.2464 332.762 76.7585C333.092 77.8609 332.753 78.972 331.746 80.0657C330.74 81.168 329.299 81.984 327.432 82.5395L327.346 82.6263ZM625.795 274.562C619.884 281.948 614.424 287.391 608.461 294.752C603.426 300.967 593.531 310.333 590.45 316.443C599.494 311.053 605.136 304.864 613.209 299.092L609.094 311.305L613.365 311.27C609.251 336.156 576.466 364.991 553.576 373.376C547.596 375.564 526.703 384.096 523.534 384.07C524.385 377.213 567.221 314.829 573.931 300.029C548.229 333.821 507.589 400.137 487.208 439.458C467.895 476.696 450.317 522.397 444.328 564.999C439.155 601.777 445.673 592.186 448.98 613.001L423.791 613.4L312.112 317.468C309.525 385.876 311.201 481.826 311.148 552.257C311.148 558.802 311.296 564.305 311.756 568.94V613.192L264.232 613.27V567.76C265.491 555.434 264.484 537.396 264.232 511.235V278.624L328.075 278.607C332.467 295.802 371.918 395.112 381.675 421.69C399.478 470.186 417.732 515.974 434.632 565.303C440.951 552.118 446.125 520.748 439.137 506.018C430.231 487.243 424.624 475.082 421.812 453.034C422.237 453.598 423.339 455.36 423.99 456.228C424.181 456.48 424.468 456.897 424.685 457.166L428.287 461.176C426.82 453.295 424.329 450.465 425.136 441.837L445.387 481.861C443.668 465.186 429.12 441.828 438.695 424.685L441.741 433.695C443.469 433.912 440.717 428.773 443.963 436.533C445.908 441.177 445.942 445.161 449.441 449.918L450.404 433.747C452.835 393.723 447.47 400.094 467.704 370.746C475.255 359.801 497.85 333.535 506.131 327.268L506.643 355.356C508.353 347.206 509.785 340.322 510.983 330.618C512.458 318.674 516.312 316.4 523.517 311.956L524.064 328.092C538.091 302.668 516.668 301.01 554.844 273.407C561.059 268.911 565.676 265.326 572.152 261.316C584.512 253.651 595.076 246.742 608.096 239.815C625.474 230.553 646.862 211.066 670.385 212.169C653.372 236.057 656.54 239.876 625.795 274.562ZM459.692 530.878C460.048 520.366 464.44 504.811 473.085 499.716C482.85 493.961 493.518 489.378 502.867 483.771C505.714 489.942 500.107 483.284 502.363 489.178C505.393 486.045 509.915 483.475 514.151 481.557C506.174 506.018 481.974 518.838 459.692 530.878ZM557.847 381.814L567.395 379.713C563.697 390.12 535.166 437.575 527.614 447.965C517.866 461.367 516.495 469.084 503.509 477.634C497.867 481.349 474.891 495.272 468.303 496.079C471.436 482.113 512.649 394.782 522.267 389.817C529.107 386.301 555.425 377.309 562.569 375.894C560.755 379.479 560.512 378.932 557.847 381.814ZM593.236 613.2L563.645 613.244V562.925C565.025 546.328 563.315 520.774 563.42 481.574C563.463 466.349 561.475 415.788 564.097 404.677C564.982 400.953 590.884 357.431 593.757 354.541C593.757 357.179 593.748 360.651 593.731 364.792H593.236V454.753C593.166 475.125 593.14 495.697 593.236 513.708V613.2ZM452.661 67.2364C653.294 73.6597 813.989 238.305 813.989 440.5C813.989 642.704 653.294 807.349 452.661 813.764V792.966C641.819 786.56 793.2 631.22 793.2 440.5C793.2 249.78 641.819 94.4487 452.661 88.034V67.2364ZM440.509 24.5214C670.237 24.5214 856.487 210.763 856.487 440.5C856.487 670.237 670.237 856.487 440.509 856.487C210.754 856.487 24.5214 670.237 24.5214 440.5C24.5214 210.763 210.754 24.5214 440.509 24.5214Z" fill="#FEFEFE"/>
</svg>
